G04 #@! TF.GenerationSoftware,KiCad,Pcbnew,(5.1.4)-1*
G04 #@! TF.CreationDate,2019-11-22T12:20:50+01:00*
G04 #@! TF.ProjectId,PacketVis,5061636b-6574-4566-9973-2e6b69636164,A01*
G04 #@! TF.SameCoordinates,Original*
G04 #@! TF.FileFunction,Soldermask,Bot*
G04 #@! TF.FilePolarity,Negative*
%FSLAX46Y46*%
G04 Gerber Fmt 4.6, Leading zero omitted, Abs format (unit mm)*
G04 Created by KiCad (PCBNEW (5.1.4)-1) date 2019-11-22 12:20:50*
%MOMM*%
%LPD*%
G04 APERTURE LIST*
%ADD10C,0.100000*%
G04 APERTURE END LIST*
D10*
G36*
X184790442Y-98185518D02*
G01*
X184856627Y-98192037D01*
X185026466Y-98243557D01*
X185182991Y-98327222D01*
X185218729Y-98356552D01*
X185320186Y-98439814D01*
X185403448Y-98541271D01*
X185432778Y-98577009D01*
X185516443Y-98733534D01*
X185567963Y-98903373D01*
X185585359Y-99080000D01*
X185567963Y-99256627D01*
X185516443Y-99426466D01*
X185432778Y-99582991D01*
X185403448Y-99618729D01*
X185320186Y-99720186D01*
X185218729Y-99803448D01*
X185182991Y-99832778D01*
X185026466Y-99916443D01*
X184856627Y-99967963D01*
X184790442Y-99974482D01*
X184724260Y-99981000D01*
X184635740Y-99981000D01*
X184569558Y-99974482D01*
X184503373Y-99967963D01*
X184333534Y-99916443D01*
X184177009Y-99832778D01*
X184141271Y-99803448D01*
X184039814Y-99720186D01*
X183956552Y-99618729D01*
X183927222Y-99582991D01*
X183843557Y-99426466D01*
X183792037Y-99256627D01*
X183774641Y-99080000D01*
X183792037Y-98903373D01*
X183843557Y-98733534D01*
X183927222Y-98577009D01*
X183956552Y-98541271D01*
X184039814Y-98439814D01*
X184141271Y-98356552D01*
X184177009Y-98327222D01*
X184333534Y-98243557D01*
X184503373Y-98192037D01*
X184569557Y-98185519D01*
X184635740Y-98179000D01*
X184724260Y-98179000D01*
X184790442Y-98185518D01*
X184790442Y-98185518D01*
G37*
G36*
X184790443Y-95645519D02*
G01*
X184856627Y-95652037D01*
X185026466Y-95703557D01*
X185182991Y-95787222D01*
X185218729Y-95816552D01*
X185320186Y-95899814D01*
X185403448Y-96001271D01*
X185432778Y-96037009D01*
X185516443Y-96193534D01*
X185567963Y-96363373D01*
X185585359Y-96540000D01*
X185567963Y-96716627D01*
X185516443Y-96886466D01*
X185432778Y-97042991D01*
X185403448Y-97078729D01*
X185320186Y-97180186D01*
X185218729Y-97263448D01*
X185182991Y-97292778D01*
X185026466Y-97376443D01*
X184856627Y-97427963D01*
X184790443Y-97434481D01*
X184724260Y-97441000D01*
X184635740Y-97441000D01*
X184569557Y-97434481D01*
X184503373Y-97427963D01*
X184333534Y-97376443D01*
X184177009Y-97292778D01*
X184141271Y-97263448D01*
X184039814Y-97180186D01*
X183956552Y-97078729D01*
X183927222Y-97042991D01*
X183843557Y-96886466D01*
X183792037Y-96716627D01*
X183774641Y-96540000D01*
X183792037Y-96363373D01*
X183843557Y-96193534D01*
X183927222Y-96037009D01*
X183956552Y-96001271D01*
X184039814Y-95899814D01*
X184141271Y-95816552D01*
X184177009Y-95787222D01*
X184333534Y-95703557D01*
X184503373Y-95652037D01*
X184569557Y-95645519D01*
X184635740Y-95639000D01*
X184724260Y-95639000D01*
X184790443Y-95645519D01*
X184790443Y-95645519D01*
G37*
G36*
X185581000Y-94901000D02*
G01*
X183779000Y-94901000D01*
X183779000Y-93099000D01*
X185581000Y-93099000D01*
X185581000Y-94901000D01*
X185581000Y-94901000D01*
G37*
G36*
X184056355Y-88352140D02*
G01*
X184120118Y-88358420D01*
X184210904Y-88385960D01*
X184242836Y-88395646D01*
X184355925Y-88456094D01*
X184455054Y-88537446D01*
X184536406Y-88636575D01*
X184596854Y-88749664D01*
X184596855Y-88749668D01*
X184634080Y-88872382D01*
X184646649Y-89000000D01*
X184634080Y-89127618D01*
X184606540Y-89218404D01*
X184596854Y-89250336D01*
X184536406Y-89363425D01*
X184455054Y-89462554D01*
X184355925Y-89543906D01*
X184242836Y-89604354D01*
X184210904Y-89614040D01*
X184120118Y-89641580D01*
X184056355Y-89647860D01*
X184024474Y-89651000D01*
X183260526Y-89651000D01*
X183228645Y-89647860D01*
X183164882Y-89641580D01*
X183074096Y-89614040D01*
X183042164Y-89604354D01*
X182929075Y-89543906D01*
X182829946Y-89462554D01*
X182748594Y-89363425D01*
X182688146Y-89250336D01*
X182678460Y-89218404D01*
X182650920Y-89127618D01*
X182638351Y-89000000D01*
X182650920Y-88872382D01*
X182688145Y-88749668D01*
X182688146Y-88749664D01*
X182748594Y-88636575D01*
X182829946Y-88537446D01*
X182929075Y-88456094D01*
X183042164Y-88395646D01*
X183074096Y-88385960D01*
X183164882Y-88358420D01*
X183228645Y-88352140D01*
X183260526Y-88349000D01*
X184024474Y-88349000D01*
X184056355Y-88352140D01*
X184056355Y-88352140D01*
G37*
G36*
X186568848Y-87253820D02*
G01*
X186568850Y-87253821D01*
X186568851Y-87253821D01*
X186710074Y-87312317D01*
X186710077Y-87312319D01*
X186837169Y-87397239D01*
X186945261Y-87505331D01*
X187030181Y-87632423D01*
X187030183Y-87632426D01*
X187088679Y-87773649D01*
X187118500Y-87923571D01*
X187118500Y-88076429D01*
X187088679Y-88226351D01*
X187030183Y-88367574D01*
X187030181Y-88367577D01*
X186945261Y-88494669D01*
X186837169Y-88602761D01*
X186710077Y-88687681D01*
X186710074Y-88687683D01*
X186568851Y-88746179D01*
X186568850Y-88746179D01*
X186568848Y-88746180D01*
X186418931Y-88776000D01*
X186266069Y-88776000D01*
X186116152Y-88746180D01*
X186116150Y-88746179D01*
X186116149Y-88746179D01*
X185974926Y-88687683D01*
X185974923Y-88687681D01*
X185847831Y-88602761D01*
X185739739Y-88494669D01*
X185654819Y-88367577D01*
X185654817Y-88367574D01*
X185596321Y-88226351D01*
X185566500Y-88076429D01*
X185566500Y-87923571D01*
X185596321Y-87773649D01*
X185654817Y-87632426D01*
X185654819Y-87632423D01*
X185739739Y-87505331D01*
X185847831Y-87397239D01*
X185974923Y-87312319D01*
X185974926Y-87312317D01*
X186116149Y-87253821D01*
X186116150Y-87253821D01*
X186116152Y-87253820D01*
X186266069Y-87224000D01*
X186418931Y-87224000D01*
X186568848Y-87253820D01*
X186568848Y-87253820D01*
G37*
G36*
X186568848Y-82253820D02*
G01*
X186568850Y-82253821D01*
X186568851Y-82253821D01*
X186710074Y-82312317D01*
X186710077Y-82312319D01*
X186837169Y-82397239D01*
X186945261Y-82505331D01*
X187030181Y-82632423D01*
X187030183Y-82632426D01*
X187088679Y-82773649D01*
X187118500Y-82923571D01*
X187118500Y-83076429D01*
X187088679Y-83226351D01*
X187030183Y-83367574D01*
X187030181Y-83367577D01*
X186945261Y-83494669D01*
X186837169Y-83602761D01*
X186710077Y-83687681D01*
X186710074Y-83687683D01*
X186568851Y-83746179D01*
X186568850Y-83746179D01*
X186568848Y-83746180D01*
X186418931Y-83776000D01*
X186266069Y-83776000D01*
X186116152Y-83746180D01*
X186116150Y-83746179D01*
X186116149Y-83746179D01*
X185974926Y-83687683D01*
X185974923Y-83687681D01*
X185847831Y-83602761D01*
X185739739Y-83494669D01*
X185654819Y-83367577D01*
X185654817Y-83367574D01*
X185596321Y-83226351D01*
X185566500Y-83076429D01*
X185566500Y-82923571D01*
X185596321Y-82773649D01*
X185654817Y-82632426D01*
X185654819Y-82632423D01*
X185739739Y-82505331D01*
X185847831Y-82397239D01*
X185974923Y-82312319D01*
X185974926Y-82312317D01*
X186116149Y-82253821D01*
X186116150Y-82253821D01*
X186116152Y-82253820D01*
X186266069Y-82224000D01*
X186418931Y-82224000D01*
X186568848Y-82253820D01*
X186568848Y-82253820D01*
G37*
G36*
X184056355Y-81352140D02*
G01*
X184120118Y-81358420D01*
X184210904Y-81385960D01*
X184242836Y-81395646D01*
X184355925Y-81456094D01*
X184455054Y-81537446D01*
X184536406Y-81636575D01*
X184596854Y-81749664D01*
X184596855Y-81749668D01*
X184634080Y-81872382D01*
X184646649Y-82000000D01*
X184634080Y-82127618D01*
X184606540Y-82218404D01*
X184596854Y-82250336D01*
X184536406Y-82363425D01*
X184455054Y-82462554D01*
X184355925Y-82543906D01*
X184242836Y-82604354D01*
X184210904Y-82614040D01*
X184120118Y-82641580D01*
X184056355Y-82647860D01*
X184024474Y-82651000D01*
X183260526Y-82651000D01*
X183228645Y-82647860D01*
X183164882Y-82641580D01*
X183074096Y-82614040D01*
X183042164Y-82604354D01*
X182929075Y-82543906D01*
X182829946Y-82462554D01*
X182748594Y-82363425D01*
X182688146Y-82250336D01*
X182678460Y-82218404D01*
X182650920Y-82127618D01*
X182638351Y-82000000D01*
X182650920Y-81872382D01*
X182688145Y-81749668D01*
X182688146Y-81749664D01*
X182748594Y-81636575D01*
X182829946Y-81537446D01*
X182929075Y-81456094D01*
X183042164Y-81395646D01*
X183074096Y-81385960D01*
X183164882Y-81358420D01*
X183228645Y-81352140D01*
X183260526Y-81349000D01*
X184024474Y-81349000D01*
X184056355Y-81352140D01*
X184056355Y-81352140D01*
G37*
M02*
