M48
; DRILL file {KiCad (5.1.4)-1} date 11/22/2019 12:20:47
; FORMAT={-:-/ absolute / inch / decimal}
; #@! TF.CreationDate,2019-11-22T12:20:47+01:00
; #@! TF.GenerationSoftware,Kicad,Pcbnew,(5.1.4)-1
; #@! TF.FileFunction,Plated,1,2,PTH
FMAT,2
INCH
T1C0.0157
T2C0.0236
T3C0.0335
T4C0.0394
T5C0.1260
%
G90
G05
T1
X7.5957Y-3.6811
X7.6055Y-3.4744
X7.6252Y-4.2717
X7.6646Y-4.2717
X7.6843Y-3.248
X7.7039Y-4.2717
X7.7433Y-4.2717
X7.7827Y-4.2717
X7.822Y-4.2717
X7.9598Y-3.3268
X7.9598Y-4.2717
X8.0189Y-3.4449
X8.078Y-3.6417
X8.1173Y-3.5039
X8.2118Y-3.9803
X8.3732Y-3.3858
X8.4323Y-3.6417
X8.4717Y-3.6024
X8.6291Y-3.5039
X8.6724Y-3.7638
X8.6882Y-3.3268
X8.6882Y-3.3768
X8.6882Y-3.4268
X8.6882Y-3.4768
X8.6882Y-3.5268
X8.6882Y-3.5768
X8.6882Y-3.6268
X8.826Y-3.7598
X8.8654Y-3.7992
X8.885Y-4.2913
X8.9047Y-3.7795
X8.9441Y-3.7598
X9.0031Y-3.2283
X9.0425Y-3.3661
X9.3969Y-3.3071
X9.3969Y-3.4055
X9.3969Y-3.5039
X9.3969Y-3.6024
X9.3969Y-3.7008
X9.3969Y-3.7992
X9.3969Y-3.8976
X9.3969Y-3.9961
T2
X8.3535Y-3.0906
X8.5504Y-3.0906
T3
X7.3363Y-3.2677
X7.3363Y-3.4646
T4
X7.2709Y-3.7008
X7.2709Y-3.8008
X7.2709Y-3.9008
T5
X7.3693Y-3.1102
X9.2787Y-3.1102
T2
G00X7.2162Y-3.2283
M15
G01X7.2438Y-3.2283
M16
G05
G00X7.2438Y-3.5039
M15
G01X7.2162Y-3.5039
M16
G05
T0
M30
