G04 #@! TF.GenerationSoftware,KiCad,Pcbnew,(5.1.6)-1*
G04 #@! TF.CreationDate,2020-08-22T22:27:04+02:00*
G04 #@! TF.ProjectId,PacketVis,5061636b-6574-4566-9973-2e6b69636164,A01*
G04 #@! TF.SameCoordinates,Original*
G04 #@! TF.FileFunction,Soldermask,Top*
G04 #@! TF.FilePolarity,Negative*
%FSLAX46Y46*%
G04 Gerber Fmt 4.6, Leading zero omitted, Abs format (unit mm)*
G04 Created by KiCad (PCBNEW (5.1.6)-1) date 2020-08-22 22:27:04*
%MOMM*%
%LPD*%
G01*
G04 APERTURE LIST*
%ADD10C,0.150000*%
%ADD11C,2.000000*%
%ADD12C,0.100000*%
G04 APERTURE END LIST*
D10*
X212601428Y-116065476D02*
X212601428Y-114815476D01*
X213115714Y-114815476D01*
X213244285Y-114875000D01*
X213308571Y-114934523D01*
X213372857Y-115053571D01*
X213372857Y-115232142D01*
X213308571Y-115351190D01*
X213244285Y-115410714D01*
X213115714Y-115470238D01*
X212601428Y-115470238D01*
X214530000Y-116065476D02*
X214530000Y-115410714D01*
X214465714Y-115291666D01*
X214337142Y-115232142D01*
X214080000Y-115232142D01*
X213951428Y-115291666D01*
X214530000Y-116005952D02*
X214401428Y-116065476D01*
X214080000Y-116065476D01*
X213951428Y-116005952D01*
X213887142Y-115886904D01*
X213887142Y-115767857D01*
X213951428Y-115648809D01*
X214080000Y-115589285D01*
X214401428Y-115589285D01*
X214530000Y-115529761D01*
X215751428Y-116005952D02*
X215622857Y-116065476D01*
X215365714Y-116065476D01*
X215237142Y-116005952D01*
X215172857Y-115946428D01*
X215108571Y-115827380D01*
X215108571Y-115470238D01*
X215172857Y-115351190D01*
X215237142Y-115291666D01*
X215365714Y-115232142D01*
X215622857Y-115232142D01*
X215751428Y-115291666D01*
X216330000Y-116065476D02*
X216330000Y-114815476D01*
X216458571Y-115589285D02*
X216844285Y-116065476D01*
X216844285Y-115232142D02*
X216330000Y-115708333D01*
X217937142Y-116005952D02*
X217808571Y-116065476D01*
X217551428Y-116065476D01*
X217422857Y-116005952D01*
X217358571Y-115886904D01*
X217358571Y-115410714D01*
X217422857Y-115291666D01*
X217551428Y-115232142D01*
X217808571Y-115232142D01*
X217937142Y-115291666D01*
X218001428Y-115410714D01*
X218001428Y-115529761D01*
X217358571Y-115648809D01*
X218387142Y-115232142D02*
X218901428Y-115232142D01*
X218580000Y-114815476D02*
X218580000Y-115886904D01*
X218644285Y-116005952D01*
X218772857Y-116065476D01*
X218901428Y-116065476D01*
X219158571Y-114815476D02*
X219608571Y-116065476D01*
X220058571Y-114815476D01*
X220508571Y-116065476D02*
X220508571Y-115232142D01*
X220508571Y-114815476D02*
X220444285Y-114875000D01*
X220508571Y-114934523D01*
X220572857Y-114875000D01*
X220508571Y-114815476D01*
X220508571Y-114934523D01*
X221087142Y-116005952D02*
X221215714Y-116065476D01*
X221472857Y-116065476D01*
X221601428Y-116005952D01*
X221665714Y-115886904D01*
X221665714Y-115827380D01*
X221601428Y-115708333D01*
X221472857Y-115648809D01*
X221280000Y-115648809D01*
X221151428Y-115589285D01*
X221087142Y-115470238D01*
X221087142Y-115410714D01*
X221151428Y-115291666D01*
X221280000Y-115232142D01*
X221472857Y-115232142D01*
X221601428Y-115291666D01*
X224044285Y-116065476D02*
X223594285Y-115470238D01*
X223272857Y-116065476D02*
X223272857Y-114815476D01*
X223787142Y-114815476D01*
X223915714Y-114875000D01*
X223980000Y-114934523D01*
X224044285Y-115053571D01*
X224044285Y-115232142D01*
X223980000Y-115351190D01*
X223915714Y-115410714D01*
X223787142Y-115470238D01*
X223272857Y-115470238D01*
X224622857Y-115410714D02*
X225072857Y-115410714D01*
X225265714Y-116065476D02*
X224622857Y-116065476D01*
X224622857Y-114815476D01*
X225265714Y-114815476D01*
X225651428Y-114815476D02*
X226101428Y-116065476D01*
X226551428Y-114815476D01*
X227001428Y-115946428D02*
X227065714Y-116005952D01*
X227001428Y-116065476D01*
X226937142Y-116005952D01*
X227001428Y-115946428D01*
X227001428Y-116065476D01*
X227001428Y-115291666D02*
X227065714Y-115351190D01*
X227001428Y-115410714D01*
X226937142Y-115351190D01*
X227001428Y-115291666D01*
X227001428Y-115410714D01*
X228608571Y-115708333D02*
X229251428Y-115708333D01*
X228480000Y-116065476D02*
X228930000Y-114815476D01*
X229380000Y-116065476D01*
X230087142Y-114815476D02*
X230215714Y-114815476D01*
X230344285Y-114875000D01*
X230408571Y-114934523D01*
X230472857Y-115053571D01*
X230537142Y-115291666D01*
X230537142Y-115589285D01*
X230472857Y-115827380D01*
X230408571Y-115946428D01*
X230344285Y-116005952D01*
X230215714Y-116065476D01*
X230087142Y-116065476D01*
X229958571Y-116005952D01*
X229894285Y-115946428D01*
X229830000Y-115827380D01*
X229765714Y-115589285D01*
X229765714Y-115291666D01*
X229830000Y-115053571D01*
X229894285Y-114934523D01*
X229958571Y-114875000D01*
X230087142Y-114815476D01*
X231051428Y-114934523D02*
X231115714Y-114875000D01*
X231244285Y-114815476D01*
X231565714Y-114815476D01*
X231694285Y-114875000D01*
X231758571Y-114934523D01*
X231822857Y-115053571D01*
X231822857Y-115172619D01*
X231758571Y-115351190D01*
X230987142Y-116065476D01*
X231822857Y-116065476D01*
D11*
X188180000Y-79000000D02*
G75*
G03*
X188180000Y-79000000I-1000000J0D01*
G01*
X236680000Y-79000000D02*
G75*
G03*
X236680000Y-79000000I-1000000J0D01*
G01*
D12*
G36*
X198131000Y-112701000D02*
G01*
X194229000Y-112701000D01*
X194229000Y-110599000D01*
X198131000Y-110599000D01*
X198131000Y-112701000D01*
G37*
G36*
X214231000Y-111101000D02*
G01*
X211729000Y-111101000D01*
X211729000Y-108899000D01*
X214231000Y-108899000D01*
X214231000Y-111101000D01*
G37*
G36*
X206431000Y-111101000D02*
G01*
X203929000Y-111101000D01*
X203929000Y-108899000D01*
X206431000Y-108899000D01*
X206431000Y-111101000D01*
G37*
G36*
X230851000Y-109701000D02*
G01*
X229199000Y-109701000D01*
X229199000Y-108299000D01*
X230851000Y-108299000D01*
X230851000Y-109701000D01*
G37*
G36*
X238801000Y-109701000D02*
G01*
X237149000Y-109701000D01*
X237149000Y-108299000D01*
X238801000Y-108299000D01*
X238801000Y-109701000D01*
G37*
G36*
X228264468Y-107153565D02*
G01*
X228303138Y-107165296D01*
X228338777Y-107184346D01*
X228370017Y-107209983D01*
X228395654Y-107241223D01*
X228414704Y-107276862D01*
X228426435Y-107315532D01*
X228431000Y-107361888D01*
X228431000Y-108013112D01*
X228426435Y-108059468D01*
X228414704Y-108098138D01*
X228395654Y-108133777D01*
X228370017Y-108165017D01*
X228338777Y-108190654D01*
X228303138Y-108209704D01*
X228264468Y-108221435D01*
X228218112Y-108226000D01*
X227141888Y-108226000D01*
X227095532Y-108221435D01*
X227056862Y-108209704D01*
X227021223Y-108190654D01*
X226989983Y-108165017D01*
X226964346Y-108133777D01*
X226945296Y-108098138D01*
X226933565Y-108059468D01*
X226929000Y-108013112D01*
X226929000Y-107361888D01*
X226933565Y-107315532D01*
X226945296Y-107276862D01*
X226964346Y-107241223D01*
X226989983Y-107209983D01*
X227021223Y-107184346D01*
X227056862Y-107165296D01*
X227095532Y-107153565D01*
X227141888Y-107149000D01*
X228218112Y-107149000D01*
X228264468Y-107153565D01*
G37*
G36*
X214231000Y-106601000D02*
G01*
X211729000Y-106601000D01*
X211729000Y-104399000D01*
X214231000Y-104399000D01*
X214231000Y-106601000D01*
G37*
G36*
X206431000Y-106601000D02*
G01*
X203929000Y-106601000D01*
X203929000Y-104399000D01*
X206431000Y-104399000D01*
X206431000Y-106601000D01*
G37*
G36*
X196981000Y-106401000D02*
G01*
X195379000Y-106401000D01*
X195379000Y-104299000D01*
X196981000Y-104299000D01*
X196981000Y-106401000D01*
G37*
G36*
X194681000Y-106401000D02*
G01*
X193079000Y-106401000D01*
X193079000Y-104299000D01*
X194681000Y-104299000D01*
X194681000Y-106401000D01*
G37*
G36*
X199281000Y-106401000D02*
G01*
X197679000Y-106401000D01*
X197679000Y-104299000D01*
X199281000Y-104299000D01*
X199281000Y-106401000D01*
G37*
G36*
X228264468Y-105278565D02*
G01*
X228303138Y-105290296D01*
X228338777Y-105309346D01*
X228370017Y-105334983D01*
X228395654Y-105366223D01*
X228414704Y-105401862D01*
X228426435Y-105440532D01*
X228431000Y-105486888D01*
X228431000Y-106138112D01*
X228426435Y-106184468D01*
X228414704Y-106223138D01*
X228395654Y-106258777D01*
X228370017Y-106290017D01*
X228338777Y-106315654D01*
X228303138Y-106334704D01*
X228264468Y-106346435D01*
X228218112Y-106351000D01*
X227141888Y-106351000D01*
X227095532Y-106346435D01*
X227056862Y-106334704D01*
X227021223Y-106315654D01*
X226989983Y-106290017D01*
X226964346Y-106258777D01*
X226945296Y-106223138D01*
X226933565Y-106184468D01*
X226929000Y-106138112D01*
X226929000Y-105486888D01*
X226933565Y-105440532D01*
X226945296Y-105401862D01*
X226964346Y-105366223D01*
X226989983Y-105334983D01*
X227021223Y-105309346D01*
X227056862Y-105290296D01*
X227095532Y-105278565D01*
X227141888Y-105274000D01*
X228218112Y-105274000D01*
X228264468Y-105278565D01*
G37*
G36*
X238801000Y-105201000D02*
G01*
X237149000Y-105201000D01*
X237149000Y-103799000D01*
X238801000Y-103799000D01*
X238801000Y-105201000D01*
G37*
G36*
X230851000Y-105201000D02*
G01*
X229199000Y-105201000D01*
X229199000Y-103799000D01*
X230851000Y-103799000D01*
X230851000Y-105201000D01*
G37*
G36*
X192114468Y-101753565D02*
G01*
X192153138Y-101765296D01*
X192188777Y-101784346D01*
X192220017Y-101809983D01*
X192245654Y-101841223D01*
X192264704Y-101876862D01*
X192276435Y-101915532D01*
X192281000Y-101961888D01*
X192281000Y-103038112D01*
X192276435Y-103084468D01*
X192264704Y-103123138D01*
X192245654Y-103158777D01*
X192220017Y-103190017D01*
X192188777Y-103215654D01*
X192153138Y-103234704D01*
X192114468Y-103246435D01*
X192068112Y-103251000D01*
X191416888Y-103251000D01*
X191370532Y-103246435D01*
X191331862Y-103234704D01*
X191296223Y-103215654D01*
X191264983Y-103190017D01*
X191239346Y-103158777D01*
X191220296Y-103123138D01*
X191208565Y-103084468D01*
X191204000Y-103038112D01*
X191204000Y-101961888D01*
X191208565Y-101915532D01*
X191220296Y-101876862D01*
X191239346Y-101841223D01*
X191264983Y-101809983D01*
X191296223Y-101784346D01*
X191331862Y-101765296D01*
X191370532Y-101753565D01*
X191416888Y-101749000D01*
X192068112Y-101749000D01*
X192114468Y-101753565D01*
G37*
G36*
X198551968Y-101753565D02*
G01*
X198590638Y-101765296D01*
X198626277Y-101784346D01*
X198657517Y-101809983D01*
X198683154Y-101841223D01*
X198702204Y-101876862D01*
X198713935Y-101915532D01*
X198718500Y-101961888D01*
X198718500Y-103038112D01*
X198713935Y-103084468D01*
X198702204Y-103123138D01*
X198683154Y-103158777D01*
X198657517Y-103190017D01*
X198626277Y-103215654D01*
X198590638Y-103234704D01*
X198551968Y-103246435D01*
X198505612Y-103251000D01*
X197854388Y-103251000D01*
X197808032Y-103246435D01*
X197769362Y-103234704D01*
X197733723Y-103215654D01*
X197702483Y-103190017D01*
X197676846Y-103158777D01*
X197657796Y-103123138D01*
X197646065Y-103084468D01*
X197641500Y-103038112D01*
X197641500Y-101961888D01*
X197646065Y-101915532D01*
X197657796Y-101876862D01*
X197676846Y-101841223D01*
X197702483Y-101809983D01*
X197733723Y-101784346D01*
X197769362Y-101765296D01*
X197808032Y-101753565D01*
X197854388Y-101749000D01*
X198505612Y-101749000D01*
X198551968Y-101753565D01*
G37*
G36*
X196676968Y-101753565D02*
G01*
X196715638Y-101765296D01*
X196751277Y-101784346D01*
X196782517Y-101809983D01*
X196808154Y-101841223D01*
X196827204Y-101876862D01*
X196838935Y-101915532D01*
X196843500Y-101961888D01*
X196843500Y-103038112D01*
X196838935Y-103084468D01*
X196827204Y-103123138D01*
X196808154Y-103158777D01*
X196782517Y-103190017D01*
X196751277Y-103215654D01*
X196715638Y-103234704D01*
X196676968Y-103246435D01*
X196630612Y-103251000D01*
X195979388Y-103251000D01*
X195933032Y-103246435D01*
X195894362Y-103234704D01*
X195858723Y-103215654D01*
X195827483Y-103190017D01*
X195801846Y-103158777D01*
X195782796Y-103123138D01*
X195771065Y-103084468D01*
X195766500Y-103038112D01*
X195766500Y-101961888D01*
X195771065Y-101915532D01*
X195782796Y-101876862D01*
X195801846Y-101841223D01*
X195827483Y-101809983D01*
X195858723Y-101784346D01*
X195894362Y-101765296D01*
X195933032Y-101753565D01*
X195979388Y-101749000D01*
X196630612Y-101749000D01*
X196676968Y-101753565D01*
G37*
G36*
X193989468Y-101753565D02*
G01*
X194028138Y-101765296D01*
X194063777Y-101784346D01*
X194095017Y-101809983D01*
X194120654Y-101841223D01*
X194139704Y-101876862D01*
X194151435Y-101915532D01*
X194156000Y-101961888D01*
X194156000Y-103038112D01*
X194151435Y-103084468D01*
X194139704Y-103123138D01*
X194120654Y-103158777D01*
X194095017Y-103190017D01*
X194063777Y-103215654D01*
X194028138Y-103234704D01*
X193989468Y-103246435D01*
X193943112Y-103251000D01*
X193291888Y-103251000D01*
X193245532Y-103246435D01*
X193206862Y-103234704D01*
X193171223Y-103215654D01*
X193139983Y-103190017D01*
X193114346Y-103158777D01*
X193095296Y-103123138D01*
X193083565Y-103084468D01*
X193079000Y-103038112D01*
X193079000Y-101961888D01*
X193083565Y-101915532D01*
X193095296Y-101876862D01*
X193114346Y-101841223D01*
X193139983Y-101809983D01*
X193171223Y-101784346D01*
X193206862Y-101765296D01*
X193245532Y-101753565D01*
X193291888Y-101749000D01*
X193943112Y-101749000D01*
X193989468Y-101753565D01*
G37*
G36*
X184793512Y-100723927D02*
G01*
X184942812Y-100753624D01*
X185106784Y-100821544D01*
X185254354Y-100920147D01*
X185379853Y-101045646D01*
X185478456Y-101193216D01*
X185546376Y-101357188D01*
X185581000Y-101531259D01*
X185581000Y-101708741D01*
X185546376Y-101882812D01*
X185478456Y-102046784D01*
X185379853Y-102194354D01*
X185254354Y-102319853D01*
X185106784Y-102418456D01*
X184942812Y-102486376D01*
X184793512Y-102516073D01*
X184768742Y-102521000D01*
X184591258Y-102521000D01*
X184566488Y-102516073D01*
X184417188Y-102486376D01*
X184253216Y-102418456D01*
X184105646Y-102319853D01*
X183980147Y-102194354D01*
X183881544Y-102046784D01*
X183813624Y-101882812D01*
X183779000Y-101708741D01*
X183779000Y-101531259D01*
X183813624Y-101357188D01*
X183881544Y-101193216D01*
X183980147Y-101045646D01*
X184105646Y-100920147D01*
X184253216Y-100821544D01*
X184417188Y-100753624D01*
X184566488Y-100723927D01*
X184591258Y-100719000D01*
X184768742Y-100719000D01*
X184793512Y-100723927D01*
G37*
G36*
X230944468Y-100753565D02*
G01*
X230983138Y-100765296D01*
X231018777Y-100784346D01*
X231050017Y-100809983D01*
X231075654Y-100841223D01*
X231094704Y-100876862D01*
X231106435Y-100915532D01*
X231111000Y-100961888D01*
X231111000Y-102038112D01*
X231106435Y-102084468D01*
X231094704Y-102123138D01*
X231075654Y-102158777D01*
X231050017Y-102190017D01*
X231018777Y-102215654D01*
X230983138Y-102234704D01*
X230944468Y-102246435D01*
X230898112Y-102251000D01*
X230246888Y-102251000D01*
X230200532Y-102246435D01*
X230161862Y-102234704D01*
X230126223Y-102215654D01*
X230094983Y-102190017D01*
X230069346Y-102158777D01*
X230050296Y-102123138D01*
X230038565Y-102084468D01*
X230034000Y-102038112D01*
X230034000Y-100961888D01*
X230038565Y-100915532D01*
X230050296Y-100876862D01*
X230069346Y-100841223D01*
X230094983Y-100809983D01*
X230126223Y-100784346D01*
X230161862Y-100765296D01*
X230200532Y-100753565D01*
X230246888Y-100749000D01*
X230898112Y-100749000D01*
X230944468Y-100753565D01*
G37*
G36*
X232819468Y-100753565D02*
G01*
X232858138Y-100765296D01*
X232893777Y-100784346D01*
X232925017Y-100809983D01*
X232950654Y-100841223D01*
X232969704Y-100876862D01*
X232981435Y-100915532D01*
X232986000Y-100961888D01*
X232986000Y-102038112D01*
X232981435Y-102084468D01*
X232969704Y-102123138D01*
X232950654Y-102158777D01*
X232925017Y-102190017D01*
X232893777Y-102215654D01*
X232858138Y-102234704D01*
X232819468Y-102246435D01*
X232773112Y-102251000D01*
X232121888Y-102251000D01*
X232075532Y-102246435D01*
X232036862Y-102234704D01*
X232001223Y-102215654D01*
X231969983Y-102190017D01*
X231944346Y-102158777D01*
X231925296Y-102123138D01*
X231913565Y-102084468D01*
X231909000Y-102038112D01*
X231909000Y-100961888D01*
X231913565Y-100915532D01*
X231925296Y-100876862D01*
X231944346Y-100841223D01*
X231969983Y-100809983D01*
X232001223Y-100784346D01*
X232036862Y-100765296D01*
X232075532Y-100753565D01*
X232121888Y-100749000D01*
X232773112Y-100749000D01*
X232819468Y-100753565D01*
G37*
G36*
X235275781Y-100803295D02*
G01*
X235311816Y-100814227D01*
X235345024Y-100831977D01*
X235374134Y-100855866D01*
X235398023Y-100884976D01*
X235415773Y-100918184D01*
X235426705Y-100954219D01*
X235431000Y-100997831D01*
X235431000Y-102002169D01*
X235426705Y-102045781D01*
X235415773Y-102081816D01*
X235398023Y-102115024D01*
X235374134Y-102144134D01*
X235345024Y-102168023D01*
X235311816Y-102185773D01*
X235275781Y-102196705D01*
X235232169Y-102201000D01*
X234202831Y-102201000D01*
X234159219Y-102196705D01*
X234123184Y-102185773D01*
X234089976Y-102168023D01*
X234060866Y-102144134D01*
X234036977Y-102115024D01*
X234019227Y-102081816D01*
X234008295Y-102045781D01*
X234004000Y-102002169D01*
X234004000Y-100997831D01*
X234008295Y-100954219D01*
X234019227Y-100918184D01*
X234036977Y-100884976D01*
X234060866Y-100855866D01*
X234089976Y-100831977D01*
X234123184Y-100814227D01*
X234159219Y-100803295D01*
X234202831Y-100799000D01*
X235232169Y-100799000D01*
X235275781Y-100803295D01*
G37*
G36*
X237200781Y-100803295D02*
G01*
X237236816Y-100814227D01*
X237270024Y-100831977D01*
X237299134Y-100855866D01*
X237323023Y-100884976D01*
X237340773Y-100918184D01*
X237351705Y-100954219D01*
X237356000Y-100997831D01*
X237356000Y-102002169D01*
X237351705Y-102045781D01*
X237340773Y-102081816D01*
X237323023Y-102115024D01*
X237299134Y-102144134D01*
X237270024Y-102168023D01*
X237236816Y-102185773D01*
X237200781Y-102196705D01*
X237157169Y-102201000D01*
X236127831Y-102201000D01*
X236084219Y-102196705D01*
X236048184Y-102185773D01*
X236014976Y-102168023D01*
X235985866Y-102144134D01*
X235961977Y-102115024D01*
X235944227Y-102081816D01*
X235933295Y-102045781D01*
X235929000Y-102002169D01*
X235929000Y-100997831D01*
X235933295Y-100954219D01*
X235944227Y-100918184D01*
X235961977Y-100884976D01*
X235985866Y-100855866D01*
X236014976Y-100831977D01*
X236048184Y-100814227D01*
X236084219Y-100803295D01*
X236127831Y-100799000D01*
X237157169Y-100799000D01*
X237200781Y-100803295D01*
G37*
G36*
X205564468Y-100383565D02*
G01*
X205603138Y-100395296D01*
X205638777Y-100414346D01*
X205670017Y-100439983D01*
X205695654Y-100471223D01*
X205714704Y-100506862D01*
X205726435Y-100545532D01*
X205731000Y-100591888D01*
X205731000Y-101668112D01*
X205726435Y-101714468D01*
X205714704Y-101753138D01*
X205695654Y-101788777D01*
X205670017Y-101820017D01*
X205638777Y-101845654D01*
X205603138Y-101864704D01*
X205564468Y-101876435D01*
X205518112Y-101881000D01*
X204866888Y-101881000D01*
X204820532Y-101876435D01*
X204781862Y-101864704D01*
X204746223Y-101845654D01*
X204714983Y-101820017D01*
X204689346Y-101788777D01*
X204670296Y-101753138D01*
X204658565Y-101714468D01*
X204654000Y-101668112D01*
X204654000Y-100591888D01*
X204658565Y-100545532D01*
X204670296Y-100506862D01*
X204689346Y-100471223D01*
X204714983Y-100439983D01*
X204746223Y-100414346D01*
X204781862Y-100395296D01*
X204820532Y-100383565D01*
X204866888Y-100379000D01*
X205518112Y-100379000D01*
X205564468Y-100383565D01*
G37*
G36*
X207439468Y-100383565D02*
G01*
X207478138Y-100395296D01*
X207513777Y-100414346D01*
X207545017Y-100439983D01*
X207570654Y-100471223D01*
X207589704Y-100506862D01*
X207601435Y-100545532D01*
X207606000Y-100591888D01*
X207606000Y-101668112D01*
X207601435Y-101714468D01*
X207589704Y-101753138D01*
X207570654Y-101788777D01*
X207545017Y-101820017D01*
X207513777Y-101845654D01*
X207478138Y-101864704D01*
X207439468Y-101876435D01*
X207393112Y-101881000D01*
X206741888Y-101881000D01*
X206695532Y-101876435D01*
X206656862Y-101864704D01*
X206621223Y-101845654D01*
X206589983Y-101820017D01*
X206564346Y-101788777D01*
X206545296Y-101753138D01*
X206533565Y-101714468D01*
X206529000Y-101668112D01*
X206529000Y-100591888D01*
X206533565Y-100545532D01*
X206545296Y-100506862D01*
X206564346Y-100471223D01*
X206589983Y-100439983D01*
X206621223Y-100414346D01*
X206656862Y-100395296D01*
X206695532Y-100383565D01*
X206741888Y-100379000D01*
X207393112Y-100379000D01*
X207439468Y-100383565D01*
G37*
G36*
X184793512Y-98183927D02*
G01*
X184942812Y-98213624D01*
X185106784Y-98281544D01*
X185254354Y-98380147D01*
X185379853Y-98505646D01*
X185478456Y-98653216D01*
X185546376Y-98817188D01*
X185581000Y-98991259D01*
X185581000Y-99168741D01*
X185546376Y-99342812D01*
X185478456Y-99506784D01*
X185379853Y-99654354D01*
X185254354Y-99779853D01*
X185106784Y-99878456D01*
X184942812Y-99946376D01*
X184793512Y-99976073D01*
X184768742Y-99981000D01*
X184591258Y-99981000D01*
X184566488Y-99976073D01*
X184417188Y-99946376D01*
X184253216Y-99878456D01*
X184105646Y-99779853D01*
X183980147Y-99654354D01*
X183881544Y-99506784D01*
X183813624Y-99342812D01*
X183779000Y-99168741D01*
X183779000Y-98991259D01*
X183813624Y-98817188D01*
X183881544Y-98653216D01*
X183980147Y-98505646D01*
X184105646Y-98380147D01*
X184253216Y-98281544D01*
X184417188Y-98213624D01*
X184566488Y-98183927D01*
X184591258Y-98179000D01*
X184768742Y-98179000D01*
X184793512Y-98183927D01*
G37*
G36*
X232819468Y-98253565D02*
G01*
X232858138Y-98265296D01*
X232893777Y-98284346D01*
X232925017Y-98309983D01*
X232950654Y-98341223D01*
X232969704Y-98376862D01*
X232981435Y-98415532D01*
X232986000Y-98461888D01*
X232986000Y-99538112D01*
X232981435Y-99584468D01*
X232969704Y-99623138D01*
X232950654Y-99658777D01*
X232925017Y-99690017D01*
X232893777Y-99715654D01*
X232858138Y-99734704D01*
X232819468Y-99746435D01*
X232773112Y-99751000D01*
X232121888Y-99751000D01*
X232075532Y-99746435D01*
X232036862Y-99734704D01*
X232001223Y-99715654D01*
X231969983Y-99690017D01*
X231944346Y-99658777D01*
X231925296Y-99623138D01*
X231913565Y-99584468D01*
X231909000Y-99538112D01*
X231909000Y-98461888D01*
X231913565Y-98415532D01*
X231925296Y-98376862D01*
X231944346Y-98341223D01*
X231969983Y-98309983D01*
X232001223Y-98284346D01*
X232036862Y-98265296D01*
X232075532Y-98253565D01*
X232121888Y-98249000D01*
X232773112Y-98249000D01*
X232819468Y-98253565D01*
G37*
G36*
X230944468Y-98253565D02*
G01*
X230983138Y-98265296D01*
X231018777Y-98284346D01*
X231050017Y-98309983D01*
X231075654Y-98341223D01*
X231094704Y-98376862D01*
X231106435Y-98415532D01*
X231111000Y-98461888D01*
X231111000Y-99538112D01*
X231106435Y-99584468D01*
X231094704Y-99623138D01*
X231075654Y-99658777D01*
X231050017Y-99690017D01*
X231018777Y-99715654D01*
X230983138Y-99734704D01*
X230944468Y-99746435D01*
X230898112Y-99751000D01*
X230246888Y-99751000D01*
X230200532Y-99746435D01*
X230161862Y-99734704D01*
X230126223Y-99715654D01*
X230094983Y-99690017D01*
X230069346Y-99658777D01*
X230050296Y-99623138D01*
X230038565Y-99584468D01*
X230034000Y-99538112D01*
X230034000Y-98461888D01*
X230038565Y-98415532D01*
X230050296Y-98376862D01*
X230069346Y-98341223D01*
X230094983Y-98309983D01*
X230126223Y-98284346D01*
X230161862Y-98265296D01*
X230200532Y-98253565D01*
X230246888Y-98249000D01*
X230898112Y-98249000D01*
X230944468Y-98253565D01*
G37*
G36*
X237163281Y-98303295D02*
G01*
X237199316Y-98314227D01*
X237232524Y-98331977D01*
X237261634Y-98355866D01*
X237285523Y-98384976D01*
X237303273Y-98418184D01*
X237314205Y-98454219D01*
X237318500Y-98497831D01*
X237318500Y-99502169D01*
X237314205Y-99545781D01*
X237303273Y-99581816D01*
X237285523Y-99615024D01*
X237261634Y-99644134D01*
X237232524Y-99668023D01*
X237199316Y-99685773D01*
X237163281Y-99696705D01*
X237119669Y-99701000D01*
X236090331Y-99701000D01*
X236046719Y-99696705D01*
X236010684Y-99685773D01*
X235977476Y-99668023D01*
X235948366Y-99644134D01*
X235924477Y-99615024D01*
X235906727Y-99581816D01*
X235895795Y-99545781D01*
X235891500Y-99502169D01*
X235891500Y-98497831D01*
X235895795Y-98454219D01*
X235906727Y-98418184D01*
X235924477Y-98384976D01*
X235948366Y-98355866D01*
X235977476Y-98331977D01*
X236010684Y-98314227D01*
X236046719Y-98303295D01*
X236090331Y-98299000D01*
X237119669Y-98299000D01*
X237163281Y-98303295D01*
G37*
G36*
X235238281Y-98303295D02*
G01*
X235274316Y-98314227D01*
X235307524Y-98331977D01*
X235336634Y-98355866D01*
X235360523Y-98384976D01*
X235378273Y-98418184D01*
X235389205Y-98454219D01*
X235393500Y-98497831D01*
X235393500Y-99502169D01*
X235389205Y-99545781D01*
X235378273Y-99581816D01*
X235360523Y-99615024D01*
X235336634Y-99644134D01*
X235307524Y-99668023D01*
X235274316Y-99685773D01*
X235238281Y-99696705D01*
X235194669Y-99701000D01*
X234165331Y-99701000D01*
X234121719Y-99696705D01*
X234085684Y-99685773D01*
X234052476Y-99668023D01*
X234023366Y-99644134D01*
X233999477Y-99615024D01*
X233981727Y-99581816D01*
X233970795Y-99545781D01*
X233966500Y-99502169D01*
X233966500Y-98497831D01*
X233970795Y-98454219D01*
X233981727Y-98418184D01*
X233999477Y-98384976D01*
X234023366Y-98355866D01*
X234052476Y-98331977D01*
X234085684Y-98314227D01*
X234121719Y-98303295D01*
X234165331Y-98299000D01*
X235194669Y-98299000D01*
X235238281Y-98303295D01*
G37*
G36*
X184793512Y-95643927D02*
G01*
X184942812Y-95673624D01*
X185106784Y-95741544D01*
X185254354Y-95840147D01*
X185379853Y-95965646D01*
X185478456Y-96113216D01*
X185546376Y-96277188D01*
X185581000Y-96451259D01*
X185581000Y-96628741D01*
X185546376Y-96802812D01*
X185478456Y-96966784D01*
X185379853Y-97114354D01*
X185254354Y-97239853D01*
X185106784Y-97338456D01*
X184942812Y-97406376D01*
X184793512Y-97436073D01*
X184768742Y-97441000D01*
X184591258Y-97441000D01*
X184566488Y-97436073D01*
X184417188Y-97406376D01*
X184253216Y-97338456D01*
X184105646Y-97239853D01*
X183980147Y-97114354D01*
X183881544Y-96966784D01*
X183813624Y-96802812D01*
X183779000Y-96628741D01*
X183779000Y-96451259D01*
X183813624Y-96277188D01*
X183881544Y-96113216D01*
X183980147Y-95965646D01*
X184105646Y-95840147D01*
X184253216Y-95741544D01*
X184417188Y-95673624D01*
X184566488Y-95643927D01*
X184591258Y-95639000D01*
X184768742Y-95639000D01*
X184793512Y-95643927D01*
G37*
G36*
X232819468Y-95753565D02*
G01*
X232858138Y-95765296D01*
X232893777Y-95784346D01*
X232925017Y-95809983D01*
X232950654Y-95841223D01*
X232969704Y-95876862D01*
X232981435Y-95915532D01*
X232986000Y-95961888D01*
X232986000Y-97038112D01*
X232981435Y-97084468D01*
X232969704Y-97123138D01*
X232950654Y-97158777D01*
X232925017Y-97190017D01*
X232893777Y-97215654D01*
X232858138Y-97234704D01*
X232819468Y-97246435D01*
X232773112Y-97251000D01*
X232121888Y-97251000D01*
X232075532Y-97246435D01*
X232036862Y-97234704D01*
X232001223Y-97215654D01*
X231969983Y-97190017D01*
X231944346Y-97158777D01*
X231925296Y-97123138D01*
X231913565Y-97084468D01*
X231909000Y-97038112D01*
X231909000Y-95961888D01*
X231913565Y-95915532D01*
X231925296Y-95876862D01*
X231944346Y-95841223D01*
X231969983Y-95809983D01*
X232001223Y-95784346D01*
X232036862Y-95765296D01*
X232075532Y-95753565D01*
X232121888Y-95749000D01*
X232773112Y-95749000D01*
X232819468Y-95753565D01*
G37*
G36*
X230944468Y-95753565D02*
G01*
X230983138Y-95765296D01*
X231018777Y-95784346D01*
X231050017Y-95809983D01*
X231075654Y-95841223D01*
X231094704Y-95876862D01*
X231106435Y-95915532D01*
X231111000Y-95961888D01*
X231111000Y-97038112D01*
X231106435Y-97084468D01*
X231094704Y-97123138D01*
X231075654Y-97158777D01*
X231050017Y-97190017D01*
X231018777Y-97215654D01*
X230983138Y-97234704D01*
X230944468Y-97246435D01*
X230898112Y-97251000D01*
X230246888Y-97251000D01*
X230200532Y-97246435D01*
X230161862Y-97234704D01*
X230126223Y-97215654D01*
X230094983Y-97190017D01*
X230069346Y-97158777D01*
X230050296Y-97123138D01*
X230038565Y-97084468D01*
X230034000Y-97038112D01*
X230034000Y-95961888D01*
X230038565Y-95915532D01*
X230050296Y-95876862D01*
X230069346Y-95841223D01*
X230094983Y-95809983D01*
X230126223Y-95784346D01*
X230161862Y-95765296D01*
X230200532Y-95753565D01*
X230246888Y-95749000D01*
X230898112Y-95749000D01*
X230944468Y-95753565D01*
G37*
G36*
X237163281Y-95803295D02*
G01*
X237199316Y-95814227D01*
X237232524Y-95831977D01*
X237261634Y-95855866D01*
X237285523Y-95884976D01*
X237303273Y-95918184D01*
X237314205Y-95954219D01*
X237318500Y-95997831D01*
X237318500Y-97002169D01*
X237314205Y-97045781D01*
X237303273Y-97081816D01*
X237285523Y-97115024D01*
X237261634Y-97144134D01*
X237232524Y-97168023D01*
X237199316Y-97185773D01*
X237163281Y-97196705D01*
X237119669Y-97201000D01*
X236090331Y-97201000D01*
X236046719Y-97196705D01*
X236010684Y-97185773D01*
X235977476Y-97168023D01*
X235948366Y-97144134D01*
X235924477Y-97115024D01*
X235906727Y-97081816D01*
X235895795Y-97045781D01*
X235891500Y-97002169D01*
X235891500Y-95997831D01*
X235895795Y-95954219D01*
X235906727Y-95918184D01*
X235924477Y-95884976D01*
X235948366Y-95855866D01*
X235977476Y-95831977D01*
X236010684Y-95814227D01*
X236046719Y-95803295D01*
X236090331Y-95799000D01*
X237119669Y-95799000D01*
X237163281Y-95803295D01*
G37*
G36*
X235238281Y-95803295D02*
G01*
X235274316Y-95814227D01*
X235307524Y-95831977D01*
X235336634Y-95855866D01*
X235360523Y-95884976D01*
X235378273Y-95918184D01*
X235389205Y-95954219D01*
X235393500Y-95997831D01*
X235393500Y-97002169D01*
X235389205Y-97045781D01*
X235378273Y-97081816D01*
X235360523Y-97115024D01*
X235336634Y-97144134D01*
X235307524Y-97168023D01*
X235274316Y-97185773D01*
X235238281Y-97196705D01*
X235194669Y-97201000D01*
X234165331Y-97201000D01*
X234121719Y-97196705D01*
X234085684Y-97185773D01*
X234052476Y-97168023D01*
X234023366Y-97144134D01*
X233999477Y-97115024D01*
X233981727Y-97081816D01*
X233970795Y-97045781D01*
X233966500Y-97002169D01*
X233966500Y-95997831D01*
X233970795Y-95954219D01*
X233981727Y-95918184D01*
X233999477Y-95884976D01*
X234023366Y-95855866D01*
X234052476Y-95831977D01*
X234085684Y-95814227D01*
X234121719Y-95803295D01*
X234165331Y-95799000D01*
X235194669Y-95799000D01*
X235238281Y-95803295D01*
G37*
G36*
X200481000Y-95251000D02*
G01*
X198879000Y-95251000D01*
X198879000Y-94249000D01*
X200481000Y-94249000D01*
X200481000Y-95251000D01*
G37*
G36*
X217981000Y-95251000D02*
G01*
X216379000Y-95251000D01*
X216379000Y-94249000D01*
X217981000Y-94249000D01*
X217981000Y-95251000D01*
G37*
G36*
X185581000Y-94901000D02*
G01*
X183779000Y-94901000D01*
X183779000Y-93099000D01*
X185581000Y-93099000D01*
X185581000Y-94901000D01*
G37*
G36*
X232819468Y-93253565D02*
G01*
X232858138Y-93265296D01*
X232893777Y-93284346D01*
X232925017Y-93309983D01*
X232950654Y-93341223D01*
X232969704Y-93376862D01*
X232981435Y-93415532D01*
X232986000Y-93461888D01*
X232986000Y-94538112D01*
X232981435Y-94584468D01*
X232969704Y-94623138D01*
X232950654Y-94658777D01*
X232925017Y-94690017D01*
X232893777Y-94715654D01*
X232858138Y-94734704D01*
X232819468Y-94746435D01*
X232773112Y-94751000D01*
X232121888Y-94751000D01*
X232075532Y-94746435D01*
X232036862Y-94734704D01*
X232001223Y-94715654D01*
X231969983Y-94690017D01*
X231944346Y-94658777D01*
X231925296Y-94623138D01*
X231913565Y-94584468D01*
X231909000Y-94538112D01*
X231909000Y-93461888D01*
X231913565Y-93415532D01*
X231925296Y-93376862D01*
X231944346Y-93341223D01*
X231969983Y-93309983D01*
X232001223Y-93284346D01*
X232036862Y-93265296D01*
X232075532Y-93253565D01*
X232121888Y-93249000D01*
X232773112Y-93249000D01*
X232819468Y-93253565D01*
G37*
G36*
X230944468Y-93253565D02*
G01*
X230983138Y-93265296D01*
X231018777Y-93284346D01*
X231050017Y-93309983D01*
X231075654Y-93341223D01*
X231094704Y-93376862D01*
X231106435Y-93415532D01*
X231111000Y-93461888D01*
X231111000Y-94538112D01*
X231106435Y-94584468D01*
X231094704Y-94623138D01*
X231075654Y-94658777D01*
X231050017Y-94690017D01*
X231018777Y-94715654D01*
X230983138Y-94734704D01*
X230944468Y-94746435D01*
X230898112Y-94751000D01*
X230246888Y-94751000D01*
X230200532Y-94746435D01*
X230161862Y-94734704D01*
X230126223Y-94715654D01*
X230094983Y-94690017D01*
X230069346Y-94658777D01*
X230050296Y-94623138D01*
X230038565Y-94584468D01*
X230034000Y-94538112D01*
X230034000Y-93461888D01*
X230038565Y-93415532D01*
X230050296Y-93376862D01*
X230069346Y-93341223D01*
X230094983Y-93309983D01*
X230126223Y-93284346D01*
X230161862Y-93265296D01*
X230200532Y-93253565D01*
X230246888Y-93249000D01*
X230898112Y-93249000D01*
X230944468Y-93253565D01*
G37*
G36*
X235238281Y-93303295D02*
G01*
X235274316Y-93314227D01*
X235307524Y-93331977D01*
X235336634Y-93355866D01*
X235360523Y-93384976D01*
X235378273Y-93418184D01*
X235389205Y-93454219D01*
X235393500Y-93497831D01*
X235393500Y-94502169D01*
X235389205Y-94545781D01*
X235378273Y-94581816D01*
X235360523Y-94615024D01*
X235336634Y-94644134D01*
X235307524Y-94668023D01*
X235274316Y-94685773D01*
X235238281Y-94696705D01*
X235194669Y-94701000D01*
X234165331Y-94701000D01*
X234121719Y-94696705D01*
X234085684Y-94685773D01*
X234052476Y-94668023D01*
X234023366Y-94644134D01*
X233999477Y-94615024D01*
X233981727Y-94581816D01*
X233970795Y-94545781D01*
X233966500Y-94502169D01*
X233966500Y-93497831D01*
X233970795Y-93454219D01*
X233981727Y-93418184D01*
X233999477Y-93384976D01*
X234023366Y-93355866D01*
X234052476Y-93331977D01*
X234085684Y-93314227D01*
X234121719Y-93303295D01*
X234165331Y-93299000D01*
X235194669Y-93299000D01*
X235238281Y-93303295D01*
G37*
G36*
X237163281Y-93303295D02*
G01*
X237199316Y-93314227D01*
X237232524Y-93331977D01*
X237261634Y-93355866D01*
X237285523Y-93384976D01*
X237303273Y-93418184D01*
X237314205Y-93454219D01*
X237318500Y-93497831D01*
X237318500Y-94502169D01*
X237314205Y-94545781D01*
X237303273Y-94581816D01*
X237285523Y-94615024D01*
X237261634Y-94644134D01*
X237232524Y-94668023D01*
X237199316Y-94685773D01*
X237163281Y-94696705D01*
X237119669Y-94701000D01*
X236090331Y-94701000D01*
X236046719Y-94696705D01*
X236010684Y-94685773D01*
X235977476Y-94668023D01*
X235948366Y-94644134D01*
X235924477Y-94615024D01*
X235906727Y-94581816D01*
X235895795Y-94545781D01*
X235891500Y-94502169D01*
X235891500Y-93497831D01*
X235895795Y-93454219D01*
X235906727Y-93418184D01*
X235924477Y-93384976D01*
X235948366Y-93355866D01*
X235977476Y-93331977D01*
X236010684Y-93314227D01*
X236046719Y-93303295D01*
X236090331Y-93299000D01*
X237119669Y-93299000D01*
X237163281Y-93303295D01*
G37*
G36*
X197764468Y-92903565D02*
G01*
X197803138Y-92915296D01*
X197838777Y-92934346D01*
X197870017Y-92959983D01*
X197895654Y-92991223D01*
X197914704Y-93026862D01*
X197926435Y-93065532D01*
X197931000Y-93111888D01*
X197931000Y-93763112D01*
X197926435Y-93809468D01*
X197914704Y-93848138D01*
X197895654Y-93883777D01*
X197870017Y-93915017D01*
X197838777Y-93940654D01*
X197803138Y-93959704D01*
X197764468Y-93971435D01*
X197718112Y-93976000D01*
X196641888Y-93976000D01*
X196595532Y-93971435D01*
X196556862Y-93959704D01*
X196521223Y-93940654D01*
X196489983Y-93915017D01*
X196464346Y-93883777D01*
X196445296Y-93848138D01*
X196433565Y-93809468D01*
X196429000Y-93763112D01*
X196429000Y-93111888D01*
X196433565Y-93065532D01*
X196445296Y-93026862D01*
X196464346Y-92991223D01*
X196489983Y-92959983D01*
X196521223Y-92934346D01*
X196556862Y-92915296D01*
X196595532Y-92903565D01*
X196641888Y-92899000D01*
X197718112Y-92899000D01*
X197764468Y-92903565D01*
G37*
G36*
X195764468Y-92903565D02*
G01*
X195803138Y-92915296D01*
X195838777Y-92934346D01*
X195870017Y-92959983D01*
X195895654Y-92991223D01*
X195914704Y-93026862D01*
X195926435Y-93065532D01*
X195931000Y-93111888D01*
X195931000Y-93763112D01*
X195926435Y-93809468D01*
X195914704Y-93848138D01*
X195895654Y-93883777D01*
X195870017Y-93915017D01*
X195838777Y-93940654D01*
X195803138Y-93959704D01*
X195764468Y-93971435D01*
X195718112Y-93976000D01*
X194641888Y-93976000D01*
X194595532Y-93971435D01*
X194556862Y-93959704D01*
X194521223Y-93940654D01*
X194489983Y-93915017D01*
X194464346Y-93883777D01*
X194445296Y-93848138D01*
X194433565Y-93809468D01*
X194429000Y-93763112D01*
X194429000Y-93111888D01*
X194433565Y-93065532D01*
X194445296Y-93026862D01*
X194464346Y-92991223D01*
X194489983Y-92959983D01*
X194521223Y-92934346D01*
X194556862Y-92915296D01*
X194595532Y-92903565D01*
X194641888Y-92899000D01*
X195718112Y-92899000D01*
X195764468Y-92903565D01*
G37*
G36*
X200481000Y-93751000D02*
G01*
X198879000Y-93751000D01*
X198879000Y-92749000D01*
X200481000Y-92749000D01*
X200481000Y-93751000D01*
G37*
G36*
X217981000Y-93751000D02*
G01*
X216379000Y-93751000D01*
X216379000Y-92749000D01*
X217981000Y-92749000D01*
X217981000Y-93751000D01*
G37*
G36*
X228656000Y-93741000D02*
G01*
X227004000Y-93741000D01*
X227004000Y-93039000D01*
X228656000Y-93039000D01*
X228656000Y-93741000D01*
G37*
G36*
X223256000Y-93741000D02*
G01*
X221604000Y-93741000D01*
X221604000Y-93039000D01*
X223256000Y-93039000D01*
X223256000Y-93741000D01*
G37*
G36*
X211581000Y-93311000D02*
G01*
X207479000Y-93311000D01*
X207479000Y-89209000D01*
X211581000Y-89209000D01*
X211581000Y-93311000D01*
G37*
G36*
X223256000Y-92471000D02*
G01*
X221604000Y-92471000D01*
X221604000Y-91769000D01*
X223256000Y-91769000D01*
X223256000Y-92471000D01*
G37*
G36*
X228656000Y-92471000D02*
G01*
X227004000Y-92471000D01*
X227004000Y-91769000D01*
X228656000Y-91769000D01*
X228656000Y-92471000D01*
G37*
G36*
X230944468Y-90753565D02*
G01*
X230983138Y-90765296D01*
X231018777Y-90784346D01*
X231050017Y-90809983D01*
X231075654Y-90841223D01*
X231094704Y-90876862D01*
X231106435Y-90915532D01*
X231111000Y-90961888D01*
X231111000Y-92038112D01*
X231106435Y-92084468D01*
X231094704Y-92123138D01*
X231075654Y-92158777D01*
X231050017Y-92190017D01*
X231018777Y-92215654D01*
X230983138Y-92234704D01*
X230944468Y-92246435D01*
X230898112Y-92251000D01*
X230246888Y-92251000D01*
X230200532Y-92246435D01*
X230161862Y-92234704D01*
X230126223Y-92215654D01*
X230094983Y-92190017D01*
X230069346Y-92158777D01*
X230050296Y-92123138D01*
X230038565Y-92084468D01*
X230034000Y-92038112D01*
X230034000Y-90961888D01*
X230038565Y-90915532D01*
X230050296Y-90876862D01*
X230069346Y-90841223D01*
X230094983Y-90809983D01*
X230126223Y-90784346D01*
X230161862Y-90765296D01*
X230200532Y-90753565D01*
X230246888Y-90749000D01*
X230898112Y-90749000D01*
X230944468Y-90753565D01*
G37*
G36*
X232819468Y-90753565D02*
G01*
X232858138Y-90765296D01*
X232893777Y-90784346D01*
X232925017Y-90809983D01*
X232950654Y-90841223D01*
X232969704Y-90876862D01*
X232981435Y-90915532D01*
X232986000Y-90961888D01*
X232986000Y-92038112D01*
X232981435Y-92084468D01*
X232969704Y-92123138D01*
X232950654Y-92158777D01*
X232925017Y-92190017D01*
X232893777Y-92215654D01*
X232858138Y-92234704D01*
X232819468Y-92246435D01*
X232773112Y-92251000D01*
X232121888Y-92251000D01*
X232075532Y-92246435D01*
X232036862Y-92234704D01*
X232001223Y-92215654D01*
X231969983Y-92190017D01*
X231944346Y-92158777D01*
X231925296Y-92123138D01*
X231913565Y-92084468D01*
X231909000Y-92038112D01*
X231909000Y-90961888D01*
X231913565Y-90915532D01*
X231925296Y-90876862D01*
X231944346Y-90841223D01*
X231969983Y-90809983D01*
X232001223Y-90784346D01*
X232036862Y-90765296D01*
X232075532Y-90753565D01*
X232121888Y-90749000D01*
X232773112Y-90749000D01*
X232819468Y-90753565D01*
G37*
G36*
X217981000Y-92251000D02*
G01*
X216379000Y-92251000D01*
X216379000Y-91249000D01*
X217981000Y-91249000D01*
X217981000Y-92251000D01*
G37*
G36*
X200481000Y-92251000D02*
G01*
X198879000Y-92251000D01*
X198879000Y-91249000D01*
X200481000Y-91249000D01*
X200481000Y-92251000D01*
G37*
G36*
X235238281Y-90803295D02*
G01*
X235274316Y-90814227D01*
X235307524Y-90831977D01*
X235336634Y-90855866D01*
X235360523Y-90884976D01*
X235378273Y-90918184D01*
X235389205Y-90954219D01*
X235393500Y-90997831D01*
X235393500Y-92002169D01*
X235389205Y-92045781D01*
X235378273Y-92081816D01*
X235360523Y-92115024D01*
X235336634Y-92144134D01*
X235307524Y-92168023D01*
X235274316Y-92185773D01*
X235238281Y-92196705D01*
X235194669Y-92201000D01*
X234165331Y-92201000D01*
X234121719Y-92196705D01*
X234085684Y-92185773D01*
X234052476Y-92168023D01*
X234023366Y-92144134D01*
X233999477Y-92115024D01*
X233981727Y-92081816D01*
X233970795Y-92045781D01*
X233966500Y-92002169D01*
X233966500Y-90997831D01*
X233970795Y-90954219D01*
X233981727Y-90918184D01*
X233999477Y-90884976D01*
X234023366Y-90855866D01*
X234052476Y-90831977D01*
X234085684Y-90814227D01*
X234121719Y-90803295D01*
X234165331Y-90799000D01*
X235194669Y-90799000D01*
X235238281Y-90803295D01*
G37*
G36*
X237163281Y-90803295D02*
G01*
X237199316Y-90814227D01*
X237232524Y-90831977D01*
X237261634Y-90855866D01*
X237285523Y-90884976D01*
X237303273Y-90918184D01*
X237314205Y-90954219D01*
X237318500Y-90997831D01*
X237318500Y-92002169D01*
X237314205Y-92045781D01*
X237303273Y-92081816D01*
X237285523Y-92115024D01*
X237261634Y-92144134D01*
X237232524Y-92168023D01*
X237199316Y-92185773D01*
X237163281Y-92196705D01*
X237119669Y-92201000D01*
X236090331Y-92201000D01*
X236046719Y-92196705D01*
X236010684Y-92185773D01*
X235977476Y-92168023D01*
X235948366Y-92144134D01*
X235924477Y-92115024D01*
X235906727Y-92081816D01*
X235895795Y-92045781D01*
X235891500Y-92002169D01*
X235891500Y-90997831D01*
X235895795Y-90954219D01*
X235906727Y-90918184D01*
X235924477Y-90884976D01*
X235948366Y-90855866D01*
X235977476Y-90831977D01*
X236010684Y-90814227D01*
X236046719Y-90803295D01*
X236090331Y-90799000D01*
X237119669Y-90799000D01*
X237163281Y-90803295D01*
G37*
G36*
X195764468Y-91028565D02*
G01*
X195803138Y-91040296D01*
X195838777Y-91059346D01*
X195870017Y-91084983D01*
X195895654Y-91116223D01*
X195914704Y-91151862D01*
X195926435Y-91190532D01*
X195931000Y-91236888D01*
X195931000Y-91888112D01*
X195926435Y-91934468D01*
X195914704Y-91973138D01*
X195895654Y-92008777D01*
X195870017Y-92040017D01*
X195838777Y-92065654D01*
X195803138Y-92084704D01*
X195764468Y-92096435D01*
X195718112Y-92101000D01*
X194641888Y-92101000D01*
X194595532Y-92096435D01*
X194556862Y-92084704D01*
X194521223Y-92065654D01*
X194489983Y-92040017D01*
X194464346Y-92008777D01*
X194445296Y-91973138D01*
X194433565Y-91934468D01*
X194429000Y-91888112D01*
X194429000Y-91236888D01*
X194433565Y-91190532D01*
X194445296Y-91151862D01*
X194464346Y-91116223D01*
X194489983Y-91084983D01*
X194521223Y-91059346D01*
X194556862Y-91040296D01*
X194595532Y-91028565D01*
X194641888Y-91024000D01*
X195718112Y-91024000D01*
X195764468Y-91028565D01*
G37*
G36*
X197764468Y-91028565D02*
G01*
X197803138Y-91040296D01*
X197838777Y-91059346D01*
X197870017Y-91084983D01*
X197895654Y-91116223D01*
X197914704Y-91151862D01*
X197926435Y-91190532D01*
X197931000Y-91236888D01*
X197931000Y-91888112D01*
X197926435Y-91934468D01*
X197914704Y-91973138D01*
X197895654Y-92008777D01*
X197870017Y-92040017D01*
X197838777Y-92065654D01*
X197803138Y-92084704D01*
X197764468Y-92096435D01*
X197718112Y-92101000D01*
X196641888Y-92101000D01*
X196595532Y-92096435D01*
X196556862Y-92084704D01*
X196521223Y-92065654D01*
X196489983Y-92040017D01*
X196464346Y-92008777D01*
X196445296Y-91973138D01*
X196433565Y-91934468D01*
X196429000Y-91888112D01*
X196429000Y-91236888D01*
X196433565Y-91190532D01*
X196445296Y-91151862D01*
X196464346Y-91116223D01*
X196489983Y-91084983D01*
X196521223Y-91059346D01*
X196556862Y-91040296D01*
X196595532Y-91028565D01*
X196641888Y-91024000D01*
X197718112Y-91024000D01*
X197764468Y-91028565D01*
G37*
G36*
X223256000Y-91201000D02*
G01*
X221604000Y-91201000D01*
X221604000Y-90499000D01*
X223256000Y-90499000D01*
X223256000Y-91201000D01*
G37*
G36*
X228656000Y-91201000D02*
G01*
X227004000Y-91201000D01*
X227004000Y-90499000D01*
X228656000Y-90499000D01*
X228656000Y-91201000D01*
G37*
G36*
X217981000Y-90751000D02*
G01*
X216379000Y-90751000D01*
X216379000Y-89749000D01*
X217981000Y-89749000D01*
X217981000Y-90751000D01*
G37*
G36*
X200481000Y-90751000D02*
G01*
X198879000Y-90751000D01*
X198879000Y-89749000D01*
X200481000Y-89749000D01*
X200481000Y-90751000D01*
G37*
G36*
X223256000Y-89931000D02*
G01*
X221604000Y-89931000D01*
X221604000Y-89229000D01*
X223256000Y-89229000D01*
X223256000Y-89931000D01*
G37*
G36*
X228656000Y-89931000D02*
G01*
X227004000Y-89931000D01*
X227004000Y-89229000D01*
X228656000Y-89229000D01*
X228656000Y-89931000D01*
G37*
G36*
X230944468Y-88253565D02*
G01*
X230983138Y-88265296D01*
X231018777Y-88284346D01*
X231050017Y-88309983D01*
X231075654Y-88341223D01*
X231094704Y-88376862D01*
X231106435Y-88415532D01*
X231111000Y-88461888D01*
X231111000Y-89538112D01*
X231106435Y-89584468D01*
X231094704Y-89623138D01*
X231075654Y-89658777D01*
X231050017Y-89690017D01*
X231018777Y-89715654D01*
X230983138Y-89734704D01*
X230944468Y-89746435D01*
X230898112Y-89751000D01*
X230246888Y-89751000D01*
X230200532Y-89746435D01*
X230161862Y-89734704D01*
X230126223Y-89715654D01*
X230094983Y-89690017D01*
X230069346Y-89658777D01*
X230050296Y-89623138D01*
X230038565Y-89584468D01*
X230034000Y-89538112D01*
X230034000Y-88461888D01*
X230038565Y-88415532D01*
X230050296Y-88376862D01*
X230069346Y-88341223D01*
X230094983Y-88309983D01*
X230126223Y-88284346D01*
X230161862Y-88265296D01*
X230200532Y-88253565D01*
X230246888Y-88249000D01*
X230898112Y-88249000D01*
X230944468Y-88253565D01*
G37*
G36*
X232819468Y-88253565D02*
G01*
X232858138Y-88265296D01*
X232893777Y-88284346D01*
X232925017Y-88309983D01*
X232950654Y-88341223D01*
X232969704Y-88376862D01*
X232981435Y-88415532D01*
X232986000Y-88461888D01*
X232986000Y-89538112D01*
X232981435Y-89584468D01*
X232969704Y-89623138D01*
X232950654Y-89658777D01*
X232925017Y-89690017D01*
X232893777Y-89715654D01*
X232858138Y-89734704D01*
X232819468Y-89746435D01*
X232773112Y-89751000D01*
X232121888Y-89751000D01*
X232075532Y-89746435D01*
X232036862Y-89734704D01*
X232001223Y-89715654D01*
X231969983Y-89690017D01*
X231944346Y-89658777D01*
X231925296Y-89623138D01*
X231913565Y-89584468D01*
X231909000Y-89538112D01*
X231909000Y-88461888D01*
X231913565Y-88415532D01*
X231925296Y-88376862D01*
X231944346Y-88341223D01*
X231969983Y-88309983D01*
X232001223Y-88284346D01*
X232036862Y-88265296D01*
X232075532Y-88253565D01*
X232121888Y-88249000D01*
X232773112Y-88249000D01*
X232819468Y-88253565D01*
G37*
G36*
X237200781Y-88303295D02*
G01*
X237236816Y-88314227D01*
X237270024Y-88331977D01*
X237299134Y-88355866D01*
X237323023Y-88384976D01*
X237340773Y-88418184D01*
X237351705Y-88454219D01*
X237356000Y-88497831D01*
X237356000Y-89502169D01*
X237351705Y-89545781D01*
X237340773Y-89581816D01*
X237323023Y-89615024D01*
X237299134Y-89644134D01*
X237270024Y-89668023D01*
X237236816Y-89685773D01*
X237200781Y-89696705D01*
X237157169Y-89701000D01*
X236127831Y-89701000D01*
X236084219Y-89696705D01*
X236048184Y-89685773D01*
X236014976Y-89668023D01*
X235985866Y-89644134D01*
X235961977Y-89615024D01*
X235944227Y-89581816D01*
X235933295Y-89545781D01*
X235929000Y-89502169D01*
X235929000Y-88497831D01*
X235933295Y-88454219D01*
X235944227Y-88418184D01*
X235961977Y-88384976D01*
X235985866Y-88355866D01*
X236014976Y-88331977D01*
X236048184Y-88314227D01*
X236084219Y-88303295D01*
X236127831Y-88299000D01*
X237157169Y-88299000D01*
X237200781Y-88303295D01*
G37*
G36*
X235275781Y-88303295D02*
G01*
X235311816Y-88314227D01*
X235345024Y-88331977D01*
X235374134Y-88355866D01*
X235398023Y-88384976D01*
X235415773Y-88418184D01*
X235426705Y-88454219D01*
X235431000Y-88497831D01*
X235431000Y-89502169D01*
X235426705Y-89545781D01*
X235415773Y-89581816D01*
X235398023Y-89615024D01*
X235374134Y-89644134D01*
X235345024Y-89668023D01*
X235311816Y-89685773D01*
X235275781Y-89696705D01*
X235232169Y-89701000D01*
X234202831Y-89701000D01*
X234159219Y-89696705D01*
X234123184Y-89685773D01*
X234089976Y-89668023D01*
X234060866Y-89644134D01*
X234036977Y-89615024D01*
X234019227Y-89581816D01*
X234008295Y-89545781D01*
X234004000Y-89502169D01*
X234004000Y-88497831D01*
X234008295Y-88454219D01*
X234019227Y-88418184D01*
X234036977Y-88384976D01*
X234060866Y-88355866D01*
X234089976Y-88331977D01*
X234123184Y-88314227D01*
X234159219Y-88303295D01*
X234202831Y-88299000D01*
X235232169Y-88299000D01*
X235275781Y-88303295D01*
G37*
G36*
X184643500Y-88961886D02*
G01*
X184644102Y-88974138D01*
X184646649Y-89000000D01*
X184644102Y-89025862D01*
X184643500Y-89038114D01*
X184643500Y-89111406D01*
X184634543Y-89128164D01*
X184630415Y-89139701D01*
X184609393Y-89209000D01*
X184596854Y-89250336D01*
X184536406Y-89363425D01*
X184455054Y-89462554D01*
X184355925Y-89543906D01*
X184242836Y-89604354D01*
X184210904Y-89614040D01*
X184120118Y-89641580D01*
X184056355Y-89647860D01*
X184024474Y-89651000D01*
X183260526Y-89651000D01*
X183228645Y-89647860D01*
X183164882Y-89641580D01*
X183074096Y-89614040D01*
X183042164Y-89604354D01*
X182929075Y-89543906D01*
X182829946Y-89462554D01*
X182748594Y-89363425D01*
X182688146Y-89250336D01*
X182675607Y-89209000D01*
X182654587Y-89139708D01*
X182645213Y-89117075D01*
X182641500Y-89111518D01*
X182641500Y-89038114D01*
X182640898Y-89025862D01*
X182638351Y-89000000D01*
X182640898Y-88974138D01*
X182641500Y-88961886D01*
X182641500Y-87749000D01*
X184643500Y-87749000D01*
X184643500Y-88961886D01*
G37*
G36*
X200481000Y-89251000D02*
G01*
X198879000Y-89251000D01*
X198879000Y-88249000D01*
X200481000Y-88249000D01*
X200481000Y-89251000D01*
G37*
G36*
X217981000Y-89251000D02*
G01*
X216379000Y-89251000D01*
X216379000Y-88249000D01*
X217981000Y-88249000D01*
X217981000Y-89251000D01*
G37*
G36*
X186568848Y-82253820D02*
G01*
X186568850Y-82253821D01*
X186568851Y-82253821D01*
X186710074Y-82312317D01*
X186710077Y-82312319D01*
X186837169Y-82397239D01*
X186945261Y-82505331D01*
X187030181Y-82632423D01*
X187030183Y-82632426D01*
X187088679Y-82773649D01*
X187118500Y-82923571D01*
X187118500Y-83076429D01*
X187088679Y-83226351D01*
X187030183Y-83367574D01*
X187030181Y-83367577D01*
X186945261Y-83494669D01*
X186837169Y-83602761D01*
X186752440Y-83659375D01*
X186710074Y-83687683D01*
X186659772Y-83708519D01*
X186638164Y-83720068D01*
X186619222Y-83735614D01*
X186603677Y-83754556D01*
X186592126Y-83776166D01*
X186585013Y-83799615D01*
X186582611Y-83824001D01*
X186585013Y-83848387D01*
X186592126Y-83871836D01*
X186603677Y-83893447D01*
X186619223Y-83912389D01*
X186638165Y-83927934D01*
X186659775Y-83939485D01*
X186683224Y-83946598D01*
X186707610Y-83949000D01*
X187068500Y-83949000D01*
X187068500Y-87051000D01*
X186707610Y-87051000D01*
X186683224Y-87053402D01*
X186659775Y-87060515D01*
X186638164Y-87072066D01*
X186619222Y-87087611D01*
X186603677Y-87106553D01*
X186592126Y-87128164D01*
X186585013Y-87151613D01*
X186582611Y-87175999D01*
X186585013Y-87200385D01*
X186592126Y-87223834D01*
X186603677Y-87245445D01*
X186619222Y-87264387D01*
X186638164Y-87279932D01*
X186659772Y-87291481D01*
X186710074Y-87312317D01*
X186710075Y-87312318D01*
X186837169Y-87397239D01*
X186945261Y-87505331D01*
X187030181Y-87632423D01*
X187030183Y-87632426D01*
X187088679Y-87773649D01*
X187118500Y-87923571D01*
X187118500Y-88076429D01*
X187088679Y-88226351D01*
X187030183Y-88367574D01*
X187030181Y-88367577D01*
X186945261Y-88494669D01*
X186837169Y-88602761D01*
X186786564Y-88636574D01*
X186710074Y-88687683D01*
X186568851Y-88746179D01*
X186568850Y-88746179D01*
X186568848Y-88746180D01*
X186418931Y-88776000D01*
X186266069Y-88776000D01*
X186116152Y-88746180D01*
X186116150Y-88746179D01*
X186116149Y-88746179D01*
X185974926Y-88687683D01*
X185898436Y-88636574D01*
X185847831Y-88602761D01*
X185739739Y-88494669D01*
X185654819Y-88367577D01*
X185654817Y-88367574D01*
X185596321Y-88226351D01*
X185566500Y-88076429D01*
X185566500Y-87923571D01*
X185596321Y-87773649D01*
X185654817Y-87632426D01*
X185654819Y-87632423D01*
X185739739Y-87505331D01*
X185847831Y-87397239D01*
X185974925Y-87312318D01*
X185974926Y-87312317D01*
X186025228Y-87291481D01*
X186046836Y-87279932D01*
X186065778Y-87264386D01*
X186081323Y-87245444D01*
X186092874Y-87223834D01*
X186099987Y-87200385D01*
X186102389Y-87175999D01*
X186099987Y-87151613D01*
X186092874Y-87128164D01*
X186081323Y-87106553D01*
X186065777Y-87087611D01*
X186046835Y-87072066D01*
X186025225Y-87060515D01*
X186001776Y-87053402D01*
X185977390Y-87051000D01*
X185616500Y-87051000D01*
X185616500Y-83949000D01*
X185977390Y-83949000D01*
X186001776Y-83946598D01*
X186025225Y-83939485D01*
X186046836Y-83927934D01*
X186065778Y-83912389D01*
X186081323Y-83893447D01*
X186092874Y-83871836D01*
X186099987Y-83848387D01*
X186102389Y-83824001D01*
X186099987Y-83799615D01*
X186092874Y-83776166D01*
X186081323Y-83754555D01*
X186065778Y-83735613D01*
X186046836Y-83720068D01*
X186025228Y-83708519D01*
X185974926Y-83687683D01*
X185932560Y-83659375D01*
X185847831Y-83602761D01*
X185739739Y-83494669D01*
X185654819Y-83367577D01*
X185654817Y-83367574D01*
X185596321Y-83226351D01*
X185566500Y-83076429D01*
X185566500Y-82923571D01*
X185596321Y-82773649D01*
X185654817Y-82632426D01*
X185654819Y-82632423D01*
X185739739Y-82505331D01*
X185847831Y-82397239D01*
X185974923Y-82312319D01*
X185974926Y-82312317D01*
X186116149Y-82253821D01*
X186116150Y-82253821D01*
X186116152Y-82253820D01*
X186266069Y-82224000D01*
X186418931Y-82224000D01*
X186568848Y-82253820D01*
G37*
G36*
X223256000Y-88661000D02*
G01*
X221604000Y-88661000D01*
X221604000Y-87959000D01*
X223256000Y-87959000D01*
X223256000Y-88661000D01*
G37*
G36*
X228656000Y-88661000D02*
G01*
X227004000Y-88661000D01*
X227004000Y-87959000D01*
X228656000Y-87959000D01*
X228656000Y-88661000D01*
G37*
G36*
X217981000Y-87751000D02*
G01*
X216379000Y-87751000D01*
X216379000Y-86749000D01*
X217981000Y-86749000D01*
X217981000Y-87751000D01*
G37*
G36*
X200481000Y-87751000D02*
G01*
X198879000Y-87751000D01*
X198879000Y-86749000D01*
X200481000Y-86749000D01*
X200481000Y-87751000D01*
G37*
G36*
X223256000Y-87391000D02*
G01*
X221604000Y-87391000D01*
X221604000Y-86689000D01*
X223256000Y-86689000D01*
X223256000Y-87391000D01*
G37*
G36*
X228656000Y-87391000D02*
G01*
X227004000Y-87391000D01*
X227004000Y-86689000D01*
X228656000Y-86689000D01*
X228656000Y-87391000D01*
G37*
G36*
X184643500Y-87301000D02*
G01*
X182641500Y-87301000D01*
X182641500Y-85699000D01*
X184643500Y-85699000D01*
X184643500Y-87301000D01*
G37*
G36*
X232819468Y-85753565D02*
G01*
X232858138Y-85765296D01*
X232893777Y-85784346D01*
X232925017Y-85809983D01*
X232950654Y-85841223D01*
X232969704Y-85876862D01*
X232981435Y-85915532D01*
X232986000Y-85961888D01*
X232986000Y-87038112D01*
X232981435Y-87084468D01*
X232969704Y-87123138D01*
X232950654Y-87158777D01*
X232925017Y-87190017D01*
X232893777Y-87215654D01*
X232858138Y-87234704D01*
X232819468Y-87246435D01*
X232773112Y-87251000D01*
X232121888Y-87251000D01*
X232075532Y-87246435D01*
X232036862Y-87234704D01*
X232001223Y-87215654D01*
X231969983Y-87190017D01*
X231944346Y-87158777D01*
X231925296Y-87123138D01*
X231913565Y-87084468D01*
X231909000Y-87038112D01*
X231909000Y-85961888D01*
X231913565Y-85915532D01*
X231925296Y-85876862D01*
X231944346Y-85841223D01*
X231969983Y-85809983D01*
X232001223Y-85784346D01*
X232036862Y-85765296D01*
X232075532Y-85753565D01*
X232121888Y-85749000D01*
X232773112Y-85749000D01*
X232819468Y-85753565D01*
G37*
G36*
X230944468Y-85753565D02*
G01*
X230983138Y-85765296D01*
X231018777Y-85784346D01*
X231050017Y-85809983D01*
X231075654Y-85841223D01*
X231094704Y-85876862D01*
X231106435Y-85915532D01*
X231111000Y-85961888D01*
X231111000Y-87038112D01*
X231106435Y-87084468D01*
X231094704Y-87123138D01*
X231075654Y-87158777D01*
X231050017Y-87190017D01*
X231018777Y-87215654D01*
X230983138Y-87234704D01*
X230944468Y-87246435D01*
X230898112Y-87251000D01*
X230246888Y-87251000D01*
X230200532Y-87246435D01*
X230161862Y-87234704D01*
X230126223Y-87215654D01*
X230094983Y-87190017D01*
X230069346Y-87158777D01*
X230050296Y-87123138D01*
X230038565Y-87084468D01*
X230034000Y-87038112D01*
X230034000Y-85961888D01*
X230038565Y-85915532D01*
X230050296Y-85876862D01*
X230069346Y-85841223D01*
X230094983Y-85809983D01*
X230126223Y-85784346D01*
X230161862Y-85765296D01*
X230200532Y-85753565D01*
X230246888Y-85749000D01*
X230898112Y-85749000D01*
X230944468Y-85753565D01*
G37*
G36*
X235275781Y-85803295D02*
G01*
X235311816Y-85814227D01*
X235345024Y-85831977D01*
X235374134Y-85855866D01*
X235398023Y-85884976D01*
X235415773Y-85918184D01*
X235426705Y-85954219D01*
X235431000Y-85997831D01*
X235431000Y-87002169D01*
X235426705Y-87045781D01*
X235415773Y-87081816D01*
X235398023Y-87115024D01*
X235374134Y-87144134D01*
X235345024Y-87168023D01*
X235311816Y-87185773D01*
X235275781Y-87196705D01*
X235232169Y-87201000D01*
X234202831Y-87201000D01*
X234159219Y-87196705D01*
X234123184Y-87185773D01*
X234089976Y-87168023D01*
X234060866Y-87144134D01*
X234036977Y-87115024D01*
X234019227Y-87081816D01*
X234008295Y-87045781D01*
X234004000Y-87002169D01*
X234004000Y-85997831D01*
X234008295Y-85954219D01*
X234019227Y-85918184D01*
X234036977Y-85884976D01*
X234060866Y-85855866D01*
X234089976Y-85831977D01*
X234123184Y-85814227D01*
X234159219Y-85803295D01*
X234202831Y-85799000D01*
X235232169Y-85799000D01*
X235275781Y-85803295D01*
G37*
G36*
X237200781Y-85803295D02*
G01*
X237236816Y-85814227D01*
X237270024Y-85831977D01*
X237299134Y-85855866D01*
X237323023Y-85884976D01*
X237340773Y-85918184D01*
X237351705Y-85954219D01*
X237356000Y-85997831D01*
X237356000Y-87002169D01*
X237351705Y-87045781D01*
X237340773Y-87081816D01*
X237323023Y-87115024D01*
X237299134Y-87144134D01*
X237270024Y-87168023D01*
X237236816Y-87185773D01*
X237200781Y-87196705D01*
X237157169Y-87201000D01*
X236127831Y-87201000D01*
X236084219Y-87196705D01*
X236048184Y-87185773D01*
X236014976Y-87168023D01*
X235985866Y-87144134D01*
X235961977Y-87115024D01*
X235944227Y-87081816D01*
X235933295Y-87045781D01*
X235929000Y-87002169D01*
X235929000Y-85997831D01*
X235933295Y-85954219D01*
X235944227Y-85918184D01*
X235961977Y-85884976D01*
X235985866Y-85855866D01*
X236014976Y-85831977D01*
X236048184Y-85814227D01*
X236084219Y-85803295D01*
X236127831Y-85799000D01*
X237157169Y-85799000D01*
X237200781Y-85803295D01*
G37*
G36*
X197764468Y-85903565D02*
G01*
X197803138Y-85915296D01*
X197838777Y-85934346D01*
X197870017Y-85959983D01*
X197895654Y-85991223D01*
X197914704Y-86026862D01*
X197926435Y-86065532D01*
X197931000Y-86111888D01*
X197931000Y-86763112D01*
X197926435Y-86809468D01*
X197914704Y-86848138D01*
X197895654Y-86883777D01*
X197870017Y-86915017D01*
X197838777Y-86940654D01*
X197803138Y-86959704D01*
X197764468Y-86971435D01*
X197718112Y-86976000D01*
X196641888Y-86976000D01*
X196595532Y-86971435D01*
X196556862Y-86959704D01*
X196521223Y-86940654D01*
X196489983Y-86915017D01*
X196464346Y-86883777D01*
X196445296Y-86848138D01*
X196433565Y-86809468D01*
X196429000Y-86763112D01*
X196429000Y-86111888D01*
X196433565Y-86065532D01*
X196445296Y-86026862D01*
X196464346Y-85991223D01*
X196489983Y-85959983D01*
X196521223Y-85934346D01*
X196556862Y-85915296D01*
X196595532Y-85903565D01*
X196641888Y-85899000D01*
X197718112Y-85899000D01*
X197764468Y-85903565D01*
G37*
G36*
X195764468Y-85903565D02*
G01*
X195803138Y-85915296D01*
X195838777Y-85934346D01*
X195870017Y-85959983D01*
X195895654Y-85991223D01*
X195914704Y-86026862D01*
X195926435Y-86065532D01*
X195931000Y-86111888D01*
X195931000Y-86763112D01*
X195926435Y-86809468D01*
X195914704Y-86848138D01*
X195895654Y-86883777D01*
X195870017Y-86915017D01*
X195838777Y-86940654D01*
X195803138Y-86959704D01*
X195764468Y-86971435D01*
X195718112Y-86976000D01*
X194641888Y-86976000D01*
X194595532Y-86971435D01*
X194556862Y-86959704D01*
X194521223Y-86940654D01*
X194489983Y-86915017D01*
X194464346Y-86883777D01*
X194445296Y-86848138D01*
X194433565Y-86809468D01*
X194429000Y-86763112D01*
X194429000Y-86111888D01*
X194433565Y-86065532D01*
X194445296Y-86026862D01*
X194464346Y-85991223D01*
X194489983Y-85959983D01*
X194521223Y-85934346D01*
X194556862Y-85915296D01*
X194595532Y-85903565D01*
X194641888Y-85899000D01*
X195718112Y-85899000D01*
X195764468Y-85903565D01*
G37*
G36*
X217981000Y-86251000D02*
G01*
X216379000Y-86251000D01*
X216379000Y-85249000D01*
X217981000Y-85249000D01*
X217981000Y-86251000D01*
G37*
G36*
X200481000Y-86251000D02*
G01*
X198879000Y-86251000D01*
X198879000Y-85249000D01*
X200481000Y-85249000D01*
X200481000Y-86251000D01*
G37*
G36*
X228656000Y-86121000D02*
G01*
X227004000Y-86121000D01*
X227004000Y-85419000D01*
X228656000Y-85419000D01*
X228656000Y-86121000D01*
G37*
G36*
X223256000Y-86121000D02*
G01*
X221604000Y-86121000D01*
X221604000Y-85419000D01*
X223256000Y-85419000D01*
X223256000Y-86121000D01*
G37*
G36*
X192764468Y-84403565D02*
G01*
X192803138Y-84415296D01*
X192838777Y-84434346D01*
X192870017Y-84459983D01*
X192895654Y-84491223D01*
X192914704Y-84526862D01*
X192926435Y-84565532D01*
X192931000Y-84611888D01*
X192931000Y-85263112D01*
X192926435Y-85309468D01*
X192914704Y-85348138D01*
X192895654Y-85383777D01*
X192870017Y-85415017D01*
X192838777Y-85440654D01*
X192803138Y-85459704D01*
X192764468Y-85471435D01*
X192718112Y-85476000D01*
X191641888Y-85476000D01*
X191595532Y-85471435D01*
X191556862Y-85459704D01*
X191521223Y-85440654D01*
X191489983Y-85415017D01*
X191464346Y-85383777D01*
X191445296Y-85348138D01*
X191433565Y-85309468D01*
X191429000Y-85263112D01*
X191429000Y-84611888D01*
X191433565Y-84565532D01*
X191445296Y-84526862D01*
X191464346Y-84491223D01*
X191489983Y-84459983D01*
X191521223Y-84434346D01*
X191556862Y-84415296D01*
X191595532Y-84403565D01*
X191641888Y-84399000D01*
X192718112Y-84399000D01*
X192764468Y-84403565D01*
G37*
G36*
X190764468Y-84403565D02*
G01*
X190803138Y-84415296D01*
X190838777Y-84434346D01*
X190870017Y-84459983D01*
X190895654Y-84491223D01*
X190914704Y-84526862D01*
X190926435Y-84565532D01*
X190931000Y-84611888D01*
X190931000Y-85263112D01*
X190926435Y-85309468D01*
X190914704Y-85348138D01*
X190895654Y-85383777D01*
X190870017Y-85415017D01*
X190838777Y-85440654D01*
X190803138Y-85459704D01*
X190764468Y-85471435D01*
X190718112Y-85476000D01*
X189641888Y-85476000D01*
X189595532Y-85471435D01*
X189556862Y-85459704D01*
X189521223Y-85440654D01*
X189489983Y-85415017D01*
X189464346Y-85383777D01*
X189445296Y-85348138D01*
X189433565Y-85309468D01*
X189429000Y-85263112D01*
X189429000Y-84611888D01*
X189433565Y-84565532D01*
X189445296Y-84526862D01*
X189464346Y-84491223D01*
X189489983Y-84459983D01*
X189521223Y-84434346D01*
X189556862Y-84415296D01*
X189595532Y-84403565D01*
X189641888Y-84399000D01*
X190718112Y-84399000D01*
X190764468Y-84403565D01*
G37*
G36*
X184643500Y-85301000D02*
G01*
X182641500Y-85301000D01*
X182641500Y-83699000D01*
X184643500Y-83699000D01*
X184643500Y-85301000D01*
G37*
G36*
X195764468Y-84028565D02*
G01*
X195803138Y-84040296D01*
X195838777Y-84059346D01*
X195870017Y-84084983D01*
X195895654Y-84116223D01*
X195914704Y-84151862D01*
X195926435Y-84190532D01*
X195931000Y-84236888D01*
X195931000Y-84888112D01*
X195926435Y-84934468D01*
X195914704Y-84973138D01*
X195895654Y-85008777D01*
X195870017Y-85040017D01*
X195838777Y-85065654D01*
X195803138Y-85084704D01*
X195764468Y-85096435D01*
X195718112Y-85101000D01*
X194641888Y-85101000D01*
X194595532Y-85096435D01*
X194556862Y-85084704D01*
X194521223Y-85065654D01*
X194489983Y-85040017D01*
X194464346Y-85008777D01*
X194445296Y-84973138D01*
X194433565Y-84934468D01*
X194429000Y-84888112D01*
X194429000Y-84236888D01*
X194433565Y-84190532D01*
X194445296Y-84151862D01*
X194464346Y-84116223D01*
X194489983Y-84084983D01*
X194521223Y-84059346D01*
X194556862Y-84040296D01*
X194595532Y-84028565D01*
X194641888Y-84024000D01*
X195718112Y-84024000D01*
X195764468Y-84028565D01*
G37*
G36*
X197764468Y-84028565D02*
G01*
X197803138Y-84040296D01*
X197838777Y-84059346D01*
X197870017Y-84084983D01*
X197895654Y-84116223D01*
X197914704Y-84151862D01*
X197926435Y-84190532D01*
X197931000Y-84236888D01*
X197931000Y-84888112D01*
X197926435Y-84934468D01*
X197914704Y-84973138D01*
X197895654Y-85008777D01*
X197870017Y-85040017D01*
X197838777Y-85065654D01*
X197803138Y-85084704D01*
X197764468Y-85096435D01*
X197718112Y-85101000D01*
X196641888Y-85101000D01*
X196595532Y-85096435D01*
X196556862Y-85084704D01*
X196521223Y-85065654D01*
X196489983Y-85040017D01*
X196464346Y-85008777D01*
X196445296Y-84973138D01*
X196433565Y-84934468D01*
X196429000Y-84888112D01*
X196429000Y-84236888D01*
X196433565Y-84190532D01*
X196445296Y-84151862D01*
X196464346Y-84116223D01*
X196489983Y-84084983D01*
X196521223Y-84059346D01*
X196556862Y-84040296D01*
X196595532Y-84028565D01*
X196641888Y-84024000D01*
X197718112Y-84024000D01*
X197764468Y-84028565D01*
G37*
G36*
X228656000Y-84851000D02*
G01*
X227004000Y-84851000D01*
X227004000Y-84149000D01*
X228656000Y-84149000D01*
X228656000Y-84851000D01*
G37*
G36*
X223256000Y-84851000D02*
G01*
X221604000Y-84851000D01*
X221604000Y-84149000D01*
X223256000Y-84149000D01*
X223256000Y-84851000D01*
G37*
G36*
X217981000Y-84751000D02*
G01*
X216379000Y-84751000D01*
X216379000Y-83749000D01*
X217981000Y-83749000D01*
X217981000Y-84751000D01*
G37*
G36*
X230944468Y-83253565D02*
G01*
X230983138Y-83265296D01*
X231018777Y-83284346D01*
X231050017Y-83309983D01*
X231075654Y-83341223D01*
X231094704Y-83376862D01*
X231106435Y-83415532D01*
X231111000Y-83461888D01*
X231111000Y-84538112D01*
X231106435Y-84584468D01*
X231094704Y-84623138D01*
X231075654Y-84658777D01*
X231050017Y-84690017D01*
X231018777Y-84715654D01*
X230983138Y-84734704D01*
X230944468Y-84746435D01*
X230898112Y-84751000D01*
X230246888Y-84751000D01*
X230200532Y-84746435D01*
X230161862Y-84734704D01*
X230126223Y-84715654D01*
X230094983Y-84690017D01*
X230069346Y-84658777D01*
X230050296Y-84623138D01*
X230038565Y-84584468D01*
X230034000Y-84538112D01*
X230034000Y-83461888D01*
X230038565Y-83415532D01*
X230050296Y-83376862D01*
X230069346Y-83341223D01*
X230094983Y-83309983D01*
X230126223Y-83284346D01*
X230161862Y-83265296D01*
X230200532Y-83253565D01*
X230246888Y-83249000D01*
X230898112Y-83249000D01*
X230944468Y-83253565D01*
G37*
G36*
X232819468Y-83253565D02*
G01*
X232858138Y-83265296D01*
X232893777Y-83284346D01*
X232925017Y-83309983D01*
X232950654Y-83341223D01*
X232969704Y-83376862D01*
X232981435Y-83415532D01*
X232986000Y-83461888D01*
X232986000Y-84538112D01*
X232981435Y-84584468D01*
X232969704Y-84623138D01*
X232950654Y-84658777D01*
X232925017Y-84690017D01*
X232893777Y-84715654D01*
X232858138Y-84734704D01*
X232819468Y-84746435D01*
X232773112Y-84751000D01*
X232121888Y-84751000D01*
X232075532Y-84746435D01*
X232036862Y-84734704D01*
X232001223Y-84715654D01*
X231969983Y-84690017D01*
X231944346Y-84658777D01*
X231925296Y-84623138D01*
X231913565Y-84584468D01*
X231909000Y-84538112D01*
X231909000Y-83461888D01*
X231913565Y-83415532D01*
X231925296Y-83376862D01*
X231944346Y-83341223D01*
X231969983Y-83309983D01*
X232001223Y-83284346D01*
X232036862Y-83265296D01*
X232075532Y-83253565D01*
X232121888Y-83249000D01*
X232773112Y-83249000D01*
X232819468Y-83253565D01*
G37*
G36*
X200481000Y-84751000D02*
G01*
X198879000Y-84751000D01*
X198879000Y-83749000D01*
X200481000Y-83749000D01*
X200481000Y-84751000D01*
G37*
G36*
X237200781Y-83303295D02*
G01*
X237236816Y-83314227D01*
X237270024Y-83331977D01*
X237299134Y-83355866D01*
X237323023Y-83384976D01*
X237340773Y-83418184D01*
X237351705Y-83454219D01*
X237356000Y-83497831D01*
X237356000Y-84502169D01*
X237351705Y-84545781D01*
X237340773Y-84581816D01*
X237323023Y-84615024D01*
X237299134Y-84644134D01*
X237270024Y-84668023D01*
X237236816Y-84685773D01*
X237200781Y-84696705D01*
X237157169Y-84701000D01*
X236127831Y-84701000D01*
X236084219Y-84696705D01*
X236048184Y-84685773D01*
X236014976Y-84668023D01*
X235985866Y-84644134D01*
X235961977Y-84615024D01*
X235944227Y-84581816D01*
X235933295Y-84545781D01*
X235929000Y-84502169D01*
X235929000Y-83497831D01*
X235933295Y-83454219D01*
X235944227Y-83418184D01*
X235961977Y-83384976D01*
X235985866Y-83355866D01*
X236014976Y-83331977D01*
X236048184Y-83314227D01*
X236084219Y-83303295D01*
X236127831Y-83299000D01*
X237157169Y-83299000D01*
X237200781Y-83303295D01*
G37*
G36*
X235275781Y-83303295D02*
G01*
X235311816Y-83314227D01*
X235345024Y-83331977D01*
X235374134Y-83355866D01*
X235398023Y-83384976D01*
X235415773Y-83418184D01*
X235426705Y-83454219D01*
X235431000Y-83497831D01*
X235431000Y-84502169D01*
X235426705Y-84545781D01*
X235415773Y-84581816D01*
X235398023Y-84615024D01*
X235374134Y-84644134D01*
X235345024Y-84668023D01*
X235311816Y-84685773D01*
X235275781Y-84696705D01*
X235232169Y-84701000D01*
X234202831Y-84701000D01*
X234159219Y-84696705D01*
X234123184Y-84685773D01*
X234089976Y-84668023D01*
X234060866Y-84644134D01*
X234036977Y-84615024D01*
X234019227Y-84581816D01*
X234008295Y-84545781D01*
X234004000Y-84502169D01*
X234004000Y-83497831D01*
X234008295Y-83454219D01*
X234019227Y-83418184D01*
X234036977Y-83384976D01*
X234060866Y-83355866D01*
X234089976Y-83331977D01*
X234123184Y-83314227D01*
X234159219Y-83303295D01*
X234202831Y-83299000D01*
X235232169Y-83299000D01*
X235275781Y-83303295D01*
G37*
G36*
X190764468Y-82528565D02*
G01*
X190803138Y-82540296D01*
X190838777Y-82559346D01*
X190870017Y-82584983D01*
X190895654Y-82616223D01*
X190914704Y-82651862D01*
X190926435Y-82690532D01*
X190931000Y-82736888D01*
X190931000Y-83388112D01*
X190926435Y-83434468D01*
X190914704Y-83473138D01*
X190895654Y-83508777D01*
X190870017Y-83540017D01*
X190838777Y-83565654D01*
X190803138Y-83584704D01*
X190764468Y-83596435D01*
X190718112Y-83601000D01*
X189641888Y-83601000D01*
X189595532Y-83596435D01*
X189556862Y-83584704D01*
X189521223Y-83565654D01*
X189489983Y-83540017D01*
X189464346Y-83508777D01*
X189445296Y-83473138D01*
X189433565Y-83434468D01*
X189429000Y-83388112D01*
X189429000Y-82736888D01*
X189433565Y-82690532D01*
X189445296Y-82651862D01*
X189464346Y-82616223D01*
X189489983Y-82584983D01*
X189521223Y-82559346D01*
X189556862Y-82540296D01*
X189595532Y-82528565D01*
X189641888Y-82524000D01*
X190718112Y-82524000D01*
X190764468Y-82528565D01*
G37*
G36*
X192764468Y-82528565D02*
G01*
X192803138Y-82540296D01*
X192838777Y-82559346D01*
X192870017Y-82584983D01*
X192895654Y-82616223D01*
X192914704Y-82651862D01*
X192926435Y-82690532D01*
X192931000Y-82736888D01*
X192931000Y-83388112D01*
X192926435Y-83434468D01*
X192914704Y-83473138D01*
X192895654Y-83508777D01*
X192870017Y-83540017D01*
X192838777Y-83565654D01*
X192803138Y-83584704D01*
X192764468Y-83596435D01*
X192718112Y-83601000D01*
X191641888Y-83601000D01*
X191595532Y-83596435D01*
X191556862Y-83584704D01*
X191521223Y-83565654D01*
X191489983Y-83540017D01*
X191464346Y-83508777D01*
X191445296Y-83473138D01*
X191433565Y-83434468D01*
X191429000Y-83388112D01*
X191429000Y-82736888D01*
X191433565Y-82690532D01*
X191445296Y-82651862D01*
X191464346Y-82616223D01*
X191489983Y-82584983D01*
X191521223Y-82559346D01*
X191556862Y-82540296D01*
X191595532Y-82528565D01*
X191641888Y-82524000D01*
X192718112Y-82524000D01*
X192764468Y-82528565D01*
G37*
G36*
X217981000Y-83251000D02*
G01*
X216379000Y-83251000D01*
X216379000Y-82249000D01*
X217981000Y-82249000D01*
X217981000Y-83251000D01*
G37*
G36*
X184056355Y-81352140D02*
G01*
X184120118Y-81358420D01*
X184210904Y-81385960D01*
X184242836Y-81395646D01*
X184355925Y-81456094D01*
X184455054Y-81537446D01*
X184536406Y-81636575D01*
X184596854Y-81749664D01*
X184596855Y-81749668D01*
X184630413Y-81860292D01*
X184639787Y-81882925D01*
X184643500Y-81888482D01*
X184643500Y-81961886D01*
X184644102Y-81974138D01*
X184646649Y-82000000D01*
X184644102Y-82025862D01*
X184643500Y-82038114D01*
X184643500Y-83251000D01*
X182641500Y-83251000D01*
X182641500Y-82038114D01*
X182640898Y-82025862D01*
X182638351Y-82000000D01*
X182640898Y-81974138D01*
X182641500Y-81961886D01*
X182641500Y-81888594D01*
X182650457Y-81871836D01*
X182654585Y-81860299D01*
X182688145Y-81749668D01*
X182688146Y-81749664D01*
X182748594Y-81636575D01*
X182829946Y-81537446D01*
X182929075Y-81456094D01*
X183042164Y-81395646D01*
X183074096Y-81385960D01*
X183164882Y-81358420D01*
X183228645Y-81352140D01*
X183260526Y-81349000D01*
X184024474Y-81349000D01*
X184056355Y-81352140D01*
G37*
G36*
X200481000Y-83251000D02*
G01*
X198879000Y-83251000D01*
X198879000Y-82249000D01*
X200481000Y-82249000D01*
X200481000Y-83251000D01*
G37*
G36*
X198264468Y-80153565D02*
G01*
X198303138Y-80165296D01*
X198338777Y-80184346D01*
X198370017Y-80209983D01*
X198395654Y-80241223D01*
X198414704Y-80276862D01*
X198426435Y-80315532D01*
X198431000Y-80361888D01*
X198431000Y-81013112D01*
X198426435Y-81059468D01*
X198414704Y-81098138D01*
X198395654Y-81133777D01*
X198370017Y-81165017D01*
X198338777Y-81190654D01*
X198303138Y-81209704D01*
X198264468Y-81221435D01*
X198218112Y-81226000D01*
X197141888Y-81226000D01*
X197095532Y-81221435D01*
X197056862Y-81209704D01*
X197021223Y-81190654D01*
X196989983Y-81165017D01*
X196964346Y-81133777D01*
X196945296Y-81098138D01*
X196933565Y-81059468D01*
X196929000Y-81013112D01*
X196929000Y-80361888D01*
X196933565Y-80315532D01*
X196945296Y-80276862D01*
X196964346Y-80241223D01*
X196989983Y-80209983D01*
X197021223Y-80184346D01*
X197056862Y-80165296D01*
X197095532Y-80153565D01*
X197141888Y-80149000D01*
X198218112Y-80149000D01*
X198264468Y-80153565D01*
G37*
G36*
X195764468Y-80153565D02*
G01*
X195803138Y-80165296D01*
X195838777Y-80184346D01*
X195870017Y-80209983D01*
X195895654Y-80241223D01*
X195914704Y-80276862D01*
X195926435Y-80315532D01*
X195931000Y-80361888D01*
X195931000Y-81013112D01*
X195926435Y-81059468D01*
X195914704Y-81098138D01*
X195895654Y-81133777D01*
X195870017Y-81165017D01*
X195838777Y-81190654D01*
X195803138Y-81209704D01*
X195764468Y-81221435D01*
X195718112Y-81226000D01*
X194641888Y-81226000D01*
X194595532Y-81221435D01*
X194556862Y-81209704D01*
X194521223Y-81190654D01*
X194489983Y-81165017D01*
X194464346Y-81133777D01*
X194445296Y-81098138D01*
X194433565Y-81059468D01*
X194429000Y-81013112D01*
X194429000Y-80361888D01*
X194433565Y-80315532D01*
X194445296Y-80276862D01*
X194464346Y-80241223D01*
X194489983Y-80209983D01*
X194521223Y-80184346D01*
X194556862Y-80165296D01*
X194595532Y-80153565D01*
X194641888Y-80149000D01*
X195718112Y-80149000D01*
X195764468Y-80153565D01*
G37*
G36*
X198264468Y-78278565D02*
G01*
X198303138Y-78290296D01*
X198338777Y-78309346D01*
X198370017Y-78334983D01*
X198395654Y-78366223D01*
X198414704Y-78401862D01*
X198426435Y-78440532D01*
X198431000Y-78486888D01*
X198431000Y-79138112D01*
X198426435Y-79184468D01*
X198414704Y-79223138D01*
X198395654Y-79258777D01*
X198370017Y-79290017D01*
X198338777Y-79315654D01*
X198303138Y-79334704D01*
X198264468Y-79346435D01*
X198218112Y-79351000D01*
X197141888Y-79351000D01*
X197095532Y-79346435D01*
X197056862Y-79334704D01*
X197021223Y-79315654D01*
X196989983Y-79290017D01*
X196964346Y-79258777D01*
X196945296Y-79223138D01*
X196933565Y-79184468D01*
X196929000Y-79138112D01*
X196929000Y-78486888D01*
X196933565Y-78440532D01*
X196945296Y-78401862D01*
X196964346Y-78366223D01*
X196989983Y-78334983D01*
X197021223Y-78309346D01*
X197056862Y-78290296D01*
X197095532Y-78278565D01*
X197141888Y-78274000D01*
X198218112Y-78274000D01*
X198264468Y-78278565D01*
G37*
G36*
X195764468Y-78278565D02*
G01*
X195803138Y-78290296D01*
X195838777Y-78309346D01*
X195870017Y-78334983D01*
X195895654Y-78366223D01*
X195914704Y-78401862D01*
X195926435Y-78440532D01*
X195931000Y-78486888D01*
X195931000Y-79138112D01*
X195926435Y-79184468D01*
X195914704Y-79223138D01*
X195895654Y-79258777D01*
X195870017Y-79290017D01*
X195838777Y-79315654D01*
X195803138Y-79334704D01*
X195764468Y-79346435D01*
X195718112Y-79351000D01*
X194641888Y-79351000D01*
X194595532Y-79346435D01*
X194556862Y-79334704D01*
X194521223Y-79315654D01*
X194489983Y-79290017D01*
X194464346Y-79258777D01*
X194445296Y-79223138D01*
X194433565Y-79184468D01*
X194429000Y-79138112D01*
X194429000Y-78486888D01*
X194433565Y-78440532D01*
X194445296Y-78401862D01*
X194464346Y-78366223D01*
X194489983Y-78334983D01*
X194521223Y-78309346D01*
X194556862Y-78290296D01*
X194595532Y-78278565D01*
X194641888Y-78274000D01*
X195718112Y-78274000D01*
X195764468Y-78278565D01*
G37*
M02*
