M48
; DRILL file {KiCad (5.1.6)-1} date 10/20/20 10:42:21
; FORMAT={-:-/ absolute / metric / decimal}
; #@! TF.CreationDate,2020-10-20T10:42:21+02:00
; #@! TF.GenerationSoftware,Kicad,Pcbnew,(5.1.6)-1
; #@! TF.FileFunction,Plated,1,2,PTH
FMAT,2
METRIC
T1C0.400
T2C0.500
T3C0.700
T4C1.000
T5C3.200
%
G90
G05
T1
X7.25Y-26.0
X9.5Y-19.25
X11.5Y-32.0
X11.75Y-21.75
X11.75Y-22.75
X11.75Y-23.75
X11.75Y-24.75
X11.75Y-25.75
X11.75Y-26.75
X11.75Y-27.75
X12.75Y-21.75
X12.75Y-22.75
X12.75Y-23.75
X12.75Y-24.75
X12.75Y-25.75
X12.75Y-26.75
X12.75Y-27.75
X13.75Y-21.75
X13.75Y-22.75
X13.75Y-23.75
X13.75Y-24.75
X13.75Y-25.75
X13.75Y-26.75
X13.75Y-27.75
X14.75Y-1.5
X15.0Y-19.5
X16.5Y-30.5
X17.25Y-1.5
X17.5Y-13.0
X17.75Y-20.5
X22.25Y-22.25
X22.25Y-32.0
X22.5Y-13.25
X23.5Y-23.5
X23.5Y-32.25
X25.25Y-35.5
X30.25Y-35.75
X30.5Y-27.5
X31.5Y-23.75
X32.5Y-24.5
X35.25Y-14.0
X39.25Y-8.0
X40.0Y-20.0
X40.75Y-9.5
X41.0Y-24.25
X41.0Y-25.5
X41.0Y-26.75
X41.0Y-28.0
X41.0Y-29.25
X41.0Y-31.5
X47.75Y-22.25
X47.75Y-23.75
X47.75Y-25.25
X47.75Y-26.75
X47.75Y-28.25
X47.75Y-29.75
X47.75Y-31.25
X56.0Y-11.25
X56.0Y-14.25
X56.0Y-17.25
X56.0Y-20.25
X56.0Y-23.25
X56.0Y-26.25
X56.0Y-29.25
X56.0Y-32.25
T3
X5.5Y-12.825
X5.5Y-17.675
T4
X2.5Y-25.0
X2.5Y-27.54
X2.5Y-30.08
X2.5Y-32.62
T5
X5.0Y-5.0
X55.0Y-5.0
T2
G00X3.1Y-11.65
M15
G01X2.3Y-11.65
M16
G05
G00X2.3Y-18.85
M15
G01X3.1Y-18.85
M16
G05
T0
M30
