G04 #@! TF.GenerationSoftware,KiCad,Pcbnew,(5.1.6)-1*
G04 #@! TF.CreationDate,2020-10-01T16:15:47+02:00*
G04 #@! TF.ProjectId,8Bit_WiFi_Visualizer,38426974-5f57-4694-9669-5f5669737561,A01*
G04 #@! TF.SameCoordinates,Original*
G04 #@! TF.FileFunction,Soldermask,Top*
G04 #@! TF.FilePolarity,Negative*
%FSLAX46Y46*%
G04 Gerber Fmt 4.6, Leading zero omitted, Abs format (unit mm)*
G04 Created by KiCad (PCBNEW (5.1.6)-1) date 2020-10-01 16:15:47*
%MOMM*%
%LPD*%
G01*
G04 APERTURE LIST*
%ADD10C,0.250000*%
%ADD11C,0.100000*%
G04 APERTURE END LIST*
D10*
X49761904Y-43208333D02*
X50357142Y-43208333D01*
X49642857Y-43565476D02*
X50059523Y-42315476D01*
X50476190Y-43565476D01*
X51130952Y-42315476D02*
X51250000Y-42315476D01*
X51369047Y-42375000D01*
X51428571Y-42434523D01*
X51488095Y-42553571D01*
X51547619Y-42791666D01*
X51547619Y-43089285D01*
X51488095Y-43327380D01*
X51428571Y-43446428D01*
X51369047Y-43505952D01*
X51250000Y-43565476D01*
X51130952Y-43565476D01*
X51011904Y-43505952D01*
X50952380Y-43446428D01*
X50892857Y-43327380D01*
X50833333Y-43089285D01*
X50833333Y-42791666D01*
X50892857Y-42553571D01*
X50952380Y-42434523D01*
X51011904Y-42375000D01*
X51130952Y-42315476D01*
X52619047Y-42732142D02*
X52619047Y-43565476D01*
X52321428Y-42255952D02*
X52023809Y-43148809D01*
X52797619Y-43148809D01*
D11*
G36*
X54551000Y-40951000D02*
G01*
X52899000Y-40951000D01*
X52899000Y-39549000D01*
X54551000Y-39549000D01*
X54551000Y-40951000D01*
G37*
G36*
X46601000Y-40951000D02*
G01*
X44949000Y-40951000D01*
X44949000Y-39549000D01*
X46601000Y-39549000D01*
X46601000Y-40951000D01*
G37*
G36*
X14451000Y-39101000D02*
G01*
X11949000Y-39101000D01*
X11949000Y-36899000D01*
X14451000Y-36899000D01*
X14451000Y-39101000D01*
G37*
G36*
X22251000Y-39101000D02*
G01*
X19749000Y-39101000D01*
X19749000Y-36899000D01*
X22251000Y-36899000D01*
X22251000Y-39101000D01*
G37*
G36*
X54551000Y-36451000D02*
G01*
X52899000Y-36451000D01*
X52899000Y-35049000D01*
X54551000Y-35049000D01*
X54551000Y-36451000D01*
G37*
G36*
X46601000Y-36451000D02*
G01*
X44949000Y-36451000D01*
X44949000Y-35049000D01*
X46601000Y-35049000D01*
X46601000Y-36451000D01*
G37*
G36*
X22251000Y-35101000D02*
G01*
X19749000Y-35101000D01*
X19749000Y-32899000D01*
X22251000Y-32899000D01*
X22251000Y-35101000D01*
G37*
G36*
X14451000Y-35101000D02*
G01*
X11949000Y-35101000D01*
X11949000Y-32899000D01*
X14451000Y-32899000D01*
X14451000Y-35101000D01*
G37*
G36*
X10275562Y-32478181D02*
G01*
X10310481Y-32488774D01*
X10342663Y-32505976D01*
X10370873Y-32529127D01*
X10394024Y-32557337D01*
X10411226Y-32589519D01*
X10421819Y-32624438D01*
X10426000Y-32666895D01*
X10426000Y-33808105D01*
X10421819Y-33850562D01*
X10411226Y-33885481D01*
X10394024Y-33917663D01*
X10370873Y-33945873D01*
X10342663Y-33969024D01*
X10310481Y-33986226D01*
X10275562Y-33996819D01*
X10233105Y-34001000D01*
X8766895Y-34001000D01*
X8724438Y-33996819D01*
X8689519Y-33986226D01*
X8657337Y-33969024D01*
X8629127Y-33945873D01*
X8605976Y-33917663D01*
X8588774Y-33885481D01*
X8578181Y-33850562D01*
X8574000Y-33808105D01*
X8574000Y-32666895D01*
X8578181Y-32624438D01*
X8588774Y-32589519D01*
X8605976Y-32557337D01*
X8629127Y-32529127D01*
X8657337Y-32505976D01*
X8689519Y-32488774D01*
X8724438Y-32478181D01*
X8766895Y-32474000D01*
X10233105Y-32474000D01*
X10275562Y-32478181D01*
G37*
G36*
X2613512Y-31723927D02*
G01*
X2762812Y-31753624D01*
X2926784Y-31821544D01*
X3074354Y-31920147D01*
X3199853Y-32045646D01*
X3298456Y-32193216D01*
X3366376Y-32357188D01*
X3401000Y-32531259D01*
X3401000Y-32708741D01*
X3366376Y-32882812D01*
X3298456Y-33046784D01*
X3199853Y-33194354D01*
X3074354Y-33319853D01*
X2926784Y-33418456D01*
X2762812Y-33486376D01*
X2613512Y-33516073D01*
X2588742Y-33521000D01*
X2411258Y-33521000D01*
X2386488Y-33516073D01*
X2237188Y-33486376D01*
X2073216Y-33418456D01*
X1925646Y-33319853D01*
X1800147Y-33194354D01*
X1701544Y-33046784D01*
X1633624Y-32882812D01*
X1599000Y-32708741D01*
X1599000Y-32531259D01*
X1633624Y-32357188D01*
X1701544Y-32193216D01*
X1800147Y-32045646D01*
X1925646Y-31920147D01*
X2073216Y-31821544D01*
X2237188Y-31753624D01*
X2386488Y-31723927D01*
X2411258Y-31719000D01*
X2588742Y-31719000D01*
X2613512Y-31723927D01*
G37*
G36*
X54280562Y-31328181D02*
G01*
X54315481Y-31338774D01*
X54347663Y-31355976D01*
X54375873Y-31379127D01*
X54399024Y-31407337D01*
X54416226Y-31439519D01*
X54426819Y-31474438D01*
X54431000Y-31516895D01*
X54431000Y-32983105D01*
X54426819Y-33025562D01*
X54416226Y-33060481D01*
X54399024Y-33092663D01*
X54375873Y-33120873D01*
X54347663Y-33144024D01*
X54315481Y-33161226D01*
X54280562Y-33171819D01*
X54238105Y-33176000D01*
X53096895Y-33176000D01*
X53054438Y-33171819D01*
X53019519Y-33161226D01*
X52987337Y-33144024D01*
X52959127Y-33120873D01*
X52935976Y-33092663D01*
X52918774Y-33060481D01*
X52908181Y-33025562D01*
X52904000Y-32983105D01*
X52904000Y-31516895D01*
X52908181Y-31474438D01*
X52918774Y-31439519D01*
X52935976Y-31407337D01*
X52959127Y-31379127D01*
X52987337Y-31355976D01*
X53019519Y-31338774D01*
X53054438Y-31328181D01*
X53096895Y-31324000D01*
X54238105Y-31324000D01*
X54280562Y-31328181D01*
G37*
G36*
X51305562Y-31328181D02*
G01*
X51340481Y-31338774D01*
X51372663Y-31355976D01*
X51400873Y-31379127D01*
X51424024Y-31407337D01*
X51441226Y-31439519D01*
X51451819Y-31474438D01*
X51456000Y-31516895D01*
X51456000Y-32983105D01*
X51451819Y-33025562D01*
X51441226Y-33060481D01*
X51424024Y-33092663D01*
X51400873Y-33120873D01*
X51372663Y-33144024D01*
X51340481Y-33161226D01*
X51305562Y-33171819D01*
X51263105Y-33176000D01*
X50121895Y-33176000D01*
X50079438Y-33171819D01*
X50044519Y-33161226D01*
X50012337Y-33144024D01*
X49984127Y-33120873D01*
X49960976Y-33092663D01*
X49943774Y-33060481D01*
X49933181Y-33025562D01*
X49929000Y-32983105D01*
X49929000Y-31516895D01*
X49933181Y-31474438D01*
X49943774Y-31439519D01*
X49960976Y-31407337D01*
X49984127Y-31379127D01*
X50012337Y-31355976D01*
X50044519Y-31338774D01*
X50079438Y-31328181D01*
X50121895Y-31324000D01*
X51263105Y-31324000D01*
X51305562Y-31328181D01*
G37*
G36*
X39459928Y-32096764D02*
G01*
X39481009Y-32103160D01*
X39500445Y-32113548D01*
X39517476Y-32127524D01*
X39531452Y-32144555D01*
X39541840Y-32163991D01*
X39548236Y-32185072D01*
X39551000Y-32213140D01*
X39551000Y-32676860D01*
X39548236Y-32704928D01*
X39541840Y-32726009D01*
X39531452Y-32745445D01*
X39517476Y-32762476D01*
X39500445Y-32776452D01*
X39481009Y-32786840D01*
X39459928Y-32793236D01*
X39431860Y-32796000D01*
X37618140Y-32796000D01*
X37590072Y-32793236D01*
X37568991Y-32786840D01*
X37549555Y-32776452D01*
X37532524Y-32762476D01*
X37518548Y-32745445D01*
X37508160Y-32726009D01*
X37501764Y-32704928D01*
X37499000Y-32676860D01*
X37499000Y-32213140D01*
X37501764Y-32185072D01*
X37508160Y-32163991D01*
X37518548Y-32144555D01*
X37532524Y-32127524D01*
X37549555Y-32113548D01*
X37568991Y-32103160D01*
X37590072Y-32096764D01*
X37618140Y-32094000D01*
X39431860Y-32094000D01*
X39459928Y-32096764D01*
G37*
G36*
X44409928Y-32096764D02*
G01*
X44431009Y-32103160D01*
X44450445Y-32113548D01*
X44467476Y-32127524D01*
X44481452Y-32144555D01*
X44491840Y-32163991D01*
X44498236Y-32185072D01*
X44501000Y-32213140D01*
X44501000Y-32676860D01*
X44498236Y-32704928D01*
X44491840Y-32726009D01*
X44481452Y-32745445D01*
X44467476Y-32762476D01*
X44450445Y-32776452D01*
X44431009Y-32786840D01*
X44409928Y-32793236D01*
X44381860Y-32796000D01*
X42568140Y-32796000D01*
X42540072Y-32793236D01*
X42518991Y-32786840D01*
X42499555Y-32776452D01*
X42482524Y-32762476D01*
X42468548Y-32745445D01*
X42458160Y-32726009D01*
X42451764Y-32704928D01*
X42449000Y-32676860D01*
X42449000Y-32213140D01*
X42451764Y-32185072D01*
X42458160Y-32163991D01*
X42468548Y-32144555D01*
X42482524Y-32127524D01*
X42499555Y-32113548D01*
X42518991Y-32103160D01*
X42540072Y-32096764D01*
X42568140Y-32094000D01*
X44381860Y-32094000D01*
X44409928Y-32096764D01*
G37*
G36*
X39459928Y-30826764D02*
G01*
X39481009Y-30833160D01*
X39500445Y-30843548D01*
X39517476Y-30857524D01*
X39531452Y-30874555D01*
X39541840Y-30893991D01*
X39548236Y-30915072D01*
X39551000Y-30943140D01*
X39551000Y-31406860D01*
X39548236Y-31434928D01*
X39541840Y-31456009D01*
X39531452Y-31475445D01*
X39517476Y-31492476D01*
X39500445Y-31506452D01*
X39481009Y-31516840D01*
X39459928Y-31523236D01*
X39431860Y-31526000D01*
X37618140Y-31526000D01*
X37590072Y-31523236D01*
X37568991Y-31516840D01*
X37549555Y-31506452D01*
X37532524Y-31492476D01*
X37518548Y-31475445D01*
X37508160Y-31456009D01*
X37501764Y-31434928D01*
X37499000Y-31406860D01*
X37499000Y-30943140D01*
X37501764Y-30915072D01*
X37508160Y-30893991D01*
X37518548Y-30874555D01*
X37532524Y-30857524D01*
X37549555Y-30843548D01*
X37568991Y-30833160D01*
X37590072Y-30826764D01*
X37618140Y-30824000D01*
X39431860Y-30824000D01*
X39459928Y-30826764D01*
G37*
G36*
X44409928Y-30826764D02*
G01*
X44431009Y-30833160D01*
X44450445Y-30843548D01*
X44467476Y-30857524D01*
X44481452Y-30874555D01*
X44491840Y-30893991D01*
X44498236Y-30915072D01*
X44501000Y-30943140D01*
X44501000Y-31406860D01*
X44498236Y-31434928D01*
X44491840Y-31456009D01*
X44481452Y-31475445D01*
X44467476Y-31492476D01*
X44450445Y-31506452D01*
X44431009Y-31516840D01*
X44409928Y-31523236D01*
X44381860Y-31526000D01*
X42568140Y-31526000D01*
X42540072Y-31523236D01*
X42518991Y-31516840D01*
X42499555Y-31506452D01*
X42482524Y-31492476D01*
X42468548Y-31475445D01*
X42458160Y-31456009D01*
X42451764Y-31434928D01*
X42449000Y-31406860D01*
X42449000Y-30943140D01*
X42451764Y-30915072D01*
X42458160Y-30893991D01*
X42468548Y-30874555D01*
X42482524Y-30857524D01*
X42499555Y-30843548D01*
X42518991Y-30833160D01*
X42540072Y-30826764D01*
X42568140Y-30824000D01*
X44381860Y-30824000D01*
X44409928Y-30826764D01*
G37*
G36*
X21775562Y-29728181D02*
G01*
X21810481Y-29738774D01*
X21842663Y-29755976D01*
X21870873Y-29779127D01*
X21894024Y-29807337D01*
X21911226Y-29839519D01*
X21921819Y-29874438D01*
X21926000Y-29916895D01*
X21926000Y-31058105D01*
X21921819Y-31100562D01*
X21911226Y-31135481D01*
X21894024Y-31167663D01*
X21870873Y-31195873D01*
X21842663Y-31219024D01*
X21810481Y-31236226D01*
X21775562Y-31246819D01*
X21733105Y-31251000D01*
X20266895Y-31251000D01*
X20224438Y-31246819D01*
X20189519Y-31236226D01*
X20157337Y-31219024D01*
X20129127Y-31195873D01*
X20105976Y-31167663D01*
X20088774Y-31135481D01*
X20078181Y-31100562D01*
X20074000Y-31058105D01*
X20074000Y-29916895D01*
X20078181Y-29874438D01*
X20088774Y-29839519D01*
X20105976Y-29807337D01*
X20129127Y-29779127D01*
X20157337Y-29755976D01*
X20189519Y-29738774D01*
X20224438Y-29728181D01*
X20266895Y-29724000D01*
X21733105Y-29724000D01*
X21775562Y-29728181D01*
G37*
G36*
X24275562Y-29728181D02*
G01*
X24310481Y-29738774D01*
X24342663Y-29755976D01*
X24370873Y-29779127D01*
X24394024Y-29807337D01*
X24411226Y-29839519D01*
X24421819Y-29874438D01*
X24426000Y-29916895D01*
X24426000Y-31058105D01*
X24421819Y-31100562D01*
X24411226Y-31135481D01*
X24394024Y-31167663D01*
X24370873Y-31195873D01*
X24342663Y-31219024D01*
X24310481Y-31236226D01*
X24275562Y-31246819D01*
X24233105Y-31251000D01*
X22766895Y-31251000D01*
X22724438Y-31246819D01*
X22689519Y-31236226D01*
X22657337Y-31219024D01*
X22629127Y-31195873D01*
X22605976Y-31167663D01*
X22588774Y-31135481D01*
X22578181Y-31100562D01*
X22574000Y-31058105D01*
X22574000Y-29916895D01*
X22578181Y-29874438D01*
X22588774Y-29839519D01*
X22605976Y-29807337D01*
X22629127Y-29779127D01*
X22657337Y-29755976D01*
X22689519Y-29738774D01*
X22724438Y-29728181D01*
X22766895Y-29724000D01*
X24233105Y-29724000D01*
X24275562Y-29728181D01*
G37*
G36*
X29275562Y-29728181D02*
G01*
X29310481Y-29738774D01*
X29342663Y-29755976D01*
X29370873Y-29779127D01*
X29394024Y-29807337D01*
X29411226Y-29839519D01*
X29421819Y-29874438D01*
X29426000Y-29916895D01*
X29426000Y-31058105D01*
X29421819Y-31100562D01*
X29411226Y-31135481D01*
X29394024Y-31167663D01*
X29370873Y-31195873D01*
X29342663Y-31219024D01*
X29310481Y-31236226D01*
X29275562Y-31246819D01*
X29233105Y-31251000D01*
X27766895Y-31251000D01*
X27724438Y-31246819D01*
X27689519Y-31236226D01*
X27657337Y-31219024D01*
X27629127Y-31195873D01*
X27605976Y-31167663D01*
X27588774Y-31135481D01*
X27578181Y-31100562D01*
X27574000Y-31058105D01*
X27574000Y-29916895D01*
X27578181Y-29874438D01*
X27588774Y-29839519D01*
X27605976Y-29807337D01*
X27629127Y-29779127D01*
X27657337Y-29755976D01*
X27689519Y-29738774D01*
X27724438Y-29728181D01*
X27766895Y-29724000D01*
X29233105Y-29724000D01*
X29275562Y-29728181D01*
G37*
G36*
X26775562Y-29728181D02*
G01*
X26810481Y-29738774D01*
X26842663Y-29755976D01*
X26870873Y-29779127D01*
X26894024Y-29807337D01*
X26911226Y-29839519D01*
X26921819Y-29874438D01*
X26926000Y-29916895D01*
X26926000Y-31058105D01*
X26921819Y-31100562D01*
X26911226Y-31135481D01*
X26894024Y-31167663D01*
X26870873Y-31195873D01*
X26842663Y-31219024D01*
X26810481Y-31236226D01*
X26775562Y-31246819D01*
X26733105Y-31251000D01*
X25266895Y-31251000D01*
X25224438Y-31246819D01*
X25189519Y-31236226D01*
X25157337Y-31219024D01*
X25129127Y-31195873D01*
X25105976Y-31167663D01*
X25088774Y-31135481D01*
X25078181Y-31100562D01*
X25074000Y-31058105D01*
X25074000Y-29916895D01*
X25078181Y-29874438D01*
X25088774Y-29839519D01*
X25105976Y-29807337D01*
X25129127Y-29779127D01*
X25157337Y-29755976D01*
X25189519Y-29738774D01*
X25224438Y-29728181D01*
X25266895Y-29724000D01*
X26733105Y-29724000D01*
X26775562Y-29728181D01*
G37*
G36*
X19275562Y-29728181D02*
G01*
X19310481Y-29738774D01*
X19342663Y-29755976D01*
X19370873Y-29779127D01*
X19394024Y-29807337D01*
X19411226Y-29839519D01*
X19421819Y-29874438D01*
X19426000Y-29916895D01*
X19426000Y-31058105D01*
X19421819Y-31100562D01*
X19411226Y-31135481D01*
X19394024Y-31167663D01*
X19370873Y-31195873D01*
X19342663Y-31219024D01*
X19310481Y-31236226D01*
X19275562Y-31246819D01*
X19233105Y-31251000D01*
X17766895Y-31251000D01*
X17724438Y-31246819D01*
X17689519Y-31236226D01*
X17657337Y-31219024D01*
X17629127Y-31195873D01*
X17605976Y-31167663D01*
X17588774Y-31135481D01*
X17578181Y-31100562D01*
X17574000Y-31058105D01*
X17574000Y-29916895D01*
X17578181Y-29874438D01*
X17588774Y-29839519D01*
X17605976Y-29807337D01*
X17629127Y-29779127D01*
X17657337Y-29755976D01*
X17689519Y-29738774D01*
X17724438Y-29728181D01*
X17766895Y-29724000D01*
X19233105Y-29724000D01*
X19275562Y-29728181D01*
G37*
G36*
X10275562Y-29503181D02*
G01*
X10310481Y-29513774D01*
X10342663Y-29530976D01*
X10370873Y-29554127D01*
X10394024Y-29582337D01*
X10411226Y-29614519D01*
X10421819Y-29649438D01*
X10426000Y-29691895D01*
X10426000Y-30833105D01*
X10421819Y-30875562D01*
X10411226Y-30910481D01*
X10394024Y-30942663D01*
X10370873Y-30970873D01*
X10342663Y-30994024D01*
X10310481Y-31011226D01*
X10275562Y-31021819D01*
X10233105Y-31026000D01*
X8766895Y-31026000D01*
X8724438Y-31021819D01*
X8689519Y-31011226D01*
X8657337Y-30994024D01*
X8629127Y-30970873D01*
X8605976Y-30942663D01*
X8588774Y-30910481D01*
X8578181Y-30875562D01*
X8574000Y-30833105D01*
X8574000Y-29691895D01*
X8578181Y-29649438D01*
X8588774Y-29614519D01*
X8605976Y-29582337D01*
X8629127Y-29554127D01*
X8657337Y-29530976D01*
X8689519Y-29513774D01*
X8724438Y-29503181D01*
X8766895Y-29499000D01*
X10233105Y-29499000D01*
X10275562Y-29503181D01*
G37*
G36*
X2613512Y-29183927D02*
G01*
X2762812Y-29213624D01*
X2926784Y-29281544D01*
X3074354Y-29380147D01*
X3199853Y-29505646D01*
X3298456Y-29653216D01*
X3366376Y-29817188D01*
X3401000Y-29991259D01*
X3401000Y-30168741D01*
X3366376Y-30342812D01*
X3298456Y-30506784D01*
X3199853Y-30654354D01*
X3074354Y-30779853D01*
X2926784Y-30878456D01*
X2762812Y-30946376D01*
X2613512Y-30976073D01*
X2588742Y-30981000D01*
X2411258Y-30981000D01*
X2386488Y-30976073D01*
X2237188Y-30946376D01*
X2073216Y-30878456D01*
X1925646Y-30779853D01*
X1800147Y-30654354D01*
X1701544Y-30506784D01*
X1633624Y-30342812D01*
X1599000Y-30168741D01*
X1599000Y-29991259D01*
X1633624Y-29817188D01*
X1701544Y-29653216D01*
X1800147Y-29505646D01*
X1925646Y-29380147D01*
X2073216Y-29281544D01*
X2237188Y-29213624D01*
X2386488Y-29183927D01*
X2411258Y-29179000D01*
X2588742Y-29179000D01*
X2613512Y-29183927D01*
G37*
G36*
X44409928Y-29556764D02*
G01*
X44431009Y-29563160D01*
X44450445Y-29573548D01*
X44467476Y-29587524D01*
X44481452Y-29604555D01*
X44491840Y-29623991D01*
X44498236Y-29645072D01*
X44501000Y-29673140D01*
X44501000Y-30136860D01*
X44498236Y-30164928D01*
X44491840Y-30186009D01*
X44481452Y-30205445D01*
X44467476Y-30222476D01*
X44450445Y-30236452D01*
X44431009Y-30246840D01*
X44409928Y-30253236D01*
X44381860Y-30256000D01*
X42568140Y-30256000D01*
X42540072Y-30253236D01*
X42518991Y-30246840D01*
X42499555Y-30236452D01*
X42482524Y-30222476D01*
X42468548Y-30205445D01*
X42458160Y-30186009D01*
X42451764Y-30164928D01*
X42449000Y-30136860D01*
X42449000Y-29673140D01*
X42451764Y-29645072D01*
X42458160Y-29623991D01*
X42468548Y-29604555D01*
X42482524Y-29587524D01*
X42499555Y-29573548D01*
X42518991Y-29563160D01*
X42540072Y-29556764D01*
X42568140Y-29554000D01*
X44381860Y-29554000D01*
X44409928Y-29556764D01*
G37*
G36*
X39459928Y-29556764D02*
G01*
X39481009Y-29563160D01*
X39500445Y-29573548D01*
X39517476Y-29587524D01*
X39531452Y-29604555D01*
X39541840Y-29623991D01*
X39548236Y-29645072D01*
X39551000Y-29673140D01*
X39551000Y-30136860D01*
X39548236Y-30164928D01*
X39541840Y-30186009D01*
X39531452Y-30205445D01*
X39517476Y-30222476D01*
X39500445Y-30236452D01*
X39481009Y-30246840D01*
X39459928Y-30253236D01*
X39431860Y-30256000D01*
X37618140Y-30256000D01*
X37590072Y-30253236D01*
X37568991Y-30246840D01*
X37549555Y-30236452D01*
X37532524Y-30222476D01*
X37518548Y-30205445D01*
X37508160Y-30186009D01*
X37501764Y-30164928D01*
X37499000Y-30136860D01*
X37499000Y-29673140D01*
X37501764Y-29645072D01*
X37508160Y-29623991D01*
X37518548Y-29604555D01*
X37532524Y-29587524D01*
X37549555Y-29573548D01*
X37568991Y-29563160D01*
X37590072Y-29556764D01*
X37618140Y-29554000D01*
X39431860Y-29554000D01*
X39459928Y-29556764D01*
G37*
G36*
X51305562Y-28328181D02*
G01*
X51340481Y-28338774D01*
X51372663Y-28355976D01*
X51400873Y-28379127D01*
X51424024Y-28407337D01*
X51441226Y-28439519D01*
X51451819Y-28474438D01*
X51456000Y-28516895D01*
X51456000Y-29983105D01*
X51451819Y-30025562D01*
X51441226Y-30060481D01*
X51424024Y-30092663D01*
X51400873Y-30120873D01*
X51372663Y-30144024D01*
X51340481Y-30161226D01*
X51305562Y-30171819D01*
X51263105Y-30176000D01*
X50121895Y-30176000D01*
X50079438Y-30171819D01*
X50044519Y-30161226D01*
X50012337Y-30144024D01*
X49984127Y-30120873D01*
X49960976Y-30092663D01*
X49943774Y-30060481D01*
X49933181Y-30025562D01*
X49929000Y-29983105D01*
X49929000Y-28516895D01*
X49933181Y-28474438D01*
X49943774Y-28439519D01*
X49960976Y-28407337D01*
X49984127Y-28379127D01*
X50012337Y-28355976D01*
X50044519Y-28338774D01*
X50079438Y-28328181D01*
X50121895Y-28324000D01*
X51263105Y-28324000D01*
X51305562Y-28328181D01*
G37*
G36*
X54280562Y-28328181D02*
G01*
X54315481Y-28338774D01*
X54347663Y-28355976D01*
X54375873Y-28379127D01*
X54399024Y-28407337D01*
X54416226Y-28439519D01*
X54426819Y-28474438D01*
X54431000Y-28516895D01*
X54431000Y-29983105D01*
X54426819Y-30025562D01*
X54416226Y-30060481D01*
X54399024Y-30092663D01*
X54375873Y-30120873D01*
X54347663Y-30144024D01*
X54315481Y-30161226D01*
X54280562Y-30171819D01*
X54238105Y-30176000D01*
X53096895Y-30176000D01*
X53054438Y-30171819D01*
X53019519Y-30161226D01*
X52987337Y-30144024D01*
X52959127Y-30120873D01*
X52935976Y-30092663D01*
X52918774Y-30060481D01*
X52908181Y-30025562D01*
X52904000Y-29983105D01*
X52904000Y-28516895D01*
X52908181Y-28474438D01*
X52918774Y-28439519D01*
X52935976Y-28407337D01*
X52959127Y-28379127D01*
X52987337Y-28355976D01*
X53019519Y-28338774D01*
X53054438Y-28328181D01*
X53096895Y-28324000D01*
X54238105Y-28324000D01*
X54280562Y-28328181D01*
G37*
G36*
X35775562Y-27728181D02*
G01*
X35810481Y-27738774D01*
X35842663Y-27755976D01*
X35870873Y-27779127D01*
X35894024Y-27807337D01*
X35911226Y-27839519D01*
X35921819Y-27874438D01*
X35926000Y-27916895D01*
X35926000Y-29058105D01*
X35921819Y-29100562D01*
X35911226Y-29135481D01*
X35894024Y-29167663D01*
X35870873Y-29195873D01*
X35842663Y-29219024D01*
X35810481Y-29236226D01*
X35775562Y-29246819D01*
X35733105Y-29251000D01*
X34266895Y-29251000D01*
X34224438Y-29246819D01*
X34189519Y-29236226D01*
X34157337Y-29219024D01*
X34129127Y-29195873D01*
X34105976Y-29167663D01*
X34088774Y-29135481D01*
X34078181Y-29100562D01*
X34074000Y-29058105D01*
X34074000Y-27916895D01*
X34078181Y-27874438D01*
X34088774Y-27839519D01*
X34105976Y-27807337D01*
X34129127Y-27779127D01*
X34157337Y-27755976D01*
X34189519Y-27738774D01*
X34224438Y-27728181D01*
X34266895Y-27724000D01*
X35733105Y-27724000D01*
X35775562Y-27728181D01*
G37*
G36*
X44409928Y-28286764D02*
G01*
X44431009Y-28293160D01*
X44450445Y-28303548D01*
X44467476Y-28317524D01*
X44481452Y-28334555D01*
X44491840Y-28353991D01*
X44498236Y-28375072D01*
X44501000Y-28403140D01*
X44501000Y-28866860D01*
X44498236Y-28894928D01*
X44491840Y-28916009D01*
X44481452Y-28935445D01*
X44467476Y-28952476D01*
X44450445Y-28966452D01*
X44431009Y-28976840D01*
X44409928Y-28983236D01*
X44381860Y-28986000D01*
X42568140Y-28986000D01*
X42540072Y-28983236D01*
X42518991Y-28976840D01*
X42499555Y-28966452D01*
X42482524Y-28952476D01*
X42468548Y-28935445D01*
X42458160Y-28916009D01*
X42451764Y-28894928D01*
X42449000Y-28866860D01*
X42449000Y-28403140D01*
X42451764Y-28375072D01*
X42458160Y-28353991D01*
X42468548Y-28334555D01*
X42482524Y-28317524D01*
X42499555Y-28303548D01*
X42518991Y-28293160D01*
X42540072Y-28286764D01*
X42568140Y-28284000D01*
X44381860Y-28284000D01*
X44409928Y-28286764D01*
G37*
G36*
X39459928Y-28286764D02*
G01*
X39481009Y-28293160D01*
X39500445Y-28303548D01*
X39517476Y-28317524D01*
X39531452Y-28334555D01*
X39541840Y-28353991D01*
X39548236Y-28375072D01*
X39551000Y-28403140D01*
X39551000Y-28866860D01*
X39548236Y-28894928D01*
X39541840Y-28916009D01*
X39531452Y-28935445D01*
X39517476Y-28952476D01*
X39500445Y-28966452D01*
X39481009Y-28976840D01*
X39459928Y-28983236D01*
X39431860Y-28986000D01*
X37618140Y-28986000D01*
X37590072Y-28983236D01*
X37568991Y-28976840D01*
X37549555Y-28966452D01*
X37532524Y-28952476D01*
X37518548Y-28935445D01*
X37508160Y-28916009D01*
X37501764Y-28894928D01*
X37499000Y-28866860D01*
X37499000Y-28403140D01*
X37501764Y-28375072D01*
X37508160Y-28353991D01*
X37518548Y-28334555D01*
X37532524Y-28317524D01*
X37549555Y-28303548D01*
X37568991Y-28293160D01*
X37590072Y-28286764D01*
X37618140Y-28284000D01*
X39431860Y-28284000D01*
X39459928Y-28286764D01*
G37*
G36*
X2613512Y-26643927D02*
G01*
X2762812Y-26673624D01*
X2926784Y-26741544D01*
X3074354Y-26840147D01*
X3199853Y-26965646D01*
X3298456Y-27113216D01*
X3366376Y-27277188D01*
X3401000Y-27451259D01*
X3401000Y-27628741D01*
X3366376Y-27802812D01*
X3298456Y-27966784D01*
X3199853Y-28114354D01*
X3074354Y-28239853D01*
X2926784Y-28338456D01*
X2762812Y-28406376D01*
X2613512Y-28436073D01*
X2588742Y-28441000D01*
X2411258Y-28441000D01*
X2386488Y-28436073D01*
X2237188Y-28406376D01*
X2073216Y-28338456D01*
X1925646Y-28239853D01*
X1800147Y-28114354D01*
X1701544Y-27966784D01*
X1633624Y-27802812D01*
X1599000Y-27628741D01*
X1599000Y-27451259D01*
X1633624Y-27277188D01*
X1701544Y-27113216D01*
X1800147Y-26965646D01*
X1925646Y-26840147D01*
X2073216Y-26741544D01*
X2237188Y-26673624D01*
X2386488Y-26643927D01*
X2411258Y-26639000D01*
X2588742Y-26639000D01*
X2613512Y-26643927D01*
G37*
G36*
X24275562Y-26753181D02*
G01*
X24310481Y-26763774D01*
X24342663Y-26780976D01*
X24370873Y-26804127D01*
X24394024Y-26832337D01*
X24411226Y-26864519D01*
X24421819Y-26899438D01*
X24426000Y-26941895D01*
X24426000Y-28083105D01*
X24421819Y-28125562D01*
X24411226Y-28160481D01*
X24394024Y-28192663D01*
X24370873Y-28220873D01*
X24342663Y-28244024D01*
X24310481Y-28261226D01*
X24275562Y-28271819D01*
X24233105Y-28276000D01*
X22766895Y-28276000D01*
X22724438Y-28271819D01*
X22689519Y-28261226D01*
X22657337Y-28244024D01*
X22629127Y-28220873D01*
X22605976Y-28192663D01*
X22588774Y-28160481D01*
X22578181Y-28125562D01*
X22574000Y-28083105D01*
X22574000Y-26941895D01*
X22578181Y-26899438D01*
X22588774Y-26864519D01*
X22605976Y-26832337D01*
X22629127Y-26804127D01*
X22657337Y-26780976D01*
X22689519Y-26763774D01*
X22724438Y-26753181D01*
X22766895Y-26749000D01*
X24233105Y-26749000D01*
X24275562Y-26753181D01*
G37*
G36*
X29275562Y-26753181D02*
G01*
X29310481Y-26763774D01*
X29342663Y-26780976D01*
X29370873Y-26804127D01*
X29394024Y-26832337D01*
X29411226Y-26864519D01*
X29421819Y-26899438D01*
X29426000Y-26941895D01*
X29426000Y-28083105D01*
X29421819Y-28125562D01*
X29411226Y-28160481D01*
X29394024Y-28192663D01*
X29370873Y-28220873D01*
X29342663Y-28244024D01*
X29310481Y-28261226D01*
X29275562Y-28271819D01*
X29233105Y-28276000D01*
X27766895Y-28276000D01*
X27724438Y-28271819D01*
X27689519Y-28261226D01*
X27657337Y-28244024D01*
X27629127Y-28220873D01*
X27605976Y-28192663D01*
X27588774Y-28160481D01*
X27578181Y-28125562D01*
X27574000Y-28083105D01*
X27574000Y-26941895D01*
X27578181Y-26899438D01*
X27588774Y-26864519D01*
X27605976Y-26832337D01*
X27629127Y-26804127D01*
X27657337Y-26780976D01*
X27689519Y-26763774D01*
X27724438Y-26753181D01*
X27766895Y-26749000D01*
X29233105Y-26749000D01*
X29275562Y-26753181D01*
G37*
G36*
X19275562Y-26753181D02*
G01*
X19310481Y-26763774D01*
X19342663Y-26780976D01*
X19370873Y-26804127D01*
X19394024Y-26832337D01*
X19411226Y-26864519D01*
X19421819Y-26899438D01*
X19426000Y-26941895D01*
X19426000Y-28083105D01*
X19421819Y-28125562D01*
X19411226Y-28160481D01*
X19394024Y-28192663D01*
X19370873Y-28220873D01*
X19342663Y-28244024D01*
X19310481Y-28261226D01*
X19275562Y-28271819D01*
X19233105Y-28276000D01*
X17766895Y-28276000D01*
X17724438Y-28271819D01*
X17689519Y-28261226D01*
X17657337Y-28244024D01*
X17629127Y-28220873D01*
X17605976Y-28192663D01*
X17588774Y-28160481D01*
X17578181Y-28125562D01*
X17574000Y-28083105D01*
X17574000Y-26941895D01*
X17578181Y-26899438D01*
X17588774Y-26864519D01*
X17605976Y-26832337D01*
X17629127Y-26804127D01*
X17657337Y-26780976D01*
X17689519Y-26763774D01*
X17724438Y-26753181D01*
X17766895Y-26749000D01*
X19233105Y-26749000D01*
X19275562Y-26753181D01*
G37*
G36*
X26775562Y-26753181D02*
G01*
X26810481Y-26763774D01*
X26842663Y-26780976D01*
X26870873Y-26804127D01*
X26894024Y-26832337D01*
X26911226Y-26864519D01*
X26921819Y-26899438D01*
X26926000Y-26941895D01*
X26926000Y-28083105D01*
X26921819Y-28125562D01*
X26911226Y-28160481D01*
X26894024Y-28192663D01*
X26870873Y-28220873D01*
X26842663Y-28244024D01*
X26810481Y-28261226D01*
X26775562Y-28271819D01*
X26733105Y-28276000D01*
X25266895Y-28276000D01*
X25224438Y-28271819D01*
X25189519Y-28261226D01*
X25157337Y-28244024D01*
X25129127Y-28220873D01*
X25105976Y-28192663D01*
X25088774Y-28160481D01*
X25078181Y-28125562D01*
X25074000Y-28083105D01*
X25074000Y-26941895D01*
X25078181Y-26899438D01*
X25088774Y-26864519D01*
X25105976Y-26832337D01*
X25129127Y-26804127D01*
X25157337Y-26780976D01*
X25189519Y-26763774D01*
X25224438Y-26753181D01*
X25266895Y-26749000D01*
X26733105Y-26749000D01*
X26775562Y-26753181D01*
G37*
G36*
X21775562Y-26753181D02*
G01*
X21810481Y-26763774D01*
X21842663Y-26780976D01*
X21870873Y-26804127D01*
X21894024Y-26832337D01*
X21911226Y-26864519D01*
X21921819Y-26899438D01*
X21926000Y-26941895D01*
X21926000Y-28083105D01*
X21921819Y-28125562D01*
X21911226Y-28160481D01*
X21894024Y-28192663D01*
X21870873Y-28220873D01*
X21842663Y-28244024D01*
X21810481Y-28261226D01*
X21775562Y-28271819D01*
X21733105Y-28276000D01*
X20266895Y-28276000D01*
X20224438Y-28271819D01*
X20189519Y-28261226D01*
X20157337Y-28244024D01*
X20129127Y-28220873D01*
X20105976Y-28192663D01*
X20088774Y-28160481D01*
X20078181Y-28125562D01*
X20074000Y-28083105D01*
X20074000Y-26941895D01*
X20078181Y-26899438D01*
X20088774Y-26864519D01*
X20105976Y-26832337D01*
X20129127Y-26804127D01*
X20157337Y-26780976D01*
X20189519Y-26763774D01*
X20224438Y-26753181D01*
X20266895Y-26749000D01*
X21733105Y-26749000D01*
X21775562Y-26753181D01*
G37*
G36*
X10651000Y-27851000D02*
G01*
X8549000Y-27851000D01*
X8549000Y-26249000D01*
X10651000Y-26249000D01*
X10651000Y-27851000D01*
G37*
G36*
X44409928Y-27016764D02*
G01*
X44431009Y-27023160D01*
X44450445Y-27033548D01*
X44467476Y-27047524D01*
X44481452Y-27064555D01*
X44491840Y-27083991D01*
X44498236Y-27105072D01*
X44501000Y-27133140D01*
X44501000Y-27596860D01*
X44498236Y-27624928D01*
X44491840Y-27646009D01*
X44481452Y-27665445D01*
X44467476Y-27682476D01*
X44450445Y-27696452D01*
X44431009Y-27706840D01*
X44409928Y-27713236D01*
X44381860Y-27716000D01*
X42568140Y-27716000D01*
X42540072Y-27713236D01*
X42518991Y-27706840D01*
X42499555Y-27696452D01*
X42482524Y-27682476D01*
X42468548Y-27665445D01*
X42458160Y-27646009D01*
X42451764Y-27624928D01*
X42449000Y-27596860D01*
X42449000Y-27133140D01*
X42451764Y-27105072D01*
X42458160Y-27083991D01*
X42468548Y-27064555D01*
X42482524Y-27047524D01*
X42499555Y-27033548D01*
X42518991Y-27023160D01*
X42540072Y-27016764D01*
X42568140Y-27014000D01*
X44381860Y-27014000D01*
X44409928Y-27016764D01*
G37*
G36*
X39459928Y-27016764D02*
G01*
X39481009Y-27023160D01*
X39500445Y-27033548D01*
X39517476Y-27047524D01*
X39531452Y-27064555D01*
X39541840Y-27083991D01*
X39548236Y-27105072D01*
X39551000Y-27133140D01*
X39551000Y-27596860D01*
X39548236Y-27624928D01*
X39541840Y-27646009D01*
X39531452Y-27665445D01*
X39517476Y-27682476D01*
X39500445Y-27696452D01*
X39481009Y-27706840D01*
X39459928Y-27713236D01*
X39431860Y-27716000D01*
X37618140Y-27716000D01*
X37590072Y-27713236D01*
X37568991Y-27706840D01*
X37549555Y-27696452D01*
X37532524Y-27682476D01*
X37518548Y-27665445D01*
X37508160Y-27646009D01*
X37501764Y-27624928D01*
X37499000Y-27596860D01*
X37499000Y-27133140D01*
X37501764Y-27105072D01*
X37508160Y-27083991D01*
X37518548Y-27064555D01*
X37532524Y-27047524D01*
X37549555Y-27033548D01*
X37568991Y-27023160D01*
X37590072Y-27016764D01*
X37618140Y-27014000D01*
X39431860Y-27014000D01*
X39459928Y-27016764D01*
G37*
G36*
X54280562Y-25328181D02*
G01*
X54315481Y-25338774D01*
X54347663Y-25355976D01*
X54375873Y-25379127D01*
X54399024Y-25407337D01*
X54416226Y-25439519D01*
X54426819Y-25474438D01*
X54431000Y-25516895D01*
X54431000Y-26983105D01*
X54426819Y-27025562D01*
X54416226Y-27060481D01*
X54399024Y-27092663D01*
X54375873Y-27120873D01*
X54347663Y-27144024D01*
X54315481Y-27161226D01*
X54280562Y-27171819D01*
X54238105Y-27176000D01*
X53096895Y-27176000D01*
X53054438Y-27171819D01*
X53019519Y-27161226D01*
X52987337Y-27144024D01*
X52959127Y-27120873D01*
X52935976Y-27092663D01*
X52918774Y-27060481D01*
X52908181Y-27025562D01*
X52904000Y-26983105D01*
X52904000Y-25516895D01*
X52908181Y-25474438D01*
X52918774Y-25439519D01*
X52935976Y-25407337D01*
X52959127Y-25379127D01*
X52987337Y-25355976D01*
X53019519Y-25338774D01*
X53054438Y-25328181D01*
X53096895Y-25324000D01*
X54238105Y-25324000D01*
X54280562Y-25328181D01*
G37*
G36*
X51305562Y-25328181D02*
G01*
X51340481Y-25338774D01*
X51372663Y-25355976D01*
X51400873Y-25379127D01*
X51424024Y-25407337D01*
X51441226Y-25439519D01*
X51451819Y-25474438D01*
X51456000Y-25516895D01*
X51456000Y-26983105D01*
X51451819Y-27025562D01*
X51441226Y-27060481D01*
X51424024Y-27092663D01*
X51400873Y-27120873D01*
X51372663Y-27144024D01*
X51340481Y-27161226D01*
X51305562Y-27171819D01*
X51263105Y-27176000D01*
X50121895Y-27176000D01*
X50079438Y-27171819D01*
X50044519Y-27161226D01*
X50012337Y-27144024D01*
X49984127Y-27120873D01*
X49960976Y-27092663D01*
X49943774Y-27060481D01*
X49933181Y-27025562D01*
X49929000Y-26983105D01*
X49929000Y-25516895D01*
X49933181Y-25474438D01*
X49943774Y-25439519D01*
X49960976Y-25407337D01*
X49984127Y-25379127D01*
X50012337Y-25355976D01*
X50044519Y-25338774D01*
X50079438Y-25328181D01*
X50121895Y-25324000D01*
X51263105Y-25324000D01*
X51305562Y-25328181D01*
G37*
G36*
X16951000Y-26701000D02*
G01*
X14849000Y-26701000D01*
X14849000Y-22799000D01*
X16951000Y-22799000D01*
X16951000Y-26701000D01*
G37*
G36*
X39459928Y-25746764D02*
G01*
X39481009Y-25753160D01*
X39500445Y-25763548D01*
X39517476Y-25777524D01*
X39531452Y-25794555D01*
X39541840Y-25813991D01*
X39548236Y-25835072D01*
X39551000Y-25863140D01*
X39551000Y-26326860D01*
X39548236Y-26354928D01*
X39541840Y-26376009D01*
X39531452Y-26395445D01*
X39517476Y-26412476D01*
X39500445Y-26426452D01*
X39481009Y-26436840D01*
X39459928Y-26443236D01*
X39431860Y-26446000D01*
X37618140Y-26446000D01*
X37590072Y-26443236D01*
X37568991Y-26436840D01*
X37549555Y-26426452D01*
X37532524Y-26412476D01*
X37518548Y-26395445D01*
X37508160Y-26376009D01*
X37501764Y-26354928D01*
X37499000Y-26326860D01*
X37499000Y-25863140D01*
X37501764Y-25835072D01*
X37508160Y-25813991D01*
X37518548Y-25794555D01*
X37532524Y-25777524D01*
X37549555Y-25763548D01*
X37568991Y-25753160D01*
X37590072Y-25746764D01*
X37618140Y-25744000D01*
X39431860Y-25744000D01*
X39459928Y-25746764D01*
G37*
G36*
X44409928Y-25746764D02*
G01*
X44431009Y-25753160D01*
X44450445Y-25763548D01*
X44467476Y-25777524D01*
X44481452Y-25794555D01*
X44491840Y-25813991D01*
X44498236Y-25835072D01*
X44501000Y-25863140D01*
X44501000Y-26326860D01*
X44498236Y-26354928D01*
X44491840Y-26376009D01*
X44481452Y-26395445D01*
X44467476Y-26412476D01*
X44450445Y-26426452D01*
X44431009Y-26436840D01*
X44409928Y-26443236D01*
X44381860Y-26446000D01*
X42568140Y-26446000D01*
X42540072Y-26443236D01*
X42518991Y-26436840D01*
X42499555Y-26426452D01*
X42482524Y-26412476D01*
X42468548Y-26395445D01*
X42458160Y-26376009D01*
X42451764Y-26354928D01*
X42449000Y-26326860D01*
X42449000Y-25863140D01*
X42451764Y-25835072D01*
X42458160Y-25813991D01*
X42468548Y-25794555D01*
X42482524Y-25777524D01*
X42499555Y-25763548D01*
X42518991Y-25753160D01*
X42540072Y-25746764D01*
X42568140Y-25744000D01*
X44381860Y-25744000D01*
X44409928Y-25746764D01*
G37*
G36*
X35775562Y-24753181D02*
G01*
X35810481Y-24763774D01*
X35842663Y-24780976D01*
X35870873Y-24804127D01*
X35894024Y-24832337D01*
X35911226Y-24864519D01*
X35921819Y-24899438D01*
X35926000Y-24941895D01*
X35926000Y-26083105D01*
X35921819Y-26125562D01*
X35911226Y-26160481D01*
X35894024Y-26192663D01*
X35870873Y-26220873D01*
X35842663Y-26244024D01*
X35810481Y-26261226D01*
X35775562Y-26271819D01*
X35733105Y-26276000D01*
X34266895Y-26276000D01*
X34224438Y-26271819D01*
X34189519Y-26261226D01*
X34157337Y-26244024D01*
X34129127Y-26220873D01*
X34105976Y-26192663D01*
X34088774Y-26160481D01*
X34078181Y-26125562D01*
X34074000Y-26083105D01*
X34074000Y-24941895D01*
X34078181Y-24899438D01*
X34088774Y-24864519D01*
X34105976Y-24832337D01*
X34129127Y-24804127D01*
X34157337Y-24780976D01*
X34189519Y-24763774D01*
X34224438Y-24753181D01*
X34266895Y-24749000D01*
X35733105Y-24749000D01*
X35775562Y-24753181D01*
G37*
G36*
X3401000Y-25901000D02*
G01*
X1599000Y-25901000D01*
X1599000Y-24099000D01*
X3401000Y-24099000D01*
X3401000Y-25901000D01*
G37*
G36*
X10651000Y-25551000D02*
G01*
X8549000Y-25551000D01*
X8549000Y-23949000D01*
X10651000Y-23949000D01*
X10651000Y-25551000D01*
G37*
G36*
X44409928Y-24476764D02*
G01*
X44431009Y-24483160D01*
X44450445Y-24493548D01*
X44467476Y-24507524D01*
X44481452Y-24524555D01*
X44491840Y-24543991D01*
X44498236Y-24565072D01*
X44501000Y-24593140D01*
X44501000Y-25056860D01*
X44498236Y-25084928D01*
X44491840Y-25106009D01*
X44481452Y-25125445D01*
X44467476Y-25142476D01*
X44450445Y-25156452D01*
X44431009Y-25166840D01*
X44409928Y-25173236D01*
X44381860Y-25176000D01*
X42568140Y-25176000D01*
X42540072Y-25173236D01*
X42518991Y-25166840D01*
X42499555Y-25156452D01*
X42482524Y-25142476D01*
X42468548Y-25125445D01*
X42458160Y-25106009D01*
X42451764Y-25084928D01*
X42449000Y-25056860D01*
X42449000Y-24593140D01*
X42451764Y-24565072D01*
X42458160Y-24543991D01*
X42468548Y-24524555D01*
X42482524Y-24507524D01*
X42499555Y-24493548D01*
X42518991Y-24483160D01*
X42540072Y-24476764D01*
X42568140Y-24474000D01*
X44381860Y-24474000D01*
X44409928Y-24476764D01*
G37*
G36*
X39459928Y-24476764D02*
G01*
X39481009Y-24483160D01*
X39500445Y-24493548D01*
X39517476Y-24507524D01*
X39531452Y-24524555D01*
X39541840Y-24543991D01*
X39548236Y-24565072D01*
X39551000Y-24593140D01*
X39551000Y-25056860D01*
X39548236Y-25084928D01*
X39541840Y-25106009D01*
X39531452Y-25125445D01*
X39517476Y-25142476D01*
X39500445Y-25156452D01*
X39481009Y-25166840D01*
X39459928Y-25173236D01*
X39431860Y-25176000D01*
X37618140Y-25176000D01*
X37590072Y-25173236D01*
X37568991Y-25166840D01*
X37549555Y-25156452D01*
X37532524Y-25142476D01*
X37518548Y-25125445D01*
X37508160Y-25106009D01*
X37501764Y-25084928D01*
X37499000Y-25056860D01*
X37499000Y-24593140D01*
X37501764Y-24565072D01*
X37508160Y-24543991D01*
X37518548Y-24524555D01*
X37532524Y-24507524D01*
X37549555Y-24493548D01*
X37568991Y-24483160D01*
X37590072Y-24476764D01*
X37618140Y-24474000D01*
X39431860Y-24474000D01*
X39459928Y-24476764D01*
G37*
G36*
X54280562Y-22328181D02*
G01*
X54315481Y-22338774D01*
X54347663Y-22355976D01*
X54375873Y-22379127D01*
X54399024Y-22407337D01*
X54416226Y-22439519D01*
X54426819Y-22474438D01*
X54431000Y-22516895D01*
X54431000Y-23983105D01*
X54426819Y-24025562D01*
X54416226Y-24060481D01*
X54399024Y-24092663D01*
X54375873Y-24120873D01*
X54347663Y-24144024D01*
X54315481Y-24161226D01*
X54280562Y-24171819D01*
X54238105Y-24176000D01*
X53096895Y-24176000D01*
X53054438Y-24171819D01*
X53019519Y-24161226D01*
X52987337Y-24144024D01*
X52959127Y-24120873D01*
X52935976Y-24092663D01*
X52918774Y-24060481D01*
X52908181Y-24025562D01*
X52904000Y-23983105D01*
X52904000Y-22516895D01*
X52908181Y-22474438D01*
X52918774Y-22439519D01*
X52935976Y-22407337D01*
X52959127Y-22379127D01*
X52987337Y-22355976D01*
X53019519Y-22338774D01*
X53054438Y-22328181D01*
X53096895Y-22324000D01*
X54238105Y-22324000D01*
X54280562Y-22328181D01*
G37*
G36*
X51305562Y-22328181D02*
G01*
X51340481Y-22338774D01*
X51372663Y-22355976D01*
X51400873Y-22379127D01*
X51424024Y-22407337D01*
X51441226Y-22439519D01*
X51451819Y-22474438D01*
X51456000Y-22516895D01*
X51456000Y-23983105D01*
X51451819Y-24025562D01*
X51441226Y-24060481D01*
X51424024Y-24092663D01*
X51400873Y-24120873D01*
X51372663Y-24144024D01*
X51340481Y-24161226D01*
X51305562Y-24171819D01*
X51263105Y-24176000D01*
X50121895Y-24176000D01*
X50079438Y-24171819D01*
X50044519Y-24161226D01*
X50012337Y-24144024D01*
X49984127Y-24120873D01*
X49960976Y-24092663D01*
X49943774Y-24060481D01*
X49933181Y-24025562D01*
X49929000Y-23983105D01*
X49929000Y-22516895D01*
X49933181Y-22474438D01*
X49943774Y-22439519D01*
X49960976Y-22407337D01*
X49984127Y-22379127D01*
X50012337Y-22355976D01*
X50044519Y-22338774D01*
X50079438Y-22328181D01*
X50121895Y-22324000D01*
X51263105Y-22324000D01*
X51305562Y-22328181D01*
G37*
G36*
X39459928Y-23206764D02*
G01*
X39481009Y-23213160D01*
X39500445Y-23223548D01*
X39517476Y-23237524D01*
X39531452Y-23254555D01*
X39541840Y-23273991D01*
X39548236Y-23295072D01*
X39551000Y-23323140D01*
X39551000Y-23786860D01*
X39548236Y-23814928D01*
X39541840Y-23836009D01*
X39531452Y-23855445D01*
X39517476Y-23872476D01*
X39500445Y-23886452D01*
X39481009Y-23896840D01*
X39459928Y-23903236D01*
X39431860Y-23906000D01*
X37618140Y-23906000D01*
X37590072Y-23903236D01*
X37568991Y-23896840D01*
X37549555Y-23886452D01*
X37532524Y-23872476D01*
X37518548Y-23855445D01*
X37508160Y-23836009D01*
X37501764Y-23814928D01*
X37499000Y-23786860D01*
X37499000Y-23323140D01*
X37501764Y-23295072D01*
X37508160Y-23273991D01*
X37518548Y-23254555D01*
X37532524Y-23237524D01*
X37549555Y-23223548D01*
X37568991Y-23213160D01*
X37590072Y-23206764D01*
X37618140Y-23204000D01*
X39431860Y-23204000D01*
X39459928Y-23206764D01*
G37*
G36*
X44409928Y-23206764D02*
G01*
X44431009Y-23213160D01*
X44450445Y-23223548D01*
X44467476Y-23237524D01*
X44481452Y-23254555D01*
X44491840Y-23273991D01*
X44498236Y-23295072D01*
X44501000Y-23323140D01*
X44501000Y-23786860D01*
X44498236Y-23814928D01*
X44491840Y-23836009D01*
X44481452Y-23855445D01*
X44467476Y-23872476D01*
X44450445Y-23886452D01*
X44431009Y-23896840D01*
X44409928Y-23903236D01*
X44381860Y-23906000D01*
X42568140Y-23906000D01*
X42540072Y-23903236D01*
X42518991Y-23896840D01*
X42499555Y-23886452D01*
X42482524Y-23872476D01*
X42468548Y-23855445D01*
X42458160Y-23836009D01*
X42451764Y-23814928D01*
X42449000Y-23786860D01*
X42449000Y-23323140D01*
X42451764Y-23295072D01*
X42458160Y-23273991D01*
X42468548Y-23254555D01*
X42482524Y-23237524D01*
X42499555Y-23223548D01*
X42518991Y-23213160D01*
X42540072Y-23206764D01*
X42568140Y-23204000D01*
X44381860Y-23204000D01*
X44409928Y-23206764D01*
G37*
G36*
X10651000Y-23251000D02*
G01*
X8549000Y-23251000D01*
X8549000Y-21649000D01*
X10651000Y-21649000D01*
X10651000Y-23251000D01*
G37*
G36*
X54280562Y-19328181D02*
G01*
X54315481Y-19338774D01*
X54347663Y-19355976D01*
X54375873Y-19379127D01*
X54399024Y-19407337D01*
X54416226Y-19439519D01*
X54426819Y-19474438D01*
X54431000Y-19516895D01*
X54431000Y-20983105D01*
X54426819Y-21025562D01*
X54416226Y-21060481D01*
X54399024Y-21092663D01*
X54375873Y-21120873D01*
X54347663Y-21144024D01*
X54315481Y-21161226D01*
X54280562Y-21171819D01*
X54238105Y-21176000D01*
X53096895Y-21176000D01*
X53054438Y-21171819D01*
X53019519Y-21161226D01*
X52987337Y-21144024D01*
X52959127Y-21120873D01*
X52935976Y-21092663D01*
X52918774Y-21060481D01*
X52908181Y-21025562D01*
X52904000Y-20983105D01*
X52904000Y-19516895D01*
X52908181Y-19474438D01*
X52918774Y-19439519D01*
X52935976Y-19407337D01*
X52959127Y-19379127D01*
X52987337Y-19355976D01*
X53019519Y-19338774D01*
X53054438Y-19328181D01*
X53096895Y-19324000D01*
X54238105Y-19324000D01*
X54280562Y-19328181D01*
G37*
G36*
X51305562Y-19328181D02*
G01*
X51340481Y-19338774D01*
X51372663Y-19355976D01*
X51400873Y-19379127D01*
X51424024Y-19407337D01*
X51441226Y-19439519D01*
X51451819Y-19474438D01*
X51456000Y-19516895D01*
X51456000Y-20983105D01*
X51451819Y-21025562D01*
X51441226Y-21060481D01*
X51424024Y-21092663D01*
X51400873Y-21120873D01*
X51372663Y-21144024D01*
X51340481Y-21161226D01*
X51305562Y-21171819D01*
X51263105Y-21176000D01*
X50121895Y-21176000D01*
X50079438Y-21171819D01*
X50044519Y-21161226D01*
X50012337Y-21144024D01*
X49984127Y-21120873D01*
X49960976Y-21092663D01*
X49943774Y-21060481D01*
X49933181Y-21025562D01*
X49929000Y-20983105D01*
X49929000Y-19516895D01*
X49933181Y-19474438D01*
X49943774Y-19439519D01*
X49960976Y-19407337D01*
X49984127Y-19379127D01*
X50012337Y-19355976D01*
X50044519Y-19338774D01*
X50079438Y-19328181D01*
X50121895Y-19324000D01*
X51263105Y-19324000D01*
X51305562Y-19328181D01*
G37*
G36*
X38301000Y-20501000D02*
G01*
X36699000Y-20501000D01*
X36699000Y-19499000D01*
X38301000Y-19499000D01*
X38301000Y-20501000D01*
G37*
G36*
X20801000Y-20501000D02*
G01*
X19199000Y-20501000D01*
X19199000Y-19499000D01*
X20801000Y-19499000D01*
X20801000Y-20501000D01*
G37*
G36*
X18025562Y-17728181D02*
G01*
X18060481Y-17738774D01*
X18092663Y-17755976D01*
X18120873Y-17779127D01*
X18144024Y-17807337D01*
X18161226Y-17839519D01*
X18171819Y-17874438D01*
X18176000Y-17916895D01*
X18176000Y-19058105D01*
X18171819Y-19100562D01*
X18161226Y-19135481D01*
X18144024Y-19167663D01*
X18120873Y-19195873D01*
X18092663Y-19219024D01*
X18060481Y-19236226D01*
X18025562Y-19246819D01*
X17983105Y-19251000D01*
X16516895Y-19251000D01*
X16474438Y-19246819D01*
X16439519Y-19236226D01*
X16407337Y-19219024D01*
X16379127Y-19195873D01*
X16355976Y-19167663D01*
X16338774Y-19135481D01*
X16328181Y-19100562D01*
X16324000Y-19058105D01*
X16324000Y-17916895D01*
X16328181Y-17874438D01*
X16338774Y-17839519D01*
X16355976Y-17807337D01*
X16379127Y-17779127D01*
X16407337Y-17755976D01*
X16439519Y-17738774D01*
X16474438Y-17728181D01*
X16516895Y-17724000D01*
X17983105Y-17724000D01*
X18025562Y-17728181D01*
G37*
G36*
X2463500Y-18461886D02*
G01*
X2464102Y-18474138D01*
X2466649Y-18500000D01*
X2464102Y-18525862D01*
X2463500Y-18538114D01*
X2463500Y-18611406D01*
X2454543Y-18628164D01*
X2450415Y-18639701D01*
X2424632Y-18724693D01*
X2416854Y-18750336D01*
X2356406Y-18863425D01*
X2275054Y-18962554D01*
X2175925Y-19043906D01*
X2062836Y-19104354D01*
X2030904Y-19114040D01*
X1940118Y-19141580D01*
X1876355Y-19147860D01*
X1844474Y-19151000D01*
X1080526Y-19151000D01*
X1048645Y-19147860D01*
X984882Y-19141580D01*
X894096Y-19114040D01*
X862164Y-19104354D01*
X749075Y-19043906D01*
X649946Y-18962554D01*
X568594Y-18863425D01*
X508146Y-18750336D01*
X500368Y-18724693D01*
X474587Y-18639708D01*
X465213Y-18617075D01*
X461500Y-18611518D01*
X461500Y-18538114D01*
X460898Y-18525862D01*
X458351Y-18500000D01*
X460898Y-18474138D01*
X461500Y-18461886D01*
X461500Y-17249000D01*
X2463500Y-17249000D01*
X2463500Y-18461886D01*
G37*
G36*
X38301000Y-19001000D02*
G01*
X36699000Y-19001000D01*
X36699000Y-17999000D01*
X38301000Y-17999000D01*
X38301000Y-19001000D01*
G37*
G36*
X20801000Y-19001000D02*
G01*
X19199000Y-19001000D01*
X19199000Y-17999000D01*
X20801000Y-17999000D01*
X20801000Y-19001000D01*
G37*
G36*
X31901000Y-18561000D02*
G01*
X27799000Y-18561000D01*
X27799000Y-14459000D01*
X31901000Y-14459000D01*
X31901000Y-18561000D01*
G37*
G36*
X4388848Y-11753820D02*
G01*
X4388850Y-11753821D01*
X4388851Y-11753821D01*
X4530074Y-11812317D01*
X4530077Y-11812319D01*
X4657169Y-11897239D01*
X4765261Y-12005331D01*
X4849131Y-12130852D01*
X4850183Y-12132426D01*
X4908679Y-12273649D01*
X4938500Y-12423571D01*
X4938500Y-12576429D01*
X4908679Y-12726351D01*
X4850183Y-12867574D01*
X4850181Y-12867577D01*
X4765261Y-12994669D01*
X4657169Y-13102761D01*
X4572440Y-13159375D01*
X4530074Y-13187683D01*
X4479772Y-13208519D01*
X4458164Y-13220068D01*
X4439222Y-13235614D01*
X4423677Y-13254556D01*
X4412126Y-13276166D01*
X4405013Y-13299615D01*
X4402611Y-13324001D01*
X4405013Y-13348387D01*
X4412126Y-13371836D01*
X4423677Y-13393447D01*
X4439223Y-13412389D01*
X4458165Y-13427934D01*
X4479775Y-13439485D01*
X4503224Y-13446598D01*
X4527610Y-13449000D01*
X4888500Y-13449000D01*
X4888500Y-16551000D01*
X4527610Y-16551000D01*
X4503224Y-16553402D01*
X4479775Y-16560515D01*
X4458164Y-16572066D01*
X4439222Y-16587611D01*
X4423677Y-16606553D01*
X4412126Y-16628164D01*
X4405013Y-16651613D01*
X4402611Y-16675999D01*
X4405013Y-16700385D01*
X4412126Y-16723834D01*
X4423677Y-16745445D01*
X4439222Y-16764387D01*
X4458164Y-16779932D01*
X4479772Y-16791481D01*
X4530074Y-16812317D01*
X4530075Y-16812318D01*
X4657169Y-16897239D01*
X4765261Y-17005331D01*
X4850181Y-17132423D01*
X4850183Y-17132426D01*
X4908679Y-17273649D01*
X4938500Y-17423571D01*
X4938500Y-17576429D01*
X4908679Y-17726351D01*
X4850183Y-17867574D01*
X4850181Y-17867577D01*
X4765261Y-17994669D01*
X4657169Y-18102761D01*
X4555263Y-18170852D01*
X4530074Y-18187683D01*
X4388851Y-18246179D01*
X4388850Y-18246179D01*
X4388848Y-18246180D01*
X4238931Y-18276000D01*
X4086069Y-18276000D01*
X3936152Y-18246180D01*
X3936150Y-18246179D01*
X3936149Y-18246179D01*
X3794926Y-18187683D01*
X3769737Y-18170852D01*
X3667831Y-18102761D01*
X3559739Y-17994669D01*
X3474819Y-17867577D01*
X3474817Y-17867574D01*
X3416321Y-17726351D01*
X3386500Y-17576429D01*
X3386500Y-17423571D01*
X3416321Y-17273649D01*
X3474817Y-17132426D01*
X3474819Y-17132423D01*
X3559739Y-17005331D01*
X3667831Y-16897239D01*
X3794925Y-16812318D01*
X3794926Y-16812317D01*
X3845228Y-16791481D01*
X3866836Y-16779932D01*
X3885778Y-16764386D01*
X3901323Y-16745444D01*
X3912874Y-16723834D01*
X3919987Y-16700385D01*
X3922389Y-16675999D01*
X3919987Y-16651613D01*
X3912874Y-16628164D01*
X3901323Y-16606553D01*
X3885777Y-16587611D01*
X3866835Y-16572066D01*
X3845225Y-16560515D01*
X3821776Y-16553402D01*
X3797390Y-16551000D01*
X3436500Y-16551000D01*
X3436500Y-13449000D01*
X3797390Y-13449000D01*
X3821776Y-13446598D01*
X3845225Y-13439485D01*
X3866836Y-13427934D01*
X3885778Y-13412389D01*
X3901323Y-13393447D01*
X3912874Y-13371836D01*
X3919987Y-13348387D01*
X3922389Y-13324001D01*
X3919987Y-13299615D01*
X3912874Y-13276166D01*
X3901323Y-13254555D01*
X3885778Y-13235613D01*
X3866836Y-13220068D01*
X3845228Y-13208519D01*
X3794926Y-13187683D01*
X3752560Y-13159375D01*
X3667831Y-13102761D01*
X3559739Y-12994669D01*
X3474819Y-12867577D01*
X3474817Y-12867574D01*
X3416321Y-12726351D01*
X3386500Y-12576429D01*
X3386500Y-12423571D01*
X3416321Y-12273649D01*
X3474817Y-12132426D01*
X3475869Y-12130852D01*
X3559739Y-12005331D01*
X3667831Y-11897239D01*
X3794923Y-11812319D01*
X3794926Y-11812317D01*
X3936149Y-11753821D01*
X3936150Y-11753821D01*
X3936152Y-11753820D01*
X4086069Y-11724000D01*
X4238931Y-11724000D01*
X4388848Y-11753820D01*
G37*
G36*
X51305562Y-16328181D02*
G01*
X51340481Y-16338774D01*
X51372663Y-16355976D01*
X51400873Y-16379127D01*
X51424024Y-16407337D01*
X51441226Y-16439519D01*
X51451819Y-16474438D01*
X51456000Y-16516895D01*
X51456000Y-17983105D01*
X51451819Y-18025562D01*
X51441226Y-18060481D01*
X51424024Y-18092663D01*
X51400873Y-18120873D01*
X51372663Y-18144024D01*
X51340481Y-18161226D01*
X51305562Y-18171819D01*
X51263105Y-18176000D01*
X50121895Y-18176000D01*
X50079438Y-18171819D01*
X50044519Y-18161226D01*
X50012337Y-18144024D01*
X49984127Y-18120873D01*
X49960976Y-18092663D01*
X49943774Y-18060481D01*
X49933181Y-18025562D01*
X49929000Y-17983105D01*
X49929000Y-16516895D01*
X49933181Y-16474438D01*
X49943774Y-16439519D01*
X49960976Y-16407337D01*
X49984127Y-16379127D01*
X50012337Y-16355976D01*
X50044519Y-16338774D01*
X50079438Y-16328181D01*
X50121895Y-16324000D01*
X51263105Y-16324000D01*
X51305562Y-16328181D01*
G37*
G36*
X54280562Y-16328181D02*
G01*
X54315481Y-16338774D01*
X54347663Y-16355976D01*
X54375873Y-16379127D01*
X54399024Y-16407337D01*
X54416226Y-16439519D01*
X54426819Y-16474438D01*
X54431000Y-16516895D01*
X54431000Y-17983105D01*
X54426819Y-18025562D01*
X54416226Y-18060481D01*
X54399024Y-18092663D01*
X54375873Y-18120873D01*
X54347663Y-18144024D01*
X54315481Y-18161226D01*
X54280562Y-18171819D01*
X54238105Y-18176000D01*
X53096895Y-18176000D01*
X53054438Y-18171819D01*
X53019519Y-18161226D01*
X52987337Y-18144024D01*
X52959127Y-18120873D01*
X52935976Y-18092663D01*
X52918774Y-18060481D01*
X52908181Y-18025562D01*
X52904000Y-17983105D01*
X52904000Y-16516895D01*
X52908181Y-16474438D01*
X52918774Y-16439519D01*
X52935976Y-16407337D01*
X52959127Y-16379127D01*
X52987337Y-16355976D01*
X53019519Y-16338774D01*
X53054438Y-16328181D01*
X53096895Y-16324000D01*
X54238105Y-16324000D01*
X54280562Y-16328181D01*
G37*
G36*
X38301000Y-17501000D02*
G01*
X36699000Y-17501000D01*
X36699000Y-16499000D01*
X38301000Y-16499000D01*
X38301000Y-17501000D01*
G37*
G36*
X20801000Y-17501000D02*
G01*
X19199000Y-17501000D01*
X19199000Y-16499000D01*
X20801000Y-16499000D01*
X20801000Y-17501000D01*
G37*
G36*
X2463500Y-16801000D02*
G01*
X461500Y-16801000D01*
X461500Y-15199000D01*
X2463500Y-15199000D01*
X2463500Y-16801000D01*
G37*
G36*
X18025562Y-14753181D02*
G01*
X18060481Y-14763774D01*
X18092663Y-14780976D01*
X18120873Y-14804127D01*
X18144024Y-14832337D01*
X18161226Y-14864519D01*
X18171819Y-14899438D01*
X18176000Y-14941895D01*
X18176000Y-16083105D01*
X18171819Y-16125562D01*
X18161226Y-16160481D01*
X18144024Y-16192663D01*
X18120873Y-16220873D01*
X18092663Y-16244024D01*
X18060481Y-16261226D01*
X18025562Y-16271819D01*
X17983105Y-16276000D01*
X16516895Y-16276000D01*
X16474438Y-16271819D01*
X16439519Y-16261226D01*
X16407337Y-16244024D01*
X16379127Y-16220873D01*
X16355976Y-16192663D01*
X16338774Y-16160481D01*
X16328181Y-16125562D01*
X16324000Y-16083105D01*
X16324000Y-14941895D01*
X16328181Y-14899438D01*
X16338774Y-14864519D01*
X16355976Y-14832337D01*
X16379127Y-14804127D01*
X16407337Y-14780976D01*
X16439519Y-14763774D01*
X16474438Y-14753181D01*
X16516895Y-14749000D01*
X17983105Y-14749000D01*
X18025562Y-14753181D01*
G37*
G36*
X38301000Y-16001000D02*
G01*
X36699000Y-16001000D01*
X36699000Y-14999000D01*
X38301000Y-14999000D01*
X38301000Y-16001000D01*
G37*
G36*
X20801000Y-16001000D02*
G01*
X19199000Y-16001000D01*
X19199000Y-14999000D01*
X20801000Y-14999000D01*
X20801000Y-16001000D01*
G37*
G36*
X51305562Y-13328181D02*
G01*
X51340481Y-13338774D01*
X51372663Y-13355976D01*
X51400873Y-13379127D01*
X51424024Y-13407337D01*
X51441226Y-13439519D01*
X51451819Y-13474438D01*
X51456000Y-13516895D01*
X51456000Y-14983105D01*
X51451819Y-15025562D01*
X51441226Y-15060481D01*
X51424024Y-15092663D01*
X51400873Y-15120873D01*
X51372663Y-15144024D01*
X51340481Y-15161226D01*
X51305562Y-15171819D01*
X51263105Y-15176000D01*
X50121895Y-15176000D01*
X50079438Y-15171819D01*
X50044519Y-15161226D01*
X50012337Y-15144024D01*
X49984127Y-15120873D01*
X49960976Y-15092663D01*
X49943774Y-15060481D01*
X49933181Y-15025562D01*
X49929000Y-14983105D01*
X49929000Y-13516895D01*
X49933181Y-13474438D01*
X49943774Y-13439519D01*
X49960976Y-13407337D01*
X49984127Y-13379127D01*
X50012337Y-13355976D01*
X50044519Y-13338774D01*
X50079438Y-13328181D01*
X50121895Y-13324000D01*
X51263105Y-13324000D01*
X51305562Y-13328181D01*
G37*
G36*
X54280562Y-13328181D02*
G01*
X54315481Y-13338774D01*
X54347663Y-13355976D01*
X54375873Y-13379127D01*
X54399024Y-13407337D01*
X54416226Y-13439519D01*
X54426819Y-13474438D01*
X54431000Y-13516895D01*
X54431000Y-14983105D01*
X54426819Y-15025562D01*
X54416226Y-15060481D01*
X54399024Y-15092663D01*
X54375873Y-15120873D01*
X54347663Y-15144024D01*
X54315481Y-15161226D01*
X54280562Y-15171819D01*
X54238105Y-15176000D01*
X53096895Y-15176000D01*
X53054438Y-15171819D01*
X53019519Y-15161226D01*
X52987337Y-15144024D01*
X52959127Y-15120873D01*
X52935976Y-15092663D01*
X52918774Y-15060481D01*
X52908181Y-15025562D01*
X52904000Y-14983105D01*
X52904000Y-13516895D01*
X52908181Y-13474438D01*
X52918774Y-13439519D01*
X52935976Y-13407337D01*
X52959127Y-13379127D01*
X52987337Y-13355976D01*
X53019519Y-13338774D01*
X53054438Y-13328181D01*
X53096895Y-13324000D01*
X54238105Y-13324000D01*
X54280562Y-13328181D01*
G37*
G36*
X2463500Y-14801000D02*
G01*
X461500Y-14801000D01*
X461500Y-13199000D01*
X2463500Y-13199000D01*
X2463500Y-14801000D01*
G37*
G36*
X20801000Y-14501000D02*
G01*
X19199000Y-14501000D01*
X19199000Y-13499000D01*
X20801000Y-13499000D01*
X20801000Y-14501000D01*
G37*
G36*
X38301000Y-14501000D02*
G01*
X36699000Y-14501000D01*
X36699000Y-13499000D01*
X38301000Y-13499000D01*
X38301000Y-14501000D01*
G37*
G36*
X20801000Y-13001000D02*
G01*
X19199000Y-13001000D01*
X19199000Y-11999000D01*
X20801000Y-11999000D01*
X20801000Y-13001000D01*
G37*
G36*
X38301000Y-13001000D02*
G01*
X36699000Y-13001000D01*
X36699000Y-11999000D01*
X38301000Y-11999000D01*
X38301000Y-13001000D01*
G37*
G36*
X1876355Y-10852140D02*
G01*
X1940118Y-10858420D01*
X2030904Y-10885960D01*
X2062836Y-10895646D01*
X2175925Y-10956094D01*
X2275054Y-11037446D01*
X2356406Y-11136575D01*
X2416854Y-11249664D01*
X2416855Y-11249668D01*
X2450413Y-11360292D01*
X2459787Y-11382925D01*
X2463500Y-11388482D01*
X2463500Y-11461886D01*
X2464102Y-11474138D01*
X2466649Y-11500000D01*
X2464102Y-11525862D01*
X2463500Y-11538114D01*
X2463500Y-12751000D01*
X461500Y-12751000D01*
X461500Y-11538114D01*
X460898Y-11525862D01*
X458351Y-11500000D01*
X460898Y-11474138D01*
X461500Y-11461886D01*
X461500Y-11388594D01*
X470457Y-11371836D01*
X474585Y-11360299D01*
X508145Y-11249668D01*
X508146Y-11249664D01*
X568594Y-11136575D01*
X649946Y-11037446D01*
X749075Y-10956094D01*
X862164Y-10895646D01*
X894096Y-10885960D01*
X984882Y-10858420D01*
X1048645Y-10852140D01*
X1080526Y-10849000D01*
X1844474Y-10849000D01*
X1876355Y-10852140D01*
G37*
G36*
X51305562Y-10328181D02*
G01*
X51340481Y-10338774D01*
X51372663Y-10355976D01*
X51400873Y-10379127D01*
X51424024Y-10407337D01*
X51441226Y-10439519D01*
X51451819Y-10474438D01*
X51456000Y-10516895D01*
X51456000Y-11983105D01*
X51451819Y-12025562D01*
X51441226Y-12060481D01*
X51424024Y-12092663D01*
X51400873Y-12120873D01*
X51372663Y-12144024D01*
X51340481Y-12161226D01*
X51305562Y-12171819D01*
X51263105Y-12176000D01*
X50121895Y-12176000D01*
X50079438Y-12171819D01*
X50044519Y-12161226D01*
X50012337Y-12144024D01*
X49984127Y-12120873D01*
X49960976Y-12092663D01*
X49943774Y-12060481D01*
X49933181Y-12025562D01*
X49929000Y-11983105D01*
X49929000Y-10516895D01*
X49933181Y-10474438D01*
X49943774Y-10439519D01*
X49960976Y-10407337D01*
X49984127Y-10379127D01*
X50012337Y-10355976D01*
X50044519Y-10338774D01*
X50079438Y-10328181D01*
X50121895Y-10324000D01*
X51263105Y-10324000D01*
X51305562Y-10328181D01*
G37*
G36*
X54280562Y-10328181D02*
G01*
X54315481Y-10338774D01*
X54347663Y-10355976D01*
X54375873Y-10379127D01*
X54399024Y-10407337D01*
X54416226Y-10439519D01*
X54426819Y-10474438D01*
X54431000Y-10516895D01*
X54431000Y-11983105D01*
X54426819Y-12025562D01*
X54416226Y-12060481D01*
X54399024Y-12092663D01*
X54375873Y-12120873D01*
X54347663Y-12144024D01*
X54315481Y-12161226D01*
X54280562Y-12171819D01*
X54238105Y-12176000D01*
X53096895Y-12176000D01*
X53054438Y-12171819D01*
X53019519Y-12161226D01*
X52987337Y-12144024D01*
X52959127Y-12120873D01*
X52935976Y-12092663D01*
X52918774Y-12060481D01*
X52908181Y-12025562D01*
X52904000Y-11983105D01*
X52904000Y-10516895D01*
X52908181Y-10474438D01*
X52918774Y-10439519D01*
X52935976Y-10407337D01*
X52959127Y-10379127D01*
X52987337Y-10355976D01*
X53019519Y-10338774D01*
X53054438Y-10328181D01*
X53096895Y-10324000D01*
X54238105Y-10324000D01*
X54280562Y-10328181D01*
G37*
G36*
X20801000Y-11501000D02*
G01*
X19199000Y-11501000D01*
X19199000Y-10499000D01*
X20801000Y-10499000D01*
X20801000Y-11501000D01*
G37*
G36*
X38301000Y-11501000D02*
G01*
X36699000Y-11501000D01*
X36699000Y-10499000D01*
X38301000Y-10499000D01*
X38301000Y-11501000D01*
G37*
G36*
X20801000Y-10001000D02*
G01*
X19199000Y-10001000D01*
X19199000Y-8999000D01*
X20801000Y-8999000D01*
X20801000Y-10001000D01*
G37*
G36*
X38301000Y-10001000D02*
G01*
X36699000Y-10001000D01*
X36699000Y-8999000D01*
X38301000Y-8999000D01*
X38301000Y-10001000D01*
G37*
G36*
X20801000Y-8501000D02*
G01*
X19199000Y-8501000D01*
X19199000Y-7499000D01*
X20801000Y-7499000D01*
X20801000Y-8501000D01*
G37*
G36*
X38301000Y-8501000D02*
G01*
X36699000Y-8501000D01*
X36699000Y-7499000D01*
X38301000Y-7499000D01*
X38301000Y-8501000D01*
G37*
G36*
X55556202Y-2203781D02*
G01*
X55831606Y-2258562D01*
X56350455Y-2473476D01*
X56817407Y-2785484D01*
X57214516Y-3182593D01*
X57526524Y-3649545D01*
X57741438Y-4168394D01*
X57851000Y-4719201D01*
X57851000Y-5280799D01*
X57741438Y-5831606D01*
X57526524Y-6350455D01*
X57276579Y-6724524D01*
X57220732Y-6808105D01*
X57214516Y-6817407D01*
X56817407Y-7214516D01*
X56350455Y-7526524D01*
X55831606Y-7741438D01*
X55556202Y-7796219D01*
X55280800Y-7851000D01*
X54719200Y-7851000D01*
X54443798Y-7796219D01*
X54168394Y-7741438D01*
X53649545Y-7526524D01*
X53182593Y-7214516D01*
X52785484Y-6817407D01*
X52779269Y-6808105D01*
X52723421Y-6724524D01*
X52473476Y-6350455D01*
X52258562Y-5831606D01*
X52149000Y-5280799D01*
X52149000Y-4719201D01*
X52258562Y-4168394D01*
X52473476Y-3649545D01*
X52785484Y-3182593D01*
X53182593Y-2785484D01*
X53649545Y-2473476D01*
X54168394Y-2258562D01*
X54443798Y-2203781D01*
X54719200Y-2149000D01*
X55280800Y-2149000D01*
X55556202Y-2203781D01*
G37*
G36*
X5831606Y-2258562D02*
G01*
X6350455Y-2473476D01*
X6817407Y-2785484D01*
X7214516Y-3182593D01*
X7526524Y-3649545D01*
X7741438Y-4168394D01*
X7851000Y-4719201D01*
X7851000Y-5280799D01*
X7741438Y-5831606D01*
X7526524Y-6350455D01*
X7276579Y-6724524D01*
X7220732Y-6808105D01*
X7214516Y-6817407D01*
X6817407Y-7214516D01*
X6350455Y-7526524D01*
X5831606Y-7741438D01*
X5556202Y-7796219D01*
X5280800Y-7851000D01*
X4719200Y-7851000D01*
X4443798Y-7796219D01*
X4168394Y-7741438D01*
X3649545Y-7526524D01*
X3182593Y-7214516D01*
X2785484Y-6817407D01*
X2779269Y-6808105D01*
X2723421Y-6724524D01*
X2473476Y-6350455D01*
X2258562Y-5831606D01*
X2149000Y-5280799D01*
X2149000Y-4719201D01*
X2258562Y-4168394D01*
X2473476Y-3649545D01*
X2785484Y-3182593D01*
X3182593Y-2785484D01*
X3649545Y-2473476D01*
X4168394Y-2258562D01*
X4719200Y-2149000D01*
X5280800Y-2149000D01*
X5831606Y-2258562D01*
G37*
G36*
X18025562Y-5478181D02*
G01*
X18060481Y-5488774D01*
X18092663Y-5505976D01*
X18120873Y-5529127D01*
X18144024Y-5557337D01*
X18161226Y-5589519D01*
X18171819Y-5624438D01*
X18176000Y-5666895D01*
X18176000Y-6808105D01*
X18171819Y-6850562D01*
X18161226Y-6885481D01*
X18144024Y-6917663D01*
X18120873Y-6945873D01*
X18092663Y-6969024D01*
X18060481Y-6986226D01*
X18025562Y-6996819D01*
X17983105Y-7001000D01*
X16516895Y-7001000D01*
X16474438Y-6996819D01*
X16439519Y-6986226D01*
X16407337Y-6969024D01*
X16379127Y-6945873D01*
X16355976Y-6917663D01*
X16338774Y-6885481D01*
X16328181Y-6850562D01*
X16324000Y-6808105D01*
X16324000Y-5666895D01*
X16328181Y-5624438D01*
X16338774Y-5589519D01*
X16355976Y-5557337D01*
X16379127Y-5529127D01*
X16407337Y-5505976D01*
X16439519Y-5488774D01*
X16474438Y-5478181D01*
X16516895Y-5474000D01*
X17983105Y-5474000D01*
X18025562Y-5478181D01*
G37*
G36*
X15525562Y-5478181D02*
G01*
X15560481Y-5488774D01*
X15592663Y-5505976D01*
X15620873Y-5529127D01*
X15644024Y-5557337D01*
X15661226Y-5589519D01*
X15671819Y-5624438D01*
X15676000Y-5666895D01*
X15676000Y-6808105D01*
X15671819Y-6850562D01*
X15661226Y-6885481D01*
X15644024Y-6917663D01*
X15620873Y-6945873D01*
X15592663Y-6969024D01*
X15560481Y-6986226D01*
X15525562Y-6996819D01*
X15483105Y-7001000D01*
X14016895Y-7001000D01*
X13974438Y-6996819D01*
X13939519Y-6986226D01*
X13907337Y-6969024D01*
X13879127Y-6945873D01*
X13855976Y-6917663D01*
X13838774Y-6885481D01*
X13828181Y-6850562D01*
X13824000Y-6808105D01*
X13824000Y-5666895D01*
X13828181Y-5624438D01*
X13838774Y-5589519D01*
X13855976Y-5557337D01*
X13879127Y-5529127D01*
X13907337Y-5505976D01*
X13939519Y-5488774D01*
X13974438Y-5478181D01*
X14016895Y-5474000D01*
X15483105Y-5474000D01*
X15525562Y-5478181D01*
G37*
G36*
X18025562Y-2503181D02*
G01*
X18060481Y-2513774D01*
X18092663Y-2530976D01*
X18120873Y-2554127D01*
X18144024Y-2582337D01*
X18161226Y-2614519D01*
X18171819Y-2649438D01*
X18176000Y-2691895D01*
X18176000Y-3833105D01*
X18171819Y-3875562D01*
X18161226Y-3910481D01*
X18144024Y-3942663D01*
X18120873Y-3970873D01*
X18092663Y-3994024D01*
X18060481Y-4011226D01*
X18025562Y-4021819D01*
X17983105Y-4026000D01*
X16516895Y-4026000D01*
X16474438Y-4021819D01*
X16439519Y-4011226D01*
X16407337Y-3994024D01*
X16379127Y-3970873D01*
X16355976Y-3942663D01*
X16338774Y-3910481D01*
X16328181Y-3875562D01*
X16324000Y-3833105D01*
X16324000Y-2691895D01*
X16328181Y-2649438D01*
X16338774Y-2614519D01*
X16355976Y-2582337D01*
X16379127Y-2554127D01*
X16407337Y-2530976D01*
X16439519Y-2513774D01*
X16474438Y-2503181D01*
X16516895Y-2499000D01*
X17983105Y-2499000D01*
X18025562Y-2503181D01*
G37*
G36*
X15525562Y-2503181D02*
G01*
X15560481Y-2513774D01*
X15592663Y-2530976D01*
X15620873Y-2554127D01*
X15644024Y-2582337D01*
X15661226Y-2614519D01*
X15671819Y-2649438D01*
X15676000Y-2691895D01*
X15676000Y-3833105D01*
X15671819Y-3875562D01*
X15661226Y-3910481D01*
X15644024Y-3942663D01*
X15620873Y-3970873D01*
X15592663Y-3994024D01*
X15560481Y-4011226D01*
X15525562Y-4021819D01*
X15483105Y-4026000D01*
X14016895Y-4026000D01*
X13974438Y-4021819D01*
X13939519Y-4011226D01*
X13907337Y-3994024D01*
X13879127Y-3970873D01*
X13855976Y-3942663D01*
X13838774Y-3910481D01*
X13828181Y-3875562D01*
X13824000Y-3833105D01*
X13824000Y-2691895D01*
X13828181Y-2649438D01*
X13838774Y-2614519D01*
X13855976Y-2582337D01*
X13879127Y-2554127D01*
X13907337Y-2530976D01*
X13939519Y-2513774D01*
X13974438Y-2503181D01*
X14016895Y-2499000D01*
X15483105Y-2499000D01*
X15525562Y-2503181D01*
G37*
M02*
