M48
; DRILL file {KiCad (5.1.6)-1} date 08/23/20 15:56:17
; FORMAT={-:-/ absolute / metric / decimal}
; #@! TF.CreationDate,2020-08-23T15:56:17+02:00
; #@! TF.GenerationSoftware,Kicad,Pcbnew,(5.1.6)-1
; #@! TF.FileFunction,Plated,1,2,PTH
FMAT,2
METRIC
T1C0.400
T2C0.600
T3C0.850
T4C1.000
T5C3.200
%
G90
G05
T1
X190.18Y-86.25
X192.18Y-95.0
X192.18Y-96.5
X193.18Y-88.25
X193.68Y-108.5
X194.68Y-108.5
X195.18Y-82.5
X195.68Y-108.5
X196.68Y-108.5
X197.68Y-108.5
X198.68Y-108.5
X201.93Y-84.25
X201.93Y-108.25
X202.93Y-93.25
X202.93Y-99.0
X203.93Y-85.75
X203.93Y-87.25
X204.93Y-91.75
X204.93Y-88.75
X208.58Y-101.1
X219.18Y-88.75
X220.68Y-82.0
X220.68Y-84.5
X220.68Y-85.77
X220.68Y-87.04
X220.68Y-88.31
X220.68Y-89.58
X220.68Y-90.85
X220.68Y-92.12
X223.18Y-95.6
X224.18Y-96.5
X225.18Y-96.513
X226.18Y-96.5
X227.18Y-96.5
X227.68Y-109.5
X228.18Y-101.5
X229.43Y-85.75
X238.68Y-84.0
X238.68Y-86.5
X238.68Y-89.0
X238.68Y-91.5
X238.68Y-94.0
X238.68Y-96.5
X238.68Y-99.0
X238.68Y-101.5
T3
X186.343Y-83.0
X186.343Y-88.0
T4
X184.68Y-94.0
X184.68Y-96.54
X184.68Y-99.08
X184.68Y-101.62
T5
X187.18Y-79.0
X235.68Y-79.0
T2
G00X183.292Y-82.0
M15
G01X183.992Y-82.0
M16
G05
G00X183.992Y-89.0
M15
G01X183.292Y-89.0
M16
G05
T0
M30
