G04 #@! TF.GenerationSoftware,KiCad,Pcbnew,(5.1.6)-1*
G04 #@! TF.CreationDate,2020-08-23T15:56:14+02:00*
G04 #@! TF.ProjectId,PacketVis,5061636b-6574-4566-9973-2e6b69636164,A01*
G04 #@! TF.SameCoordinates,Original*
G04 #@! TF.FileFunction,Legend,Bot*
G04 #@! TF.FilePolarity,Positive*
%FSLAX46Y46*%
G04 Gerber Fmt 4.6, Leading zero omitted, Abs format (unit mm)*
G04 Created by KiCad (PCBNEW (5.1.6)-1) date 2020-08-23 15:56:14*
%MOMM*%
%LPD*%
G01*
G04 APERTURE LIST*
%ADD10C,0.062500*%
G04 APERTURE END LIST*
D10*
X238375238Y-110452380D02*
X238375238Y-111166666D01*
X238413333Y-111309523D01*
X238489523Y-111404761D01*
X238603809Y-111452380D01*
X238680000Y-111452380D01*
X237613333Y-111452380D02*
X237994285Y-111452380D01*
X237994285Y-110452380D01*
X236889523Y-111357142D02*
X236927619Y-111404761D01*
X237041904Y-111452380D01*
X237118095Y-111452380D01*
X237232380Y-111404761D01*
X237308571Y-111309523D01*
X237346666Y-111214285D01*
X237384761Y-111023809D01*
X237384761Y-110880952D01*
X237346666Y-110690476D01*
X237308571Y-110595238D01*
X237232380Y-110500000D01*
X237118095Y-110452380D01*
X237041904Y-110452380D01*
X236927619Y-110500000D01*
X236889523Y-110547619D01*
X236318095Y-110452380D02*
X236318095Y-111166666D01*
X236356190Y-111309523D01*
X236432380Y-111404761D01*
X236546666Y-111452380D01*
X236622857Y-111452380D01*
X235556190Y-111452380D02*
X235937142Y-111452380D01*
X235937142Y-110452380D01*
X234832380Y-111357142D02*
X234870476Y-111404761D01*
X234984761Y-111452380D01*
X235060952Y-111452380D01*
X235175238Y-111404761D01*
X235251428Y-111309523D01*
X235289523Y-111214285D01*
X235327619Y-111023809D01*
X235327619Y-110880952D01*
X235289523Y-110690476D01*
X235251428Y-110595238D01*
X235175238Y-110500000D01*
X235060952Y-110452380D01*
X234984761Y-110452380D01*
X234870476Y-110500000D01*
X234832380Y-110547619D01*
X234260952Y-110452380D02*
X234260952Y-111166666D01*
X234299047Y-111309523D01*
X234375238Y-111404761D01*
X234489523Y-111452380D01*
X234565714Y-111452380D01*
X233499047Y-111452380D02*
X233880000Y-111452380D01*
X233880000Y-110452380D01*
X232775238Y-111357142D02*
X232813333Y-111404761D01*
X232927619Y-111452380D01*
X233003809Y-111452380D01*
X233118095Y-111404761D01*
X233194285Y-111309523D01*
X233232380Y-111214285D01*
X233270476Y-111023809D01*
X233270476Y-110880952D01*
X233232380Y-110690476D01*
X233194285Y-110595238D01*
X233118095Y-110500000D01*
X233003809Y-110452380D01*
X232927619Y-110452380D01*
X232813333Y-110500000D01*
X232775238Y-110547619D01*
X232203809Y-110452380D02*
X232203809Y-111166666D01*
X232241904Y-111309523D01*
X232318095Y-111404761D01*
X232432380Y-111452380D01*
X232508571Y-111452380D01*
X231441904Y-111452380D02*
X231822857Y-111452380D01*
X231822857Y-110452380D01*
X230718095Y-111357142D02*
X230756190Y-111404761D01*
X230870476Y-111452380D01*
X230946666Y-111452380D01*
X231060952Y-111404761D01*
X231137142Y-111309523D01*
X231175238Y-111214285D01*
X231213333Y-111023809D01*
X231213333Y-110880952D01*
X231175238Y-110690476D01*
X231137142Y-110595238D01*
X231060952Y-110500000D01*
X230946666Y-110452380D01*
X230870476Y-110452380D01*
X230756190Y-110500000D01*
X230718095Y-110547619D01*
M02*
