G04 #@! TF.GenerationSoftware,KiCad,Pcbnew,(5.1.6)-1*
G04 #@! TF.CreationDate,2020-08-23T16:03:49+02:00*
G04 #@! TF.ProjectId,PacketVis,5061636b-6574-4566-9973-2e6b69636164,A01*
G04 #@! TF.SameCoordinates,Original*
G04 #@! TF.FileFunction,Copper,L1,Top*
G04 #@! TF.FilePolarity,Positive*
%FSLAX46Y46*%
G04 Gerber Fmt 4.6, Leading zero omitted, Abs format (unit mm)*
G04 Created by KiCad (PCBNEW (5.1.6)-1) date 2020-08-23 16:03:49*
%MOMM*%
%LPD*%
G01*
G04 APERTURE LIST*
G04 #@! TA.AperFunction,ComponentPad*
%ADD10O,1.700000X1.700000*%
G04 #@! TD*
G04 #@! TA.AperFunction,ComponentPad*
%ADD11R,1.700000X1.700000*%
G04 #@! TD*
G04 #@! TA.AperFunction,SMDPad,CuDef*
%ADD12R,4.000000X4.000000*%
G04 #@! TD*
G04 #@! TA.AperFunction,SMDPad,CuDef*
%ADD13R,1.500000X0.900000*%
G04 #@! TD*
G04 #@! TA.AperFunction,SMDPad,CuDef*
%ADD14R,1.550000X0.600000*%
G04 #@! TD*
G04 #@! TA.AperFunction,SMDPad,CuDef*
%ADD15R,2.400000X2.100000*%
G04 #@! TD*
G04 #@! TA.AperFunction,SMDPad,CuDef*
%ADD16R,1.550000X1.300000*%
G04 #@! TD*
G04 #@! TA.AperFunction,SMDPad,CuDef*
%ADD17R,1.500000X2.000000*%
G04 #@! TD*
G04 #@! TA.AperFunction,SMDPad,CuDef*
%ADD18R,3.800000X2.000000*%
G04 #@! TD*
G04 #@! TA.AperFunction,SMDPad,CuDef*
%ADD19R,1.900000X1.200000*%
G04 #@! TD*
G04 #@! TA.AperFunction,ComponentPad*
%ADD20O,1.900000X1.200000*%
G04 #@! TD*
G04 #@! TA.AperFunction,SMDPad,CuDef*
%ADD21R,1.900000X1.500000*%
G04 #@! TD*
G04 #@! TA.AperFunction,ComponentPad*
%ADD22C,1.450000*%
G04 #@! TD*
G04 #@! TA.AperFunction,SMDPad,CuDef*
%ADD23R,1.350000X0.400000*%
G04 #@! TD*
G04 #@! TA.AperFunction,ViaPad*
%ADD24C,3.500000*%
G04 #@! TD*
G04 #@! TA.AperFunction,ViaPad*
%ADD25C,0.800000*%
G04 #@! TD*
G04 #@! TA.AperFunction,Conductor*
%ADD26C,1.500000*%
G04 #@! TD*
G04 #@! TA.AperFunction,Conductor*
%ADD27C,0.250000*%
G04 #@! TD*
G04 #@! TA.AperFunction,Conductor*
%ADD28C,0.500000*%
G04 #@! TD*
G04 #@! TA.AperFunction,Conductor*
%ADD29C,0.508000*%
G04 #@! TD*
G04 #@! TA.AperFunction,Conductor*
%ADD30C,0.254000*%
G04 #@! TD*
G04 APERTURE END LIST*
D10*
X184680000Y-101620000D03*
X184680000Y-99080000D03*
X184680000Y-96540000D03*
D11*
X184680000Y-94000000D03*
D12*
X209530000Y-91260000D03*
D13*
X217180000Y-82750000D03*
X217180000Y-84250000D03*
X217180000Y-85750000D03*
X217180000Y-87250000D03*
X217180000Y-88750000D03*
X217180000Y-90250000D03*
X217180000Y-91750000D03*
X217180000Y-93250000D03*
X217180000Y-94750000D03*
X199680000Y-94750000D03*
X199680000Y-93250000D03*
X199680000Y-91750000D03*
X199680000Y-90250000D03*
X199680000Y-88750000D03*
X199680000Y-87250000D03*
X199680000Y-85750000D03*
X199680000Y-84250000D03*
X199680000Y-82750000D03*
D14*
X227830000Y-84500000D03*
X227830000Y-85770000D03*
X227830000Y-87040000D03*
X227830000Y-88310000D03*
X227830000Y-89580000D03*
X227830000Y-90850000D03*
X227830000Y-92120000D03*
X227830000Y-93390000D03*
X222430000Y-93390000D03*
X222430000Y-92120000D03*
X222430000Y-90850000D03*
X222430000Y-89580000D03*
X222430000Y-88310000D03*
X222430000Y-87040000D03*
X222430000Y-85770000D03*
X222430000Y-84500000D03*
D15*
X205180000Y-105500000D03*
X212980000Y-105500000D03*
X205180000Y-110000000D03*
X212980000Y-110000000D03*
D16*
X237975000Y-104500000D03*
X237975000Y-109000000D03*
X230025000Y-109000000D03*
X230025000Y-104500000D03*
G04 #@! TA.AperFunction,SMDPad,CuDef*
G36*
G01*
X189723750Y-84450000D02*
X190636250Y-84450000D01*
G75*
G02*
X190880000Y-84693750I0J-243750D01*
G01*
X190880000Y-85181250D01*
G75*
G02*
X190636250Y-85425000I-243750J0D01*
G01*
X189723750Y-85425000D01*
G75*
G02*
X189480000Y-85181250I0J243750D01*
G01*
X189480000Y-84693750D01*
G75*
G02*
X189723750Y-84450000I243750J0D01*
G01*
G37*
G04 #@! TD.AperFunction*
G04 #@! TA.AperFunction,SMDPad,CuDef*
G36*
G01*
X189723750Y-82575000D02*
X190636250Y-82575000D01*
G75*
G02*
X190880000Y-82818750I0J-243750D01*
G01*
X190880000Y-83306250D01*
G75*
G02*
X190636250Y-83550000I-243750J0D01*
G01*
X189723750Y-83550000D01*
G75*
G02*
X189480000Y-83306250I0J243750D01*
G01*
X189480000Y-82818750D01*
G75*
G02*
X189723750Y-82575000I243750J0D01*
G01*
G37*
G04 #@! TD.AperFunction*
D17*
X198480000Y-105350000D03*
X193880000Y-105350000D03*
X196180000Y-105350000D03*
D18*
X196180000Y-111650000D03*
G04 #@! TA.AperFunction,SMDPad,CuDef*
G36*
G01*
X195636250Y-92050000D02*
X194723750Y-92050000D01*
G75*
G02*
X194480000Y-91806250I0J243750D01*
G01*
X194480000Y-91318750D01*
G75*
G02*
X194723750Y-91075000I243750J0D01*
G01*
X195636250Y-91075000D01*
G75*
G02*
X195880000Y-91318750I0J-243750D01*
G01*
X195880000Y-91806250D01*
G75*
G02*
X195636250Y-92050000I-243750J0D01*
G01*
G37*
G04 #@! TD.AperFunction*
G04 #@! TA.AperFunction,SMDPad,CuDef*
G36*
G01*
X195636250Y-93925000D02*
X194723750Y-93925000D01*
G75*
G02*
X194480000Y-93681250I0J243750D01*
G01*
X194480000Y-93193750D01*
G75*
G02*
X194723750Y-92950000I243750J0D01*
G01*
X195636250Y-92950000D01*
G75*
G02*
X195880000Y-93193750I0J-243750D01*
G01*
X195880000Y-93681250D01*
G75*
G02*
X195636250Y-93925000I-243750J0D01*
G01*
G37*
G04 #@! TD.AperFunction*
G04 #@! TA.AperFunction,SMDPad,CuDef*
G36*
G01*
X228136250Y-106300000D02*
X227223750Y-106300000D01*
G75*
G02*
X226980000Y-106056250I0J243750D01*
G01*
X226980000Y-105568750D01*
G75*
G02*
X227223750Y-105325000I243750J0D01*
G01*
X228136250Y-105325000D01*
G75*
G02*
X228380000Y-105568750I0J-243750D01*
G01*
X228380000Y-106056250D01*
G75*
G02*
X228136250Y-106300000I-243750J0D01*
G01*
G37*
G04 #@! TD.AperFunction*
G04 #@! TA.AperFunction,SMDPad,CuDef*
G36*
G01*
X228136250Y-108175000D02*
X227223750Y-108175000D01*
G75*
G02*
X226980000Y-107931250I0J243750D01*
G01*
X226980000Y-107443750D01*
G75*
G02*
X227223750Y-107200000I243750J0D01*
G01*
X228136250Y-107200000D01*
G75*
G02*
X228380000Y-107443750I0J-243750D01*
G01*
X228380000Y-107931250D01*
G75*
G02*
X228136250Y-108175000I-243750J0D01*
G01*
G37*
G04 #@! TD.AperFunction*
G04 #@! TA.AperFunction,SMDPad,CuDef*
G36*
G01*
X195636250Y-85050000D02*
X194723750Y-85050000D01*
G75*
G02*
X194480000Y-84806250I0J243750D01*
G01*
X194480000Y-84318750D01*
G75*
G02*
X194723750Y-84075000I243750J0D01*
G01*
X195636250Y-84075000D01*
G75*
G02*
X195880000Y-84318750I0J-243750D01*
G01*
X195880000Y-84806250D01*
G75*
G02*
X195636250Y-85050000I-243750J0D01*
G01*
G37*
G04 #@! TD.AperFunction*
G04 #@! TA.AperFunction,SMDPad,CuDef*
G36*
G01*
X195636250Y-86925000D02*
X194723750Y-86925000D01*
G75*
G02*
X194480000Y-86681250I0J243750D01*
G01*
X194480000Y-86193750D01*
G75*
G02*
X194723750Y-85950000I243750J0D01*
G01*
X195636250Y-85950000D01*
G75*
G02*
X195880000Y-86193750I0J-243750D01*
G01*
X195880000Y-86681250D01*
G75*
G02*
X195636250Y-86925000I-243750J0D01*
G01*
G37*
G04 #@! TD.AperFunction*
G04 #@! TA.AperFunction,SMDPad,CuDef*
G36*
G01*
X196723750Y-92950000D02*
X197636250Y-92950000D01*
G75*
G02*
X197880000Y-93193750I0J-243750D01*
G01*
X197880000Y-93681250D01*
G75*
G02*
X197636250Y-93925000I-243750J0D01*
G01*
X196723750Y-93925000D01*
G75*
G02*
X196480000Y-93681250I0J243750D01*
G01*
X196480000Y-93193750D01*
G75*
G02*
X196723750Y-92950000I243750J0D01*
G01*
G37*
G04 #@! TD.AperFunction*
G04 #@! TA.AperFunction,SMDPad,CuDef*
G36*
G01*
X196723750Y-91075000D02*
X197636250Y-91075000D01*
G75*
G02*
X197880000Y-91318750I0J-243750D01*
G01*
X197880000Y-91806250D01*
G75*
G02*
X197636250Y-92050000I-243750J0D01*
G01*
X196723750Y-92050000D01*
G75*
G02*
X196480000Y-91806250I0J243750D01*
G01*
X196480000Y-91318750D01*
G75*
G02*
X196723750Y-91075000I243750J0D01*
G01*
G37*
G04 #@! TD.AperFunction*
G04 #@! TA.AperFunction,SMDPad,CuDef*
G36*
G01*
X205680000Y-100673750D02*
X205680000Y-101586250D01*
G75*
G02*
X205436250Y-101830000I-243750J0D01*
G01*
X204948750Y-101830000D01*
G75*
G02*
X204705000Y-101586250I0J243750D01*
G01*
X204705000Y-100673750D01*
G75*
G02*
X204948750Y-100430000I243750J0D01*
G01*
X205436250Y-100430000D01*
G75*
G02*
X205680000Y-100673750I0J-243750D01*
G01*
G37*
G04 #@! TD.AperFunction*
G04 #@! TA.AperFunction,SMDPad,CuDef*
G36*
G01*
X207555000Y-100673750D02*
X207555000Y-101586250D01*
G75*
G02*
X207311250Y-101830000I-243750J0D01*
G01*
X206823750Y-101830000D01*
G75*
G02*
X206580000Y-101586250I0J243750D01*
G01*
X206580000Y-100673750D01*
G75*
G02*
X206823750Y-100430000I243750J0D01*
G01*
X207311250Y-100430000D01*
G75*
G02*
X207555000Y-100673750I0J-243750D01*
G01*
G37*
G04 #@! TD.AperFunction*
D19*
X183642500Y-82600000D03*
X183642500Y-88400000D03*
D20*
X183642500Y-89000000D03*
X183642500Y-82000000D03*
D21*
X183642500Y-84500000D03*
D22*
X186342500Y-88000000D03*
D23*
X186342500Y-85500000D03*
X186342500Y-86150000D03*
X186342500Y-86800000D03*
X186342500Y-84200000D03*
X186342500Y-84850000D03*
D22*
X186342500Y-83000000D03*
D21*
X183642500Y-86500000D03*
G04 #@! TA.AperFunction,SMDPad,CuDef*
G36*
G01*
X197692500Y-102956250D02*
X197692500Y-102043750D01*
G75*
G02*
X197936250Y-101800000I243750J0D01*
G01*
X198423750Y-101800000D01*
G75*
G02*
X198667500Y-102043750I0J-243750D01*
G01*
X198667500Y-102956250D01*
G75*
G02*
X198423750Y-103200000I-243750J0D01*
G01*
X197936250Y-103200000D01*
G75*
G02*
X197692500Y-102956250I0J243750D01*
G01*
G37*
G04 #@! TD.AperFunction*
G04 #@! TA.AperFunction,SMDPad,CuDef*
G36*
G01*
X195817500Y-102956250D02*
X195817500Y-102043750D01*
G75*
G02*
X196061250Y-101800000I243750J0D01*
G01*
X196548750Y-101800000D01*
G75*
G02*
X196792500Y-102043750I0J-243750D01*
G01*
X196792500Y-102956250D01*
G75*
G02*
X196548750Y-103200000I-243750J0D01*
G01*
X196061250Y-103200000D01*
G75*
G02*
X195817500Y-102956250I0J243750D01*
G01*
G37*
G04 #@! TD.AperFunction*
G04 #@! TA.AperFunction,SMDPad,CuDef*
G36*
G01*
X196723750Y-85950000D02*
X197636250Y-85950000D01*
G75*
G02*
X197880000Y-86193750I0J-243750D01*
G01*
X197880000Y-86681250D01*
G75*
G02*
X197636250Y-86925000I-243750J0D01*
G01*
X196723750Y-86925000D01*
G75*
G02*
X196480000Y-86681250I0J243750D01*
G01*
X196480000Y-86193750D01*
G75*
G02*
X196723750Y-85950000I243750J0D01*
G01*
G37*
G04 #@! TD.AperFunction*
G04 #@! TA.AperFunction,SMDPad,CuDef*
G36*
G01*
X196723750Y-84075000D02*
X197636250Y-84075000D01*
G75*
G02*
X197880000Y-84318750I0J-243750D01*
G01*
X197880000Y-84806250D01*
G75*
G02*
X197636250Y-85050000I-243750J0D01*
G01*
X196723750Y-85050000D01*
G75*
G02*
X196480000Y-84806250I0J243750D01*
G01*
X196480000Y-84318750D01*
G75*
G02*
X196723750Y-84075000I243750J0D01*
G01*
G37*
G04 #@! TD.AperFunction*
G04 #@! TA.AperFunction,SMDPad,CuDef*
G36*
G01*
X192230000Y-102043750D02*
X192230000Y-102956250D01*
G75*
G02*
X191986250Y-103200000I-243750J0D01*
G01*
X191498750Y-103200000D01*
G75*
G02*
X191255000Y-102956250I0J243750D01*
G01*
X191255000Y-102043750D01*
G75*
G02*
X191498750Y-101800000I243750J0D01*
G01*
X191986250Y-101800000D01*
G75*
G02*
X192230000Y-102043750I0J-243750D01*
G01*
G37*
G04 #@! TD.AperFunction*
G04 #@! TA.AperFunction,SMDPad,CuDef*
G36*
G01*
X194105000Y-102043750D02*
X194105000Y-102956250D01*
G75*
G02*
X193861250Y-103200000I-243750J0D01*
G01*
X193373750Y-103200000D01*
G75*
G02*
X193130000Y-102956250I0J243750D01*
G01*
X193130000Y-102043750D01*
G75*
G02*
X193373750Y-101800000I243750J0D01*
G01*
X193861250Y-101800000D01*
G75*
G02*
X194105000Y-102043750I0J-243750D01*
G01*
G37*
G04 #@! TD.AperFunction*
G04 #@! TA.AperFunction,SMDPad,CuDef*
G36*
G01*
X191723750Y-84450000D02*
X192636250Y-84450000D01*
G75*
G02*
X192880000Y-84693750I0J-243750D01*
G01*
X192880000Y-85181250D01*
G75*
G02*
X192636250Y-85425000I-243750J0D01*
G01*
X191723750Y-85425000D01*
G75*
G02*
X191480000Y-85181250I0J243750D01*
G01*
X191480000Y-84693750D01*
G75*
G02*
X191723750Y-84450000I243750J0D01*
G01*
G37*
G04 #@! TD.AperFunction*
G04 #@! TA.AperFunction,SMDPad,CuDef*
G36*
G01*
X191723750Y-82575000D02*
X192636250Y-82575000D01*
G75*
G02*
X192880000Y-82818750I0J-243750D01*
G01*
X192880000Y-83306250D01*
G75*
G02*
X192636250Y-83550000I-243750J0D01*
G01*
X191723750Y-83550000D01*
G75*
G02*
X191480000Y-83306250I0J243750D01*
G01*
X191480000Y-82818750D01*
G75*
G02*
X191723750Y-82575000I243750J0D01*
G01*
G37*
G04 #@! TD.AperFunction*
G04 #@! TA.AperFunction,SMDPad,CuDef*
G36*
G01*
X198136250Y-79300000D02*
X197223750Y-79300000D01*
G75*
G02*
X196980000Y-79056250I0J243750D01*
G01*
X196980000Y-78568750D01*
G75*
G02*
X197223750Y-78325000I243750J0D01*
G01*
X198136250Y-78325000D01*
G75*
G02*
X198380000Y-78568750I0J-243750D01*
G01*
X198380000Y-79056250D01*
G75*
G02*
X198136250Y-79300000I-243750J0D01*
G01*
G37*
G04 #@! TD.AperFunction*
G04 #@! TA.AperFunction,SMDPad,CuDef*
G36*
G01*
X198136250Y-81175000D02*
X197223750Y-81175000D01*
G75*
G02*
X196980000Y-80931250I0J243750D01*
G01*
X196980000Y-80443750D01*
G75*
G02*
X197223750Y-80200000I243750J0D01*
G01*
X198136250Y-80200000D01*
G75*
G02*
X198380000Y-80443750I0J-243750D01*
G01*
X198380000Y-80931250D01*
G75*
G02*
X198136250Y-81175000I-243750J0D01*
G01*
G37*
G04 #@! TD.AperFunction*
G04 #@! TA.AperFunction,SMDPad,CuDef*
G36*
G01*
X195636250Y-79300000D02*
X194723750Y-79300000D01*
G75*
G02*
X194480000Y-79056250I0J243750D01*
G01*
X194480000Y-78568750D01*
G75*
G02*
X194723750Y-78325000I243750J0D01*
G01*
X195636250Y-78325000D01*
G75*
G02*
X195880000Y-78568750I0J-243750D01*
G01*
X195880000Y-79056250D01*
G75*
G02*
X195636250Y-79300000I-243750J0D01*
G01*
G37*
G04 #@! TD.AperFunction*
G04 #@! TA.AperFunction,SMDPad,CuDef*
G36*
G01*
X195636250Y-81175000D02*
X194723750Y-81175000D01*
G75*
G02*
X194480000Y-80931250I0J243750D01*
G01*
X194480000Y-80443750D01*
G75*
G02*
X194723750Y-80200000I243750J0D01*
G01*
X195636250Y-80200000D01*
G75*
G02*
X195880000Y-80443750I0J-243750D01*
G01*
X195880000Y-80931250D01*
G75*
G02*
X195636250Y-81175000I-243750J0D01*
G01*
G37*
G04 #@! TD.AperFunction*
G04 #@! TA.AperFunction,SMDPad,CuDef*
G36*
G01*
X231960000Y-101956250D02*
X231960000Y-101043750D01*
G75*
G02*
X232203750Y-100800000I243750J0D01*
G01*
X232691250Y-100800000D01*
G75*
G02*
X232935000Y-101043750I0J-243750D01*
G01*
X232935000Y-101956250D01*
G75*
G02*
X232691250Y-102200000I-243750J0D01*
G01*
X232203750Y-102200000D01*
G75*
G02*
X231960000Y-101956250I0J243750D01*
G01*
G37*
G04 #@! TD.AperFunction*
G04 #@! TA.AperFunction,SMDPad,CuDef*
G36*
G01*
X230085000Y-101956250D02*
X230085000Y-101043750D01*
G75*
G02*
X230328750Y-100800000I243750J0D01*
G01*
X230816250Y-100800000D01*
G75*
G02*
X231060000Y-101043750I0J-243750D01*
G01*
X231060000Y-101956250D01*
G75*
G02*
X230816250Y-102200000I-243750J0D01*
G01*
X230328750Y-102200000D01*
G75*
G02*
X230085000Y-101956250I0J243750D01*
G01*
G37*
G04 #@! TD.AperFunction*
G04 #@! TA.AperFunction,SMDPad,CuDef*
G36*
G01*
X231960000Y-99456250D02*
X231960000Y-98543750D01*
G75*
G02*
X232203750Y-98300000I243750J0D01*
G01*
X232691250Y-98300000D01*
G75*
G02*
X232935000Y-98543750I0J-243750D01*
G01*
X232935000Y-99456250D01*
G75*
G02*
X232691250Y-99700000I-243750J0D01*
G01*
X232203750Y-99700000D01*
G75*
G02*
X231960000Y-99456250I0J243750D01*
G01*
G37*
G04 #@! TD.AperFunction*
G04 #@! TA.AperFunction,SMDPad,CuDef*
G36*
G01*
X230085000Y-99456250D02*
X230085000Y-98543750D01*
G75*
G02*
X230328750Y-98300000I243750J0D01*
G01*
X230816250Y-98300000D01*
G75*
G02*
X231060000Y-98543750I0J-243750D01*
G01*
X231060000Y-99456250D01*
G75*
G02*
X230816250Y-99700000I-243750J0D01*
G01*
X230328750Y-99700000D01*
G75*
G02*
X230085000Y-99456250I0J243750D01*
G01*
G37*
G04 #@! TD.AperFunction*
G04 #@! TA.AperFunction,SMDPad,CuDef*
G36*
G01*
X231960000Y-96956250D02*
X231960000Y-96043750D01*
G75*
G02*
X232203750Y-95800000I243750J0D01*
G01*
X232691250Y-95800000D01*
G75*
G02*
X232935000Y-96043750I0J-243750D01*
G01*
X232935000Y-96956250D01*
G75*
G02*
X232691250Y-97200000I-243750J0D01*
G01*
X232203750Y-97200000D01*
G75*
G02*
X231960000Y-96956250I0J243750D01*
G01*
G37*
G04 #@! TD.AperFunction*
G04 #@! TA.AperFunction,SMDPad,CuDef*
G36*
G01*
X230085000Y-96956250D02*
X230085000Y-96043750D01*
G75*
G02*
X230328750Y-95800000I243750J0D01*
G01*
X230816250Y-95800000D01*
G75*
G02*
X231060000Y-96043750I0J-243750D01*
G01*
X231060000Y-96956250D01*
G75*
G02*
X230816250Y-97200000I-243750J0D01*
G01*
X230328750Y-97200000D01*
G75*
G02*
X230085000Y-96956250I0J243750D01*
G01*
G37*
G04 #@! TD.AperFunction*
G04 #@! TA.AperFunction,SMDPad,CuDef*
G36*
G01*
X231960000Y-94456250D02*
X231960000Y-93543750D01*
G75*
G02*
X232203750Y-93300000I243750J0D01*
G01*
X232691250Y-93300000D01*
G75*
G02*
X232935000Y-93543750I0J-243750D01*
G01*
X232935000Y-94456250D01*
G75*
G02*
X232691250Y-94700000I-243750J0D01*
G01*
X232203750Y-94700000D01*
G75*
G02*
X231960000Y-94456250I0J243750D01*
G01*
G37*
G04 #@! TD.AperFunction*
G04 #@! TA.AperFunction,SMDPad,CuDef*
G36*
G01*
X230085000Y-94456250D02*
X230085000Y-93543750D01*
G75*
G02*
X230328750Y-93300000I243750J0D01*
G01*
X230816250Y-93300000D01*
G75*
G02*
X231060000Y-93543750I0J-243750D01*
G01*
X231060000Y-94456250D01*
G75*
G02*
X230816250Y-94700000I-243750J0D01*
G01*
X230328750Y-94700000D01*
G75*
G02*
X230085000Y-94456250I0J243750D01*
G01*
G37*
G04 #@! TD.AperFunction*
G04 #@! TA.AperFunction,SMDPad,CuDef*
G36*
G01*
X231960000Y-91956250D02*
X231960000Y-91043750D01*
G75*
G02*
X232203750Y-90800000I243750J0D01*
G01*
X232691250Y-90800000D01*
G75*
G02*
X232935000Y-91043750I0J-243750D01*
G01*
X232935000Y-91956250D01*
G75*
G02*
X232691250Y-92200000I-243750J0D01*
G01*
X232203750Y-92200000D01*
G75*
G02*
X231960000Y-91956250I0J243750D01*
G01*
G37*
G04 #@! TD.AperFunction*
G04 #@! TA.AperFunction,SMDPad,CuDef*
G36*
G01*
X230085000Y-91956250D02*
X230085000Y-91043750D01*
G75*
G02*
X230328750Y-90800000I243750J0D01*
G01*
X230816250Y-90800000D01*
G75*
G02*
X231060000Y-91043750I0J-243750D01*
G01*
X231060000Y-91956250D01*
G75*
G02*
X230816250Y-92200000I-243750J0D01*
G01*
X230328750Y-92200000D01*
G75*
G02*
X230085000Y-91956250I0J243750D01*
G01*
G37*
G04 #@! TD.AperFunction*
G04 #@! TA.AperFunction,SMDPad,CuDef*
G36*
G01*
X231960000Y-89456250D02*
X231960000Y-88543750D01*
G75*
G02*
X232203750Y-88300000I243750J0D01*
G01*
X232691250Y-88300000D01*
G75*
G02*
X232935000Y-88543750I0J-243750D01*
G01*
X232935000Y-89456250D01*
G75*
G02*
X232691250Y-89700000I-243750J0D01*
G01*
X232203750Y-89700000D01*
G75*
G02*
X231960000Y-89456250I0J243750D01*
G01*
G37*
G04 #@! TD.AperFunction*
G04 #@! TA.AperFunction,SMDPad,CuDef*
G36*
G01*
X230085000Y-89456250D02*
X230085000Y-88543750D01*
G75*
G02*
X230328750Y-88300000I243750J0D01*
G01*
X230816250Y-88300000D01*
G75*
G02*
X231060000Y-88543750I0J-243750D01*
G01*
X231060000Y-89456250D01*
G75*
G02*
X230816250Y-89700000I-243750J0D01*
G01*
X230328750Y-89700000D01*
G75*
G02*
X230085000Y-89456250I0J243750D01*
G01*
G37*
G04 #@! TD.AperFunction*
G04 #@! TA.AperFunction,SMDPad,CuDef*
G36*
G01*
X231960000Y-86956250D02*
X231960000Y-86043750D01*
G75*
G02*
X232203750Y-85800000I243750J0D01*
G01*
X232691250Y-85800000D01*
G75*
G02*
X232935000Y-86043750I0J-243750D01*
G01*
X232935000Y-86956250D01*
G75*
G02*
X232691250Y-87200000I-243750J0D01*
G01*
X232203750Y-87200000D01*
G75*
G02*
X231960000Y-86956250I0J243750D01*
G01*
G37*
G04 #@! TD.AperFunction*
G04 #@! TA.AperFunction,SMDPad,CuDef*
G36*
G01*
X230085000Y-86956250D02*
X230085000Y-86043750D01*
G75*
G02*
X230328750Y-85800000I243750J0D01*
G01*
X230816250Y-85800000D01*
G75*
G02*
X231060000Y-86043750I0J-243750D01*
G01*
X231060000Y-86956250D01*
G75*
G02*
X230816250Y-87200000I-243750J0D01*
G01*
X230328750Y-87200000D01*
G75*
G02*
X230085000Y-86956250I0J243750D01*
G01*
G37*
G04 #@! TD.AperFunction*
G04 #@! TA.AperFunction,SMDPad,CuDef*
G36*
G01*
X231960000Y-84456250D02*
X231960000Y-83543750D01*
G75*
G02*
X232203750Y-83300000I243750J0D01*
G01*
X232691250Y-83300000D01*
G75*
G02*
X232935000Y-83543750I0J-243750D01*
G01*
X232935000Y-84456250D01*
G75*
G02*
X232691250Y-84700000I-243750J0D01*
G01*
X232203750Y-84700000D01*
G75*
G02*
X231960000Y-84456250I0J243750D01*
G01*
G37*
G04 #@! TD.AperFunction*
G04 #@! TA.AperFunction,SMDPad,CuDef*
G36*
G01*
X230085000Y-84456250D02*
X230085000Y-83543750D01*
G75*
G02*
X230328750Y-83300000I243750J0D01*
G01*
X230816250Y-83300000D01*
G75*
G02*
X231060000Y-83543750I0J-243750D01*
G01*
X231060000Y-84456250D01*
G75*
G02*
X230816250Y-84700000I-243750J0D01*
G01*
X230328750Y-84700000D01*
G75*
G02*
X230085000Y-84456250I0J243750D01*
G01*
G37*
G04 #@! TD.AperFunction*
G04 #@! TA.AperFunction,SMDPad,CuDef*
G36*
G01*
X235380000Y-83600000D02*
X235380000Y-84400000D01*
G75*
G02*
X235130000Y-84650000I-250000J0D01*
G01*
X234305000Y-84650000D01*
G75*
G02*
X234055000Y-84400000I0J250000D01*
G01*
X234055000Y-83600000D01*
G75*
G02*
X234305000Y-83350000I250000J0D01*
G01*
X235130000Y-83350000D01*
G75*
G02*
X235380000Y-83600000I0J-250000D01*
G01*
G37*
G04 #@! TD.AperFunction*
G04 #@! TA.AperFunction,SMDPad,CuDef*
G36*
G01*
X237305000Y-83600000D02*
X237305000Y-84400000D01*
G75*
G02*
X237055000Y-84650000I-250000J0D01*
G01*
X236230000Y-84650000D01*
G75*
G02*
X235980000Y-84400000I0J250000D01*
G01*
X235980000Y-83600000D01*
G75*
G02*
X236230000Y-83350000I250000J0D01*
G01*
X237055000Y-83350000D01*
G75*
G02*
X237305000Y-83600000I0J-250000D01*
G01*
G37*
G04 #@! TD.AperFunction*
G04 #@! TA.AperFunction,SMDPad,CuDef*
G36*
G01*
X235380000Y-101100000D02*
X235380000Y-101900000D01*
G75*
G02*
X235130000Y-102150000I-250000J0D01*
G01*
X234305000Y-102150000D01*
G75*
G02*
X234055000Y-101900000I0J250000D01*
G01*
X234055000Y-101100000D01*
G75*
G02*
X234305000Y-100850000I250000J0D01*
G01*
X235130000Y-100850000D01*
G75*
G02*
X235380000Y-101100000I0J-250000D01*
G01*
G37*
G04 #@! TD.AperFunction*
G04 #@! TA.AperFunction,SMDPad,CuDef*
G36*
G01*
X237305000Y-101100000D02*
X237305000Y-101900000D01*
G75*
G02*
X237055000Y-102150000I-250000J0D01*
G01*
X236230000Y-102150000D01*
G75*
G02*
X235980000Y-101900000I0J250000D01*
G01*
X235980000Y-101100000D01*
G75*
G02*
X236230000Y-100850000I250000J0D01*
G01*
X237055000Y-100850000D01*
G75*
G02*
X237305000Y-101100000I0J-250000D01*
G01*
G37*
G04 #@! TD.AperFunction*
G04 #@! TA.AperFunction,SMDPad,CuDef*
G36*
G01*
X235342500Y-98600000D02*
X235342500Y-99400000D01*
G75*
G02*
X235092500Y-99650000I-250000J0D01*
G01*
X234267500Y-99650000D01*
G75*
G02*
X234017500Y-99400000I0J250000D01*
G01*
X234017500Y-98600000D01*
G75*
G02*
X234267500Y-98350000I250000J0D01*
G01*
X235092500Y-98350000D01*
G75*
G02*
X235342500Y-98600000I0J-250000D01*
G01*
G37*
G04 #@! TD.AperFunction*
G04 #@! TA.AperFunction,SMDPad,CuDef*
G36*
G01*
X237267500Y-98600000D02*
X237267500Y-99400000D01*
G75*
G02*
X237017500Y-99650000I-250000J0D01*
G01*
X236192500Y-99650000D01*
G75*
G02*
X235942500Y-99400000I0J250000D01*
G01*
X235942500Y-98600000D01*
G75*
G02*
X236192500Y-98350000I250000J0D01*
G01*
X237017500Y-98350000D01*
G75*
G02*
X237267500Y-98600000I0J-250000D01*
G01*
G37*
G04 #@! TD.AperFunction*
G04 #@! TA.AperFunction,SMDPad,CuDef*
G36*
G01*
X235342500Y-96100000D02*
X235342500Y-96900000D01*
G75*
G02*
X235092500Y-97150000I-250000J0D01*
G01*
X234267500Y-97150000D01*
G75*
G02*
X234017500Y-96900000I0J250000D01*
G01*
X234017500Y-96100000D01*
G75*
G02*
X234267500Y-95850000I250000J0D01*
G01*
X235092500Y-95850000D01*
G75*
G02*
X235342500Y-96100000I0J-250000D01*
G01*
G37*
G04 #@! TD.AperFunction*
G04 #@! TA.AperFunction,SMDPad,CuDef*
G36*
G01*
X237267500Y-96100000D02*
X237267500Y-96900000D01*
G75*
G02*
X237017500Y-97150000I-250000J0D01*
G01*
X236192500Y-97150000D01*
G75*
G02*
X235942500Y-96900000I0J250000D01*
G01*
X235942500Y-96100000D01*
G75*
G02*
X236192500Y-95850000I250000J0D01*
G01*
X237017500Y-95850000D01*
G75*
G02*
X237267500Y-96100000I0J-250000D01*
G01*
G37*
G04 #@! TD.AperFunction*
G04 #@! TA.AperFunction,SMDPad,CuDef*
G36*
G01*
X235342500Y-93600000D02*
X235342500Y-94400000D01*
G75*
G02*
X235092500Y-94650000I-250000J0D01*
G01*
X234267500Y-94650000D01*
G75*
G02*
X234017500Y-94400000I0J250000D01*
G01*
X234017500Y-93600000D01*
G75*
G02*
X234267500Y-93350000I250000J0D01*
G01*
X235092500Y-93350000D01*
G75*
G02*
X235342500Y-93600000I0J-250000D01*
G01*
G37*
G04 #@! TD.AperFunction*
G04 #@! TA.AperFunction,SMDPad,CuDef*
G36*
G01*
X237267500Y-93600000D02*
X237267500Y-94400000D01*
G75*
G02*
X237017500Y-94650000I-250000J0D01*
G01*
X236192500Y-94650000D01*
G75*
G02*
X235942500Y-94400000I0J250000D01*
G01*
X235942500Y-93600000D01*
G75*
G02*
X236192500Y-93350000I250000J0D01*
G01*
X237017500Y-93350000D01*
G75*
G02*
X237267500Y-93600000I0J-250000D01*
G01*
G37*
G04 #@! TD.AperFunction*
G04 #@! TA.AperFunction,SMDPad,CuDef*
G36*
G01*
X235342500Y-91100000D02*
X235342500Y-91900000D01*
G75*
G02*
X235092500Y-92150000I-250000J0D01*
G01*
X234267500Y-92150000D01*
G75*
G02*
X234017500Y-91900000I0J250000D01*
G01*
X234017500Y-91100000D01*
G75*
G02*
X234267500Y-90850000I250000J0D01*
G01*
X235092500Y-90850000D01*
G75*
G02*
X235342500Y-91100000I0J-250000D01*
G01*
G37*
G04 #@! TD.AperFunction*
G04 #@! TA.AperFunction,SMDPad,CuDef*
G36*
G01*
X237267500Y-91100000D02*
X237267500Y-91900000D01*
G75*
G02*
X237017500Y-92150000I-250000J0D01*
G01*
X236192500Y-92150000D01*
G75*
G02*
X235942500Y-91900000I0J250000D01*
G01*
X235942500Y-91100000D01*
G75*
G02*
X236192500Y-90850000I250000J0D01*
G01*
X237017500Y-90850000D01*
G75*
G02*
X237267500Y-91100000I0J-250000D01*
G01*
G37*
G04 #@! TD.AperFunction*
G04 #@! TA.AperFunction,SMDPad,CuDef*
G36*
G01*
X235380000Y-88600000D02*
X235380000Y-89400000D01*
G75*
G02*
X235130000Y-89650000I-250000J0D01*
G01*
X234305000Y-89650000D01*
G75*
G02*
X234055000Y-89400000I0J250000D01*
G01*
X234055000Y-88600000D01*
G75*
G02*
X234305000Y-88350000I250000J0D01*
G01*
X235130000Y-88350000D01*
G75*
G02*
X235380000Y-88600000I0J-250000D01*
G01*
G37*
G04 #@! TD.AperFunction*
G04 #@! TA.AperFunction,SMDPad,CuDef*
G36*
G01*
X237305000Y-88600000D02*
X237305000Y-89400000D01*
G75*
G02*
X237055000Y-89650000I-250000J0D01*
G01*
X236230000Y-89650000D01*
G75*
G02*
X235980000Y-89400000I0J250000D01*
G01*
X235980000Y-88600000D01*
G75*
G02*
X236230000Y-88350000I250000J0D01*
G01*
X237055000Y-88350000D01*
G75*
G02*
X237305000Y-88600000I0J-250000D01*
G01*
G37*
G04 #@! TD.AperFunction*
G04 #@! TA.AperFunction,SMDPad,CuDef*
G36*
G01*
X235380000Y-86100000D02*
X235380000Y-86900000D01*
G75*
G02*
X235130000Y-87150000I-250000J0D01*
G01*
X234305000Y-87150000D01*
G75*
G02*
X234055000Y-86900000I0J250000D01*
G01*
X234055000Y-86100000D01*
G75*
G02*
X234305000Y-85850000I250000J0D01*
G01*
X235130000Y-85850000D01*
G75*
G02*
X235380000Y-86100000I0J-250000D01*
G01*
G37*
G04 #@! TD.AperFunction*
G04 #@! TA.AperFunction,SMDPad,CuDef*
G36*
G01*
X237305000Y-86100000D02*
X237305000Y-86900000D01*
G75*
G02*
X237055000Y-87150000I-250000J0D01*
G01*
X236230000Y-87150000D01*
G75*
G02*
X235980000Y-86900000I0J250000D01*
G01*
X235980000Y-86100000D01*
G75*
G02*
X236230000Y-85850000I250000J0D01*
G01*
X237055000Y-85850000D01*
G75*
G02*
X237305000Y-86100000I0J-250000D01*
G01*
G37*
G04 #@! TD.AperFunction*
D24*
X187180000Y-79000000D03*
X235680000Y-79000000D03*
D25*
X201929960Y-84250000D03*
X201930008Y-108250008D03*
X193680000Y-108500000D03*
X194680000Y-108500000D03*
X195680000Y-108500000D03*
X196680000Y-108500000D03*
X197680000Y-108500000D03*
X198680000Y-108500000D03*
X195180000Y-82500000D03*
X208580000Y-101100000D03*
X193180000Y-88250000D03*
X227680000Y-109500000D03*
X228180000Y-101500000D03*
X203930000Y-85749994D03*
X223180000Y-95600000D03*
X204930018Y-88750000D03*
X224180000Y-96500000D03*
X225179929Y-96512821D03*
X219180000Y-88750000D03*
X192180000Y-95000000D03*
X192180000Y-96500000D03*
X202930000Y-93250000D03*
X202930000Y-99000000D03*
X204930000Y-91749982D03*
X226180000Y-96500008D03*
X203930000Y-87250000D03*
X227180000Y-96500000D03*
X220680000Y-82000000D03*
X190180000Y-86250000D03*
X238680000Y-84000000D03*
X229429998Y-85750000D03*
X220680000Y-84500000D03*
X238680000Y-86500000D03*
X220680000Y-85770000D03*
X238680000Y-89000000D03*
X220680000Y-87040000D03*
X238680000Y-91500000D03*
X220680000Y-88310000D03*
X238680000Y-94000000D03*
X220680000Y-89580000D03*
X238680000Y-96500000D03*
X220680000Y-90850000D03*
X238680000Y-99000000D03*
X220680000Y-92120000D03*
X238680000Y-101500000D03*
D26*
X198480000Y-105350000D02*
X201030000Y-105350000D01*
D27*
X186342500Y-86800000D02*
X186342500Y-88000000D01*
X199367500Y-84562500D02*
X199680000Y-84250000D01*
X197180000Y-84562500D02*
X199367500Y-84562500D01*
X197180000Y-84562500D02*
X195180000Y-84562500D01*
X199680000Y-84250000D02*
X201929960Y-84250000D01*
X201930000Y-108250016D02*
X201930008Y-108250008D01*
X201930000Y-109500000D02*
X201930000Y-108250016D01*
X205180000Y-110000000D02*
X202430000Y-110000000D01*
X202430000Y-110000000D02*
X201930000Y-109500000D01*
X230572500Y-84000000D02*
X230572500Y-101500000D01*
X199680000Y-82750000D02*
X198430000Y-82750000D01*
X198430000Y-82750000D02*
X197680000Y-82000000D01*
X197680000Y-82000000D02*
X197680000Y-80687500D01*
X196880000Y-80687500D02*
X195180000Y-80687500D01*
X197680000Y-80687500D02*
X196880000Y-80687500D01*
X196180000Y-102625000D02*
X196305000Y-102500000D01*
D28*
X196180000Y-105350000D02*
X196180000Y-102625000D01*
D27*
X195180000Y-80687500D02*
X195180000Y-82500000D01*
X207097500Y-101100000D02*
X207067500Y-101130000D01*
X208580000Y-101100000D02*
X207097500Y-101100000D01*
X227680000Y-107687500D02*
X227680000Y-109500000D01*
X193180000Y-87000000D02*
X193180000Y-88250000D01*
X195180000Y-86437500D02*
X193742500Y-86437500D01*
X193742500Y-86437500D02*
X193180000Y-87000000D01*
X230572500Y-101500000D02*
X228180000Y-101500000D01*
X228180000Y-104500000D02*
X230025000Y-104500000D01*
X227680000Y-105812500D02*
X227680000Y-105000000D01*
X227680000Y-105000000D02*
X228180000Y-104500000D01*
X230025000Y-104500000D02*
X237975000Y-104500000D01*
X199680000Y-85750000D02*
X203929994Y-85750000D01*
X203929994Y-85750000D02*
X203930000Y-85749994D01*
X223180000Y-96165685D02*
X223180000Y-95600000D01*
X223180000Y-103000000D02*
X223180000Y-96165685D01*
X227680000Y-105812500D02*
X225992500Y-105812500D01*
X225992500Y-105812500D02*
X223180000Y-103000000D01*
X199680000Y-88750000D02*
X195930000Y-88750000D01*
X195930000Y-88750000D02*
X195180000Y-89500000D01*
X195180000Y-89500000D02*
X195180000Y-91562500D01*
X199680000Y-88750000D02*
X204930018Y-88750000D01*
X224680000Y-90985000D02*
X224680000Y-95000000D01*
X227830000Y-88310000D02*
X227355000Y-88310000D01*
X227355000Y-88310000D02*
X224680000Y-90985000D01*
X224680000Y-95000000D02*
X224180000Y-95500000D01*
X224180000Y-95500000D02*
X224180000Y-96500000D01*
X234717500Y-89000000D02*
X232447500Y-89000000D01*
X232447500Y-91500000D02*
X234680000Y-91500000D01*
X234680000Y-94000000D02*
X232447500Y-94000000D01*
X232447500Y-96500000D02*
X234680000Y-96500000D01*
X234680000Y-99000000D02*
X232447500Y-99000000D01*
X232447500Y-101500000D02*
X234717500Y-101500000D01*
X227355000Y-89580000D02*
X225179929Y-91755071D01*
X225179929Y-91755071D02*
X225179929Y-95947136D01*
X225179929Y-95947136D02*
X225179929Y-96512821D01*
X227830000Y-89580000D02*
X227355000Y-89580000D01*
X217180000Y-88750000D02*
X219180000Y-88750000D01*
X215180000Y-91750000D02*
X210930000Y-96000000D01*
X217180000Y-91750000D02*
X215180000Y-91750000D01*
X210930000Y-96000000D02*
X194930000Y-96000000D01*
X194930000Y-96000000D02*
X193930000Y-95000000D01*
X193930000Y-95000000D02*
X192180000Y-95000000D01*
X217180000Y-93250000D02*
X214930000Y-93250000D01*
X214930000Y-93250000D02*
X214680000Y-93250000D01*
X214680000Y-93250000D02*
X211430000Y-96500000D01*
X211430000Y-96500000D02*
X192180000Y-96500000D01*
X224180000Y-94000000D02*
X224180000Y-88000000D01*
X217180000Y-94750000D02*
X223430000Y-94750000D01*
X223430000Y-94750000D02*
X224180000Y-94000000D01*
X225140000Y-87040000D02*
X227830000Y-87040000D01*
X224180000Y-88000000D02*
X225140000Y-87040000D01*
X199680000Y-93250000D02*
X199980000Y-93250000D01*
X199980000Y-93250000D02*
X200230000Y-93500000D01*
X199980000Y-93250000D02*
X202930000Y-93250000D01*
X205192500Y-105487500D02*
X205180000Y-105500000D01*
X205192500Y-101130000D02*
X205192500Y-105487500D01*
X202930000Y-100250000D02*
X202930000Y-99000000D01*
X205192500Y-101130000D02*
X203810000Y-101130000D01*
X203810000Y-101130000D02*
X202930000Y-100250000D01*
X204929982Y-91750000D02*
X204930000Y-91749982D01*
X199680000Y-91750000D02*
X204929982Y-91750000D01*
X226180000Y-95750004D02*
X226180000Y-96500008D01*
X225680000Y-95250004D02*
X226180000Y-95750004D01*
X225680000Y-92525000D02*
X225680000Y-95250004D01*
X227830000Y-90850000D02*
X227355000Y-90850000D01*
X227355000Y-90850000D02*
X225680000Y-92525000D01*
X199680000Y-87250000D02*
X203930000Y-87250000D01*
X227180000Y-95934315D02*
X227180000Y-96500000D01*
X227180000Y-95217158D02*
X227180000Y-95934315D01*
X226180000Y-94217158D02*
X227180000Y-95217158D01*
X226180000Y-93250000D02*
X226180000Y-94217158D01*
X227830000Y-92120000D02*
X227310000Y-92120000D01*
X227310000Y-92120000D02*
X226180000Y-93250000D01*
X227830000Y-84500000D02*
X227830000Y-82850000D01*
D28*
X193617500Y-105087500D02*
X193880000Y-105350000D01*
X193617500Y-102500000D02*
X193617500Y-105087500D01*
X190180000Y-99062500D02*
X190617500Y-99500000D01*
X193617500Y-102500000D02*
X193617500Y-100937500D01*
X192180000Y-99500000D02*
X190680000Y-99500000D01*
X193617500Y-100937500D02*
X192180000Y-99500000D01*
X190617500Y-99500000D02*
X190680000Y-99500000D01*
D29*
X190180000Y-94000000D02*
X184680000Y-94000000D01*
D28*
X190180000Y-94000000D02*
X190180000Y-99062500D01*
D27*
X190180000Y-94000000D02*
X191680000Y-94000000D01*
X195117500Y-93500000D02*
X195180000Y-93437500D01*
X227830000Y-82850000D02*
X227830000Y-82650000D01*
X227830000Y-82650000D02*
X227180000Y-82000000D01*
X227180000Y-82000000D02*
X220680000Y-82000000D01*
D28*
X190180000Y-86250000D02*
X190180000Y-94000000D01*
X190180000Y-84937500D02*
X190180000Y-86250000D01*
D27*
X191680000Y-94000000D02*
X192180000Y-93500000D01*
X192180000Y-93500000D02*
X193180000Y-93500000D01*
X192930000Y-93500000D02*
X193180000Y-93500000D01*
X193180000Y-93500000D02*
X195117500Y-93500000D01*
X238680000Y-84000000D02*
X236642500Y-84000000D01*
X227830000Y-85770000D02*
X229409998Y-85770000D01*
X229409998Y-85770000D02*
X229429998Y-85750000D01*
X222430000Y-84500000D02*
X220680000Y-84500000D01*
X238680000Y-86500000D02*
X236642500Y-86500000D01*
X222430000Y-85770000D02*
X220680000Y-85770000D01*
X238680000Y-89000000D02*
X236642500Y-89000000D01*
X222430000Y-87040000D02*
X220680000Y-87040000D01*
X238680000Y-91500000D02*
X236605000Y-91500000D01*
X222430000Y-88310000D02*
X220680000Y-88310000D01*
X238680000Y-94000000D02*
X236605000Y-94000000D01*
X222430000Y-89580000D02*
X220680000Y-89580000D01*
X238680000Y-96500000D02*
X236605000Y-96500000D01*
X222430000Y-90850000D02*
X220680000Y-90850000D01*
X238680000Y-99000000D02*
X236605000Y-99000000D01*
X222430000Y-92120000D02*
X220680000Y-92120000D01*
X238680000Y-101500000D02*
X236642500Y-101500000D01*
D28*
X186342500Y-84200000D02*
X187980000Y-84200000D01*
X187980000Y-84200000D02*
X188180000Y-84000000D01*
X188180000Y-84000000D02*
X188180000Y-83500000D01*
X188617500Y-83062500D02*
X190180000Y-83062500D01*
X188180000Y-83500000D02*
X188617500Y-83062500D01*
X190180000Y-83062500D02*
X192180000Y-83062500D01*
D27*
X232447500Y-84000000D02*
X234717500Y-84000000D01*
X232447500Y-86500000D02*
X234717500Y-86500000D01*
X197180000Y-91562500D02*
X197180000Y-90500000D01*
X198680000Y-90250000D02*
X199680000Y-90250000D01*
X197180000Y-90500000D02*
X197430000Y-90250000D01*
X197430000Y-90250000D02*
X198680000Y-90250000D01*
D30*
G36*
X240520001Y-79273382D02*
G01*
X240520000Y-113226619D01*
X235906620Y-117840000D01*
X187453381Y-117840000D01*
X182840000Y-113226620D01*
X182840000Y-103200000D01*
X190616928Y-103200000D01*
X190629188Y-103324482D01*
X190665498Y-103444180D01*
X190724463Y-103554494D01*
X190803815Y-103651185D01*
X190900506Y-103730537D01*
X191010820Y-103789502D01*
X191130518Y-103825812D01*
X191255000Y-103838072D01*
X191456750Y-103835000D01*
X191615500Y-103676250D01*
X191615500Y-102627000D01*
X190778750Y-102627000D01*
X190620000Y-102785750D01*
X190616928Y-103200000D01*
X182840000Y-103200000D01*
X182840000Y-101976890D01*
X183238524Y-101976890D01*
X183283175Y-102124099D01*
X183408359Y-102386920D01*
X183582412Y-102620269D01*
X183798645Y-102815178D01*
X184048748Y-102964157D01*
X184323109Y-103061481D01*
X184553000Y-102940814D01*
X184553000Y-101747000D01*
X184807000Y-101747000D01*
X184807000Y-102940814D01*
X185036891Y-103061481D01*
X185311252Y-102964157D01*
X185561355Y-102815178D01*
X185777588Y-102620269D01*
X185951641Y-102386920D01*
X186076825Y-102124099D01*
X186121476Y-101976890D01*
X186028125Y-101800000D01*
X190616928Y-101800000D01*
X190620000Y-102214250D01*
X190778750Y-102373000D01*
X191615500Y-102373000D01*
X191615500Y-101323750D01*
X191456750Y-101165000D01*
X191255000Y-101161928D01*
X191130518Y-101174188D01*
X191010820Y-101210498D01*
X190900506Y-101269463D01*
X190803815Y-101348815D01*
X190724463Y-101445506D01*
X190665498Y-101555820D01*
X190629188Y-101675518D01*
X190616928Y-101800000D01*
X186028125Y-101800000D01*
X186000155Y-101747000D01*
X184807000Y-101747000D01*
X184553000Y-101747000D01*
X183359845Y-101747000D01*
X183238524Y-101976890D01*
X182840000Y-101976890D01*
X182840000Y-93150000D01*
X183191928Y-93150000D01*
X183191928Y-94850000D01*
X183204188Y-94974482D01*
X183240498Y-95094180D01*
X183299463Y-95204494D01*
X183378815Y-95301185D01*
X183475506Y-95380537D01*
X183585820Y-95439502D01*
X183658380Y-95461513D01*
X183526525Y-95593368D01*
X183364010Y-95836589D01*
X183252068Y-96106842D01*
X183195000Y-96393740D01*
X183195000Y-96686260D01*
X183252068Y-96973158D01*
X183364010Y-97243411D01*
X183526525Y-97486632D01*
X183733368Y-97693475D01*
X183907760Y-97810000D01*
X183733368Y-97926525D01*
X183526525Y-98133368D01*
X183364010Y-98376589D01*
X183252068Y-98646842D01*
X183195000Y-98933740D01*
X183195000Y-99226260D01*
X183252068Y-99513158D01*
X183364010Y-99783411D01*
X183526525Y-100026632D01*
X183733368Y-100233475D01*
X183915534Y-100355195D01*
X183798645Y-100424822D01*
X183582412Y-100619731D01*
X183408359Y-100853080D01*
X183283175Y-101115901D01*
X183238524Y-101263110D01*
X183359845Y-101493000D01*
X184553000Y-101493000D01*
X184553000Y-101473000D01*
X184807000Y-101473000D01*
X184807000Y-101493000D01*
X186000155Y-101493000D01*
X186121476Y-101263110D01*
X186076825Y-101115901D01*
X185951641Y-100853080D01*
X185777588Y-100619731D01*
X185561355Y-100424822D01*
X185444466Y-100355195D01*
X185626632Y-100233475D01*
X185833475Y-100026632D01*
X185995990Y-99783411D01*
X186107932Y-99513158D01*
X186165000Y-99226260D01*
X186165000Y-98933740D01*
X186107932Y-98646842D01*
X185995990Y-98376589D01*
X185833475Y-98133368D01*
X185626632Y-97926525D01*
X185452240Y-97810000D01*
X185626632Y-97693475D01*
X185833475Y-97486632D01*
X185995990Y-97243411D01*
X186107932Y-96973158D01*
X186165000Y-96686260D01*
X186165000Y-96393740D01*
X186107932Y-96106842D01*
X185995990Y-95836589D01*
X185833475Y-95593368D01*
X185701620Y-95461513D01*
X185774180Y-95439502D01*
X185884494Y-95380537D01*
X185981185Y-95301185D01*
X186060537Y-95204494D01*
X186119502Y-95094180D01*
X186155812Y-94974482D01*
X186164231Y-94889000D01*
X189295000Y-94889000D01*
X189295001Y-99019021D01*
X189290719Y-99062500D01*
X189307805Y-99235990D01*
X189358412Y-99402813D01*
X189440590Y-99556559D01*
X189523468Y-99657546D01*
X189523471Y-99657549D01*
X189551184Y-99691317D01*
X189584952Y-99719030D01*
X189960966Y-100095044D01*
X189988683Y-100128817D01*
X190123441Y-100239411D01*
X190277187Y-100321589D01*
X190444010Y-100372195D01*
X190574023Y-100385000D01*
X190574033Y-100385000D01*
X190617499Y-100389281D01*
X190660965Y-100385000D01*
X191813422Y-100385000D01*
X192732501Y-101304080D01*
X192732501Y-101411344D01*
X192681185Y-101348815D01*
X192584494Y-101269463D01*
X192474180Y-101210498D01*
X192354482Y-101174188D01*
X192230000Y-101161928D01*
X192028250Y-101165000D01*
X191869500Y-101323750D01*
X191869500Y-102373000D01*
X191889500Y-102373000D01*
X191889500Y-102627000D01*
X191869500Y-102627000D01*
X191869500Y-103676250D01*
X192028250Y-103835000D01*
X192069483Y-103835628D01*
X192057201Y-103876118D01*
X192045000Y-104000000D01*
X192045000Y-113500000D01*
X192057201Y-113623882D01*
X192093336Y-113743004D01*
X192152017Y-113852787D01*
X192230987Y-113949013D01*
X192327213Y-114027983D01*
X192436996Y-114086664D01*
X192556118Y-114122799D01*
X192680000Y-114135000D01*
X199680000Y-114135000D01*
X199803882Y-114122799D01*
X199923004Y-114086664D01*
X200032787Y-114027983D01*
X200129013Y-113949013D01*
X200207983Y-113852787D01*
X200266664Y-113743004D01*
X200302799Y-113623882D01*
X200315000Y-113500000D01*
X200315000Y-108148069D01*
X200895008Y-108148069D01*
X200895008Y-108351947D01*
X200934782Y-108551906D01*
X201012803Y-108740264D01*
X201126071Y-108909782D01*
X201170000Y-108953711D01*
X201170000Y-109462677D01*
X201166324Y-109500000D01*
X201170000Y-109537322D01*
X201170000Y-109537332D01*
X201180997Y-109648985D01*
X201224454Y-109792246D01*
X201295026Y-109924276D01*
X201334871Y-109972826D01*
X201389999Y-110040001D01*
X201419003Y-110063804D01*
X201866196Y-110510997D01*
X201889999Y-110540001D01*
X202005724Y-110634974D01*
X202137753Y-110705546D01*
X202281014Y-110749003D01*
X202392667Y-110760000D01*
X202392675Y-110760000D01*
X202430000Y-110763676D01*
X202467325Y-110760000D01*
X203341928Y-110760000D01*
X203341928Y-111050000D01*
X203354188Y-111174482D01*
X203390498Y-111294180D01*
X203449463Y-111404494D01*
X203528815Y-111501185D01*
X203625506Y-111580537D01*
X203735820Y-111639502D01*
X203855518Y-111675812D01*
X203980000Y-111688072D01*
X206380000Y-111688072D01*
X206504482Y-111675812D01*
X206624180Y-111639502D01*
X206734494Y-111580537D01*
X206831185Y-111501185D01*
X206910537Y-111404494D01*
X206969502Y-111294180D01*
X207005812Y-111174482D01*
X207018072Y-111050000D01*
X211141928Y-111050000D01*
X211154188Y-111174482D01*
X211190498Y-111294180D01*
X211249463Y-111404494D01*
X211328815Y-111501185D01*
X211425506Y-111580537D01*
X211535820Y-111639502D01*
X211655518Y-111675812D01*
X211780000Y-111688072D01*
X212694250Y-111685000D01*
X212853000Y-111526250D01*
X212853000Y-110127000D01*
X213107000Y-110127000D01*
X213107000Y-111526250D01*
X213265750Y-111685000D01*
X214180000Y-111688072D01*
X214304482Y-111675812D01*
X214424180Y-111639502D01*
X214534494Y-111580537D01*
X214631185Y-111501185D01*
X214710537Y-111404494D01*
X214769502Y-111294180D01*
X214805812Y-111174482D01*
X214818072Y-111050000D01*
X214815000Y-110285750D01*
X214656250Y-110127000D01*
X213107000Y-110127000D01*
X212853000Y-110127000D01*
X211303750Y-110127000D01*
X211145000Y-110285750D01*
X211141928Y-111050000D01*
X207018072Y-111050000D01*
X207018072Y-108950000D01*
X211141928Y-108950000D01*
X211145000Y-109714250D01*
X211303750Y-109873000D01*
X212853000Y-109873000D01*
X212853000Y-108473750D01*
X213107000Y-108473750D01*
X213107000Y-109873000D01*
X214656250Y-109873000D01*
X214815000Y-109714250D01*
X214818072Y-108950000D01*
X214805812Y-108825518D01*
X214769502Y-108705820D01*
X214710537Y-108595506D01*
X214631185Y-108498815D01*
X214534494Y-108419463D01*
X214424180Y-108360498D01*
X214304482Y-108324188D01*
X214180000Y-108311928D01*
X213265750Y-108315000D01*
X213107000Y-108473750D01*
X212853000Y-108473750D01*
X212694250Y-108315000D01*
X211780000Y-108311928D01*
X211655518Y-108324188D01*
X211535820Y-108360498D01*
X211425506Y-108419463D01*
X211328815Y-108498815D01*
X211249463Y-108595506D01*
X211190498Y-108705820D01*
X211154188Y-108825518D01*
X211141928Y-108950000D01*
X207018072Y-108950000D01*
X207005812Y-108825518D01*
X206969502Y-108705820D01*
X206910537Y-108595506D01*
X206831185Y-108498815D01*
X206734494Y-108419463D01*
X206624180Y-108360498D01*
X206504482Y-108324188D01*
X206380000Y-108311928D01*
X203980000Y-108311928D01*
X203855518Y-108324188D01*
X203735820Y-108360498D01*
X203625506Y-108419463D01*
X203528815Y-108498815D01*
X203449463Y-108595506D01*
X203390498Y-108705820D01*
X203354188Y-108825518D01*
X203341928Y-108950000D01*
X203341928Y-109240000D01*
X202744801Y-109240000D01*
X202690000Y-109185199D01*
X202690000Y-108953727D01*
X202733945Y-108909782D01*
X202847213Y-108740264D01*
X202925234Y-108551906D01*
X202965008Y-108351947D01*
X202965008Y-108148069D01*
X202925234Y-107948110D01*
X202847213Y-107759752D01*
X202733945Y-107590234D01*
X202589782Y-107446071D01*
X202420264Y-107332803D01*
X202231906Y-107254782D01*
X202031947Y-107215008D01*
X201828069Y-107215008D01*
X201628110Y-107254782D01*
X201439752Y-107332803D01*
X201270234Y-107446071D01*
X201126071Y-107590234D01*
X201012803Y-107759752D01*
X200934782Y-107948110D01*
X200895008Y-108148069D01*
X200315000Y-108148069D01*
X200315000Y-104000000D01*
X200302799Y-103876118D01*
X200266664Y-103756996D01*
X200207983Y-103647213D01*
X200129013Y-103550987D01*
X200032787Y-103472017D01*
X199923004Y-103413336D01*
X199803882Y-103377201D01*
X199680000Y-103365000D01*
X199281021Y-103365000D01*
X199293312Y-103324482D01*
X199305572Y-103200000D01*
X199302500Y-102785750D01*
X199143750Y-102627000D01*
X198307000Y-102627000D01*
X198307000Y-102647000D01*
X198053000Y-102647000D01*
X198053000Y-102627000D01*
X198033000Y-102627000D01*
X198033000Y-102373000D01*
X198053000Y-102373000D01*
X198053000Y-101323750D01*
X198307000Y-101323750D01*
X198307000Y-102373000D01*
X199143750Y-102373000D01*
X199302500Y-102214250D01*
X199305572Y-101800000D01*
X199293312Y-101675518D01*
X199257002Y-101555820D01*
X199198037Y-101445506D01*
X199118685Y-101348815D01*
X199021994Y-101269463D01*
X198911680Y-101210498D01*
X198791982Y-101174188D01*
X198667500Y-101161928D01*
X198465750Y-101165000D01*
X198307000Y-101323750D01*
X198053000Y-101323750D01*
X197894250Y-101165000D01*
X197692500Y-101161928D01*
X197568018Y-101174188D01*
X197448320Y-101210498D01*
X197338006Y-101269463D01*
X197241315Y-101348815D01*
X197177508Y-101426564D01*
X197172292Y-101420208D01*
X197038664Y-101310542D01*
X196886209Y-101229053D01*
X196720785Y-101178872D01*
X196548750Y-101161928D01*
X196061250Y-101161928D01*
X195889215Y-101178872D01*
X195723791Y-101229053D01*
X195571336Y-101310542D01*
X195437708Y-101420208D01*
X195328042Y-101553836D01*
X195246553Y-101706291D01*
X195196372Y-101871715D01*
X195179428Y-102043750D01*
X195179428Y-102956250D01*
X195196372Y-103128285D01*
X195246553Y-103293709D01*
X195284659Y-103365000D01*
X194637841Y-103365000D01*
X194675947Y-103293709D01*
X194726128Y-103128285D01*
X194743072Y-102956250D01*
X194743072Y-102043750D01*
X194726128Y-101871715D01*
X194675947Y-101706291D01*
X194594458Y-101553836D01*
X194502500Y-101441785D01*
X194502500Y-100980969D01*
X194506781Y-100937500D01*
X194502500Y-100894031D01*
X194502500Y-100894023D01*
X194489695Y-100764010D01*
X194485748Y-100750997D01*
X194469083Y-100696063D01*
X194439089Y-100597187D01*
X194356911Y-100443441D01*
X194305664Y-100380997D01*
X194274032Y-100342453D01*
X194274030Y-100342451D01*
X194246317Y-100308683D01*
X194212549Y-100280970D01*
X192836532Y-98904954D01*
X192830876Y-98898061D01*
X201895000Y-98898061D01*
X201895000Y-99101939D01*
X201934774Y-99301898D01*
X202012795Y-99490256D01*
X202126063Y-99659774D01*
X202170000Y-99703711D01*
X202170000Y-100212677D01*
X202166324Y-100250000D01*
X202170000Y-100287322D01*
X202170000Y-100287332D01*
X202180997Y-100398985D01*
X202213087Y-100504774D01*
X202224454Y-100542246D01*
X202295026Y-100674276D01*
X202334871Y-100722826D01*
X202389999Y-100790001D01*
X202419002Y-100813803D01*
X203246201Y-101641003D01*
X203269999Y-101670001D01*
X203298997Y-101693799D01*
X203385723Y-101764974D01*
X203469390Y-101809695D01*
X203517753Y-101835546D01*
X203661014Y-101879003D01*
X203772667Y-101890000D01*
X203772677Y-101890000D01*
X203810000Y-101893676D01*
X203847323Y-101890000D01*
X204123827Y-101890000D01*
X204134053Y-101923709D01*
X204215542Y-102076164D01*
X204325208Y-102209792D01*
X204432500Y-102297845D01*
X204432501Y-103811928D01*
X203980000Y-103811928D01*
X203855518Y-103824188D01*
X203735820Y-103860498D01*
X203625506Y-103919463D01*
X203528815Y-103998815D01*
X203449463Y-104095506D01*
X203390498Y-104205820D01*
X203354188Y-104325518D01*
X203341928Y-104450000D01*
X203341928Y-106550000D01*
X203354188Y-106674482D01*
X203390498Y-106794180D01*
X203449463Y-106904494D01*
X203528815Y-107001185D01*
X203625506Y-107080537D01*
X203735820Y-107139502D01*
X203855518Y-107175812D01*
X203980000Y-107188072D01*
X206380000Y-107188072D01*
X206504482Y-107175812D01*
X206624180Y-107139502D01*
X206734494Y-107080537D01*
X206831185Y-107001185D01*
X206910537Y-106904494D01*
X206969502Y-106794180D01*
X207005812Y-106674482D01*
X207018072Y-106550000D01*
X211141928Y-106550000D01*
X211154188Y-106674482D01*
X211190498Y-106794180D01*
X211249463Y-106904494D01*
X211328815Y-107001185D01*
X211425506Y-107080537D01*
X211535820Y-107139502D01*
X211655518Y-107175812D01*
X211780000Y-107188072D01*
X212694250Y-107185000D01*
X212853000Y-107026250D01*
X212853000Y-105627000D01*
X213107000Y-105627000D01*
X213107000Y-107026250D01*
X213265750Y-107185000D01*
X214180000Y-107188072D01*
X214304482Y-107175812D01*
X214424180Y-107139502D01*
X214534494Y-107080537D01*
X214631185Y-107001185D01*
X214710537Y-106904494D01*
X214769502Y-106794180D01*
X214805812Y-106674482D01*
X214818072Y-106550000D01*
X214815000Y-105785750D01*
X214656250Y-105627000D01*
X213107000Y-105627000D01*
X212853000Y-105627000D01*
X211303750Y-105627000D01*
X211145000Y-105785750D01*
X211141928Y-106550000D01*
X207018072Y-106550000D01*
X207018072Y-104450000D01*
X211141928Y-104450000D01*
X211145000Y-105214250D01*
X211303750Y-105373000D01*
X212853000Y-105373000D01*
X212853000Y-103973750D01*
X213107000Y-103973750D01*
X213107000Y-105373000D01*
X214656250Y-105373000D01*
X214815000Y-105214250D01*
X214818072Y-104450000D01*
X214805812Y-104325518D01*
X214769502Y-104205820D01*
X214710537Y-104095506D01*
X214631185Y-103998815D01*
X214534494Y-103919463D01*
X214424180Y-103860498D01*
X214304482Y-103824188D01*
X214180000Y-103811928D01*
X213265750Y-103815000D01*
X213107000Y-103973750D01*
X212853000Y-103973750D01*
X212694250Y-103815000D01*
X211780000Y-103811928D01*
X211655518Y-103824188D01*
X211535820Y-103860498D01*
X211425506Y-103919463D01*
X211328815Y-103998815D01*
X211249463Y-104095506D01*
X211190498Y-104205820D01*
X211154188Y-104325518D01*
X211141928Y-104450000D01*
X207018072Y-104450000D01*
X207005812Y-104325518D01*
X206969502Y-104205820D01*
X206910537Y-104095506D01*
X206831185Y-103998815D01*
X206734494Y-103919463D01*
X206624180Y-103860498D01*
X206504482Y-103824188D01*
X206380000Y-103811928D01*
X205952500Y-103811928D01*
X205952500Y-102297845D01*
X206059792Y-102209792D01*
X206130000Y-102124244D01*
X206200208Y-102209792D01*
X206333836Y-102319458D01*
X206486291Y-102400947D01*
X206651715Y-102451128D01*
X206823750Y-102468072D01*
X207311250Y-102468072D01*
X207483285Y-102451128D01*
X207648709Y-102400947D01*
X207801164Y-102319458D01*
X207934792Y-102209792D01*
X208044458Y-102076164D01*
X208079596Y-102010425D01*
X208089744Y-102017205D01*
X208278102Y-102095226D01*
X208478061Y-102135000D01*
X208681939Y-102135000D01*
X208881898Y-102095226D01*
X209070256Y-102017205D01*
X209239774Y-101903937D01*
X209383937Y-101759774D01*
X209497205Y-101590256D01*
X209575226Y-101401898D01*
X209615000Y-101201939D01*
X209615000Y-100998061D01*
X209575226Y-100798102D01*
X209497205Y-100609744D01*
X209383937Y-100440226D01*
X209239774Y-100296063D01*
X209070256Y-100182795D01*
X208881898Y-100104774D01*
X208681939Y-100065000D01*
X208478061Y-100065000D01*
X208278102Y-100104774D01*
X208089744Y-100182795D01*
X208055966Y-100205365D01*
X208044458Y-100183836D01*
X207934792Y-100050208D01*
X207801164Y-99940542D01*
X207648709Y-99859053D01*
X207483285Y-99808872D01*
X207311250Y-99791928D01*
X206823750Y-99791928D01*
X206651715Y-99808872D01*
X206486291Y-99859053D01*
X206333836Y-99940542D01*
X206200208Y-100050208D01*
X206130000Y-100135756D01*
X206059792Y-100050208D01*
X205926164Y-99940542D01*
X205773709Y-99859053D01*
X205608285Y-99808872D01*
X205436250Y-99791928D01*
X204948750Y-99791928D01*
X204776715Y-99808872D01*
X204611291Y-99859053D01*
X204458836Y-99940542D01*
X204325208Y-100050208D01*
X204215542Y-100183836D01*
X204134053Y-100336291D01*
X204124054Y-100369252D01*
X203690000Y-99935199D01*
X203690000Y-99703711D01*
X203733937Y-99659774D01*
X203847205Y-99490256D01*
X203925226Y-99301898D01*
X203965000Y-99101939D01*
X203965000Y-98898061D01*
X203925226Y-98698102D01*
X203847205Y-98509744D01*
X203733937Y-98340226D01*
X203589774Y-98196063D01*
X203420256Y-98082795D01*
X203231898Y-98004774D01*
X203031939Y-97965000D01*
X202828061Y-97965000D01*
X202628102Y-98004774D01*
X202439744Y-98082795D01*
X202270226Y-98196063D01*
X202126063Y-98340226D01*
X202012795Y-98509744D01*
X201934774Y-98698102D01*
X201895000Y-98898061D01*
X192830876Y-98898061D01*
X192808817Y-98871183D01*
X192674059Y-98760589D01*
X192520313Y-98678411D01*
X192353490Y-98627805D01*
X192223477Y-98615000D01*
X192223469Y-98615000D01*
X192180000Y-98610719D01*
X192136531Y-98615000D01*
X191065000Y-98615000D01*
X191065000Y-94760000D01*
X191172462Y-94760000D01*
X191145000Y-94898061D01*
X191145000Y-95101939D01*
X191184774Y-95301898D01*
X191262795Y-95490256D01*
X191376063Y-95659774D01*
X191466289Y-95750000D01*
X191376063Y-95840226D01*
X191262795Y-96009744D01*
X191184774Y-96198102D01*
X191145000Y-96398061D01*
X191145000Y-96601939D01*
X191184774Y-96801898D01*
X191262795Y-96990256D01*
X191376063Y-97159774D01*
X191520226Y-97303937D01*
X191689744Y-97417205D01*
X191878102Y-97495226D01*
X192078061Y-97535000D01*
X192281939Y-97535000D01*
X192481898Y-97495226D01*
X192670256Y-97417205D01*
X192839774Y-97303937D01*
X192883711Y-97260000D01*
X211392678Y-97260000D01*
X211430000Y-97263676D01*
X211467322Y-97260000D01*
X211467333Y-97260000D01*
X211578986Y-97249003D01*
X211722247Y-97205546D01*
X211854276Y-97134974D01*
X211970001Y-97040001D01*
X211993804Y-97010997D01*
X214994802Y-94010000D01*
X215864990Y-94010000D01*
X215840498Y-94055820D01*
X215804188Y-94175518D01*
X215791928Y-94300000D01*
X215791928Y-95200000D01*
X215804188Y-95324482D01*
X215840498Y-95444180D01*
X215899463Y-95554494D01*
X215978815Y-95651185D01*
X216075506Y-95730537D01*
X216185820Y-95789502D01*
X216305518Y-95825812D01*
X216430000Y-95838072D01*
X217930000Y-95838072D01*
X218054482Y-95825812D01*
X218174180Y-95789502D01*
X218284494Y-95730537D01*
X218381185Y-95651185D01*
X218460537Y-95554494D01*
X218484320Y-95510000D01*
X222145000Y-95510000D01*
X222145000Y-95701939D01*
X222184774Y-95901898D01*
X222262795Y-96090256D01*
X222376063Y-96259774D01*
X222420001Y-96303712D01*
X222420000Y-102962677D01*
X222416324Y-103000000D01*
X222420000Y-103037322D01*
X222420000Y-103037332D01*
X222430997Y-103148985D01*
X222458427Y-103239411D01*
X222474454Y-103292246D01*
X222545026Y-103424276D01*
X222584206Y-103472017D01*
X222639999Y-103540001D01*
X222669003Y-103563804D01*
X225428701Y-106323503D01*
X225452499Y-106352501D01*
X225568224Y-106447474D01*
X225700253Y-106518046D01*
X225843514Y-106561503D01*
X225955167Y-106572500D01*
X225955175Y-106572500D01*
X225992500Y-106576176D01*
X226029825Y-106572500D01*
X226512155Y-106572500D01*
X226600208Y-106679792D01*
X226685756Y-106750000D01*
X226600208Y-106820208D01*
X226490542Y-106953836D01*
X226409053Y-107106291D01*
X226358872Y-107271715D01*
X226341928Y-107443750D01*
X226341928Y-107931250D01*
X226358872Y-108103285D01*
X226409053Y-108268709D01*
X226490542Y-108421164D01*
X226600208Y-108554792D01*
X226733836Y-108664458D01*
X226886291Y-108745947D01*
X226920001Y-108756173D01*
X226920001Y-108796288D01*
X226876063Y-108840226D01*
X226762795Y-109009744D01*
X226684774Y-109198102D01*
X226645000Y-109398061D01*
X226645000Y-109601939D01*
X226684774Y-109801898D01*
X226762795Y-109990256D01*
X226876063Y-110159774D01*
X227020226Y-110303937D01*
X227189744Y-110417205D01*
X227378102Y-110495226D01*
X227578061Y-110535000D01*
X227781939Y-110535000D01*
X227981898Y-110495226D01*
X228170256Y-110417205D01*
X228339774Y-110303937D01*
X228483937Y-110159774D01*
X228597205Y-109990256D01*
X228650565Y-109861435D01*
X228660498Y-109894180D01*
X228719463Y-110004494D01*
X228798815Y-110101185D01*
X228895506Y-110180537D01*
X229005820Y-110239502D01*
X229125518Y-110275812D01*
X229250000Y-110288072D01*
X229739250Y-110285000D01*
X229898000Y-110126250D01*
X229898000Y-109127000D01*
X230152000Y-109127000D01*
X230152000Y-110126250D01*
X230310750Y-110285000D01*
X230800000Y-110288072D01*
X230924482Y-110275812D01*
X231044180Y-110239502D01*
X231154494Y-110180537D01*
X231251185Y-110101185D01*
X231330537Y-110004494D01*
X231389502Y-109894180D01*
X231425812Y-109774482D01*
X231438072Y-109650000D01*
X236561928Y-109650000D01*
X236574188Y-109774482D01*
X236610498Y-109894180D01*
X236669463Y-110004494D01*
X236748815Y-110101185D01*
X236845506Y-110180537D01*
X236955820Y-110239502D01*
X237075518Y-110275812D01*
X237200000Y-110288072D01*
X237689250Y-110285000D01*
X237848000Y-110126250D01*
X237848000Y-109127000D01*
X238102000Y-109127000D01*
X238102000Y-110126250D01*
X238260750Y-110285000D01*
X238750000Y-110288072D01*
X238874482Y-110275812D01*
X238994180Y-110239502D01*
X239104494Y-110180537D01*
X239201185Y-110101185D01*
X239280537Y-110004494D01*
X239339502Y-109894180D01*
X239375812Y-109774482D01*
X239388072Y-109650000D01*
X239385000Y-109285750D01*
X239226250Y-109127000D01*
X238102000Y-109127000D01*
X237848000Y-109127000D01*
X236723750Y-109127000D01*
X236565000Y-109285750D01*
X236561928Y-109650000D01*
X231438072Y-109650000D01*
X231435000Y-109285750D01*
X231276250Y-109127000D01*
X230152000Y-109127000D01*
X229898000Y-109127000D01*
X228773750Y-109127000D01*
X228679776Y-109220974D01*
X228675226Y-109198102D01*
X228597205Y-109009744D01*
X228483937Y-108840226D01*
X228440000Y-108796289D01*
X228440000Y-108756173D01*
X228473709Y-108745947D01*
X228614632Y-108670622D01*
X228615000Y-108714250D01*
X228773750Y-108873000D01*
X229898000Y-108873000D01*
X229898000Y-107873750D01*
X230152000Y-107873750D01*
X230152000Y-108873000D01*
X231276250Y-108873000D01*
X231435000Y-108714250D01*
X231438072Y-108350000D01*
X236561928Y-108350000D01*
X236565000Y-108714250D01*
X236723750Y-108873000D01*
X237848000Y-108873000D01*
X237848000Y-107873750D01*
X238102000Y-107873750D01*
X238102000Y-108873000D01*
X239226250Y-108873000D01*
X239385000Y-108714250D01*
X239388072Y-108350000D01*
X239375812Y-108225518D01*
X239339502Y-108105820D01*
X239280537Y-107995506D01*
X239201185Y-107898815D01*
X239104494Y-107819463D01*
X238994180Y-107760498D01*
X238874482Y-107724188D01*
X238750000Y-107711928D01*
X238260750Y-107715000D01*
X238102000Y-107873750D01*
X237848000Y-107873750D01*
X237689250Y-107715000D01*
X237200000Y-107711928D01*
X237075518Y-107724188D01*
X236955820Y-107760498D01*
X236845506Y-107819463D01*
X236748815Y-107898815D01*
X236669463Y-107995506D01*
X236610498Y-108105820D01*
X236574188Y-108225518D01*
X236561928Y-108350000D01*
X231438072Y-108350000D01*
X231425812Y-108225518D01*
X231389502Y-108105820D01*
X231330537Y-107995506D01*
X231251185Y-107898815D01*
X231154494Y-107819463D01*
X231044180Y-107760498D01*
X230924482Y-107724188D01*
X230800000Y-107711928D01*
X230310750Y-107715000D01*
X230152000Y-107873750D01*
X229898000Y-107873750D01*
X229739250Y-107715000D01*
X229250000Y-107711928D01*
X229125518Y-107724188D01*
X229018072Y-107756781D01*
X229018072Y-107443750D01*
X229001128Y-107271715D01*
X228950947Y-107106291D01*
X228869458Y-106953836D01*
X228759792Y-106820208D01*
X228674244Y-106750000D01*
X228759792Y-106679792D01*
X228869458Y-106546164D01*
X228950947Y-106393709D01*
X229001128Y-106228285D01*
X229018072Y-106056250D01*
X229018072Y-105743219D01*
X229125518Y-105775812D01*
X229250000Y-105788072D01*
X230800000Y-105788072D01*
X230924482Y-105775812D01*
X231044180Y-105739502D01*
X231154494Y-105680537D01*
X231251185Y-105601185D01*
X231330537Y-105504494D01*
X231389502Y-105394180D01*
X231425812Y-105274482D01*
X231427238Y-105260000D01*
X236572762Y-105260000D01*
X236574188Y-105274482D01*
X236610498Y-105394180D01*
X236669463Y-105504494D01*
X236748815Y-105601185D01*
X236845506Y-105680537D01*
X236955820Y-105739502D01*
X237075518Y-105775812D01*
X237200000Y-105788072D01*
X238750000Y-105788072D01*
X238874482Y-105775812D01*
X238994180Y-105739502D01*
X239104494Y-105680537D01*
X239201185Y-105601185D01*
X239280537Y-105504494D01*
X239339502Y-105394180D01*
X239375812Y-105274482D01*
X239388072Y-105150000D01*
X239388072Y-103850000D01*
X239375812Y-103725518D01*
X239339502Y-103605820D01*
X239280537Y-103495506D01*
X239201185Y-103398815D01*
X239104494Y-103319463D01*
X238994180Y-103260498D01*
X238874482Y-103224188D01*
X238750000Y-103211928D01*
X237200000Y-103211928D01*
X237075518Y-103224188D01*
X236955820Y-103260498D01*
X236845506Y-103319463D01*
X236748815Y-103398815D01*
X236669463Y-103495506D01*
X236610498Y-103605820D01*
X236574188Y-103725518D01*
X236572762Y-103740000D01*
X231427238Y-103740000D01*
X231425812Y-103725518D01*
X231389502Y-103605820D01*
X231330537Y-103495506D01*
X231251185Y-103398815D01*
X231154494Y-103319463D01*
X231044180Y-103260498D01*
X230924482Y-103224188D01*
X230800000Y-103211928D01*
X229250000Y-103211928D01*
X229125518Y-103224188D01*
X229005820Y-103260498D01*
X228895506Y-103319463D01*
X228798815Y-103398815D01*
X228719463Y-103495506D01*
X228660498Y-103605820D01*
X228624188Y-103725518D01*
X228622762Y-103740000D01*
X228217325Y-103740000D01*
X228180000Y-103736324D01*
X228142675Y-103740000D01*
X228142667Y-103740000D01*
X228031014Y-103750997D01*
X227887753Y-103794454D01*
X227755724Y-103865026D01*
X227639999Y-103959999D01*
X227616196Y-103989003D01*
X227168998Y-104436201D01*
X227140000Y-104459999D01*
X227116202Y-104488997D01*
X227116201Y-104488998D01*
X227045026Y-104575724D01*
X226974454Y-104707754D01*
X226967921Y-104729291D01*
X226886291Y-104754053D01*
X226733836Y-104835542D01*
X226600208Y-104945208D01*
X226512155Y-105052500D01*
X226307302Y-105052500D01*
X223940000Y-102685199D01*
X223940000Y-97507538D01*
X224078061Y-97535000D01*
X224281939Y-97535000D01*
X224481898Y-97495226D01*
X224670256Y-97417205D01*
X224670370Y-97417129D01*
X224689673Y-97430026D01*
X224878031Y-97508047D01*
X225077990Y-97547821D01*
X225281868Y-97547821D01*
X225481827Y-97508047D01*
X225670185Y-97430026D01*
X225689553Y-97417085D01*
X225689744Y-97417213D01*
X225878102Y-97495234D01*
X226078061Y-97535008D01*
X226281939Y-97535008D01*
X226481898Y-97495234D01*
X226670256Y-97417213D01*
X226680006Y-97410698D01*
X226689744Y-97417205D01*
X226878102Y-97495226D01*
X227078061Y-97535000D01*
X227281939Y-97535000D01*
X227481898Y-97495226D01*
X227670256Y-97417205D01*
X227839774Y-97303937D01*
X227983937Y-97159774D01*
X228097205Y-96990256D01*
X228175226Y-96801898D01*
X228215000Y-96601939D01*
X228215000Y-96398061D01*
X228175226Y-96198102D01*
X228097205Y-96009744D01*
X227983937Y-95840226D01*
X227940000Y-95796289D01*
X227940000Y-95254491D01*
X227943677Y-95217158D01*
X227929003Y-95068172D01*
X227885546Y-94924911D01*
X227814974Y-94792882D01*
X227771452Y-94739850D01*
X227720001Y-94677157D01*
X227691004Y-94653360D01*
X227365716Y-94328072D01*
X228605000Y-94328072D01*
X228729482Y-94315812D01*
X228849180Y-94279502D01*
X228959494Y-94220537D01*
X229056185Y-94141185D01*
X229135537Y-94044494D01*
X229194502Y-93934180D01*
X229230812Y-93814482D01*
X229243072Y-93690000D01*
X229243072Y-93090000D01*
X229230812Y-92965518D01*
X229194502Y-92845820D01*
X229145957Y-92755000D01*
X229194502Y-92664180D01*
X229230812Y-92544482D01*
X229243072Y-92420000D01*
X229243072Y-91820000D01*
X229230812Y-91695518D01*
X229194502Y-91575820D01*
X229145957Y-91485000D01*
X229194502Y-91394180D01*
X229230812Y-91274482D01*
X229243072Y-91150000D01*
X229243072Y-90550000D01*
X229230812Y-90425518D01*
X229194502Y-90305820D01*
X229145957Y-90215000D01*
X229194502Y-90124180D01*
X229230812Y-90004482D01*
X229243072Y-89880000D01*
X229243072Y-89280000D01*
X229230812Y-89155518D01*
X229194502Y-89035820D01*
X229145957Y-88945000D01*
X229194502Y-88854180D01*
X229230812Y-88734482D01*
X229243072Y-88610000D01*
X229243072Y-88010000D01*
X229230812Y-87885518D01*
X229194502Y-87765820D01*
X229145957Y-87675000D01*
X229194502Y-87584180D01*
X229230812Y-87464482D01*
X229243072Y-87340000D01*
X229243072Y-86768095D01*
X229328059Y-86785000D01*
X229446928Y-86785000D01*
X229446928Y-86956250D01*
X229463872Y-87128285D01*
X229514053Y-87293709D01*
X229595542Y-87446164D01*
X229705208Y-87579792D01*
X229812500Y-87667845D01*
X229812500Y-87832155D01*
X229705208Y-87920208D01*
X229595542Y-88053836D01*
X229514053Y-88206291D01*
X229463872Y-88371715D01*
X229446928Y-88543750D01*
X229446928Y-89456250D01*
X229463872Y-89628285D01*
X229514053Y-89793709D01*
X229595542Y-89946164D01*
X229705208Y-90079792D01*
X229812500Y-90167845D01*
X229812500Y-90332155D01*
X229705208Y-90420208D01*
X229595542Y-90553836D01*
X229514053Y-90706291D01*
X229463872Y-90871715D01*
X229446928Y-91043750D01*
X229446928Y-91956250D01*
X229463872Y-92128285D01*
X229514053Y-92293709D01*
X229595542Y-92446164D01*
X229705208Y-92579792D01*
X229812500Y-92667845D01*
X229812501Y-92832155D01*
X229705208Y-92920208D01*
X229595542Y-93053836D01*
X229514053Y-93206291D01*
X229463872Y-93371715D01*
X229446928Y-93543750D01*
X229446928Y-94456250D01*
X229463872Y-94628285D01*
X229514053Y-94793709D01*
X229595542Y-94946164D01*
X229705208Y-95079792D01*
X229812501Y-95167845D01*
X229812501Y-95332155D01*
X229705208Y-95420208D01*
X229595542Y-95553836D01*
X229514053Y-95706291D01*
X229463872Y-95871715D01*
X229446928Y-96043750D01*
X229446928Y-96956250D01*
X229463872Y-97128285D01*
X229514053Y-97293709D01*
X229595542Y-97446164D01*
X229705208Y-97579792D01*
X229812501Y-97667845D01*
X229812501Y-97832155D01*
X229705208Y-97920208D01*
X229595542Y-98053836D01*
X229514053Y-98206291D01*
X229463872Y-98371715D01*
X229446928Y-98543750D01*
X229446928Y-99456250D01*
X229463872Y-99628285D01*
X229514053Y-99793709D01*
X229595542Y-99946164D01*
X229705208Y-100079792D01*
X229812501Y-100167845D01*
X229812501Y-100332155D01*
X229705208Y-100420208D01*
X229595542Y-100553836D01*
X229514053Y-100706291D01*
X229503827Y-100740000D01*
X228883711Y-100740000D01*
X228839774Y-100696063D01*
X228670256Y-100582795D01*
X228481898Y-100504774D01*
X228281939Y-100465000D01*
X228078061Y-100465000D01*
X227878102Y-100504774D01*
X227689744Y-100582795D01*
X227520226Y-100696063D01*
X227376063Y-100840226D01*
X227262795Y-101009744D01*
X227184774Y-101198102D01*
X227145000Y-101398061D01*
X227145000Y-101601939D01*
X227184774Y-101801898D01*
X227262795Y-101990256D01*
X227376063Y-102159774D01*
X227520226Y-102303937D01*
X227689744Y-102417205D01*
X227878102Y-102495226D01*
X228078061Y-102535000D01*
X228281939Y-102535000D01*
X228481898Y-102495226D01*
X228670256Y-102417205D01*
X228839774Y-102303937D01*
X228883711Y-102260000D01*
X229503827Y-102260000D01*
X229514053Y-102293709D01*
X229595542Y-102446164D01*
X229705208Y-102579792D01*
X229838836Y-102689458D01*
X229991291Y-102770947D01*
X230156715Y-102821128D01*
X230328750Y-102838072D01*
X230816250Y-102838072D01*
X230988285Y-102821128D01*
X231153709Y-102770947D01*
X231306164Y-102689458D01*
X231439792Y-102579792D01*
X231510000Y-102494244D01*
X231580208Y-102579792D01*
X231713836Y-102689458D01*
X231866291Y-102770947D01*
X232031715Y-102821128D01*
X232203750Y-102838072D01*
X232691250Y-102838072D01*
X232863285Y-102821128D01*
X233028709Y-102770947D01*
X233181164Y-102689458D01*
X233314792Y-102579792D01*
X233424458Y-102446164D01*
X233505947Y-102293709D01*
X233508615Y-102284914D01*
X233566595Y-102393386D01*
X233677038Y-102527962D01*
X233811614Y-102638405D01*
X233965150Y-102720472D01*
X234131746Y-102771008D01*
X234305000Y-102788072D01*
X235130000Y-102788072D01*
X235303254Y-102771008D01*
X235469850Y-102720472D01*
X235623386Y-102638405D01*
X235680000Y-102591943D01*
X235736614Y-102638405D01*
X235890150Y-102720472D01*
X236056746Y-102771008D01*
X236230000Y-102788072D01*
X237055000Y-102788072D01*
X237228254Y-102771008D01*
X237394850Y-102720472D01*
X237548386Y-102638405D01*
X237682962Y-102527962D01*
X237793405Y-102393386D01*
X237864702Y-102260000D01*
X237976289Y-102260000D01*
X238020226Y-102303937D01*
X238189744Y-102417205D01*
X238378102Y-102495226D01*
X238578061Y-102535000D01*
X238781939Y-102535000D01*
X238981898Y-102495226D01*
X239170256Y-102417205D01*
X239339774Y-102303937D01*
X239483937Y-102159774D01*
X239597205Y-101990256D01*
X239675226Y-101801898D01*
X239715000Y-101601939D01*
X239715000Y-101398061D01*
X239675226Y-101198102D01*
X239597205Y-101009744D01*
X239483937Y-100840226D01*
X239339774Y-100696063D01*
X239170256Y-100582795D01*
X238981898Y-100504774D01*
X238781939Y-100465000D01*
X238578061Y-100465000D01*
X238378102Y-100504774D01*
X238189744Y-100582795D01*
X238020226Y-100696063D01*
X237976289Y-100740000D01*
X237864702Y-100740000D01*
X237793405Y-100606614D01*
X237682962Y-100472038D01*
X237548386Y-100361595D01*
X237394850Y-100279528D01*
X237278759Y-100244312D01*
X237357350Y-100220472D01*
X237510886Y-100138405D01*
X237645462Y-100027962D01*
X237755905Y-99893386D01*
X237827202Y-99760000D01*
X237976289Y-99760000D01*
X238020226Y-99803937D01*
X238189744Y-99917205D01*
X238378102Y-99995226D01*
X238578061Y-100035000D01*
X238781939Y-100035000D01*
X238981898Y-99995226D01*
X239170256Y-99917205D01*
X239339774Y-99803937D01*
X239483937Y-99659774D01*
X239597205Y-99490256D01*
X239675226Y-99301898D01*
X239715000Y-99101939D01*
X239715000Y-98898061D01*
X239675226Y-98698102D01*
X239597205Y-98509744D01*
X239483937Y-98340226D01*
X239339774Y-98196063D01*
X239170256Y-98082795D01*
X238981898Y-98004774D01*
X238781939Y-97965000D01*
X238578061Y-97965000D01*
X238378102Y-98004774D01*
X238189744Y-98082795D01*
X238020226Y-98196063D01*
X237976289Y-98240000D01*
X237827202Y-98240000D01*
X237755905Y-98106614D01*
X237645462Y-97972038D01*
X237510886Y-97861595D01*
X237357350Y-97779528D01*
X237260009Y-97750000D01*
X237357350Y-97720472D01*
X237510886Y-97638405D01*
X237645462Y-97527962D01*
X237755905Y-97393386D01*
X237827202Y-97260000D01*
X237976289Y-97260000D01*
X238020226Y-97303937D01*
X238189744Y-97417205D01*
X238378102Y-97495226D01*
X238578061Y-97535000D01*
X238781939Y-97535000D01*
X238981898Y-97495226D01*
X239170256Y-97417205D01*
X239339774Y-97303937D01*
X239483937Y-97159774D01*
X239597205Y-96990256D01*
X239675226Y-96801898D01*
X239715000Y-96601939D01*
X239715000Y-96398061D01*
X239675226Y-96198102D01*
X239597205Y-96009744D01*
X239483937Y-95840226D01*
X239339774Y-95696063D01*
X239170256Y-95582795D01*
X238981898Y-95504774D01*
X238781939Y-95465000D01*
X238578061Y-95465000D01*
X238378102Y-95504774D01*
X238189744Y-95582795D01*
X238020226Y-95696063D01*
X237976289Y-95740000D01*
X237827202Y-95740000D01*
X237755905Y-95606614D01*
X237645462Y-95472038D01*
X237510886Y-95361595D01*
X237357350Y-95279528D01*
X237260009Y-95250000D01*
X237357350Y-95220472D01*
X237510886Y-95138405D01*
X237645462Y-95027962D01*
X237755905Y-94893386D01*
X237827202Y-94760000D01*
X237976289Y-94760000D01*
X238020226Y-94803937D01*
X238189744Y-94917205D01*
X238378102Y-94995226D01*
X238578061Y-95035000D01*
X238781939Y-95035000D01*
X238981898Y-94995226D01*
X239170256Y-94917205D01*
X239339774Y-94803937D01*
X239483937Y-94659774D01*
X239597205Y-94490256D01*
X239675226Y-94301898D01*
X239715000Y-94101939D01*
X239715000Y-93898061D01*
X239675226Y-93698102D01*
X239597205Y-93509744D01*
X239483937Y-93340226D01*
X239339774Y-93196063D01*
X239170256Y-93082795D01*
X238981898Y-93004774D01*
X238781939Y-92965000D01*
X238578061Y-92965000D01*
X238378102Y-93004774D01*
X238189744Y-93082795D01*
X238020226Y-93196063D01*
X237976289Y-93240000D01*
X237827202Y-93240000D01*
X237755905Y-93106614D01*
X237645462Y-92972038D01*
X237510886Y-92861595D01*
X237357350Y-92779528D01*
X237260009Y-92750000D01*
X237357350Y-92720472D01*
X237510886Y-92638405D01*
X237645462Y-92527962D01*
X237755905Y-92393386D01*
X237827202Y-92260000D01*
X237976289Y-92260000D01*
X238020226Y-92303937D01*
X238189744Y-92417205D01*
X238378102Y-92495226D01*
X238578061Y-92535000D01*
X238781939Y-92535000D01*
X238981898Y-92495226D01*
X239170256Y-92417205D01*
X239339774Y-92303937D01*
X239483937Y-92159774D01*
X239597205Y-91990256D01*
X239675226Y-91801898D01*
X239715000Y-91601939D01*
X239715000Y-91398061D01*
X239675226Y-91198102D01*
X239597205Y-91009744D01*
X239483937Y-90840226D01*
X239339774Y-90696063D01*
X239170256Y-90582795D01*
X238981898Y-90504774D01*
X238781939Y-90465000D01*
X238578061Y-90465000D01*
X238378102Y-90504774D01*
X238189744Y-90582795D01*
X238020226Y-90696063D01*
X237976289Y-90740000D01*
X237827202Y-90740000D01*
X237755905Y-90606614D01*
X237645462Y-90472038D01*
X237510886Y-90361595D01*
X237357350Y-90279528D01*
X237278759Y-90255688D01*
X237394850Y-90220472D01*
X237548386Y-90138405D01*
X237682962Y-90027962D01*
X237793405Y-89893386D01*
X237864702Y-89760000D01*
X237976289Y-89760000D01*
X238020226Y-89803937D01*
X238189744Y-89917205D01*
X238378102Y-89995226D01*
X238578061Y-90035000D01*
X238781939Y-90035000D01*
X238981898Y-89995226D01*
X239170256Y-89917205D01*
X239339774Y-89803937D01*
X239483937Y-89659774D01*
X239597205Y-89490256D01*
X239675226Y-89301898D01*
X239715000Y-89101939D01*
X239715000Y-88898061D01*
X239675226Y-88698102D01*
X239597205Y-88509744D01*
X239483937Y-88340226D01*
X239339774Y-88196063D01*
X239170256Y-88082795D01*
X238981898Y-88004774D01*
X238781939Y-87965000D01*
X238578061Y-87965000D01*
X238378102Y-88004774D01*
X238189744Y-88082795D01*
X238020226Y-88196063D01*
X237976289Y-88240000D01*
X237864702Y-88240000D01*
X237793405Y-88106614D01*
X237682962Y-87972038D01*
X237548386Y-87861595D01*
X237394850Y-87779528D01*
X237297509Y-87750000D01*
X237394850Y-87720472D01*
X237548386Y-87638405D01*
X237682962Y-87527962D01*
X237793405Y-87393386D01*
X237864702Y-87260000D01*
X237976289Y-87260000D01*
X238020226Y-87303937D01*
X238189744Y-87417205D01*
X238378102Y-87495226D01*
X238578061Y-87535000D01*
X238781939Y-87535000D01*
X238981898Y-87495226D01*
X239170256Y-87417205D01*
X239339774Y-87303937D01*
X239483937Y-87159774D01*
X239597205Y-86990256D01*
X239675226Y-86801898D01*
X239715000Y-86601939D01*
X239715000Y-86398061D01*
X239675226Y-86198102D01*
X239597205Y-86009744D01*
X239483937Y-85840226D01*
X239339774Y-85696063D01*
X239170256Y-85582795D01*
X238981898Y-85504774D01*
X238781939Y-85465000D01*
X238578061Y-85465000D01*
X238378102Y-85504774D01*
X238189744Y-85582795D01*
X238020226Y-85696063D01*
X237976289Y-85740000D01*
X237864702Y-85740000D01*
X237793405Y-85606614D01*
X237682962Y-85472038D01*
X237548386Y-85361595D01*
X237394850Y-85279528D01*
X237297509Y-85250000D01*
X237394850Y-85220472D01*
X237548386Y-85138405D01*
X237682962Y-85027962D01*
X237793405Y-84893386D01*
X237864702Y-84760000D01*
X237976289Y-84760000D01*
X238020226Y-84803937D01*
X238189744Y-84917205D01*
X238378102Y-84995226D01*
X238578061Y-85035000D01*
X238781939Y-85035000D01*
X238981898Y-84995226D01*
X239170256Y-84917205D01*
X239339774Y-84803937D01*
X239483937Y-84659774D01*
X239597205Y-84490256D01*
X239675226Y-84301898D01*
X239715000Y-84101939D01*
X239715000Y-83898061D01*
X239675226Y-83698102D01*
X239597205Y-83509744D01*
X239483937Y-83340226D01*
X239339774Y-83196063D01*
X239170256Y-83082795D01*
X238981898Y-83004774D01*
X238781939Y-82965000D01*
X238578061Y-82965000D01*
X238378102Y-83004774D01*
X238189744Y-83082795D01*
X238020226Y-83196063D01*
X237976289Y-83240000D01*
X237864702Y-83240000D01*
X237793405Y-83106614D01*
X237682962Y-82972038D01*
X237548386Y-82861595D01*
X237394850Y-82779528D01*
X237228254Y-82728992D01*
X237055000Y-82711928D01*
X236230000Y-82711928D01*
X236056746Y-82728992D01*
X235890150Y-82779528D01*
X235736614Y-82861595D01*
X235680000Y-82908057D01*
X235623386Y-82861595D01*
X235469850Y-82779528D01*
X235303254Y-82728992D01*
X235130000Y-82711928D01*
X234305000Y-82711928D01*
X234131746Y-82728992D01*
X233965150Y-82779528D01*
X233811614Y-82861595D01*
X233677038Y-82972038D01*
X233566595Y-83106614D01*
X233508615Y-83215086D01*
X233505947Y-83206291D01*
X233424458Y-83053836D01*
X233314792Y-82920208D01*
X233181164Y-82810542D01*
X233028709Y-82729053D01*
X232863285Y-82678872D01*
X232691250Y-82661928D01*
X232203750Y-82661928D01*
X232031715Y-82678872D01*
X231866291Y-82729053D01*
X231713836Y-82810542D01*
X231580208Y-82920208D01*
X231510000Y-83005756D01*
X231439792Y-82920208D01*
X231306164Y-82810542D01*
X231153709Y-82729053D01*
X230988285Y-82678872D01*
X230816250Y-82661928D01*
X230328750Y-82661928D01*
X230156715Y-82678872D01*
X229991291Y-82729053D01*
X229838836Y-82810542D01*
X229705208Y-82920208D01*
X229595542Y-83053836D01*
X229514053Y-83206291D01*
X229463872Y-83371715D01*
X229446928Y-83543750D01*
X229446928Y-84456250D01*
X229463872Y-84628285D01*
X229490177Y-84715000D01*
X229328059Y-84715000D01*
X229243072Y-84731905D01*
X229243072Y-84200000D01*
X229230812Y-84075518D01*
X229194502Y-83955820D01*
X229135537Y-83845506D01*
X229056185Y-83748815D01*
X228959494Y-83669463D01*
X228849180Y-83610498D01*
X228729482Y-83574188D01*
X228605000Y-83561928D01*
X228590000Y-83561928D01*
X228590000Y-82687323D01*
X228593676Y-82650000D01*
X228590000Y-82612677D01*
X228590000Y-82612668D01*
X228579003Y-82501015D01*
X228535546Y-82357754D01*
X228535546Y-82357753D01*
X228464974Y-82225724D01*
X228393799Y-82138997D01*
X228370001Y-82109999D01*
X228341002Y-82086200D01*
X227743803Y-81489002D01*
X227720001Y-81459999D01*
X227604276Y-81365026D01*
X227472247Y-81294454D01*
X227328986Y-81250997D01*
X227217333Y-81240000D01*
X227217322Y-81240000D01*
X227180000Y-81236324D01*
X227142678Y-81240000D01*
X221383711Y-81240000D01*
X221339774Y-81196063D01*
X221170256Y-81082795D01*
X220981898Y-81004774D01*
X220781939Y-80965000D01*
X220578061Y-80965000D01*
X220378102Y-81004774D01*
X220189744Y-81082795D01*
X220020226Y-81196063D01*
X219876063Y-81340226D01*
X219762795Y-81509744D01*
X219684774Y-81698102D01*
X219645000Y-81898061D01*
X219645000Y-82101939D01*
X219684774Y-82301898D01*
X219762795Y-82490256D01*
X219876063Y-82659774D01*
X220020226Y-82803937D01*
X220189744Y-82917205D01*
X220378102Y-82995226D01*
X220578061Y-83035000D01*
X220781939Y-83035000D01*
X220981898Y-82995226D01*
X221170256Y-82917205D01*
X221339774Y-82803937D01*
X221383711Y-82760000D01*
X226865199Y-82760000D01*
X227070001Y-82964803D01*
X227070001Y-83561928D01*
X227055000Y-83561928D01*
X226930518Y-83574188D01*
X226810820Y-83610498D01*
X226700506Y-83669463D01*
X226603815Y-83748815D01*
X226524463Y-83845506D01*
X226465498Y-83955820D01*
X226429188Y-84075518D01*
X226416928Y-84200000D01*
X226416928Y-84800000D01*
X226429188Y-84924482D01*
X226465498Y-85044180D01*
X226514043Y-85135000D01*
X226465498Y-85225820D01*
X226429188Y-85345518D01*
X226416928Y-85470000D01*
X226416928Y-86070000D01*
X226429188Y-86194482D01*
X226455130Y-86280000D01*
X225177322Y-86280000D01*
X225139999Y-86276324D01*
X225102677Y-86280000D01*
X225102667Y-86280000D01*
X224991014Y-86290997D01*
X224853222Y-86332795D01*
X224847753Y-86334454D01*
X224715723Y-86405026D01*
X224666399Y-86445506D01*
X224599999Y-86499999D01*
X224576201Y-86528997D01*
X223843072Y-87262127D01*
X223843072Y-86740000D01*
X223830812Y-86615518D01*
X223794502Y-86495820D01*
X223745957Y-86405000D01*
X223794502Y-86314180D01*
X223830812Y-86194482D01*
X223843072Y-86070000D01*
X223843072Y-85470000D01*
X223830812Y-85345518D01*
X223794502Y-85225820D01*
X223745957Y-85135000D01*
X223794502Y-85044180D01*
X223830812Y-84924482D01*
X223843072Y-84800000D01*
X223843072Y-84200000D01*
X223830812Y-84075518D01*
X223794502Y-83955820D01*
X223735537Y-83845506D01*
X223656185Y-83748815D01*
X223559494Y-83669463D01*
X223449180Y-83610498D01*
X223329482Y-83574188D01*
X223205000Y-83561928D01*
X221655000Y-83561928D01*
X221530518Y-83574188D01*
X221410820Y-83610498D01*
X221300506Y-83669463D01*
X221300263Y-83669663D01*
X221170256Y-83582795D01*
X220981898Y-83504774D01*
X220781939Y-83465000D01*
X220578061Y-83465000D01*
X220378102Y-83504774D01*
X220189744Y-83582795D01*
X220020226Y-83696063D01*
X219876063Y-83840226D01*
X219762795Y-84009744D01*
X219684774Y-84198102D01*
X219645000Y-84398061D01*
X219645000Y-84601939D01*
X219684774Y-84801898D01*
X219762795Y-84990256D01*
X219859510Y-85135000D01*
X219762795Y-85279744D01*
X219684774Y-85468102D01*
X219645000Y-85668061D01*
X219645000Y-85871939D01*
X219684774Y-86071898D01*
X219762795Y-86260256D01*
X219859510Y-86405000D01*
X219762795Y-86549744D01*
X219684774Y-86738102D01*
X219645000Y-86938061D01*
X219645000Y-87141939D01*
X219684774Y-87341898D01*
X219762795Y-87530256D01*
X219859510Y-87675000D01*
X219762795Y-87819744D01*
X219738501Y-87878395D01*
X219670256Y-87832795D01*
X219481898Y-87754774D01*
X219281939Y-87715000D01*
X219078061Y-87715000D01*
X218878102Y-87754774D01*
X218689744Y-87832795D01*
X218520226Y-87946063D01*
X218516508Y-87949781D01*
X218519502Y-87944180D01*
X218555812Y-87824482D01*
X218568072Y-87700000D01*
X218568072Y-86800000D01*
X218555812Y-86675518D01*
X218519502Y-86555820D01*
X218489665Y-86500000D01*
X218519502Y-86444180D01*
X218555812Y-86324482D01*
X218568072Y-86200000D01*
X218568072Y-85300000D01*
X218555812Y-85175518D01*
X218519502Y-85055820D01*
X218489665Y-85000000D01*
X218519502Y-84944180D01*
X218555812Y-84824482D01*
X218568072Y-84700000D01*
X218568072Y-83800000D01*
X218555812Y-83675518D01*
X218519502Y-83555820D01*
X218489665Y-83500000D01*
X218519502Y-83444180D01*
X218555812Y-83324482D01*
X218568072Y-83200000D01*
X218565000Y-83035750D01*
X218406250Y-82877000D01*
X217307000Y-82877000D01*
X217307000Y-82897000D01*
X217053000Y-82897000D01*
X217053000Y-82877000D01*
X215953750Y-82877000D01*
X215795000Y-83035750D01*
X215791928Y-83200000D01*
X215804188Y-83324482D01*
X215840498Y-83444180D01*
X215870335Y-83500000D01*
X215840498Y-83555820D01*
X215804188Y-83675518D01*
X215791928Y-83800000D01*
X215791928Y-84700000D01*
X215804188Y-84824482D01*
X215840498Y-84944180D01*
X215870335Y-85000000D01*
X215840498Y-85055820D01*
X215804188Y-85175518D01*
X215791928Y-85300000D01*
X215791928Y-86200000D01*
X215804188Y-86324482D01*
X215840498Y-86444180D01*
X215870335Y-86500000D01*
X215840498Y-86555820D01*
X215804188Y-86675518D01*
X215791928Y-86800000D01*
X215791928Y-87700000D01*
X215804188Y-87824482D01*
X215840498Y-87944180D01*
X215870335Y-88000000D01*
X215840498Y-88055820D01*
X215804188Y-88175518D01*
X215791928Y-88300000D01*
X215791928Y-89200000D01*
X215804188Y-89324482D01*
X215840498Y-89444180D01*
X215870335Y-89500000D01*
X215840498Y-89555820D01*
X215804188Y-89675518D01*
X215791928Y-89800000D01*
X215795000Y-89964250D01*
X215953750Y-90123000D01*
X217053000Y-90123000D01*
X217053000Y-90103000D01*
X217307000Y-90103000D01*
X217307000Y-90123000D01*
X218406250Y-90123000D01*
X218565000Y-89964250D01*
X218568072Y-89800000D01*
X218555812Y-89675518D01*
X218519502Y-89555820D01*
X218516508Y-89550219D01*
X218520226Y-89553937D01*
X218689744Y-89667205D01*
X218878102Y-89745226D01*
X219078061Y-89785000D01*
X219281939Y-89785000D01*
X219481898Y-89745226D01*
X219645000Y-89677666D01*
X219645000Y-89681939D01*
X219684774Y-89881898D01*
X219762795Y-90070256D01*
X219859510Y-90215000D01*
X219762795Y-90359744D01*
X219684774Y-90548102D01*
X219645000Y-90748061D01*
X219645000Y-90951939D01*
X219684774Y-91151898D01*
X219762795Y-91340256D01*
X219859510Y-91485000D01*
X219762795Y-91629744D01*
X219684774Y-91818102D01*
X219645000Y-92018061D01*
X219645000Y-92221939D01*
X219684774Y-92421898D01*
X219762795Y-92610256D01*
X219876063Y-92779774D01*
X220020226Y-92923937D01*
X220189744Y-93037205D01*
X220378102Y-93115226D01*
X220578061Y-93155000D01*
X220781939Y-93155000D01*
X220981898Y-93115226D01*
X221019049Y-93099838D01*
X221020000Y-93104250D01*
X221178750Y-93263000D01*
X222303000Y-93263000D01*
X222303000Y-93243000D01*
X222557000Y-93243000D01*
X222557000Y-93263000D01*
X222577000Y-93263000D01*
X222577000Y-93517000D01*
X222557000Y-93517000D01*
X222557000Y-93537000D01*
X222303000Y-93537000D01*
X222303000Y-93517000D01*
X221178750Y-93517000D01*
X221020000Y-93675750D01*
X221016928Y-93690000D01*
X221029188Y-93814482D01*
X221065498Y-93934180D01*
X221095335Y-93990000D01*
X218495010Y-93990000D01*
X218519502Y-93944180D01*
X218555812Y-93824482D01*
X218568072Y-93700000D01*
X218568072Y-92800000D01*
X218555812Y-92675518D01*
X218519502Y-92555820D01*
X218489665Y-92500000D01*
X218519502Y-92444180D01*
X218555812Y-92324482D01*
X218568072Y-92200000D01*
X218568072Y-91300000D01*
X218555812Y-91175518D01*
X218519502Y-91055820D01*
X218489665Y-91000000D01*
X218519502Y-90944180D01*
X218555812Y-90824482D01*
X218568072Y-90700000D01*
X218565000Y-90535750D01*
X218406250Y-90377000D01*
X217307000Y-90377000D01*
X217307000Y-90397000D01*
X217053000Y-90397000D01*
X217053000Y-90377000D01*
X215953750Y-90377000D01*
X215795000Y-90535750D01*
X215791928Y-90700000D01*
X215804188Y-90824482D01*
X215840498Y-90944180D01*
X215864990Y-90990000D01*
X215217325Y-90990000D01*
X215180000Y-90986324D01*
X215142675Y-90990000D01*
X215142667Y-90990000D01*
X215031014Y-91000997D01*
X214887753Y-91044454D01*
X214755724Y-91115026D01*
X214639999Y-91209999D01*
X214616201Y-91238997D01*
X210615199Y-95240000D01*
X201064132Y-95240000D01*
X201068072Y-95200000D01*
X201065000Y-95035750D01*
X200906250Y-94877000D01*
X199807000Y-94877000D01*
X199807000Y-94897000D01*
X199553000Y-94897000D01*
X199553000Y-94877000D01*
X198453750Y-94877000D01*
X198295000Y-95035750D01*
X198291928Y-95200000D01*
X198295868Y-95240000D01*
X195244802Y-95240000D01*
X194550587Y-94545786D01*
X194551715Y-94546128D01*
X194723750Y-94563072D01*
X195636250Y-94563072D01*
X195808285Y-94546128D01*
X195973709Y-94495947D01*
X196095453Y-94430873D01*
X196125506Y-94455537D01*
X196235820Y-94514502D01*
X196355518Y-94550812D01*
X196480000Y-94563072D01*
X196894250Y-94560000D01*
X197053000Y-94401250D01*
X197053000Y-93564500D01*
X197033000Y-93564500D01*
X197033000Y-93310500D01*
X197053000Y-93310500D01*
X197053000Y-93290500D01*
X197307000Y-93290500D01*
X197307000Y-93310500D01*
X197327000Y-93310500D01*
X197327000Y-93564500D01*
X197307000Y-93564500D01*
X197307000Y-94401250D01*
X197465750Y-94560000D01*
X197880000Y-94563072D01*
X198004482Y-94550812D01*
X198124180Y-94514502D01*
X198234494Y-94455537D01*
X198293925Y-94406764D01*
X198295000Y-94464250D01*
X198453750Y-94623000D01*
X199553000Y-94623000D01*
X199553000Y-94603000D01*
X199807000Y-94603000D01*
X199807000Y-94623000D01*
X200906250Y-94623000D01*
X201065000Y-94464250D01*
X201068072Y-94300000D01*
X201055812Y-94175518D01*
X201019502Y-94055820D01*
X200995010Y-94010000D01*
X202226289Y-94010000D01*
X202270226Y-94053937D01*
X202439744Y-94167205D01*
X202628102Y-94245226D01*
X202828061Y-94285000D01*
X203031939Y-94285000D01*
X203231898Y-94245226D01*
X203420256Y-94167205D01*
X203589774Y-94053937D01*
X203733937Y-93909774D01*
X203847205Y-93740256D01*
X203925226Y-93551898D01*
X203965000Y-93351939D01*
X203965000Y-93260000D01*
X206891928Y-93260000D01*
X206904188Y-93384482D01*
X206940498Y-93504180D01*
X206999463Y-93614494D01*
X207078815Y-93711185D01*
X207175506Y-93790537D01*
X207285820Y-93849502D01*
X207405518Y-93885812D01*
X207530000Y-93898072D01*
X209244250Y-93895000D01*
X209403000Y-93736250D01*
X209403000Y-91387000D01*
X209657000Y-91387000D01*
X209657000Y-93736250D01*
X209815750Y-93895000D01*
X211530000Y-93898072D01*
X211654482Y-93885812D01*
X211774180Y-93849502D01*
X211884494Y-93790537D01*
X211981185Y-93711185D01*
X212060537Y-93614494D01*
X212119502Y-93504180D01*
X212155812Y-93384482D01*
X212168072Y-93260000D01*
X212165000Y-91545750D01*
X212006250Y-91387000D01*
X209657000Y-91387000D01*
X209403000Y-91387000D01*
X207053750Y-91387000D01*
X206895000Y-91545750D01*
X206891928Y-93260000D01*
X203965000Y-93260000D01*
X203965000Y-93148061D01*
X203925226Y-92948102D01*
X203847205Y-92759744D01*
X203733937Y-92590226D01*
X203653711Y-92510000D01*
X204226307Y-92510000D01*
X204270226Y-92553919D01*
X204439744Y-92667187D01*
X204628102Y-92745208D01*
X204828061Y-92784982D01*
X205031939Y-92784982D01*
X205231898Y-92745208D01*
X205420256Y-92667187D01*
X205589774Y-92553919D01*
X205733937Y-92409756D01*
X205847205Y-92240238D01*
X205925226Y-92051880D01*
X205965000Y-91851921D01*
X205965000Y-91648043D01*
X205925226Y-91448084D01*
X205847205Y-91259726D01*
X205733937Y-91090208D01*
X205589774Y-90946045D01*
X205420256Y-90832777D01*
X205231898Y-90754756D01*
X205031939Y-90714982D01*
X204828061Y-90714982D01*
X204628102Y-90754756D01*
X204439744Y-90832777D01*
X204270226Y-90946045D01*
X204226271Y-90990000D01*
X200995010Y-90990000D01*
X201019502Y-90944180D01*
X201055812Y-90824482D01*
X201068072Y-90700000D01*
X201068072Y-89800000D01*
X201055812Y-89675518D01*
X201019502Y-89555820D01*
X200995010Y-89510000D01*
X204226307Y-89510000D01*
X204270244Y-89553937D01*
X204439762Y-89667205D01*
X204628120Y-89745226D01*
X204828079Y-89785000D01*
X205031957Y-89785000D01*
X205231916Y-89745226D01*
X205420274Y-89667205D01*
X205589792Y-89553937D01*
X205733955Y-89409774D01*
X205834030Y-89260000D01*
X206891928Y-89260000D01*
X206895000Y-90974250D01*
X207053750Y-91133000D01*
X209403000Y-91133000D01*
X209403000Y-88783750D01*
X209657000Y-88783750D01*
X209657000Y-91133000D01*
X212006250Y-91133000D01*
X212165000Y-90974250D01*
X212168072Y-89260000D01*
X212155812Y-89135518D01*
X212119502Y-89015820D01*
X212060537Y-88905506D01*
X211981185Y-88808815D01*
X211884494Y-88729463D01*
X211774180Y-88670498D01*
X211654482Y-88634188D01*
X211530000Y-88621928D01*
X209815750Y-88625000D01*
X209657000Y-88783750D01*
X209403000Y-88783750D01*
X209244250Y-88625000D01*
X207530000Y-88621928D01*
X207405518Y-88634188D01*
X207285820Y-88670498D01*
X207175506Y-88729463D01*
X207078815Y-88808815D01*
X206999463Y-88905506D01*
X206940498Y-89015820D01*
X206904188Y-89135518D01*
X206891928Y-89260000D01*
X205834030Y-89260000D01*
X205847223Y-89240256D01*
X205925244Y-89051898D01*
X205965018Y-88851939D01*
X205965018Y-88648061D01*
X205925244Y-88448102D01*
X205847223Y-88259744D01*
X205733955Y-88090226D01*
X205589792Y-87946063D01*
X205420274Y-87832795D01*
X205231916Y-87754774D01*
X205031957Y-87715000D01*
X204857666Y-87715000D01*
X204925226Y-87551898D01*
X204965000Y-87351939D01*
X204965000Y-87148061D01*
X204925226Y-86948102D01*
X204847205Y-86759744D01*
X204733937Y-86590226D01*
X204643708Y-86499997D01*
X204733937Y-86409768D01*
X204847205Y-86240250D01*
X204925226Y-86051892D01*
X204965000Y-85851933D01*
X204965000Y-85648055D01*
X204925226Y-85448096D01*
X204847205Y-85259738D01*
X204733937Y-85090220D01*
X204589774Y-84946057D01*
X204420256Y-84832789D01*
X204231898Y-84754768D01*
X204031939Y-84714994D01*
X203828061Y-84714994D01*
X203628102Y-84754768D01*
X203439744Y-84832789D01*
X203270226Y-84946057D01*
X203226283Y-84990000D01*
X202653671Y-84990000D01*
X202733897Y-84909774D01*
X202847165Y-84740256D01*
X202925186Y-84551898D01*
X202964960Y-84351939D01*
X202964960Y-84148061D01*
X202925186Y-83948102D01*
X202847165Y-83759744D01*
X202733897Y-83590226D01*
X202589734Y-83446063D01*
X202420216Y-83332795D01*
X202231858Y-83254774D01*
X202031899Y-83215000D01*
X201828021Y-83215000D01*
X201628062Y-83254774D01*
X201439704Y-83332795D01*
X201270186Y-83446063D01*
X201226249Y-83490000D01*
X200995010Y-83490000D01*
X201019502Y-83444180D01*
X201055812Y-83324482D01*
X201068072Y-83200000D01*
X201068072Y-82300000D01*
X215791928Y-82300000D01*
X215795000Y-82464250D01*
X215953750Y-82623000D01*
X217053000Y-82623000D01*
X217053000Y-81823750D01*
X217307000Y-81823750D01*
X217307000Y-82623000D01*
X218406250Y-82623000D01*
X218565000Y-82464250D01*
X218568072Y-82300000D01*
X218555812Y-82175518D01*
X218519502Y-82055820D01*
X218460537Y-81945506D01*
X218381185Y-81848815D01*
X218284494Y-81769463D01*
X218174180Y-81710498D01*
X218054482Y-81674188D01*
X217930000Y-81661928D01*
X217465750Y-81665000D01*
X217307000Y-81823750D01*
X217053000Y-81823750D01*
X216894250Y-81665000D01*
X216430000Y-81661928D01*
X216305518Y-81674188D01*
X216185820Y-81710498D01*
X216075506Y-81769463D01*
X215978815Y-81848815D01*
X215899463Y-81945506D01*
X215840498Y-82055820D01*
X215804188Y-82175518D01*
X215791928Y-82300000D01*
X201068072Y-82300000D01*
X201055812Y-82175518D01*
X201019502Y-82055820D01*
X200960537Y-81945506D01*
X200881185Y-81848815D01*
X200784494Y-81769463D01*
X200674180Y-81710498D01*
X200554482Y-81674188D01*
X200430000Y-81661928D01*
X198930000Y-81661928D01*
X198805518Y-81674188D01*
X198685820Y-81710498D01*
X198575506Y-81769463D01*
X198547362Y-81792560D01*
X198491330Y-81736528D01*
X198626164Y-81664458D01*
X198759792Y-81554792D01*
X198869458Y-81421164D01*
X198950947Y-81268709D01*
X199001128Y-81103285D01*
X199018072Y-80931250D01*
X199018072Y-80443750D01*
X199001128Y-80271715D01*
X198950947Y-80106291D01*
X198869458Y-79953836D01*
X198759792Y-79820208D01*
X198753436Y-79814992D01*
X198831185Y-79751185D01*
X198910537Y-79654494D01*
X198969502Y-79544180D01*
X199005812Y-79424482D01*
X199018072Y-79300000D01*
X199015000Y-79098250D01*
X198856250Y-78939500D01*
X197807000Y-78939500D01*
X197807000Y-78959500D01*
X197553000Y-78959500D01*
X197553000Y-78939500D01*
X196503750Y-78939500D01*
X196430000Y-79013250D01*
X196356250Y-78939500D01*
X195307000Y-78939500D01*
X195307000Y-78959500D01*
X195053000Y-78959500D01*
X195053000Y-78939500D01*
X194003750Y-78939500D01*
X193845000Y-79098250D01*
X193841928Y-79300000D01*
X193854188Y-79424482D01*
X193890498Y-79544180D01*
X193949463Y-79654494D01*
X194028815Y-79751185D01*
X194106564Y-79814992D01*
X194100208Y-79820208D01*
X193990542Y-79953836D01*
X193909053Y-80106291D01*
X193858872Y-80271715D01*
X193841928Y-80443750D01*
X193841928Y-80931250D01*
X193858872Y-81103285D01*
X193909053Y-81268709D01*
X193990542Y-81421164D01*
X194100208Y-81554792D01*
X194233836Y-81664458D01*
X194386291Y-81745947D01*
X194420001Y-81756173D01*
X194420001Y-81796288D01*
X194376063Y-81840226D01*
X194262795Y-82009744D01*
X194184774Y-82198102D01*
X194145000Y-82398061D01*
X194145000Y-82601939D01*
X194184774Y-82801898D01*
X194262795Y-82990256D01*
X194376063Y-83159774D01*
X194520226Y-83303937D01*
X194689744Y-83417205D01*
X194737359Y-83436928D01*
X194723750Y-83436928D01*
X194551715Y-83453872D01*
X194386291Y-83504053D01*
X194233836Y-83585542D01*
X194100208Y-83695208D01*
X193990542Y-83828836D01*
X193909053Y-83981291D01*
X193858872Y-84146715D01*
X193841928Y-84318750D01*
X193841928Y-84806250D01*
X193858872Y-84978285D01*
X193909053Y-85143709D01*
X193990542Y-85296164D01*
X194100208Y-85429792D01*
X194185756Y-85500000D01*
X194100208Y-85570208D01*
X194012155Y-85677500D01*
X193779822Y-85677500D01*
X193742499Y-85673824D01*
X193705176Y-85677500D01*
X193705167Y-85677500D01*
X193593514Y-85688497D01*
X193469057Y-85726250D01*
X193450253Y-85731954D01*
X193430226Y-85742659D01*
X193469502Y-85669180D01*
X193505812Y-85549482D01*
X193518072Y-85425000D01*
X193515000Y-85223250D01*
X193356250Y-85064500D01*
X192307000Y-85064500D01*
X192307000Y-85901250D01*
X192465750Y-86060000D01*
X192880000Y-86063072D01*
X193004482Y-86050812D01*
X193076116Y-86029082D01*
X192669002Y-86436197D01*
X192639999Y-86459999D01*
X192584871Y-86527174D01*
X192545026Y-86575724D01*
X192496131Y-86667199D01*
X192474454Y-86707754D01*
X192430997Y-86851015D01*
X192420000Y-86962668D01*
X192420000Y-86962678D01*
X192416324Y-87000000D01*
X192420000Y-87037323D01*
X192420000Y-87546289D01*
X192376063Y-87590226D01*
X192262795Y-87759744D01*
X192184774Y-87948102D01*
X192145000Y-88148061D01*
X192145000Y-88351939D01*
X192184774Y-88551898D01*
X192262795Y-88740256D01*
X192376063Y-88909774D01*
X192520226Y-89053937D01*
X192689744Y-89167205D01*
X192878102Y-89245226D01*
X193078061Y-89285000D01*
X193281939Y-89285000D01*
X193481898Y-89245226D01*
X193670256Y-89167205D01*
X193839774Y-89053937D01*
X193983937Y-88909774D01*
X194097205Y-88740256D01*
X194175226Y-88551898D01*
X194215000Y-88351939D01*
X194215000Y-88148061D01*
X194175226Y-87948102D01*
X194097205Y-87759744D01*
X193983937Y-87590226D01*
X193940000Y-87546289D01*
X193940000Y-87314801D01*
X194032505Y-87222296D01*
X194100208Y-87304792D01*
X194233836Y-87414458D01*
X194386291Y-87495947D01*
X194551715Y-87546128D01*
X194723750Y-87563072D01*
X195636250Y-87563072D01*
X195808285Y-87546128D01*
X195973709Y-87495947D01*
X196095453Y-87430873D01*
X196125506Y-87455537D01*
X196235820Y-87514502D01*
X196355518Y-87550812D01*
X196480000Y-87563072D01*
X196894250Y-87560000D01*
X197053000Y-87401250D01*
X197053000Y-86564500D01*
X197033000Y-86564500D01*
X197033000Y-86310500D01*
X197053000Y-86310500D01*
X197053000Y-86290500D01*
X197307000Y-86290500D01*
X197307000Y-86310500D01*
X197327000Y-86310500D01*
X197327000Y-86564500D01*
X197307000Y-86564500D01*
X197307000Y-87401250D01*
X197465750Y-87560000D01*
X197880000Y-87563072D01*
X198004482Y-87550812D01*
X198124180Y-87514502D01*
X198234494Y-87455537D01*
X198291928Y-87408402D01*
X198291928Y-87700000D01*
X198304188Y-87824482D01*
X198340498Y-87944180D01*
X198364990Y-87990000D01*
X195967322Y-87990000D01*
X195929999Y-87986324D01*
X195892676Y-87990000D01*
X195892667Y-87990000D01*
X195781014Y-88000997D01*
X195637753Y-88044454D01*
X195505724Y-88115026D01*
X195389999Y-88209999D01*
X195366201Y-88238998D01*
X194669002Y-88936197D01*
X194639999Y-88959999D01*
X194593876Y-89016201D01*
X194545026Y-89075724D01*
X194492348Y-89174277D01*
X194474454Y-89207754D01*
X194430997Y-89351015D01*
X194420000Y-89462668D01*
X194420000Y-89462678D01*
X194416324Y-89500000D01*
X194420000Y-89537323D01*
X194420000Y-90493827D01*
X194386291Y-90504053D01*
X194233836Y-90585542D01*
X194100208Y-90695208D01*
X193990542Y-90828836D01*
X193909053Y-90981291D01*
X193858872Y-91146715D01*
X193841928Y-91318750D01*
X193841928Y-91806250D01*
X193858872Y-91978285D01*
X193909053Y-92143709D01*
X193990542Y-92296164D01*
X194100208Y-92429792D01*
X194185756Y-92500000D01*
X194100208Y-92570208D01*
X193990542Y-92703836D01*
X193971212Y-92740000D01*
X192217325Y-92740000D01*
X192180000Y-92736324D01*
X192142675Y-92740000D01*
X192142667Y-92740000D01*
X192031014Y-92750997D01*
X191887753Y-92794454D01*
X191755724Y-92865026D01*
X191639999Y-92959999D01*
X191616196Y-92989003D01*
X191365199Y-93240000D01*
X191065000Y-93240000D01*
X191065000Y-86788454D01*
X191097205Y-86740256D01*
X191175226Y-86551898D01*
X191215000Y-86351939D01*
X191215000Y-86148061D01*
X191182796Y-85986160D01*
X191235820Y-86014502D01*
X191355518Y-86050812D01*
X191480000Y-86063072D01*
X191894250Y-86060000D01*
X192053000Y-85901250D01*
X192053000Y-85064500D01*
X192033000Y-85064500D01*
X192033000Y-84810500D01*
X192053000Y-84810500D01*
X192053000Y-84790500D01*
X192307000Y-84790500D01*
X192307000Y-84810500D01*
X193356250Y-84810500D01*
X193515000Y-84651750D01*
X193518072Y-84450000D01*
X193505812Y-84325518D01*
X193469502Y-84205820D01*
X193410537Y-84095506D01*
X193331185Y-83998815D01*
X193253436Y-83935008D01*
X193259792Y-83929792D01*
X193369458Y-83796164D01*
X193450947Y-83643709D01*
X193501128Y-83478285D01*
X193518072Y-83306250D01*
X193518072Y-82818750D01*
X193501128Y-82646715D01*
X193450947Y-82481291D01*
X193369458Y-82328836D01*
X193259792Y-82195208D01*
X193126164Y-82085542D01*
X192973709Y-82004053D01*
X192808285Y-81953872D01*
X192636250Y-81936928D01*
X191723750Y-81936928D01*
X191551715Y-81953872D01*
X191386291Y-82004053D01*
X191233836Y-82085542D01*
X191180000Y-82129724D01*
X191126164Y-82085542D01*
X190973709Y-82004053D01*
X190808285Y-81953872D01*
X190636250Y-81936928D01*
X189723750Y-81936928D01*
X189551715Y-81953872D01*
X189386291Y-82004053D01*
X189233836Y-82085542D01*
X189121785Y-82177500D01*
X188660965Y-82177500D01*
X188617499Y-82173219D01*
X188574033Y-82177500D01*
X188574023Y-82177500D01*
X188444010Y-82190305D01*
X188277187Y-82240911D01*
X188123441Y-82323089D01*
X187988683Y-82433683D01*
X187960966Y-82467456D01*
X187679851Y-82748571D01*
X187666548Y-82661709D01*
X187575109Y-82409900D01*
X187517950Y-82302965D01*
X187281633Y-82240472D01*
X186522105Y-83000000D01*
X186536248Y-83014143D01*
X186356643Y-83193748D01*
X186342500Y-83179605D01*
X186328358Y-83193748D01*
X186148753Y-83014143D01*
X186162895Y-83000000D01*
X185403367Y-82240472D01*
X185227767Y-82286909D01*
X185229976Y-82060867D01*
X185582972Y-82060867D01*
X186342500Y-82820395D01*
X187102028Y-82060867D01*
X187039535Y-81824550D01*
X186796822Y-81711150D01*
X186536651Y-81647281D01*
X186269018Y-81635396D01*
X186004209Y-81675952D01*
X185752400Y-81767391D01*
X185645465Y-81824550D01*
X185582972Y-82060867D01*
X185229976Y-82060867D01*
X185230572Y-82000000D01*
X185227500Y-81968808D01*
X185227500Y-81872998D01*
X185217548Y-81872998D01*
X185182002Y-81755820D01*
X185162179Y-81718735D01*
X185185962Y-81682391D01*
X185182091Y-81644718D01*
X185089921Y-81419467D01*
X184955578Y-81216526D01*
X184784225Y-81043693D01*
X184582446Y-80907610D01*
X184357996Y-80813507D01*
X184119500Y-80765000D01*
X183769500Y-80765000D01*
X183769500Y-84373000D01*
X183789500Y-84373000D01*
X183789500Y-84627000D01*
X183769500Y-84627000D01*
X183769500Y-86373000D01*
X183789500Y-86373000D01*
X183789500Y-86627000D01*
X183769500Y-86627000D01*
X183769500Y-90235000D01*
X184119500Y-90235000D01*
X184357996Y-90186493D01*
X184582446Y-90092390D01*
X184784225Y-89956307D01*
X184955578Y-89783474D01*
X185089921Y-89580533D01*
X185182091Y-89355282D01*
X185185962Y-89317609D01*
X185162179Y-89281265D01*
X185182002Y-89244180D01*
X185217548Y-89127002D01*
X185227500Y-89127002D01*
X185227500Y-89031192D01*
X185230572Y-89000000D01*
X185229977Y-88939133D01*
X185582972Y-88939133D01*
X185645465Y-89175450D01*
X185888178Y-89288850D01*
X186148349Y-89352719D01*
X186415982Y-89364604D01*
X186680791Y-89324048D01*
X186932600Y-89232609D01*
X187039535Y-89175450D01*
X187102028Y-88939133D01*
X186342500Y-88179605D01*
X185582972Y-88939133D01*
X185229977Y-88939133D01*
X185227767Y-88713091D01*
X185403367Y-88759528D01*
X186162895Y-88000000D01*
X186148753Y-87985858D01*
X186328358Y-87806253D01*
X186342500Y-87820395D01*
X186356643Y-87806253D01*
X186536248Y-87985858D01*
X186522105Y-88000000D01*
X187281633Y-88759528D01*
X187517950Y-88697035D01*
X187631350Y-88454322D01*
X187695219Y-88194151D01*
X187707104Y-87926518D01*
X187666548Y-87661709D01*
X187575109Y-87409900D01*
X187546225Y-87355864D01*
X187603021Y-87253576D01*
X187641241Y-87134474D01*
X187652500Y-87031750D01*
X187493750Y-86873000D01*
X187381178Y-86873000D01*
X187468685Y-86801185D01*
X187548037Y-86704494D01*
X187584532Y-86636218D01*
X187652500Y-86568250D01*
X187642512Y-86477120D01*
X187643312Y-86474482D01*
X187655572Y-86350000D01*
X187655572Y-85950000D01*
X187643312Y-85825518D01*
X187643155Y-85825000D01*
X187643312Y-85824482D01*
X187655572Y-85700000D01*
X187655572Y-85300000D01*
X187643312Y-85175518D01*
X187643155Y-85175000D01*
X187643312Y-85174482D01*
X187652125Y-85085000D01*
X187936531Y-85085000D01*
X187980000Y-85089281D01*
X188023469Y-85085000D01*
X188023477Y-85085000D01*
X188153490Y-85072195D01*
X188320313Y-85021589D01*
X188474059Y-84939411D01*
X188608817Y-84828817D01*
X188636534Y-84795044D01*
X188775045Y-84656533D01*
X188808817Y-84628817D01*
X188853711Y-84574114D01*
X188841928Y-84693750D01*
X188841928Y-85181250D01*
X188858872Y-85353285D01*
X188909053Y-85518709D01*
X188990542Y-85671164D01*
X189100208Y-85804792D01*
X189207621Y-85892944D01*
X189184774Y-85948102D01*
X189145000Y-86148061D01*
X189145000Y-86351939D01*
X189184774Y-86551898D01*
X189262795Y-86740256D01*
X189295000Y-86788454D01*
X189295001Y-93111000D01*
X186164231Y-93111000D01*
X186155812Y-93025518D01*
X186119502Y-92905820D01*
X186060537Y-92795506D01*
X185981185Y-92698815D01*
X185884494Y-92619463D01*
X185774180Y-92560498D01*
X185654482Y-92524188D01*
X185530000Y-92511928D01*
X183830000Y-92511928D01*
X183705518Y-92524188D01*
X183585820Y-92560498D01*
X183475506Y-92619463D01*
X183378815Y-92698815D01*
X183299463Y-92795506D01*
X183240498Y-92905820D01*
X183204188Y-93025518D01*
X183191928Y-93150000D01*
X182840000Y-93150000D01*
X182840000Y-90150016D01*
X182927004Y-90186493D01*
X183165500Y-90235000D01*
X183515500Y-90235000D01*
X183515500Y-86627000D01*
X183495500Y-86627000D01*
X183495500Y-86373000D01*
X183515500Y-86373000D01*
X183515500Y-84627000D01*
X183495500Y-84627000D01*
X183495500Y-84373000D01*
X183515500Y-84373000D01*
X183515500Y-80765000D01*
X183165500Y-80765000D01*
X182927004Y-80813507D01*
X182840000Y-80849984D01*
X182840000Y-79273380D01*
X183348282Y-78765098D01*
X184795000Y-78765098D01*
X184795000Y-79234902D01*
X184886654Y-79695679D01*
X185066440Y-80129721D01*
X185327450Y-80520349D01*
X185659651Y-80852550D01*
X186050279Y-81113560D01*
X186484321Y-81293346D01*
X186945098Y-81385000D01*
X187414902Y-81385000D01*
X187875679Y-81293346D01*
X188309721Y-81113560D01*
X188700349Y-80852550D01*
X189032550Y-80520349D01*
X189293560Y-80129721D01*
X189473346Y-79695679D01*
X189565000Y-79234902D01*
X189565000Y-78765098D01*
X233295000Y-78765098D01*
X233295000Y-79234902D01*
X233386654Y-79695679D01*
X233566440Y-80129721D01*
X233827450Y-80520349D01*
X234159651Y-80852550D01*
X234550279Y-81113560D01*
X234984321Y-81293346D01*
X235445098Y-81385000D01*
X235914902Y-81385000D01*
X236375679Y-81293346D01*
X236809721Y-81113560D01*
X237200349Y-80852550D01*
X237532550Y-80520349D01*
X237793560Y-80129721D01*
X237973346Y-79695679D01*
X238065000Y-79234902D01*
X238065000Y-78765098D01*
X237973346Y-78304321D01*
X237793560Y-77870279D01*
X237532550Y-77479651D01*
X237200349Y-77147450D01*
X236809721Y-76886440D01*
X236375679Y-76706654D01*
X235914902Y-76615000D01*
X235445098Y-76615000D01*
X234984321Y-76706654D01*
X234550279Y-76886440D01*
X234159651Y-77147450D01*
X233827450Y-77479651D01*
X233566440Y-77870279D01*
X233386654Y-78304321D01*
X233295000Y-78765098D01*
X189565000Y-78765098D01*
X189477460Y-78325000D01*
X193841928Y-78325000D01*
X193845000Y-78526750D01*
X194003750Y-78685500D01*
X195053000Y-78685500D01*
X195053000Y-77848750D01*
X195307000Y-77848750D01*
X195307000Y-78685500D01*
X196356250Y-78685500D01*
X196430000Y-78611750D01*
X196503750Y-78685500D01*
X197553000Y-78685500D01*
X197553000Y-77848750D01*
X197807000Y-77848750D01*
X197807000Y-78685500D01*
X198856250Y-78685500D01*
X199015000Y-78526750D01*
X199018072Y-78325000D01*
X199005812Y-78200518D01*
X198969502Y-78080820D01*
X198910537Y-77970506D01*
X198831185Y-77873815D01*
X198734494Y-77794463D01*
X198624180Y-77735498D01*
X198504482Y-77699188D01*
X198380000Y-77686928D01*
X197965750Y-77690000D01*
X197807000Y-77848750D01*
X197553000Y-77848750D01*
X197394250Y-77690000D01*
X196980000Y-77686928D01*
X196855518Y-77699188D01*
X196735820Y-77735498D01*
X196625506Y-77794463D01*
X196528815Y-77873815D01*
X196449463Y-77970506D01*
X196430000Y-78006918D01*
X196410537Y-77970506D01*
X196331185Y-77873815D01*
X196234494Y-77794463D01*
X196124180Y-77735498D01*
X196004482Y-77699188D01*
X195880000Y-77686928D01*
X195465750Y-77690000D01*
X195307000Y-77848750D01*
X195053000Y-77848750D01*
X194894250Y-77690000D01*
X194480000Y-77686928D01*
X194355518Y-77699188D01*
X194235820Y-77735498D01*
X194125506Y-77794463D01*
X194028815Y-77873815D01*
X193949463Y-77970506D01*
X193890498Y-78080820D01*
X193854188Y-78200518D01*
X193841928Y-78325000D01*
X189477460Y-78325000D01*
X189473346Y-78304321D01*
X189293560Y-77870279D01*
X189032550Y-77479651D01*
X188700349Y-77147450D01*
X188309721Y-76886440D01*
X187875679Y-76706654D01*
X187414902Y-76615000D01*
X186945098Y-76615000D01*
X186484321Y-76706654D01*
X186050279Y-76886440D01*
X185659651Y-77147450D01*
X185327450Y-77479651D01*
X185066440Y-77870279D01*
X184886654Y-78304321D01*
X184795000Y-78765098D01*
X183348282Y-78765098D01*
X187453381Y-74660000D01*
X235906620Y-74660000D01*
X240520001Y-79273382D01*
G37*
X240520001Y-79273382D02*
X240520000Y-113226619D01*
X235906620Y-117840000D01*
X187453381Y-117840000D01*
X182840000Y-113226620D01*
X182840000Y-103200000D01*
X190616928Y-103200000D01*
X190629188Y-103324482D01*
X190665498Y-103444180D01*
X190724463Y-103554494D01*
X190803815Y-103651185D01*
X190900506Y-103730537D01*
X191010820Y-103789502D01*
X191130518Y-103825812D01*
X191255000Y-103838072D01*
X191456750Y-103835000D01*
X191615500Y-103676250D01*
X191615500Y-102627000D01*
X190778750Y-102627000D01*
X190620000Y-102785750D01*
X190616928Y-103200000D01*
X182840000Y-103200000D01*
X182840000Y-101976890D01*
X183238524Y-101976890D01*
X183283175Y-102124099D01*
X183408359Y-102386920D01*
X183582412Y-102620269D01*
X183798645Y-102815178D01*
X184048748Y-102964157D01*
X184323109Y-103061481D01*
X184553000Y-102940814D01*
X184553000Y-101747000D01*
X184807000Y-101747000D01*
X184807000Y-102940814D01*
X185036891Y-103061481D01*
X185311252Y-102964157D01*
X185561355Y-102815178D01*
X185777588Y-102620269D01*
X185951641Y-102386920D01*
X186076825Y-102124099D01*
X186121476Y-101976890D01*
X186028125Y-101800000D01*
X190616928Y-101800000D01*
X190620000Y-102214250D01*
X190778750Y-102373000D01*
X191615500Y-102373000D01*
X191615500Y-101323750D01*
X191456750Y-101165000D01*
X191255000Y-101161928D01*
X191130518Y-101174188D01*
X191010820Y-101210498D01*
X190900506Y-101269463D01*
X190803815Y-101348815D01*
X190724463Y-101445506D01*
X190665498Y-101555820D01*
X190629188Y-101675518D01*
X190616928Y-101800000D01*
X186028125Y-101800000D01*
X186000155Y-101747000D01*
X184807000Y-101747000D01*
X184553000Y-101747000D01*
X183359845Y-101747000D01*
X183238524Y-101976890D01*
X182840000Y-101976890D01*
X182840000Y-93150000D01*
X183191928Y-93150000D01*
X183191928Y-94850000D01*
X183204188Y-94974482D01*
X183240498Y-95094180D01*
X183299463Y-95204494D01*
X183378815Y-95301185D01*
X183475506Y-95380537D01*
X183585820Y-95439502D01*
X183658380Y-95461513D01*
X183526525Y-95593368D01*
X183364010Y-95836589D01*
X183252068Y-96106842D01*
X183195000Y-96393740D01*
X183195000Y-96686260D01*
X183252068Y-96973158D01*
X183364010Y-97243411D01*
X183526525Y-97486632D01*
X183733368Y-97693475D01*
X183907760Y-97810000D01*
X183733368Y-97926525D01*
X183526525Y-98133368D01*
X183364010Y-98376589D01*
X183252068Y-98646842D01*
X183195000Y-98933740D01*
X183195000Y-99226260D01*
X183252068Y-99513158D01*
X183364010Y-99783411D01*
X183526525Y-100026632D01*
X183733368Y-100233475D01*
X183915534Y-100355195D01*
X183798645Y-100424822D01*
X183582412Y-100619731D01*
X183408359Y-100853080D01*
X183283175Y-101115901D01*
X183238524Y-101263110D01*
X183359845Y-101493000D01*
X184553000Y-101493000D01*
X184553000Y-101473000D01*
X184807000Y-101473000D01*
X184807000Y-101493000D01*
X186000155Y-101493000D01*
X186121476Y-101263110D01*
X186076825Y-101115901D01*
X185951641Y-100853080D01*
X185777588Y-100619731D01*
X185561355Y-100424822D01*
X185444466Y-100355195D01*
X185626632Y-100233475D01*
X185833475Y-100026632D01*
X185995990Y-99783411D01*
X186107932Y-99513158D01*
X186165000Y-99226260D01*
X186165000Y-98933740D01*
X186107932Y-98646842D01*
X185995990Y-98376589D01*
X185833475Y-98133368D01*
X185626632Y-97926525D01*
X185452240Y-97810000D01*
X185626632Y-97693475D01*
X185833475Y-97486632D01*
X185995990Y-97243411D01*
X186107932Y-96973158D01*
X186165000Y-96686260D01*
X186165000Y-96393740D01*
X186107932Y-96106842D01*
X185995990Y-95836589D01*
X185833475Y-95593368D01*
X185701620Y-95461513D01*
X185774180Y-95439502D01*
X185884494Y-95380537D01*
X185981185Y-95301185D01*
X186060537Y-95204494D01*
X186119502Y-95094180D01*
X186155812Y-94974482D01*
X186164231Y-94889000D01*
X189295000Y-94889000D01*
X189295001Y-99019021D01*
X189290719Y-99062500D01*
X189307805Y-99235990D01*
X189358412Y-99402813D01*
X189440590Y-99556559D01*
X189523468Y-99657546D01*
X189523471Y-99657549D01*
X189551184Y-99691317D01*
X189584952Y-99719030D01*
X189960966Y-100095044D01*
X189988683Y-100128817D01*
X190123441Y-100239411D01*
X190277187Y-100321589D01*
X190444010Y-100372195D01*
X190574023Y-100385000D01*
X190574033Y-100385000D01*
X190617499Y-100389281D01*
X190660965Y-100385000D01*
X191813422Y-100385000D01*
X192732501Y-101304080D01*
X192732501Y-101411344D01*
X192681185Y-101348815D01*
X192584494Y-101269463D01*
X192474180Y-101210498D01*
X192354482Y-101174188D01*
X192230000Y-101161928D01*
X192028250Y-101165000D01*
X191869500Y-101323750D01*
X191869500Y-102373000D01*
X191889500Y-102373000D01*
X191889500Y-102627000D01*
X191869500Y-102627000D01*
X191869500Y-103676250D01*
X192028250Y-103835000D01*
X192069483Y-103835628D01*
X192057201Y-103876118D01*
X192045000Y-104000000D01*
X192045000Y-113500000D01*
X192057201Y-113623882D01*
X192093336Y-113743004D01*
X192152017Y-113852787D01*
X192230987Y-113949013D01*
X192327213Y-114027983D01*
X192436996Y-114086664D01*
X192556118Y-114122799D01*
X192680000Y-114135000D01*
X199680000Y-114135000D01*
X199803882Y-114122799D01*
X199923004Y-114086664D01*
X200032787Y-114027983D01*
X200129013Y-113949013D01*
X200207983Y-113852787D01*
X200266664Y-113743004D01*
X200302799Y-113623882D01*
X200315000Y-113500000D01*
X200315000Y-108148069D01*
X200895008Y-108148069D01*
X200895008Y-108351947D01*
X200934782Y-108551906D01*
X201012803Y-108740264D01*
X201126071Y-108909782D01*
X201170000Y-108953711D01*
X201170000Y-109462677D01*
X201166324Y-109500000D01*
X201170000Y-109537322D01*
X201170000Y-109537332D01*
X201180997Y-109648985D01*
X201224454Y-109792246D01*
X201295026Y-109924276D01*
X201334871Y-109972826D01*
X201389999Y-110040001D01*
X201419003Y-110063804D01*
X201866196Y-110510997D01*
X201889999Y-110540001D01*
X202005724Y-110634974D01*
X202137753Y-110705546D01*
X202281014Y-110749003D01*
X202392667Y-110760000D01*
X202392675Y-110760000D01*
X202430000Y-110763676D01*
X202467325Y-110760000D01*
X203341928Y-110760000D01*
X203341928Y-111050000D01*
X203354188Y-111174482D01*
X203390498Y-111294180D01*
X203449463Y-111404494D01*
X203528815Y-111501185D01*
X203625506Y-111580537D01*
X203735820Y-111639502D01*
X203855518Y-111675812D01*
X203980000Y-111688072D01*
X206380000Y-111688072D01*
X206504482Y-111675812D01*
X206624180Y-111639502D01*
X206734494Y-111580537D01*
X206831185Y-111501185D01*
X206910537Y-111404494D01*
X206969502Y-111294180D01*
X207005812Y-111174482D01*
X207018072Y-111050000D01*
X211141928Y-111050000D01*
X211154188Y-111174482D01*
X211190498Y-111294180D01*
X211249463Y-111404494D01*
X211328815Y-111501185D01*
X211425506Y-111580537D01*
X211535820Y-111639502D01*
X211655518Y-111675812D01*
X211780000Y-111688072D01*
X212694250Y-111685000D01*
X212853000Y-111526250D01*
X212853000Y-110127000D01*
X213107000Y-110127000D01*
X213107000Y-111526250D01*
X213265750Y-111685000D01*
X214180000Y-111688072D01*
X214304482Y-111675812D01*
X214424180Y-111639502D01*
X214534494Y-111580537D01*
X214631185Y-111501185D01*
X214710537Y-111404494D01*
X214769502Y-111294180D01*
X214805812Y-111174482D01*
X214818072Y-111050000D01*
X214815000Y-110285750D01*
X214656250Y-110127000D01*
X213107000Y-110127000D01*
X212853000Y-110127000D01*
X211303750Y-110127000D01*
X211145000Y-110285750D01*
X211141928Y-111050000D01*
X207018072Y-111050000D01*
X207018072Y-108950000D01*
X211141928Y-108950000D01*
X211145000Y-109714250D01*
X211303750Y-109873000D01*
X212853000Y-109873000D01*
X212853000Y-108473750D01*
X213107000Y-108473750D01*
X213107000Y-109873000D01*
X214656250Y-109873000D01*
X214815000Y-109714250D01*
X214818072Y-108950000D01*
X214805812Y-108825518D01*
X214769502Y-108705820D01*
X214710537Y-108595506D01*
X214631185Y-108498815D01*
X214534494Y-108419463D01*
X214424180Y-108360498D01*
X214304482Y-108324188D01*
X214180000Y-108311928D01*
X213265750Y-108315000D01*
X213107000Y-108473750D01*
X212853000Y-108473750D01*
X212694250Y-108315000D01*
X211780000Y-108311928D01*
X211655518Y-108324188D01*
X211535820Y-108360498D01*
X211425506Y-108419463D01*
X211328815Y-108498815D01*
X211249463Y-108595506D01*
X211190498Y-108705820D01*
X211154188Y-108825518D01*
X211141928Y-108950000D01*
X207018072Y-108950000D01*
X207005812Y-108825518D01*
X206969502Y-108705820D01*
X206910537Y-108595506D01*
X206831185Y-108498815D01*
X206734494Y-108419463D01*
X206624180Y-108360498D01*
X206504482Y-108324188D01*
X206380000Y-108311928D01*
X203980000Y-108311928D01*
X203855518Y-108324188D01*
X203735820Y-108360498D01*
X203625506Y-108419463D01*
X203528815Y-108498815D01*
X203449463Y-108595506D01*
X203390498Y-108705820D01*
X203354188Y-108825518D01*
X203341928Y-108950000D01*
X203341928Y-109240000D01*
X202744801Y-109240000D01*
X202690000Y-109185199D01*
X202690000Y-108953727D01*
X202733945Y-108909782D01*
X202847213Y-108740264D01*
X202925234Y-108551906D01*
X202965008Y-108351947D01*
X202965008Y-108148069D01*
X202925234Y-107948110D01*
X202847213Y-107759752D01*
X202733945Y-107590234D01*
X202589782Y-107446071D01*
X202420264Y-107332803D01*
X202231906Y-107254782D01*
X202031947Y-107215008D01*
X201828069Y-107215008D01*
X201628110Y-107254782D01*
X201439752Y-107332803D01*
X201270234Y-107446071D01*
X201126071Y-107590234D01*
X201012803Y-107759752D01*
X200934782Y-107948110D01*
X200895008Y-108148069D01*
X200315000Y-108148069D01*
X200315000Y-104000000D01*
X200302799Y-103876118D01*
X200266664Y-103756996D01*
X200207983Y-103647213D01*
X200129013Y-103550987D01*
X200032787Y-103472017D01*
X199923004Y-103413336D01*
X199803882Y-103377201D01*
X199680000Y-103365000D01*
X199281021Y-103365000D01*
X199293312Y-103324482D01*
X199305572Y-103200000D01*
X199302500Y-102785750D01*
X199143750Y-102627000D01*
X198307000Y-102627000D01*
X198307000Y-102647000D01*
X198053000Y-102647000D01*
X198053000Y-102627000D01*
X198033000Y-102627000D01*
X198033000Y-102373000D01*
X198053000Y-102373000D01*
X198053000Y-101323750D01*
X198307000Y-101323750D01*
X198307000Y-102373000D01*
X199143750Y-102373000D01*
X199302500Y-102214250D01*
X199305572Y-101800000D01*
X199293312Y-101675518D01*
X199257002Y-101555820D01*
X199198037Y-101445506D01*
X199118685Y-101348815D01*
X199021994Y-101269463D01*
X198911680Y-101210498D01*
X198791982Y-101174188D01*
X198667500Y-101161928D01*
X198465750Y-101165000D01*
X198307000Y-101323750D01*
X198053000Y-101323750D01*
X197894250Y-101165000D01*
X197692500Y-101161928D01*
X197568018Y-101174188D01*
X197448320Y-101210498D01*
X197338006Y-101269463D01*
X197241315Y-101348815D01*
X197177508Y-101426564D01*
X197172292Y-101420208D01*
X197038664Y-101310542D01*
X196886209Y-101229053D01*
X196720785Y-101178872D01*
X196548750Y-101161928D01*
X196061250Y-101161928D01*
X195889215Y-101178872D01*
X195723791Y-101229053D01*
X195571336Y-101310542D01*
X195437708Y-101420208D01*
X195328042Y-101553836D01*
X195246553Y-101706291D01*
X195196372Y-101871715D01*
X195179428Y-102043750D01*
X195179428Y-102956250D01*
X195196372Y-103128285D01*
X195246553Y-103293709D01*
X195284659Y-103365000D01*
X194637841Y-103365000D01*
X194675947Y-103293709D01*
X194726128Y-103128285D01*
X194743072Y-102956250D01*
X194743072Y-102043750D01*
X194726128Y-101871715D01*
X194675947Y-101706291D01*
X194594458Y-101553836D01*
X194502500Y-101441785D01*
X194502500Y-100980969D01*
X194506781Y-100937500D01*
X194502500Y-100894031D01*
X194502500Y-100894023D01*
X194489695Y-100764010D01*
X194485748Y-100750997D01*
X194469083Y-100696063D01*
X194439089Y-100597187D01*
X194356911Y-100443441D01*
X194305664Y-100380997D01*
X194274032Y-100342453D01*
X194274030Y-100342451D01*
X194246317Y-100308683D01*
X194212549Y-100280970D01*
X192836532Y-98904954D01*
X192830876Y-98898061D01*
X201895000Y-98898061D01*
X201895000Y-99101939D01*
X201934774Y-99301898D01*
X202012795Y-99490256D01*
X202126063Y-99659774D01*
X202170000Y-99703711D01*
X202170000Y-100212677D01*
X202166324Y-100250000D01*
X202170000Y-100287322D01*
X202170000Y-100287332D01*
X202180997Y-100398985D01*
X202213087Y-100504774D01*
X202224454Y-100542246D01*
X202295026Y-100674276D01*
X202334871Y-100722826D01*
X202389999Y-100790001D01*
X202419002Y-100813803D01*
X203246201Y-101641003D01*
X203269999Y-101670001D01*
X203298997Y-101693799D01*
X203385723Y-101764974D01*
X203469390Y-101809695D01*
X203517753Y-101835546D01*
X203661014Y-101879003D01*
X203772667Y-101890000D01*
X203772677Y-101890000D01*
X203810000Y-101893676D01*
X203847323Y-101890000D01*
X204123827Y-101890000D01*
X204134053Y-101923709D01*
X204215542Y-102076164D01*
X204325208Y-102209792D01*
X204432500Y-102297845D01*
X204432501Y-103811928D01*
X203980000Y-103811928D01*
X203855518Y-103824188D01*
X203735820Y-103860498D01*
X203625506Y-103919463D01*
X203528815Y-103998815D01*
X203449463Y-104095506D01*
X203390498Y-104205820D01*
X203354188Y-104325518D01*
X203341928Y-104450000D01*
X203341928Y-106550000D01*
X203354188Y-106674482D01*
X203390498Y-106794180D01*
X203449463Y-106904494D01*
X203528815Y-107001185D01*
X203625506Y-107080537D01*
X203735820Y-107139502D01*
X203855518Y-107175812D01*
X203980000Y-107188072D01*
X206380000Y-107188072D01*
X206504482Y-107175812D01*
X206624180Y-107139502D01*
X206734494Y-107080537D01*
X206831185Y-107001185D01*
X206910537Y-106904494D01*
X206969502Y-106794180D01*
X207005812Y-106674482D01*
X207018072Y-106550000D01*
X211141928Y-106550000D01*
X211154188Y-106674482D01*
X211190498Y-106794180D01*
X211249463Y-106904494D01*
X211328815Y-107001185D01*
X211425506Y-107080537D01*
X211535820Y-107139502D01*
X211655518Y-107175812D01*
X211780000Y-107188072D01*
X212694250Y-107185000D01*
X212853000Y-107026250D01*
X212853000Y-105627000D01*
X213107000Y-105627000D01*
X213107000Y-107026250D01*
X213265750Y-107185000D01*
X214180000Y-107188072D01*
X214304482Y-107175812D01*
X214424180Y-107139502D01*
X214534494Y-107080537D01*
X214631185Y-107001185D01*
X214710537Y-106904494D01*
X214769502Y-106794180D01*
X214805812Y-106674482D01*
X214818072Y-106550000D01*
X214815000Y-105785750D01*
X214656250Y-105627000D01*
X213107000Y-105627000D01*
X212853000Y-105627000D01*
X211303750Y-105627000D01*
X211145000Y-105785750D01*
X211141928Y-106550000D01*
X207018072Y-106550000D01*
X207018072Y-104450000D01*
X211141928Y-104450000D01*
X211145000Y-105214250D01*
X211303750Y-105373000D01*
X212853000Y-105373000D01*
X212853000Y-103973750D01*
X213107000Y-103973750D01*
X213107000Y-105373000D01*
X214656250Y-105373000D01*
X214815000Y-105214250D01*
X214818072Y-104450000D01*
X214805812Y-104325518D01*
X214769502Y-104205820D01*
X214710537Y-104095506D01*
X214631185Y-103998815D01*
X214534494Y-103919463D01*
X214424180Y-103860498D01*
X214304482Y-103824188D01*
X214180000Y-103811928D01*
X213265750Y-103815000D01*
X213107000Y-103973750D01*
X212853000Y-103973750D01*
X212694250Y-103815000D01*
X211780000Y-103811928D01*
X211655518Y-103824188D01*
X211535820Y-103860498D01*
X211425506Y-103919463D01*
X211328815Y-103998815D01*
X211249463Y-104095506D01*
X211190498Y-104205820D01*
X211154188Y-104325518D01*
X211141928Y-104450000D01*
X207018072Y-104450000D01*
X207005812Y-104325518D01*
X206969502Y-104205820D01*
X206910537Y-104095506D01*
X206831185Y-103998815D01*
X206734494Y-103919463D01*
X206624180Y-103860498D01*
X206504482Y-103824188D01*
X206380000Y-103811928D01*
X205952500Y-103811928D01*
X205952500Y-102297845D01*
X206059792Y-102209792D01*
X206130000Y-102124244D01*
X206200208Y-102209792D01*
X206333836Y-102319458D01*
X206486291Y-102400947D01*
X206651715Y-102451128D01*
X206823750Y-102468072D01*
X207311250Y-102468072D01*
X207483285Y-102451128D01*
X207648709Y-102400947D01*
X207801164Y-102319458D01*
X207934792Y-102209792D01*
X208044458Y-102076164D01*
X208079596Y-102010425D01*
X208089744Y-102017205D01*
X208278102Y-102095226D01*
X208478061Y-102135000D01*
X208681939Y-102135000D01*
X208881898Y-102095226D01*
X209070256Y-102017205D01*
X209239774Y-101903937D01*
X209383937Y-101759774D01*
X209497205Y-101590256D01*
X209575226Y-101401898D01*
X209615000Y-101201939D01*
X209615000Y-100998061D01*
X209575226Y-100798102D01*
X209497205Y-100609744D01*
X209383937Y-100440226D01*
X209239774Y-100296063D01*
X209070256Y-100182795D01*
X208881898Y-100104774D01*
X208681939Y-100065000D01*
X208478061Y-100065000D01*
X208278102Y-100104774D01*
X208089744Y-100182795D01*
X208055966Y-100205365D01*
X208044458Y-100183836D01*
X207934792Y-100050208D01*
X207801164Y-99940542D01*
X207648709Y-99859053D01*
X207483285Y-99808872D01*
X207311250Y-99791928D01*
X206823750Y-99791928D01*
X206651715Y-99808872D01*
X206486291Y-99859053D01*
X206333836Y-99940542D01*
X206200208Y-100050208D01*
X206130000Y-100135756D01*
X206059792Y-100050208D01*
X205926164Y-99940542D01*
X205773709Y-99859053D01*
X205608285Y-99808872D01*
X205436250Y-99791928D01*
X204948750Y-99791928D01*
X204776715Y-99808872D01*
X204611291Y-99859053D01*
X204458836Y-99940542D01*
X204325208Y-100050208D01*
X204215542Y-100183836D01*
X204134053Y-100336291D01*
X204124054Y-100369252D01*
X203690000Y-99935199D01*
X203690000Y-99703711D01*
X203733937Y-99659774D01*
X203847205Y-99490256D01*
X203925226Y-99301898D01*
X203965000Y-99101939D01*
X203965000Y-98898061D01*
X203925226Y-98698102D01*
X203847205Y-98509744D01*
X203733937Y-98340226D01*
X203589774Y-98196063D01*
X203420256Y-98082795D01*
X203231898Y-98004774D01*
X203031939Y-97965000D01*
X202828061Y-97965000D01*
X202628102Y-98004774D01*
X202439744Y-98082795D01*
X202270226Y-98196063D01*
X202126063Y-98340226D01*
X202012795Y-98509744D01*
X201934774Y-98698102D01*
X201895000Y-98898061D01*
X192830876Y-98898061D01*
X192808817Y-98871183D01*
X192674059Y-98760589D01*
X192520313Y-98678411D01*
X192353490Y-98627805D01*
X192223477Y-98615000D01*
X192223469Y-98615000D01*
X192180000Y-98610719D01*
X192136531Y-98615000D01*
X191065000Y-98615000D01*
X191065000Y-94760000D01*
X191172462Y-94760000D01*
X191145000Y-94898061D01*
X191145000Y-95101939D01*
X191184774Y-95301898D01*
X191262795Y-95490256D01*
X191376063Y-95659774D01*
X191466289Y-95750000D01*
X191376063Y-95840226D01*
X191262795Y-96009744D01*
X191184774Y-96198102D01*
X191145000Y-96398061D01*
X191145000Y-96601939D01*
X191184774Y-96801898D01*
X191262795Y-96990256D01*
X191376063Y-97159774D01*
X191520226Y-97303937D01*
X191689744Y-97417205D01*
X191878102Y-97495226D01*
X192078061Y-97535000D01*
X192281939Y-97535000D01*
X192481898Y-97495226D01*
X192670256Y-97417205D01*
X192839774Y-97303937D01*
X192883711Y-97260000D01*
X211392678Y-97260000D01*
X211430000Y-97263676D01*
X211467322Y-97260000D01*
X211467333Y-97260000D01*
X211578986Y-97249003D01*
X211722247Y-97205546D01*
X211854276Y-97134974D01*
X211970001Y-97040001D01*
X211993804Y-97010997D01*
X214994802Y-94010000D01*
X215864990Y-94010000D01*
X215840498Y-94055820D01*
X215804188Y-94175518D01*
X215791928Y-94300000D01*
X215791928Y-95200000D01*
X215804188Y-95324482D01*
X215840498Y-95444180D01*
X215899463Y-95554494D01*
X215978815Y-95651185D01*
X216075506Y-95730537D01*
X216185820Y-95789502D01*
X216305518Y-95825812D01*
X216430000Y-95838072D01*
X217930000Y-95838072D01*
X218054482Y-95825812D01*
X218174180Y-95789502D01*
X218284494Y-95730537D01*
X218381185Y-95651185D01*
X218460537Y-95554494D01*
X218484320Y-95510000D01*
X222145000Y-95510000D01*
X222145000Y-95701939D01*
X222184774Y-95901898D01*
X222262795Y-96090256D01*
X222376063Y-96259774D01*
X222420001Y-96303712D01*
X222420000Y-102962677D01*
X222416324Y-103000000D01*
X222420000Y-103037322D01*
X222420000Y-103037332D01*
X222430997Y-103148985D01*
X222458427Y-103239411D01*
X222474454Y-103292246D01*
X222545026Y-103424276D01*
X222584206Y-103472017D01*
X222639999Y-103540001D01*
X222669003Y-103563804D01*
X225428701Y-106323503D01*
X225452499Y-106352501D01*
X225568224Y-106447474D01*
X225700253Y-106518046D01*
X225843514Y-106561503D01*
X225955167Y-106572500D01*
X225955175Y-106572500D01*
X225992500Y-106576176D01*
X226029825Y-106572500D01*
X226512155Y-106572500D01*
X226600208Y-106679792D01*
X226685756Y-106750000D01*
X226600208Y-106820208D01*
X226490542Y-106953836D01*
X226409053Y-107106291D01*
X226358872Y-107271715D01*
X226341928Y-107443750D01*
X226341928Y-107931250D01*
X226358872Y-108103285D01*
X226409053Y-108268709D01*
X226490542Y-108421164D01*
X226600208Y-108554792D01*
X226733836Y-108664458D01*
X226886291Y-108745947D01*
X226920001Y-108756173D01*
X226920001Y-108796288D01*
X226876063Y-108840226D01*
X226762795Y-109009744D01*
X226684774Y-109198102D01*
X226645000Y-109398061D01*
X226645000Y-109601939D01*
X226684774Y-109801898D01*
X226762795Y-109990256D01*
X226876063Y-110159774D01*
X227020226Y-110303937D01*
X227189744Y-110417205D01*
X227378102Y-110495226D01*
X227578061Y-110535000D01*
X227781939Y-110535000D01*
X227981898Y-110495226D01*
X228170256Y-110417205D01*
X228339774Y-110303937D01*
X228483937Y-110159774D01*
X228597205Y-109990256D01*
X228650565Y-109861435D01*
X228660498Y-109894180D01*
X228719463Y-110004494D01*
X228798815Y-110101185D01*
X228895506Y-110180537D01*
X229005820Y-110239502D01*
X229125518Y-110275812D01*
X229250000Y-110288072D01*
X229739250Y-110285000D01*
X229898000Y-110126250D01*
X229898000Y-109127000D01*
X230152000Y-109127000D01*
X230152000Y-110126250D01*
X230310750Y-110285000D01*
X230800000Y-110288072D01*
X230924482Y-110275812D01*
X231044180Y-110239502D01*
X231154494Y-110180537D01*
X231251185Y-110101185D01*
X231330537Y-110004494D01*
X231389502Y-109894180D01*
X231425812Y-109774482D01*
X231438072Y-109650000D01*
X236561928Y-109650000D01*
X236574188Y-109774482D01*
X236610498Y-109894180D01*
X236669463Y-110004494D01*
X236748815Y-110101185D01*
X236845506Y-110180537D01*
X236955820Y-110239502D01*
X237075518Y-110275812D01*
X237200000Y-110288072D01*
X237689250Y-110285000D01*
X237848000Y-110126250D01*
X237848000Y-109127000D01*
X238102000Y-109127000D01*
X238102000Y-110126250D01*
X238260750Y-110285000D01*
X238750000Y-110288072D01*
X238874482Y-110275812D01*
X238994180Y-110239502D01*
X239104494Y-110180537D01*
X239201185Y-110101185D01*
X239280537Y-110004494D01*
X239339502Y-109894180D01*
X239375812Y-109774482D01*
X239388072Y-109650000D01*
X239385000Y-109285750D01*
X239226250Y-109127000D01*
X238102000Y-109127000D01*
X237848000Y-109127000D01*
X236723750Y-109127000D01*
X236565000Y-109285750D01*
X236561928Y-109650000D01*
X231438072Y-109650000D01*
X231435000Y-109285750D01*
X231276250Y-109127000D01*
X230152000Y-109127000D01*
X229898000Y-109127000D01*
X228773750Y-109127000D01*
X228679776Y-109220974D01*
X228675226Y-109198102D01*
X228597205Y-109009744D01*
X228483937Y-108840226D01*
X228440000Y-108796289D01*
X228440000Y-108756173D01*
X228473709Y-108745947D01*
X228614632Y-108670622D01*
X228615000Y-108714250D01*
X228773750Y-108873000D01*
X229898000Y-108873000D01*
X229898000Y-107873750D01*
X230152000Y-107873750D01*
X230152000Y-108873000D01*
X231276250Y-108873000D01*
X231435000Y-108714250D01*
X231438072Y-108350000D01*
X236561928Y-108350000D01*
X236565000Y-108714250D01*
X236723750Y-108873000D01*
X237848000Y-108873000D01*
X237848000Y-107873750D01*
X238102000Y-107873750D01*
X238102000Y-108873000D01*
X239226250Y-108873000D01*
X239385000Y-108714250D01*
X239388072Y-108350000D01*
X239375812Y-108225518D01*
X239339502Y-108105820D01*
X239280537Y-107995506D01*
X239201185Y-107898815D01*
X239104494Y-107819463D01*
X238994180Y-107760498D01*
X238874482Y-107724188D01*
X238750000Y-107711928D01*
X238260750Y-107715000D01*
X238102000Y-107873750D01*
X237848000Y-107873750D01*
X237689250Y-107715000D01*
X237200000Y-107711928D01*
X237075518Y-107724188D01*
X236955820Y-107760498D01*
X236845506Y-107819463D01*
X236748815Y-107898815D01*
X236669463Y-107995506D01*
X236610498Y-108105820D01*
X236574188Y-108225518D01*
X236561928Y-108350000D01*
X231438072Y-108350000D01*
X231425812Y-108225518D01*
X231389502Y-108105820D01*
X231330537Y-107995506D01*
X231251185Y-107898815D01*
X231154494Y-107819463D01*
X231044180Y-107760498D01*
X230924482Y-107724188D01*
X230800000Y-107711928D01*
X230310750Y-107715000D01*
X230152000Y-107873750D01*
X229898000Y-107873750D01*
X229739250Y-107715000D01*
X229250000Y-107711928D01*
X229125518Y-107724188D01*
X229018072Y-107756781D01*
X229018072Y-107443750D01*
X229001128Y-107271715D01*
X228950947Y-107106291D01*
X228869458Y-106953836D01*
X228759792Y-106820208D01*
X228674244Y-106750000D01*
X228759792Y-106679792D01*
X228869458Y-106546164D01*
X228950947Y-106393709D01*
X229001128Y-106228285D01*
X229018072Y-106056250D01*
X229018072Y-105743219D01*
X229125518Y-105775812D01*
X229250000Y-105788072D01*
X230800000Y-105788072D01*
X230924482Y-105775812D01*
X231044180Y-105739502D01*
X231154494Y-105680537D01*
X231251185Y-105601185D01*
X231330537Y-105504494D01*
X231389502Y-105394180D01*
X231425812Y-105274482D01*
X231427238Y-105260000D01*
X236572762Y-105260000D01*
X236574188Y-105274482D01*
X236610498Y-105394180D01*
X236669463Y-105504494D01*
X236748815Y-105601185D01*
X236845506Y-105680537D01*
X236955820Y-105739502D01*
X237075518Y-105775812D01*
X237200000Y-105788072D01*
X238750000Y-105788072D01*
X238874482Y-105775812D01*
X238994180Y-105739502D01*
X239104494Y-105680537D01*
X239201185Y-105601185D01*
X239280537Y-105504494D01*
X239339502Y-105394180D01*
X239375812Y-105274482D01*
X239388072Y-105150000D01*
X239388072Y-103850000D01*
X239375812Y-103725518D01*
X239339502Y-103605820D01*
X239280537Y-103495506D01*
X239201185Y-103398815D01*
X239104494Y-103319463D01*
X238994180Y-103260498D01*
X238874482Y-103224188D01*
X238750000Y-103211928D01*
X237200000Y-103211928D01*
X237075518Y-103224188D01*
X236955820Y-103260498D01*
X236845506Y-103319463D01*
X236748815Y-103398815D01*
X236669463Y-103495506D01*
X236610498Y-103605820D01*
X236574188Y-103725518D01*
X236572762Y-103740000D01*
X231427238Y-103740000D01*
X231425812Y-103725518D01*
X231389502Y-103605820D01*
X231330537Y-103495506D01*
X231251185Y-103398815D01*
X231154494Y-103319463D01*
X231044180Y-103260498D01*
X230924482Y-103224188D01*
X230800000Y-103211928D01*
X229250000Y-103211928D01*
X229125518Y-103224188D01*
X229005820Y-103260498D01*
X228895506Y-103319463D01*
X228798815Y-103398815D01*
X228719463Y-103495506D01*
X228660498Y-103605820D01*
X228624188Y-103725518D01*
X228622762Y-103740000D01*
X228217325Y-103740000D01*
X228180000Y-103736324D01*
X228142675Y-103740000D01*
X228142667Y-103740000D01*
X228031014Y-103750997D01*
X227887753Y-103794454D01*
X227755724Y-103865026D01*
X227639999Y-103959999D01*
X227616196Y-103989003D01*
X227168998Y-104436201D01*
X227140000Y-104459999D01*
X227116202Y-104488997D01*
X227116201Y-104488998D01*
X227045026Y-104575724D01*
X226974454Y-104707754D01*
X226967921Y-104729291D01*
X226886291Y-104754053D01*
X226733836Y-104835542D01*
X226600208Y-104945208D01*
X226512155Y-105052500D01*
X226307302Y-105052500D01*
X223940000Y-102685199D01*
X223940000Y-97507538D01*
X224078061Y-97535000D01*
X224281939Y-97535000D01*
X224481898Y-97495226D01*
X224670256Y-97417205D01*
X224670370Y-97417129D01*
X224689673Y-97430026D01*
X224878031Y-97508047D01*
X225077990Y-97547821D01*
X225281868Y-97547821D01*
X225481827Y-97508047D01*
X225670185Y-97430026D01*
X225689553Y-97417085D01*
X225689744Y-97417213D01*
X225878102Y-97495234D01*
X226078061Y-97535008D01*
X226281939Y-97535008D01*
X226481898Y-97495234D01*
X226670256Y-97417213D01*
X226680006Y-97410698D01*
X226689744Y-97417205D01*
X226878102Y-97495226D01*
X227078061Y-97535000D01*
X227281939Y-97535000D01*
X227481898Y-97495226D01*
X227670256Y-97417205D01*
X227839774Y-97303937D01*
X227983937Y-97159774D01*
X228097205Y-96990256D01*
X228175226Y-96801898D01*
X228215000Y-96601939D01*
X228215000Y-96398061D01*
X228175226Y-96198102D01*
X228097205Y-96009744D01*
X227983937Y-95840226D01*
X227940000Y-95796289D01*
X227940000Y-95254491D01*
X227943677Y-95217158D01*
X227929003Y-95068172D01*
X227885546Y-94924911D01*
X227814974Y-94792882D01*
X227771452Y-94739850D01*
X227720001Y-94677157D01*
X227691004Y-94653360D01*
X227365716Y-94328072D01*
X228605000Y-94328072D01*
X228729482Y-94315812D01*
X228849180Y-94279502D01*
X228959494Y-94220537D01*
X229056185Y-94141185D01*
X229135537Y-94044494D01*
X229194502Y-93934180D01*
X229230812Y-93814482D01*
X229243072Y-93690000D01*
X229243072Y-93090000D01*
X229230812Y-92965518D01*
X229194502Y-92845820D01*
X229145957Y-92755000D01*
X229194502Y-92664180D01*
X229230812Y-92544482D01*
X229243072Y-92420000D01*
X229243072Y-91820000D01*
X229230812Y-91695518D01*
X229194502Y-91575820D01*
X229145957Y-91485000D01*
X229194502Y-91394180D01*
X229230812Y-91274482D01*
X229243072Y-91150000D01*
X229243072Y-90550000D01*
X229230812Y-90425518D01*
X229194502Y-90305820D01*
X229145957Y-90215000D01*
X229194502Y-90124180D01*
X229230812Y-90004482D01*
X229243072Y-89880000D01*
X229243072Y-89280000D01*
X229230812Y-89155518D01*
X229194502Y-89035820D01*
X229145957Y-88945000D01*
X229194502Y-88854180D01*
X229230812Y-88734482D01*
X229243072Y-88610000D01*
X229243072Y-88010000D01*
X229230812Y-87885518D01*
X229194502Y-87765820D01*
X229145957Y-87675000D01*
X229194502Y-87584180D01*
X229230812Y-87464482D01*
X229243072Y-87340000D01*
X229243072Y-86768095D01*
X229328059Y-86785000D01*
X229446928Y-86785000D01*
X229446928Y-86956250D01*
X229463872Y-87128285D01*
X229514053Y-87293709D01*
X229595542Y-87446164D01*
X229705208Y-87579792D01*
X229812500Y-87667845D01*
X229812500Y-87832155D01*
X229705208Y-87920208D01*
X229595542Y-88053836D01*
X229514053Y-88206291D01*
X229463872Y-88371715D01*
X229446928Y-88543750D01*
X229446928Y-89456250D01*
X229463872Y-89628285D01*
X229514053Y-89793709D01*
X229595542Y-89946164D01*
X229705208Y-90079792D01*
X229812500Y-90167845D01*
X229812500Y-90332155D01*
X229705208Y-90420208D01*
X229595542Y-90553836D01*
X229514053Y-90706291D01*
X229463872Y-90871715D01*
X229446928Y-91043750D01*
X229446928Y-91956250D01*
X229463872Y-92128285D01*
X229514053Y-92293709D01*
X229595542Y-92446164D01*
X229705208Y-92579792D01*
X229812500Y-92667845D01*
X229812501Y-92832155D01*
X229705208Y-92920208D01*
X229595542Y-93053836D01*
X229514053Y-93206291D01*
X229463872Y-93371715D01*
X229446928Y-93543750D01*
X229446928Y-94456250D01*
X229463872Y-94628285D01*
X229514053Y-94793709D01*
X229595542Y-94946164D01*
X229705208Y-95079792D01*
X229812501Y-95167845D01*
X229812501Y-95332155D01*
X229705208Y-95420208D01*
X229595542Y-95553836D01*
X229514053Y-95706291D01*
X229463872Y-95871715D01*
X229446928Y-96043750D01*
X229446928Y-96956250D01*
X229463872Y-97128285D01*
X229514053Y-97293709D01*
X229595542Y-97446164D01*
X229705208Y-97579792D01*
X229812501Y-97667845D01*
X229812501Y-97832155D01*
X229705208Y-97920208D01*
X229595542Y-98053836D01*
X229514053Y-98206291D01*
X229463872Y-98371715D01*
X229446928Y-98543750D01*
X229446928Y-99456250D01*
X229463872Y-99628285D01*
X229514053Y-99793709D01*
X229595542Y-99946164D01*
X229705208Y-100079792D01*
X229812501Y-100167845D01*
X229812501Y-100332155D01*
X229705208Y-100420208D01*
X229595542Y-100553836D01*
X229514053Y-100706291D01*
X229503827Y-100740000D01*
X228883711Y-100740000D01*
X228839774Y-100696063D01*
X228670256Y-100582795D01*
X228481898Y-100504774D01*
X228281939Y-100465000D01*
X228078061Y-100465000D01*
X227878102Y-100504774D01*
X227689744Y-100582795D01*
X227520226Y-100696063D01*
X227376063Y-100840226D01*
X227262795Y-101009744D01*
X227184774Y-101198102D01*
X227145000Y-101398061D01*
X227145000Y-101601939D01*
X227184774Y-101801898D01*
X227262795Y-101990256D01*
X227376063Y-102159774D01*
X227520226Y-102303937D01*
X227689744Y-102417205D01*
X227878102Y-102495226D01*
X228078061Y-102535000D01*
X228281939Y-102535000D01*
X228481898Y-102495226D01*
X228670256Y-102417205D01*
X228839774Y-102303937D01*
X228883711Y-102260000D01*
X229503827Y-102260000D01*
X229514053Y-102293709D01*
X229595542Y-102446164D01*
X229705208Y-102579792D01*
X229838836Y-102689458D01*
X229991291Y-102770947D01*
X230156715Y-102821128D01*
X230328750Y-102838072D01*
X230816250Y-102838072D01*
X230988285Y-102821128D01*
X231153709Y-102770947D01*
X231306164Y-102689458D01*
X231439792Y-102579792D01*
X231510000Y-102494244D01*
X231580208Y-102579792D01*
X231713836Y-102689458D01*
X231866291Y-102770947D01*
X232031715Y-102821128D01*
X232203750Y-102838072D01*
X232691250Y-102838072D01*
X232863285Y-102821128D01*
X233028709Y-102770947D01*
X233181164Y-102689458D01*
X233314792Y-102579792D01*
X233424458Y-102446164D01*
X233505947Y-102293709D01*
X233508615Y-102284914D01*
X233566595Y-102393386D01*
X233677038Y-102527962D01*
X233811614Y-102638405D01*
X233965150Y-102720472D01*
X234131746Y-102771008D01*
X234305000Y-102788072D01*
X235130000Y-102788072D01*
X235303254Y-102771008D01*
X235469850Y-102720472D01*
X235623386Y-102638405D01*
X235680000Y-102591943D01*
X235736614Y-102638405D01*
X235890150Y-102720472D01*
X236056746Y-102771008D01*
X236230000Y-102788072D01*
X237055000Y-102788072D01*
X237228254Y-102771008D01*
X237394850Y-102720472D01*
X237548386Y-102638405D01*
X237682962Y-102527962D01*
X237793405Y-102393386D01*
X237864702Y-102260000D01*
X237976289Y-102260000D01*
X238020226Y-102303937D01*
X238189744Y-102417205D01*
X238378102Y-102495226D01*
X238578061Y-102535000D01*
X238781939Y-102535000D01*
X238981898Y-102495226D01*
X239170256Y-102417205D01*
X239339774Y-102303937D01*
X239483937Y-102159774D01*
X239597205Y-101990256D01*
X239675226Y-101801898D01*
X239715000Y-101601939D01*
X239715000Y-101398061D01*
X239675226Y-101198102D01*
X239597205Y-101009744D01*
X239483937Y-100840226D01*
X239339774Y-100696063D01*
X239170256Y-100582795D01*
X238981898Y-100504774D01*
X238781939Y-100465000D01*
X238578061Y-100465000D01*
X238378102Y-100504774D01*
X238189744Y-100582795D01*
X238020226Y-100696063D01*
X237976289Y-100740000D01*
X237864702Y-100740000D01*
X237793405Y-100606614D01*
X237682962Y-100472038D01*
X237548386Y-100361595D01*
X237394850Y-100279528D01*
X237278759Y-100244312D01*
X237357350Y-100220472D01*
X237510886Y-100138405D01*
X237645462Y-100027962D01*
X237755905Y-99893386D01*
X237827202Y-99760000D01*
X237976289Y-99760000D01*
X238020226Y-99803937D01*
X238189744Y-99917205D01*
X238378102Y-99995226D01*
X238578061Y-100035000D01*
X238781939Y-100035000D01*
X238981898Y-99995226D01*
X239170256Y-99917205D01*
X239339774Y-99803937D01*
X239483937Y-99659774D01*
X239597205Y-99490256D01*
X239675226Y-99301898D01*
X239715000Y-99101939D01*
X239715000Y-98898061D01*
X239675226Y-98698102D01*
X239597205Y-98509744D01*
X239483937Y-98340226D01*
X239339774Y-98196063D01*
X239170256Y-98082795D01*
X238981898Y-98004774D01*
X238781939Y-97965000D01*
X238578061Y-97965000D01*
X238378102Y-98004774D01*
X238189744Y-98082795D01*
X238020226Y-98196063D01*
X237976289Y-98240000D01*
X237827202Y-98240000D01*
X237755905Y-98106614D01*
X237645462Y-97972038D01*
X237510886Y-97861595D01*
X237357350Y-97779528D01*
X237260009Y-97750000D01*
X237357350Y-97720472D01*
X237510886Y-97638405D01*
X237645462Y-97527962D01*
X237755905Y-97393386D01*
X237827202Y-97260000D01*
X237976289Y-97260000D01*
X238020226Y-97303937D01*
X238189744Y-97417205D01*
X238378102Y-97495226D01*
X238578061Y-97535000D01*
X238781939Y-97535000D01*
X238981898Y-97495226D01*
X239170256Y-97417205D01*
X239339774Y-97303937D01*
X239483937Y-97159774D01*
X239597205Y-96990256D01*
X239675226Y-96801898D01*
X239715000Y-96601939D01*
X239715000Y-96398061D01*
X239675226Y-96198102D01*
X239597205Y-96009744D01*
X239483937Y-95840226D01*
X239339774Y-95696063D01*
X239170256Y-95582795D01*
X238981898Y-95504774D01*
X238781939Y-95465000D01*
X238578061Y-95465000D01*
X238378102Y-95504774D01*
X238189744Y-95582795D01*
X238020226Y-95696063D01*
X237976289Y-95740000D01*
X237827202Y-95740000D01*
X237755905Y-95606614D01*
X237645462Y-95472038D01*
X237510886Y-95361595D01*
X237357350Y-95279528D01*
X237260009Y-95250000D01*
X237357350Y-95220472D01*
X237510886Y-95138405D01*
X237645462Y-95027962D01*
X237755905Y-94893386D01*
X237827202Y-94760000D01*
X237976289Y-94760000D01*
X238020226Y-94803937D01*
X238189744Y-94917205D01*
X238378102Y-94995226D01*
X238578061Y-95035000D01*
X238781939Y-95035000D01*
X238981898Y-94995226D01*
X239170256Y-94917205D01*
X239339774Y-94803937D01*
X239483937Y-94659774D01*
X239597205Y-94490256D01*
X239675226Y-94301898D01*
X239715000Y-94101939D01*
X239715000Y-93898061D01*
X239675226Y-93698102D01*
X239597205Y-93509744D01*
X239483937Y-93340226D01*
X239339774Y-93196063D01*
X239170256Y-93082795D01*
X238981898Y-93004774D01*
X238781939Y-92965000D01*
X238578061Y-92965000D01*
X238378102Y-93004774D01*
X238189744Y-93082795D01*
X238020226Y-93196063D01*
X237976289Y-93240000D01*
X237827202Y-93240000D01*
X237755905Y-93106614D01*
X237645462Y-92972038D01*
X237510886Y-92861595D01*
X237357350Y-92779528D01*
X237260009Y-92750000D01*
X237357350Y-92720472D01*
X237510886Y-92638405D01*
X237645462Y-92527962D01*
X237755905Y-92393386D01*
X237827202Y-92260000D01*
X237976289Y-92260000D01*
X238020226Y-92303937D01*
X238189744Y-92417205D01*
X238378102Y-92495226D01*
X238578061Y-92535000D01*
X238781939Y-92535000D01*
X238981898Y-92495226D01*
X239170256Y-92417205D01*
X239339774Y-92303937D01*
X239483937Y-92159774D01*
X239597205Y-91990256D01*
X239675226Y-91801898D01*
X239715000Y-91601939D01*
X239715000Y-91398061D01*
X239675226Y-91198102D01*
X239597205Y-91009744D01*
X239483937Y-90840226D01*
X239339774Y-90696063D01*
X239170256Y-90582795D01*
X238981898Y-90504774D01*
X238781939Y-90465000D01*
X238578061Y-90465000D01*
X238378102Y-90504774D01*
X238189744Y-90582795D01*
X238020226Y-90696063D01*
X237976289Y-90740000D01*
X237827202Y-90740000D01*
X237755905Y-90606614D01*
X237645462Y-90472038D01*
X237510886Y-90361595D01*
X237357350Y-90279528D01*
X237278759Y-90255688D01*
X237394850Y-90220472D01*
X237548386Y-90138405D01*
X237682962Y-90027962D01*
X237793405Y-89893386D01*
X237864702Y-89760000D01*
X237976289Y-89760000D01*
X238020226Y-89803937D01*
X238189744Y-89917205D01*
X238378102Y-89995226D01*
X238578061Y-90035000D01*
X238781939Y-90035000D01*
X238981898Y-89995226D01*
X239170256Y-89917205D01*
X239339774Y-89803937D01*
X239483937Y-89659774D01*
X239597205Y-89490256D01*
X239675226Y-89301898D01*
X239715000Y-89101939D01*
X239715000Y-88898061D01*
X239675226Y-88698102D01*
X239597205Y-88509744D01*
X239483937Y-88340226D01*
X239339774Y-88196063D01*
X239170256Y-88082795D01*
X238981898Y-88004774D01*
X238781939Y-87965000D01*
X238578061Y-87965000D01*
X238378102Y-88004774D01*
X238189744Y-88082795D01*
X238020226Y-88196063D01*
X237976289Y-88240000D01*
X237864702Y-88240000D01*
X237793405Y-88106614D01*
X237682962Y-87972038D01*
X237548386Y-87861595D01*
X237394850Y-87779528D01*
X237297509Y-87750000D01*
X237394850Y-87720472D01*
X237548386Y-87638405D01*
X237682962Y-87527962D01*
X237793405Y-87393386D01*
X237864702Y-87260000D01*
X237976289Y-87260000D01*
X238020226Y-87303937D01*
X238189744Y-87417205D01*
X238378102Y-87495226D01*
X238578061Y-87535000D01*
X238781939Y-87535000D01*
X238981898Y-87495226D01*
X239170256Y-87417205D01*
X239339774Y-87303937D01*
X239483937Y-87159774D01*
X239597205Y-86990256D01*
X239675226Y-86801898D01*
X239715000Y-86601939D01*
X239715000Y-86398061D01*
X239675226Y-86198102D01*
X239597205Y-86009744D01*
X239483937Y-85840226D01*
X239339774Y-85696063D01*
X239170256Y-85582795D01*
X238981898Y-85504774D01*
X238781939Y-85465000D01*
X238578061Y-85465000D01*
X238378102Y-85504774D01*
X238189744Y-85582795D01*
X238020226Y-85696063D01*
X237976289Y-85740000D01*
X237864702Y-85740000D01*
X237793405Y-85606614D01*
X237682962Y-85472038D01*
X237548386Y-85361595D01*
X237394850Y-85279528D01*
X237297509Y-85250000D01*
X237394850Y-85220472D01*
X237548386Y-85138405D01*
X237682962Y-85027962D01*
X237793405Y-84893386D01*
X237864702Y-84760000D01*
X237976289Y-84760000D01*
X238020226Y-84803937D01*
X238189744Y-84917205D01*
X238378102Y-84995226D01*
X238578061Y-85035000D01*
X238781939Y-85035000D01*
X238981898Y-84995226D01*
X239170256Y-84917205D01*
X239339774Y-84803937D01*
X239483937Y-84659774D01*
X239597205Y-84490256D01*
X239675226Y-84301898D01*
X239715000Y-84101939D01*
X239715000Y-83898061D01*
X239675226Y-83698102D01*
X239597205Y-83509744D01*
X239483937Y-83340226D01*
X239339774Y-83196063D01*
X239170256Y-83082795D01*
X238981898Y-83004774D01*
X238781939Y-82965000D01*
X238578061Y-82965000D01*
X238378102Y-83004774D01*
X238189744Y-83082795D01*
X238020226Y-83196063D01*
X237976289Y-83240000D01*
X237864702Y-83240000D01*
X237793405Y-83106614D01*
X237682962Y-82972038D01*
X237548386Y-82861595D01*
X237394850Y-82779528D01*
X237228254Y-82728992D01*
X237055000Y-82711928D01*
X236230000Y-82711928D01*
X236056746Y-82728992D01*
X235890150Y-82779528D01*
X235736614Y-82861595D01*
X235680000Y-82908057D01*
X235623386Y-82861595D01*
X235469850Y-82779528D01*
X235303254Y-82728992D01*
X235130000Y-82711928D01*
X234305000Y-82711928D01*
X234131746Y-82728992D01*
X233965150Y-82779528D01*
X233811614Y-82861595D01*
X233677038Y-82972038D01*
X233566595Y-83106614D01*
X233508615Y-83215086D01*
X233505947Y-83206291D01*
X233424458Y-83053836D01*
X233314792Y-82920208D01*
X233181164Y-82810542D01*
X233028709Y-82729053D01*
X232863285Y-82678872D01*
X232691250Y-82661928D01*
X232203750Y-82661928D01*
X232031715Y-82678872D01*
X231866291Y-82729053D01*
X231713836Y-82810542D01*
X231580208Y-82920208D01*
X231510000Y-83005756D01*
X231439792Y-82920208D01*
X231306164Y-82810542D01*
X231153709Y-82729053D01*
X230988285Y-82678872D01*
X230816250Y-82661928D01*
X230328750Y-82661928D01*
X230156715Y-82678872D01*
X229991291Y-82729053D01*
X229838836Y-82810542D01*
X229705208Y-82920208D01*
X229595542Y-83053836D01*
X229514053Y-83206291D01*
X229463872Y-83371715D01*
X229446928Y-83543750D01*
X229446928Y-84456250D01*
X229463872Y-84628285D01*
X229490177Y-84715000D01*
X229328059Y-84715000D01*
X229243072Y-84731905D01*
X229243072Y-84200000D01*
X229230812Y-84075518D01*
X229194502Y-83955820D01*
X229135537Y-83845506D01*
X229056185Y-83748815D01*
X228959494Y-83669463D01*
X228849180Y-83610498D01*
X228729482Y-83574188D01*
X228605000Y-83561928D01*
X228590000Y-83561928D01*
X228590000Y-82687323D01*
X228593676Y-82650000D01*
X228590000Y-82612677D01*
X228590000Y-82612668D01*
X228579003Y-82501015D01*
X228535546Y-82357754D01*
X228535546Y-82357753D01*
X228464974Y-82225724D01*
X228393799Y-82138997D01*
X228370001Y-82109999D01*
X228341002Y-82086200D01*
X227743803Y-81489002D01*
X227720001Y-81459999D01*
X227604276Y-81365026D01*
X227472247Y-81294454D01*
X227328986Y-81250997D01*
X227217333Y-81240000D01*
X227217322Y-81240000D01*
X227180000Y-81236324D01*
X227142678Y-81240000D01*
X221383711Y-81240000D01*
X221339774Y-81196063D01*
X221170256Y-81082795D01*
X220981898Y-81004774D01*
X220781939Y-80965000D01*
X220578061Y-80965000D01*
X220378102Y-81004774D01*
X220189744Y-81082795D01*
X220020226Y-81196063D01*
X219876063Y-81340226D01*
X219762795Y-81509744D01*
X219684774Y-81698102D01*
X219645000Y-81898061D01*
X219645000Y-82101939D01*
X219684774Y-82301898D01*
X219762795Y-82490256D01*
X219876063Y-82659774D01*
X220020226Y-82803937D01*
X220189744Y-82917205D01*
X220378102Y-82995226D01*
X220578061Y-83035000D01*
X220781939Y-83035000D01*
X220981898Y-82995226D01*
X221170256Y-82917205D01*
X221339774Y-82803937D01*
X221383711Y-82760000D01*
X226865199Y-82760000D01*
X227070001Y-82964803D01*
X227070001Y-83561928D01*
X227055000Y-83561928D01*
X226930518Y-83574188D01*
X226810820Y-83610498D01*
X226700506Y-83669463D01*
X226603815Y-83748815D01*
X226524463Y-83845506D01*
X226465498Y-83955820D01*
X226429188Y-84075518D01*
X226416928Y-84200000D01*
X226416928Y-84800000D01*
X226429188Y-84924482D01*
X226465498Y-85044180D01*
X226514043Y-85135000D01*
X226465498Y-85225820D01*
X226429188Y-85345518D01*
X226416928Y-85470000D01*
X226416928Y-86070000D01*
X226429188Y-86194482D01*
X226455130Y-86280000D01*
X225177322Y-86280000D01*
X225139999Y-86276324D01*
X225102677Y-86280000D01*
X225102667Y-86280000D01*
X224991014Y-86290997D01*
X224853222Y-86332795D01*
X224847753Y-86334454D01*
X224715723Y-86405026D01*
X224666399Y-86445506D01*
X224599999Y-86499999D01*
X224576201Y-86528997D01*
X223843072Y-87262127D01*
X223843072Y-86740000D01*
X223830812Y-86615518D01*
X223794502Y-86495820D01*
X223745957Y-86405000D01*
X223794502Y-86314180D01*
X223830812Y-86194482D01*
X223843072Y-86070000D01*
X223843072Y-85470000D01*
X223830812Y-85345518D01*
X223794502Y-85225820D01*
X223745957Y-85135000D01*
X223794502Y-85044180D01*
X223830812Y-84924482D01*
X223843072Y-84800000D01*
X223843072Y-84200000D01*
X223830812Y-84075518D01*
X223794502Y-83955820D01*
X223735537Y-83845506D01*
X223656185Y-83748815D01*
X223559494Y-83669463D01*
X223449180Y-83610498D01*
X223329482Y-83574188D01*
X223205000Y-83561928D01*
X221655000Y-83561928D01*
X221530518Y-83574188D01*
X221410820Y-83610498D01*
X221300506Y-83669463D01*
X221300263Y-83669663D01*
X221170256Y-83582795D01*
X220981898Y-83504774D01*
X220781939Y-83465000D01*
X220578061Y-83465000D01*
X220378102Y-83504774D01*
X220189744Y-83582795D01*
X220020226Y-83696063D01*
X219876063Y-83840226D01*
X219762795Y-84009744D01*
X219684774Y-84198102D01*
X219645000Y-84398061D01*
X219645000Y-84601939D01*
X219684774Y-84801898D01*
X219762795Y-84990256D01*
X219859510Y-85135000D01*
X219762795Y-85279744D01*
X219684774Y-85468102D01*
X219645000Y-85668061D01*
X219645000Y-85871939D01*
X219684774Y-86071898D01*
X219762795Y-86260256D01*
X219859510Y-86405000D01*
X219762795Y-86549744D01*
X219684774Y-86738102D01*
X219645000Y-86938061D01*
X219645000Y-87141939D01*
X219684774Y-87341898D01*
X219762795Y-87530256D01*
X219859510Y-87675000D01*
X219762795Y-87819744D01*
X219738501Y-87878395D01*
X219670256Y-87832795D01*
X219481898Y-87754774D01*
X219281939Y-87715000D01*
X219078061Y-87715000D01*
X218878102Y-87754774D01*
X218689744Y-87832795D01*
X218520226Y-87946063D01*
X218516508Y-87949781D01*
X218519502Y-87944180D01*
X218555812Y-87824482D01*
X218568072Y-87700000D01*
X218568072Y-86800000D01*
X218555812Y-86675518D01*
X218519502Y-86555820D01*
X218489665Y-86500000D01*
X218519502Y-86444180D01*
X218555812Y-86324482D01*
X218568072Y-86200000D01*
X218568072Y-85300000D01*
X218555812Y-85175518D01*
X218519502Y-85055820D01*
X218489665Y-85000000D01*
X218519502Y-84944180D01*
X218555812Y-84824482D01*
X218568072Y-84700000D01*
X218568072Y-83800000D01*
X218555812Y-83675518D01*
X218519502Y-83555820D01*
X218489665Y-83500000D01*
X218519502Y-83444180D01*
X218555812Y-83324482D01*
X218568072Y-83200000D01*
X218565000Y-83035750D01*
X218406250Y-82877000D01*
X217307000Y-82877000D01*
X217307000Y-82897000D01*
X217053000Y-82897000D01*
X217053000Y-82877000D01*
X215953750Y-82877000D01*
X215795000Y-83035750D01*
X215791928Y-83200000D01*
X215804188Y-83324482D01*
X215840498Y-83444180D01*
X215870335Y-83500000D01*
X215840498Y-83555820D01*
X215804188Y-83675518D01*
X215791928Y-83800000D01*
X215791928Y-84700000D01*
X215804188Y-84824482D01*
X215840498Y-84944180D01*
X215870335Y-85000000D01*
X215840498Y-85055820D01*
X215804188Y-85175518D01*
X215791928Y-85300000D01*
X215791928Y-86200000D01*
X215804188Y-86324482D01*
X215840498Y-86444180D01*
X215870335Y-86500000D01*
X215840498Y-86555820D01*
X215804188Y-86675518D01*
X215791928Y-86800000D01*
X215791928Y-87700000D01*
X215804188Y-87824482D01*
X215840498Y-87944180D01*
X215870335Y-88000000D01*
X215840498Y-88055820D01*
X215804188Y-88175518D01*
X215791928Y-88300000D01*
X215791928Y-89200000D01*
X215804188Y-89324482D01*
X215840498Y-89444180D01*
X215870335Y-89500000D01*
X215840498Y-89555820D01*
X215804188Y-89675518D01*
X215791928Y-89800000D01*
X215795000Y-89964250D01*
X215953750Y-90123000D01*
X217053000Y-90123000D01*
X217053000Y-90103000D01*
X217307000Y-90103000D01*
X217307000Y-90123000D01*
X218406250Y-90123000D01*
X218565000Y-89964250D01*
X218568072Y-89800000D01*
X218555812Y-89675518D01*
X218519502Y-89555820D01*
X218516508Y-89550219D01*
X218520226Y-89553937D01*
X218689744Y-89667205D01*
X218878102Y-89745226D01*
X219078061Y-89785000D01*
X219281939Y-89785000D01*
X219481898Y-89745226D01*
X219645000Y-89677666D01*
X219645000Y-89681939D01*
X219684774Y-89881898D01*
X219762795Y-90070256D01*
X219859510Y-90215000D01*
X219762795Y-90359744D01*
X219684774Y-90548102D01*
X219645000Y-90748061D01*
X219645000Y-90951939D01*
X219684774Y-91151898D01*
X219762795Y-91340256D01*
X219859510Y-91485000D01*
X219762795Y-91629744D01*
X219684774Y-91818102D01*
X219645000Y-92018061D01*
X219645000Y-92221939D01*
X219684774Y-92421898D01*
X219762795Y-92610256D01*
X219876063Y-92779774D01*
X220020226Y-92923937D01*
X220189744Y-93037205D01*
X220378102Y-93115226D01*
X220578061Y-93155000D01*
X220781939Y-93155000D01*
X220981898Y-93115226D01*
X221019049Y-93099838D01*
X221020000Y-93104250D01*
X221178750Y-93263000D01*
X222303000Y-93263000D01*
X222303000Y-93243000D01*
X222557000Y-93243000D01*
X222557000Y-93263000D01*
X222577000Y-93263000D01*
X222577000Y-93517000D01*
X222557000Y-93517000D01*
X222557000Y-93537000D01*
X222303000Y-93537000D01*
X222303000Y-93517000D01*
X221178750Y-93517000D01*
X221020000Y-93675750D01*
X221016928Y-93690000D01*
X221029188Y-93814482D01*
X221065498Y-93934180D01*
X221095335Y-93990000D01*
X218495010Y-93990000D01*
X218519502Y-93944180D01*
X218555812Y-93824482D01*
X218568072Y-93700000D01*
X218568072Y-92800000D01*
X218555812Y-92675518D01*
X218519502Y-92555820D01*
X218489665Y-92500000D01*
X218519502Y-92444180D01*
X218555812Y-92324482D01*
X218568072Y-92200000D01*
X218568072Y-91300000D01*
X218555812Y-91175518D01*
X218519502Y-91055820D01*
X218489665Y-91000000D01*
X218519502Y-90944180D01*
X218555812Y-90824482D01*
X218568072Y-90700000D01*
X218565000Y-90535750D01*
X218406250Y-90377000D01*
X217307000Y-90377000D01*
X217307000Y-90397000D01*
X217053000Y-90397000D01*
X217053000Y-90377000D01*
X215953750Y-90377000D01*
X215795000Y-90535750D01*
X215791928Y-90700000D01*
X215804188Y-90824482D01*
X215840498Y-90944180D01*
X215864990Y-90990000D01*
X215217325Y-90990000D01*
X215180000Y-90986324D01*
X215142675Y-90990000D01*
X215142667Y-90990000D01*
X215031014Y-91000997D01*
X214887753Y-91044454D01*
X214755724Y-91115026D01*
X214639999Y-91209999D01*
X214616201Y-91238997D01*
X210615199Y-95240000D01*
X201064132Y-95240000D01*
X201068072Y-95200000D01*
X201065000Y-95035750D01*
X200906250Y-94877000D01*
X199807000Y-94877000D01*
X199807000Y-94897000D01*
X199553000Y-94897000D01*
X199553000Y-94877000D01*
X198453750Y-94877000D01*
X198295000Y-95035750D01*
X198291928Y-95200000D01*
X198295868Y-95240000D01*
X195244802Y-95240000D01*
X194550587Y-94545786D01*
X194551715Y-94546128D01*
X194723750Y-94563072D01*
X195636250Y-94563072D01*
X195808285Y-94546128D01*
X195973709Y-94495947D01*
X196095453Y-94430873D01*
X196125506Y-94455537D01*
X196235820Y-94514502D01*
X196355518Y-94550812D01*
X196480000Y-94563072D01*
X196894250Y-94560000D01*
X197053000Y-94401250D01*
X197053000Y-93564500D01*
X197033000Y-93564500D01*
X197033000Y-93310500D01*
X197053000Y-93310500D01*
X197053000Y-93290500D01*
X197307000Y-93290500D01*
X197307000Y-93310500D01*
X197327000Y-93310500D01*
X197327000Y-93564500D01*
X197307000Y-93564500D01*
X197307000Y-94401250D01*
X197465750Y-94560000D01*
X197880000Y-94563072D01*
X198004482Y-94550812D01*
X198124180Y-94514502D01*
X198234494Y-94455537D01*
X198293925Y-94406764D01*
X198295000Y-94464250D01*
X198453750Y-94623000D01*
X199553000Y-94623000D01*
X199553000Y-94603000D01*
X199807000Y-94603000D01*
X199807000Y-94623000D01*
X200906250Y-94623000D01*
X201065000Y-94464250D01*
X201068072Y-94300000D01*
X201055812Y-94175518D01*
X201019502Y-94055820D01*
X200995010Y-94010000D01*
X202226289Y-94010000D01*
X202270226Y-94053937D01*
X202439744Y-94167205D01*
X202628102Y-94245226D01*
X202828061Y-94285000D01*
X203031939Y-94285000D01*
X203231898Y-94245226D01*
X203420256Y-94167205D01*
X203589774Y-94053937D01*
X203733937Y-93909774D01*
X203847205Y-93740256D01*
X203925226Y-93551898D01*
X203965000Y-93351939D01*
X203965000Y-93260000D01*
X206891928Y-93260000D01*
X206904188Y-93384482D01*
X206940498Y-93504180D01*
X206999463Y-93614494D01*
X207078815Y-93711185D01*
X207175506Y-93790537D01*
X207285820Y-93849502D01*
X207405518Y-93885812D01*
X207530000Y-93898072D01*
X209244250Y-93895000D01*
X209403000Y-93736250D01*
X209403000Y-91387000D01*
X209657000Y-91387000D01*
X209657000Y-93736250D01*
X209815750Y-93895000D01*
X211530000Y-93898072D01*
X211654482Y-93885812D01*
X211774180Y-93849502D01*
X211884494Y-93790537D01*
X211981185Y-93711185D01*
X212060537Y-93614494D01*
X212119502Y-93504180D01*
X212155812Y-93384482D01*
X212168072Y-93260000D01*
X212165000Y-91545750D01*
X212006250Y-91387000D01*
X209657000Y-91387000D01*
X209403000Y-91387000D01*
X207053750Y-91387000D01*
X206895000Y-91545750D01*
X206891928Y-93260000D01*
X203965000Y-93260000D01*
X203965000Y-93148061D01*
X203925226Y-92948102D01*
X203847205Y-92759744D01*
X203733937Y-92590226D01*
X203653711Y-92510000D01*
X204226307Y-92510000D01*
X204270226Y-92553919D01*
X204439744Y-92667187D01*
X204628102Y-92745208D01*
X204828061Y-92784982D01*
X205031939Y-92784982D01*
X205231898Y-92745208D01*
X205420256Y-92667187D01*
X205589774Y-92553919D01*
X205733937Y-92409756D01*
X205847205Y-92240238D01*
X205925226Y-92051880D01*
X205965000Y-91851921D01*
X205965000Y-91648043D01*
X205925226Y-91448084D01*
X205847205Y-91259726D01*
X205733937Y-91090208D01*
X205589774Y-90946045D01*
X205420256Y-90832777D01*
X205231898Y-90754756D01*
X205031939Y-90714982D01*
X204828061Y-90714982D01*
X204628102Y-90754756D01*
X204439744Y-90832777D01*
X204270226Y-90946045D01*
X204226271Y-90990000D01*
X200995010Y-90990000D01*
X201019502Y-90944180D01*
X201055812Y-90824482D01*
X201068072Y-90700000D01*
X201068072Y-89800000D01*
X201055812Y-89675518D01*
X201019502Y-89555820D01*
X200995010Y-89510000D01*
X204226307Y-89510000D01*
X204270244Y-89553937D01*
X204439762Y-89667205D01*
X204628120Y-89745226D01*
X204828079Y-89785000D01*
X205031957Y-89785000D01*
X205231916Y-89745226D01*
X205420274Y-89667205D01*
X205589792Y-89553937D01*
X205733955Y-89409774D01*
X205834030Y-89260000D01*
X206891928Y-89260000D01*
X206895000Y-90974250D01*
X207053750Y-91133000D01*
X209403000Y-91133000D01*
X209403000Y-88783750D01*
X209657000Y-88783750D01*
X209657000Y-91133000D01*
X212006250Y-91133000D01*
X212165000Y-90974250D01*
X212168072Y-89260000D01*
X212155812Y-89135518D01*
X212119502Y-89015820D01*
X212060537Y-88905506D01*
X211981185Y-88808815D01*
X211884494Y-88729463D01*
X211774180Y-88670498D01*
X211654482Y-88634188D01*
X211530000Y-88621928D01*
X209815750Y-88625000D01*
X209657000Y-88783750D01*
X209403000Y-88783750D01*
X209244250Y-88625000D01*
X207530000Y-88621928D01*
X207405518Y-88634188D01*
X207285820Y-88670498D01*
X207175506Y-88729463D01*
X207078815Y-88808815D01*
X206999463Y-88905506D01*
X206940498Y-89015820D01*
X206904188Y-89135518D01*
X206891928Y-89260000D01*
X205834030Y-89260000D01*
X205847223Y-89240256D01*
X205925244Y-89051898D01*
X205965018Y-88851939D01*
X205965018Y-88648061D01*
X205925244Y-88448102D01*
X205847223Y-88259744D01*
X205733955Y-88090226D01*
X205589792Y-87946063D01*
X205420274Y-87832795D01*
X205231916Y-87754774D01*
X205031957Y-87715000D01*
X204857666Y-87715000D01*
X204925226Y-87551898D01*
X204965000Y-87351939D01*
X204965000Y-87148061D01*
X204925226Y-86948102D01*
X204847205Y-86759744D01*
X204733937Y-86590226D01*
X204643708Y-86499997D01*
X204733937Y-86409768D01*
X204847205Y-86240250D01*
X204925226Y-86051892D01*
X204965000Y-85851933D01*
X204965000Y-85648055D01*
X204925226Y-85448096D01*
X204847205Y-85259738D01*
X204733937Y-85090220D01*
X204589774Y-84946057D01*
X204420256Y-84832789D01*
X204231898Y-84754768D01*
X204031939Y-84714994D01*
X203828061Y-84714994D01*
X203628102Y-84754768D01*
X203439744Y-84832789D01*
X203270226Y-84946057D01*
X203226283Y-84990000D01*
X202653671Y-84990000D01*
X202733897Y-84909774D01*
X202847165Y-84740256D01*
X202925186Y-84551898D01*
X202964960Y-84351939D01*
X202964960Y-84148061D01*
X202925186Y-83948102D01*
X202847165Y-83759744D01*
X202733897Y-83590226D01*
X202589734Y-83446063D01*
X202420216Y-83332795D01*
X202231858Y-83254774D01*
X202031899Y-83215000D01*
X201828021Y-83215000D01*
X201628062Y-83254774D01*
X201439704Y-83332795D01*
X201270186Y-83446063D01*
X201226249Y-83490000D01*
X200995010Y-83490000D01*
X201019502Y-83444180D01*
X201055812Y-83324482D01*
X201068072Y-83200000D01*
X201068072Y-82300000D01*
X215791928Y-82300000D01*
X215795000Y-82464250D01*
X215953750Y-82623000D01*
X217053000Y-82623000D01*
X217053000Y-81823750D01*
X217307000Y-81823750D01*
X217307000Y-82623000D01*
X218406250Y-82623000D01*
X218565000Y-82464250D01*
X218568072Y-82300000D01*
X218555812Y-82175518D01*
X218519502Y-82055820D01*
X218460537Y-81945506D01*
X218381185Y-81848815D01*
X218284494Y-81769463D01*
X218174180Y-81710498D01*
X218054482Y-81674188D01*
X217930000Y-81661928D01*
X217465750Y-81665000D01*
X217307000Y-81823750D01*
X217053000Y-81823750D01*
X216894250Y-81665000D01*
X216430000Y-81661928D01*
X216305518Y-81674188D01*
X216185820Y-81710498D01*
X216075506Y-81769463D01*
X215978815Y-81848815D01*
X215899463Y-81945506D01*
X215840498Y-82055820D01*
X215804188Y-82175518D01*
X215791928Y-82300000D01*
X201068072Y-82300000D01*
X201055812Y-82175518D01*
X201019502Y-82055820D01*
X200960537Y-81945506D01*
X200881185Y-81848815D01*
X200784494Y-81769463D01*
X200674180Y-81710498D01*
X200554482Y-81674188D01*
X200430000Y-81661928D01*
X198930000Y-81661928D01*
X198805518Y-81674188D01*
X198685820Y-81710498D01*
X198575506Y-81769463D01*
X198547362Y-81792560D01*
X198491330Y-81736528D01*
X198626164Y-81664458D01*
X198759792Y-81554792D01*
X198869458Y-81421164D01*
X198950947Y-81268709D01*
X199001128Y-81103285D01*
X199018072Y-80931250D01*
X199018072Y-80443750D01*
X199001128Y-80271715D01*
X198950947Y-80106291D01*
X198869458Y-79953836D01*
X198759792Y-79820208D01*
X198753436Y-79814992D01*
X198831185Y-79751185D01*
X198910537Y-79654494D01*
X198969502Y-79544180D01*
X199005812Y-79424482D01*
X199018072Y-79300000D01*
X199015000Y-79098250D01*
X198856250Y-78939500D01*
X197807000Y-78939500D01*
X197807000Y-78959500D01*
X197553000Y-78959500D01*
X197553000Y-78939500D01*
X196503750Y-78939500D01*
X196430000Y-79013250D01*
X196356250Y-78939500D01*
X195307000Y-78939500D01*
X195307000Y-78959500D01*
X195053000Y-78959500D01*
X195053000Y-78939500D01*
X194003750Y-78939500D01*
X193845000Y-79098250D01*
X193841928Y-79300000D01*
X193854188Y-79424482D01*
X193890498Y-79544180D01*
X193949463Y-79654494D01*
X194028815Y-79751185D01*
X194106564Y-79814992D01*
X194100208Y-79820208D01*
X193990542Y-79953836D01*
X193909053Y-80106291D01*
X193858872Y-80271715D01*
X193841928Y-80443750D01*
X193841928Y-80931250D01*
X193858872Y-81103285D01*
X193909053Y-81268709D01*
X193990542Y-81421164D01*
X194100208Y-81554792D01*
X194233836Y-81664458D01*
X194386291Y-81745947D01*
X194420001Y-81756173D01*
X194420001Y-81796288D01*
X194376063Y-81840226D01*
X194262795Y-82009744D01*
X194184774Y-82198102D01*
X194145000Y-82398061D01*
X194145000Y-82601939D01*
X194184774Y-82801898D01*
X194262795Y-82990256D01*
X194376063Y-83159774D01*
X194520226Y-83303937D01*
X194689744Y-83417205D01*
X194737359Y-83436928D01*
X194723750Y-83436928D01*
X194551715Y-83453872D01*
X194386291Y-83504053D01*
X194233836Y-83585542D01*
X194100208Y-83695208D01*
X193990542Y-83828836D01*
X193909053Y-83981291D01*
X193858872Y-84146715D01*
X193841928Y-84318750D01*
X193841928Y-84806250D01*
X193858872Y-84978285D01*
X193909053Y-85143709D01*
X193990542Y-85296164D01*
X194100208Y-85429792D01*
X194185756Y-85500000D01*
X194100208Y-85570208D01*
X194012155Y-85677500D01*
X193779822Y-85677500D01*
X193742499Y-85673824D01*
X193705176Y-85677500D01*
X193705167Y-85677500D01*
X193593514Y-85688497D01*
X193469057Y-85726250D01*
X193450253Y-85731954D01*
X193430226Y-85742659D01*
X193469502Y-85669180D01*
X193505812Y-85549482D01*
X193518072Y-85425000D01*
X193515000Y-85223250D01*
X193356250Y-85064500D01*
X192307000Y-85064500D01*
X192307000Y-85901250D01*
X192465750Y-86060000D01*
X192880000Y-86063072D01*
X193004482Y-86050812D01*
X193076116Y-86029082D01*
X192669002Y-86436197D01*
X192639999Y-86459999D01*
X192584871Y-86527174D01*
X192545026Y-86575724D01*
X192496131Y-86667199D01*
X192474454Y-86707754D01*
X192430997Y-86851015D01*
X192420000Y-86962668D01*
X192420000Y-86962678D01*
X192416324Y-87000000D01*
X192420000Y-87037323D01*
X192420000Y-87546289D01*
X192376063Y-87590226D01*
X192262795Y-87759744D01*
X192184774Y-87948102D01*
X192145000Y-88148061D01*
X192145000Y-88351939D01*
X192184774Y-88551898D01*
X192262795Y-88740256D01*
X192376063Y-88909774D01*
X192520226Y-89053937D01*
X192689744Y-89167205D01*
X192878102Y-89245226D01*
X193078061Y-89285000D01*
X193281939Y-89285000D01*
X193481898Y-89245226D01*
X193670256Y-89167205D01*
X193839774Y-89053937D01*
X193983937Y-88909774D01*
X194097205Y-88740256D01*
X194175226Y-88551898D01*
X194215000Y-88351939D01*
X194215000Y-88148061D01*
X194175226Y-87948102D01*
X194097205Y-87759744D01*
X193983937Y-87590226D01*
X193940000Y-87546289D01*
X193940000Y-87314801D01*
X194032505Y-87222296D01*
X194100208Y-87304792D01*
X194233836Y-87414458D01*
X194386291Y-87495947D01*
X194551715Y-87546128D01*
X194723750Y-87563072D01*
X195636250Y-87563072D01*
X195808285Y-87546128D01*
X195973709Y-87495947D01*
X196095453Y-87430873D01*
X196125506Y-87455537D01*
X196235820Y-87514502D01*
X196355518Y-87550812D01*
X196480000Y-87563072D01*
X196894250Y-87560000D01*
X197053000Y-87401250D01*
X197053000Y-86564500D01*
X197033000Y-86564500D01*
X197033000Y-86310500D01*
X197053000Y-86310500D01*
X197053000Y-86290500D01*
X197307000Y-86290500D01*
X197307000Y-86310500D01*
X197327000Y-86310500D01*
X197327000Y-86564500D01*
X197307000Y-86564500D01*
X197307000Y-87401250D01*
X197465750Y-87560000D01*
X197880000Y-87563072D01*
X198004482Y-87550812D01*
X198124180Y-87514502D01*
X198234494Y-87455537D01*
X198291928Y-87408402D01*
X198291928Y-87700000D01*
X198304188Y-87824482D01*
X198340498Y-87944180D01*
X198364990Y-87990000D01*
X195967322Y-87990000D01*
X195929999Y-87986324D01*
X195892676Y-87990000D01*
X195892667Y-87990000D01*
X195781014Y-88000997D01*
X195637753Y-88044454D01*
X195505724Y-88115026D01*
X195389999Y-88209999D01*
X195366201Y-88238998D01*
X194669002Y-88936197D01*
X194639999Y-88959999D01*
X194593876Y-89016201D01*
X194545026Y-89075724D01*
X194492348Y-89174277D01*
X194474454Y-89207754D01*
X194430997Y-89351015D01*
X194420000Y-89462668D01*
X194420000Y-89462678D01*
X194416324Y-89500000D01*
X194420000Y-89537323D01*
X194420000Y-90493827D01*
X194386291Y-90504053D01*
X194233836Y-90585542D01*
X194100208Y-90695208D01*
X193990542Y-90828836D01*
X193909053Y-90981291D01*
X193858872Y-91146715D01*
X193841928Y-91318750D01*
X193841928Y-91806250D01*
X193858872Y-91978285D01*
X193909053Y-92143709D01*
X193990542Y-92296164D01*
X194100208Y-92429792D01*
X194185756Y-92500000D01*
X194100208Y-92570208D01*
X193990542Y-92703836D01*
X193971212Y-92740000D01*
X192217325Y-92740000D01*
X192180000Y-92736324D01*
X192142675Y-92740000D01*
X192142667Y-92740000D01*
X192031014Y-92750997D01*
X191887753Y-92794454D01*
X191755724Y-92865026D01*
X191639999Y-92959999D01*
X191616196Y-92989003D01*
X191365199Y-93240000D01*
X191065000Y-93240000D01*
X191065000Y-86788454D01*
X191097205Y-86740256D01*
X191175226Y-86551898D01*
X191215000Y-86351939D01*
X191215000Y-86148061D01*
X191182796Y-85986160D01*
X191235820Y-86014502D01*
X191355518Y-86050812D01*
X191480000Y-86063072D01*
X191894250Y-86060000D01*
X192053000Y-85901250D01*
X192053000Y-85064500D01*
X192033000Y-85064500D01*
X192033000Y-84810500D01*
X192053000Y-84810500D01*
X192053000Y-84790500D01*
X192307000Y-84790500D01*
X192307000Y-84810500D01*
X193356250Y-84810500D01*
X193515000Y-84651750D01*
X193518072Y-84450000D01*
X193505812Y-84325518D01*
X193469502Y-84205820D01*
X193410537Y-84095506D01*
X193331185Y-83998815D01*
X193253436Y-83935008D01*
X193259792Y-83929792D01*
X193369458Y-83796164D01*
X193450947Y-83643709D01*
X193501128Y-83478285D01*
X193518072Y-83306250D01*
X193518072Y-82818750D01*
X193501128Y-82646715D01*
X193450947Y-82481291D01*
X193369458Y-82328836D01*
X193259792Y-82195208D01*
X193126164Y-82085542D01*
X192973709Y-82004053D01*
X192808285Y-81953872D01*
X192636250Y-81936928D01*
X191723750Y-81936928D01*
X191551715Y-81953872D01*
X191386291Y-82004053D01*
X191233836Y-82085542D01*
X191180000Y-82129724D01*
X191126164Y-82085542D01*
X190973709Y-82004053D01*
X190808285Y-81953872D01*
X190636250Y-81936928D01*
X189723750Y-81936928D01*
X189551715Y-81953872D01*
X189386291Y-82004053D01*
X189233836Y-82085542D01*
X189121785Y-82177500D01*
X188660965Y-82177500D01*
X188617499Y-82173219D01*
X188574033Y-82177500D01*
X188574023Y-82177500D01*
X188444010Y-82190305D01*
X188277187Y-82240911D01*
X188123441Y-82323089D01*
X187988683Y-82433683D01*
X187960966Y-82467456D01*
X187679851Y-82748571D01*
X187666548Y-82661709D01*
X187575109Y-82409900D01*
X187517950Y-82302965D01*
X187281633Y-82240472D01*
X186522105Y-83000000D01*
X186536248Y-83014143D01*
X186356643Y-83193748D01*
X186342500Y-83179605D01*
X186328358Y-83193748D01*
X186148753Y-83014143D01*
X186162895Y-83000000D01*
X185403367Y-82240472D01*
X185227767Y-82286909D01*
X185229976Y-82060867D01*
X185582972Y-82060867D01*
X186342500Y-82820395D01*
X187102028Y-82060867D01*
X187039535Y-81824550D01*
X186796822Y-81711150D01*
X186536651Y-81647281D01*
X186269018Y-81635396D01*
X186004209Y-81675952D01*
X185752400Y-81767391D01*
X185645465Y-81824550D01*
X185582972Y-82060867D01*
X185229976Y-82060867D01*
X185230572Y-82000000D01*
X185227500Y-81968808D01*
X185227500Y-81872998D01*
X185217548Y-81872998D01*
X185182002Y-81755820D01*
X185162179Y-81718735D01*
X185185962Y-81682391D01*
X185182091Y-81644718D01*
X185089921Y-81419467D01*
X184955578Y-81216526D01*
X184784225Y-81043693D01*
X184582446Y-80907610D01*
X184357996Y-80813507D01*
X184119500Y-80765000D01*
X183769500Y-80765000D01*
X183769500Y-84373000D01*
X183789500Y-84373000D01*
X183789500Y-84627000D01*
X183769500Y-84627000D01*
X183769500Y-86373000D01*
X183789500Y-86373000D01*
X183789500Y-86627000D01*
X183769500Y-86627000D01*
X183769500Y-90235000D01*
X184119500Y-90235000D01*
X184357996Y-90186493D01*
X184582446Y-90092390D01*
X184784225Y-89956307D01*
X184955578Y-89783474D01*
X185089921Y-89580533D01*
X185182091Y-89355282D01*
X185185962Y-89317609D01*
X185162179Y-89281265D01*
X185182002Y-89244180D01*
X185217548Y-89127002D01*
X185227500Y-89127002D01*
X185227500Y-89031192D01*
X185230572Y-89000000D01*
X185229977Y-88939133D01*
X185582972Y-88939133D01*
X185645465Y-89175450D01*
X185888178Y-89288850D01*
X186148349Y-89352719D01*
X186415982Y-89364604D01*
X186680791Y-89324048D01*
X186932600Y-89232609D01*
X187039535Y-89175450D01*
X187102028Y-88939133D01*
X186342500Y-88179605D01*
X185582972Y-88939133D01*
X185229977Y-88939133D01*
X185227767Y-88713091D01*
X185403367Y-88759528D01*
X186162895Y-88000000D01*
X186148753Y-87985858D01*
X186328358Y-87806253D01*
X186342500Y-87820395D01*
X186356643Y-87806253D01*
X186536248Y-87985858D01*
X186522105Y-88000000D01*
X187281633Y-88759528D01*
X187517950Y-88697035D01*
X187631350Y-88454322D01*
X187695219Y-88194151D01*
X187707104Y-87926518D01*
X187666548Y-87661709D01*
X187575109Y-87409900D01*
X187546225Y-87355864D01*
X187603021Y-87253576D01*
X187641241Y-87134474D01*
X187652500Y-87031750D01*
X187493750Y-86873000D01*
X187381178Y-86873000D01*
X187468685Y-86801185D01*
X187548037Y-86704494D01*
X187584532Y-86636218D01*
X187652500Y-86568250D01*
X187642512Y-86477120D01*
X187643312Y-86474482D01*
X187655572Y-86350000D01*
X187655572Y-85950000D01*
X187643312Y-85825518D01*
X187643155Y-85825000D01*
X187643312Y-85824482D01*
X187655572Y-85700000D01*
X187655572Y-85300000D01*
X187643312Y-85175518D01*
X187643155Y-85175000D01*
X187643312Y-85174482D01*
X187652125Y-85085000D01*
X187936531Y-85085000D01*
X187980000Y-85089281D01*
X188023469Y-85085000D01*
X188023477Y-85085000D01*
X188153490Y-85072195D01*
X188320313Y-85021589D01*
X188474059Y-84939411D01*
X188608817Y-84828817D01*
X188636534Y-84795044D01*
X188775045Y-84656533D01*
X188808817Y-84628817D01*
X188853711Y-84574114D01*
X188841928Y-84693750D01*
X188841928Y-85181250D01*
X188858872Y-85353285D01*
X188909053Y-85518709D01*
X188990542Y-85671164D01*
X189100208Y-85804792D01*
X189207621Y-85892944D01*
X189184774Y-85948102D01*
X189145000Y-86148061D01*
X189145000Y-86351939D01*
X189184774Y-86551898D01*
X189262795Y-86740256D01*
X189295000Y-86788454D01*
X189295001Y-93111000D01*
X186164231Y-93111000D01*
X186155812Y-93025518D01*
X186119502Y-92905820D01*
X186060537Y-92795506D01*
X185981185Y-92698815D01*
X185884494Y-92619463D01*
X185774180Y-92560498D01*
X185654482Y-92524188D01*
X185530000Y-92511928D01*
X183830000Y-92511928D01*
X183705518Y-92524188D01*
X183585820Y-92560498D01*
X183475506Y-92619463D01*
X183378815Y-92698815D01*
X183299463Y-92795506D01*
X183240498Y-92905820D01*
X183204188Y-93025518D01*
X183191928Y-93150000D01*
X182840000Y-93150000D01*
X182840000Y-90150016D01*
X182927004Y-90186493D01*
X183165500Y-90235000D01*
X183515500Y-90235000D01*
X183515500Y-86627000D01*
X183495500Y-86627000D01*
X183495500Y-86373000D01*
X183515500Y-86373000D01*
X183515500Y-84627000D01*
X183495500Y-84627000D01*
X183495500Y-84373000D01*
X183515500Y-84373000D01*
X183515500Y-80765000D01*
X183165500Y-80765000D01*
X182927004Y-80813507D01*
X182840000Y-80849984D01*
X182840000Y-79273380D01*
X183348282Y-78765098D01*
X184795000Y-78765098D01*
X184795000Y-79234902D01*
X184886654Y-79695679D01*
X185066440Y-80129721D01*
X185327450Y-80520349D01*
X185659651Y-80852550D01*
X186050279Y-81113560D01*
X186484321Y-81293346D01*
X186945098Y-81385000D01*
X187414902Y-81385000D01*
X187875679Y-81293346D01*
X188309721Y-81113560D01*
X188700349Y-80852550D01*
X189032550Y-80520349D01*
X189293560Y-80129721D01*
X189473346Y-79695679D01*
X189565000Y-79234902D01*
X189565000Y-78765098D01*
X233295000Y-78765098D01*
X233295000Y-79234902D01*
X233386654Y-79695679D01*
X233566440Y-80129721D01*
X233827450Y-80520349D01*
X234159651Y-80852550D01*
X234550279Y-81113560D01*
X234984321Y-81293346D01*
X235445098Y-81385000D01*
X235914902Y-81385000D01*
X236375679Y-81293346D01*
X236809721Y-81113560D01*
X237200349Y-80852550D01*
X237532550Y-80520349D01*
X237793560Y-80129721D01*
X237973346Y-79695679D01*
X238065000Y-79234902D01*
X238065000Y-78765098D01*
X237973346Y-78304321D01*
X237793560Y-77870279D01*
X237532550Y-77479651D01*
X237200349Y-77147450D01*
X236809721Y-76886440D01*
X236375679Y-76706654D01*
X235914902Y-76615000D01*
X235445098Y-76615000D01*
X234984321Y-76706654D01*
X234550279Y-76886440D01*
X234159651Y-77147450D01*
X233827450Y-77479651D01*
X233566440Y-77870279D01*
X233386654Y-78304321D01*
X233295000Y-78765098D01*
X189565000Y-78765098D01*
X189477460Y-78325000D01*
X193841928Y-78325000D01*
X193845000Y-78526750D01*
X194003750Y-78685500D01*
X195053000Y-78685500D01*
X195053000Y-77848750D01*
X195307000Y-77848750D01*
X195307000Y-78685500D01*
X196356250Y-78685500D01*
X196430000Y-78611750D01*
X196503750Y-78685500D01*
X197553000Y-78685500D01*
X197553000Y-77848750D01*
X197807000Y-77848750D01*
X197807000Y-78685500D01*
X198856250Y-78685500D01*
X199015000Y-78526750D01*
X199018072Y-78325000D01*
X199005812Y-78200518D01*
X198969502Y-78080820D01*
X198910537Y-77970506D01*
X198831185Y-77873815D01*
X198734494Y-77794463D01*
X198624180Y-77735498D01*
X198504482Y-77699188D01*
X198380000Y-77686928D01*
X197965750Y-77690000D01*
X197807000Y-77848750D01*
X197553000Y-77848750D01*
X197394250Y-77690000D01*
X196980000Y-77686928D01*
X196855518Y-77699188D01*
X196735820Y-77735498D01*
X196625506Y-77794463D01*
X196528815Y-77873815D01*
X196449463Y-77970506D01*
X196430000Y-78006918D01*
X196410537Y-77970506D01*
X196331185Y-77873815D01*
X196234494Y-77794463D01*
X196124180Y-77735498D01*
X196004482Y-77699188D01*
X195880000Y-77686928D01*
X195465750Y-77690000D01*
X195307000Y-77848750D01*
X195053000Y-77848750D01*
X194894250Y-77690000D01*
X194480000Y-77686928D01*
X194355518Y-77699188D01*
X194235820Y-77735498D01*
X194125506Y-77794463D01*
X194028815Y-77873815D01*
X193949463Y-77970506D01*
X193890498Y-78080820D01*
X193854188Y-78200518D01*
X193841928Y-78325000D01*
X189477460Y-78325000D01*
X189473346Y-78304321D01*
X189293560Y-77870279D01*
X189032550Y-77479651D01*
X188700349Y-77147450D01*
X188309721Y-76886440D01*
X187875679Y-76706654D01*
X187414902Y-76615000D01*
X186945098Y-76615000D01*
X186484321Y-76706654D01*
X186050279Y-76886440D01*
X185659651Y-77147450D01*
X185327450Y-77479651D01*
X185066440Y-77870279D01*
X184886654Y-78304321D01*
X184795000Y-78765098D01*
X183348282Y-78765098D01*
X187453381Y-74660000D01*
X235906620Y-74660000D01*
X240520001Y-79273382D01*
G36*
X197104188Y-104225518D02*
G01*
X197091928Y-104350000D01*
X197091928Y-105313154D01*
X197088299Y-105350000D01*
X197091928Y-105386846D01*
X197091928Y-106350000D01*
X197104188Y-106474482D01*
X197140498Y-106594180D01*
X197199463Y-106704494D01*
X197278815Y-106801185D01*
X197375506Y-106880537D01*
X197485820Y-106939502D01*
X197605518Y-106975812D01*
X197730000Y-106988072D01*
X199230000Y-106988072D01*
X199354482Y-106975812D01*
X199474180Y-106939502D01*
X199553000Y-106897371D01*
X199553000Y-113373000D01*
X192807000Y-113373000D01*
X192807000Y-106897371D01*
X192885820Y-106939502D01*
X193005518Y-106975812D01*
X193130000Y-106988072D01*
X194630000Y-106988072D01*
X194754482Y-106975812D01*
X194874180Y-106939502D01*
X194984494Y-106880537D01*
X195081185Y-106801185D01*
X195160537Y-106704494D01*
X195219502Y-106594180D01*
X195255812Y-106474482D01*
X195268072Y-106350000D01*
X195268072Y-104350000D01*
X195255812Y-104225518D01*
X195225927Y-104127000D01*
X197134073Y-104127000D01*
X197104188Y-104225518D01*
G37*
X197104188Y-104225518D02*
X197091928Y-104350000D01*
X197091928Y-105313154D01*
X197088299Y-105350000D01*
X197091928Y-105386846D01*
X197091928Y-106350000D01*
X197104188Y-106474482D01*
X197140498Y-106594180D01*
X197199463Y-106704494D01*
X197278815Y-106801185D01*
X197375506Y-106880537D01*
X197485820Y-106939502D01*
X197605518Y-106975812D01*
X197730000Y-106988072D01*
X199230000Y-106988072D01*
X199354482Y-106975812D01*
X199474180Y-106939502D01*
X199553000Y-106897371D01*
X199553000Y-113373000D01*
X192807000Y-113373000D01*
X192807000Y-106897371D01*
X192885820Y-106939502D01*
X193005518Y-106975812D01*
X193130000Y-106988072D01*
X194630000Y-106988072D01*
X194754482Y-106975812D01*
X194874180Y-106939502D01*
X194984494Y-106880537D01*
X195081185Y-106801185D01*
X195160537Y-106704494D01*
X195219502Y-106594180D01*
X195255812Y-106474482D01*
X195268072Y-106350000D01*
X195268072Y-104350000D01*
X195255812Y-104225518D01*
X195225927Y-104127000D01*
X197134073Y-104127000D01*
X197104188Y-104225518D01*
M02*
