G04 #@! TF.GenerationSoftware,KiCad,Pcbnew,(5.1.6)-1*
G04 #@! TF.CreationDate,2020-09-11T20:17:21+02:00*
G04 #@! TF.ProjectId,PacketVis,5061636b-6574-4566-9973-2e6b69636164,A01*
G04 #@! TF.SameCoordinates,Original*
G04 #@! TF.FileFunction,Legend,Top*
G04 #@! TF.FilePolarity,Positive*
%FSLAX46Y46*%
G04 Gerber Fmt 4.6, Leading zero omitted, Abs format (unit mm)*
G04 Created by KiCad (PCBNEW (5.1.6)-1) date 2020-09-11 20:17:21*
%MOMM*%
%LPD*%
G01*
G04 APERTURE LIST*
%ADD10C,0.150000*%
%ADD11C,0.200000*%
%ADD12C,0.120000*%
%ADD13C,2.000000*%
%ADD14O,1.802000X1.802000*%
%ADD15R,1.802000X1.802000*%
%ADD16R,4.102000X4.102000*%
%ADD17R,1.602000X1.002000*%
%ADD18R,1.652000X0.702000*%
%ADD19R,2.502000X2.202000*%
%ADD20R,1.652000X1.402000*%
%ADD21R,1.602000X2.102000*%
%ADD22R,3.902000X2.102000*%
%ADD23R,2.002000X1.302000*%
%ADD24O,2.002000X1.302000*%
%ADD25R,2.002000X1.602000*%
%ADD26C,1.552000*%
%ADD27R,1.452000X0.502000*%
G04 APERTURE END LIST*
D10*
X186989523Y-93452380D02*
X186513333Y-93452380D01*
X186465714Y-93928571D01*
X186513333Y-93880952D01*
X186608571Y-93833333D01*
X186846666Y-93833333D01*
X186941904Y-93880952D01*
X186989523Y-93928571D01*
X187037142Y-94023809D01*
X187037142Y-94261904D01*
X186989523Y-94357142D01*
X186941904Y-94404761D01*
X186846666Y-94452380D01*
X186608571Y-94452380D01*
X186513333Y-94404761D01*
X186465714Y-94357142D01*
X187322857Y-93452380D02*
X187656190Y-94452380D01*
X187989523Y-93452380D01*
X186918095Y-101000000D02*
X186822857Y-100952380D01*
X186680000Y-100952380D01*
X186537142Y-101000000D01*
X186441904Y-101095238D01*
X186394285Y-101190476D01*
X186346666Y-101380952D01*
X186346666Y-101523809D01*
X186394285Y-101714285D01*
X186441904Y-101809523D01*
X186537142Y-101904761D01*
X186680000Y-101952380D01*
X186775238Y-101952380D01*
X186918095Y-101904761D01*
X186965714Y-101857142D01*
X186965714Y-101523809D01*
X186775238Y-101523809D01*
X187394285Y-101952380D02*
X187394285Y-100952380D01*
X187965714Y-101952380D01*
X187965714Y-100952380D01*
X188441904Y-101952380D02*
X188441904Y-100952380D01*
X188680000Y-100952380D01*
X188822857Y-101000000D01*
X188918095Y-101095238D01*
X188965714Y-101190476D01*
X189013333Y-101380952D01*
X189013333Y-101523809D01*
X188965714Y-101714285D01*
X188918095Y-101809523D01*
X188822857Y-101904761D01*
X188680000Y-101952380D01*
X188441904Y-101952380D01*
X187013333Y-99452380D02*
X186680000Y-98976190D01*
X186441904Y-99452380D02*
X186441904Y-98452380D01*
X186822857Y-98452380D01*
X186918095Y-98500000D01*
X186965714Y-98547619D01*
X187013333Y-98642857D01*
X187013333Y-98785714D01*
X186965714Y-98880952D01*
X186918095Y-98928571D01*
X186822857Y-98976190D01*
X186441904Y-98976190D01*
X187346666Y-98452380D02*
X188013333Y-99452380D01*
X188013333Y-98452380D02*
X187346666Y-99452380D01*
X186418095Y-95952380D02*
X186989523Y-95952380D01*
X186703809Y-96952380D02*
X186703809Y-95952380D01*
X187227619Y-95952380D02*
X187894285Y-96952380D01*
X187894285Y-95952380D02*
X187227619Y-96952380D01*
D11*
X214941904Y-109928571D02*
X215275238Y-109928571D01*
X215418095Y-110452380D02*
X214941904Y-110452380D01*
X214941904Y-109452380D01*
X215418095Y-109452380D01*
X215846666Y-110452380D02*
X215846666Y-109452380D01*
X216418095Y-110452380D01*
X216418095Y-109452380D01*
X215322857Y-105428571D02*
X215465714Y-105476190D01*
X215513333Y-105523809D01*
X215560952Y-105619047D01*
X215560952Y-105761904D01*
X215513333Y-105857142D01*
X215465714Y-105904761D01*
X215370476Y-105952380D01*
X214989523Y-105952380D01*
X214989523Y-104952380D01*
X215322857Y-104952380D01*
X215418095Y-105000000D01*
X215465714Y-105047619D01*
X215513333Y-105142857D01*
X215513333Y-105238095D01*
X215465714Y-105333333D01*
X215418095Y-105380952D01*
X215322857Y-105428571D01*
X214989523Y-105428571D01*
X216180000Y-104952380D02*
X216370476Y-104952380D01*
X216465714Y-105000000D01*
X216560952Y-105095238D01*
X216608571Y-105285714D01*
X216608571Y-105619047D01*
X216560952Y-105809523D01*
X216465714Y-105904761D01*
X216370476Y-105952380D01*
X216180000Y-105952380D01*
X216084761Y-105904761D01*
X215989523Y-105809523D01*
X215941904Y-105619047D01*
X215941904Y-105285714D01*
X215989523Y-105095238D01*
X216084761Y-105000000D01*
X216180000Y-104952380D01*
X217227619Y-104952380D02*
X217418095Y-104952380D01*
X217513333Y-105000000D01*
X217608571Y-105095238D01*
X217656190Y-105285714D01*
X217656190Y-105619047D01*
X217608571Y-105809523D01*
X217513333Y-105904761D01*
X217418095Y-105952380D01*
X217227619Y-105952380D01*
X217132380Y-105904761D01*
X217037142Y-105809523D01*
X216989523Y-105619047D01*
X216989523Y-105285714D01*
X217037142Y-105095238D01*
X217132380Y-105000000D01*
X217227619Y-104952380D01*
X217941904Y-104952380D02*
X218513333Y-104952380D01*
X218227619Y-105952380D02*
X218227619Y-104952380D01*
D12*
X183350000Y-92670000D02*
X184680000Y-92670000D01*
X183350000Y-94000000D02*
X183350000Y-92670000D01*
X183350000Y-95270000D02*
X186010000Y-95270000D01*
X186010000Y-95270000D02*
X186010000Y-102950000D01*
X183350000Y-95270000D02*
X183350000Y-102950000D01*
X183350000Y-102950000D02*
X186010000Y-102950000D01*
X199430000Y-81650000D02*
X217430000Y-81650000D01*
X217430000Y-75650000D02*
X199430000Y-75650000D01*
X217430000Y-95650000D02*
X217430000Y-75650000D01*
X199430000Y-95650000D02*
X217430000Y-95650000D01*
X199430000Y-75650000D02*
X199430000Y-95650000D01*
X223130000Y-83945000D02*
X221880000Y-83945000D01*
X223130000Y-93945000D02*
X223130000Y-83945000D01*
X223130000Y-83945000D02*
X227130000Y-83945000D01*
X227130000Y-83945000D02*
X227130000Y-93945000D01*
X227130000Y-93945000D02*
X223130000Y-93945000D01*
X226130000Y-83945000D02*
G75*
G02*
X224130000Y-83945000I-1000000J0D01*
G01*
X206030000Y-107350000D02*
X206030000Y-103650000D01*
X206030000Y-103650000D02*
X212130000Y-103650000D01*
X212130000Y-103650000D02*
X212130000Y-107350000D01*
X212130000Y-107350000D02*
X206030000Y-107350000D01*
X209080000Y-103650000D02*
X212130000Y-103650000D01*
X206030000Y-111850000D02*
X206030000Y-108150000D01*
X206030000Y-108150000D02*
X212130000Y-108150000D01*
X212130000Y-108150000D02*
X212130000Y-111850000D01*
X212130000Y-111850000D02*
X206030000Y-111850000D01*
X209080000Y-108150000D02*
X212130000Y-108150000D01*
X231000000Y-103750000D02*
X237000000Y-103750000D01*
X237000000Y-103750000D02*
X237000000Y-109750000D01*
X231000000Y-109750000D02*
X231000000Y-103750000D01*
X235750000Y-106750000D02*
G75*
G03*
X235750000Y-106750000I-1750000J0D01*
G01*
X237000000Y-109750000D02*
X231000000Y-109750000D01*
X189470000Y-83741422D02*
X189470000Y-84258578D01*
X190890000Y-83741422D02*
X190890000Y-84258578D01*
X199590000Y-104400000D02*
X199590000Y-110410000D01*
X192770000Y-106650000D02*
X192770000Y-110410000D01*
X199590000Y-110410000D02*
X198330000Y-110410000D01*
X192770000Y-110410000D02*
X194030000Y-110410000D01*
X195890000Y-92758578D02*
X195890000Y-92241422D01*
X194470000Y-92758578D02*
X194470000Y-92241422D01*
X228390000Y-107008578D02*
X228390000Y-106491422D01*
X226970000Y-107008578D02*
X226970000Y-106491422D01*
X195890000Y-85758578D02*
X195890000Y-85241422D01*
X194470000Y-85758578D02*
X194470000Y-85241422D01*
X196470000Y-92241422D02*
X196470000Y-92758578D01*
X197890000Y-92241422D02*
X197890000Y-92758578D01*
X206388578Y-100420000D02*
X205871422Y-100420000D01*
X206388578Y-101840000D02*
X205871422Y-101840000D01*
X187192500Y-83800000D02*
X186742500Y-83800000D01*
X187192500Y-83800000D02*
X187192500Y-84250000D01*
X186642500Y-89400000D02*
X186642500Y-88950000D01*
X184792500Y-89400000D02*
X186642500Y-89400000D01*
X182242500Y-81600000D02*
X182492500Y-81600000D01*
X182242500Y-89400000D02*
X182492500Y-89400000D01*
X184792500Y-81600000D02*
X186642500Y-81600000D01*
X186642500Y-81600000D02*
X186642500Y-82050000D01*
X196983922Y-103210000D02*
X197501078Y-103210000D01*
X196983922Y-101790000D02*
X197501078Y-101790000D01*
X196470000Y-85241422D02*
X196470000Y-85758578D01*
X197890000Y-85241422D02*
X197890000Y-85758578D01*
X192938578Y-101790000D02*
X192421422Y-101790000D01*
X192938578Y-103210000D02*
X192421422Y-103210000D01*
X191470000Y-83741422D02*
X191470000Y-84258578D01*
X192890000Y-83741422D02*
X192890000Y-84258578D01*
X198390000Y-80008578D02*
X198390000Y-79491422D01*
X196970000Y-80008578D02*
X196970000Y-79491422D01*
X195890000Y-80008578D02*
X195890000Y-79491422D01*
X194470000Y-80008578D02*
X194470000Y-79491422D01*
X231251422Y-102210000D02*
X231768578Y-102210000D01*
X231251422Y-100790000D02*
X231768578Y-100790000D01*
X231251422Y-99710000D02*
X231768578Y-99710000D01*
X231251422Y-98290000D02*
X231768578Y-98290000D01*
X231251422Y-97210000D02*
X231768578Y-97210000D01*
X231251422Y-95790000D02*
X231768578Y-95790000D01*
X231251422Y-94710000D02*
X231768578Y-94710000D01*
X231251422Y-93290000D02*
X231768578Y-93290000D01*
X231251422Y-92210000D02*
X231768578Y-92210000D01*
X231251422Y-90790000D02*
X231768578Y-90790000D01*
X231251422Y-89710000D02*
X231768578Y-89710000D01*
X231251422Y-88290000D02*
X231768578Y-88290000D01*
X231251422Y-87210000D02*
X231768578Y-87210000D01*
X231251422Y-85790000D02*
X231768578Y-85790000D01*
X231251422Y-84710000D02*
X231768578Y-84710000D01*
X231251422Y-83290000D02*
X231768578Y-83290000D01*
X237565000Y-83090000D02*
X234680000Y-83090000D01*
X237565000Y-84910000D02*
X237565000Y-83090000D01*
X234680000Y-84910000D02*
X237565000Y-84910000D01*
X237565000Y-100590000D02*
X234680000Y-100590000D01*
X237565000Y-102410000D02*
X237565000Y-100590000D01*
X234680000Y-102410000D02*
X237565000Y-102410000D01*
X237527500Y-98090000D02*
X234642500Y-98090000D01*
X237527500Y-99910000D02*
X237527500Y-98090000D01*
X234642500Y-99910000D02*
X237527500Y-99910000D01*
X237527500Y-95590000D02*
X234642500Y-95590000D01*
X237527500Y-97410000D02*
X237527500Y-95590000D01*
X234642500Y-97410000D02*
X237527500Y-97410000D01*
X237527500Y-93090000D02*
X234642500Y-93090000D01*
X237527500Y-94910000D02*
X237527500Y-93090000D01*
X234642500Y-94910000D02*
X237527500Y-94910000D01*
X237527500Y-90590000D02*
X234642500Y-90590000D01*
X237527500Y-92410000D02*
X237527500Y-90590000D01*
X234642500Y-92410000D02*
X237527500Y-92410000D01*
X237565000Y-88090000D02*
X234680000Y-88090000D01*
X237565000Y-89910000D02*
X237565000Y-88090000D01*
X234680000Y-89910000D02*
X237565000Y-89910000D01*
X237565000Y-85590000D02*
X234680000Y-85590000D01*
X237565000Y-87410000D02*
X237565000Y-85590000D01*
X234680000Y-87410000D02*
X237565000Y-87410000D01*
D10*
X184346666Y-91122380D02*
X184346666Y-91836666D01*
X184299047Y-91979523D01*
X184203809Y-92074761D01*
X184060952Y-92122380D01*
X183965714Y-92122380D01*
X184775238Y-91217619D02*
X184822857Y-91170000D01*
X184918095Y-91122380D01*
X185156190Y-91122380D01*
X185251428Y-91170000D01*
X185299047Y-91217619D01*
X185346666Y-91312857D01*
X185346666Y-91408095D01*
X185299047Y-91550952D01*
X184727619Y-92122380D01*
X185346666Y-92122380D01*
X200318095Y-96202380D02*
X200318095Y-97011904D01*
X200365714Y-97107142D01*
X200413333Y-97154761D01*
X200508571Y-97202380D01*
X200699047Y-97202380D01*
X200794285Y-97154761D01*
X200841904Y-97107142D01*
X200889523Y-97011904D01*
X200889523Y-96202380D01*
X201270476Y-96202380D02*
X201889523Y-96202380D01*
X201556190Y-96583333D01*
X201699047Y-96583333D01*
X201794285Y-96630952D01*
X201841904Y-96678571D01*
X201889523Y-96773809D01*
X201889523Y-97011904D01*
X201841904Y-97107142D01*
X201794285Y-97154761D01*
X201699047Y-97202380D01*
X201413333Y-97202380D01*
X201318095Y-97154761D01*
X201270476Y-97107142D01*
X224368095Y-82047380D02*
X224368095Y-82856904D01*
X224415714Y-82952142D01*
X224463333Y-82999761D01*
X224558571Y-83047380D01*
X224749047Y-83047380D01*
X224844285Y-82999761D01*
X224891904Y-82952142D01*
X224939523Y-82856904D01*
X224939523Y-82047380D01*
X225368095Y-82142619D02*
X225415714Y-82095000D01*
X225510952Y-82047380D01*
X225749047Y-82047380D01*
X225844285Y-82095000D01*
X225891904Y-82142619D01*
X225939523Y-82237857D01*
X225939523Y-82333095D01*
X225891904Y-82475952D01*
X225320476Y-83047380D01*
X225939523Y-83047380D01*
X207746666Y-105904761D02*
X207889523Y-105952380D01*
X208127619Y-105952380D01*
X208222857Y-105904761D01*
X208270476Y-105857142D01*
X208318095Y-105761904D01*
X208318095Y-105666666D01*
X208270476Y-105571428D01*
X208222857Y-105523809D01*
X208127619Y-105476190D01*
X207937142Y-105428571D01*
X207841904Y-105380952D01*
X207794285Y-105333333D01*
X207746666Y-105238095D01*
X207746666Y-105142857D01*
X207794285Y-105047619D01*
X207841904Y-105000000D01*
X207937142Y-104952380D01*
X208175238Y-104952380D01*
X208318095Y-105000000D01*
X208651428Y-104952380D02*
X208889523Y-105952380D01*
X209080000Y-105238095D01*
X209270476Y-105952380D01*
X209508571Y-104952380D01*
X209794285Y-104952380D02*
X210413333Y-104952380D01*
X210080000Y-105333333D01*
X210222857Y-105333333D01*
X210318095Y-105380952D01*
X210365714Y-105428571D01*
X210413333Y-105523809D01*
X210413333Y-105761904D01*
X210365714Y-105857142D01*
X210318095Y-105904761D01*
X210222857Y-105952380D01*
X209937142Y-105952380D01*
X209841904Y-105904761D01*
X209794285Y-105857142D01*
X207746666Y-110404761D02*
X207889523Y-110452380D01*
X208127619Y-110452380D01*
X208222857Y-110404761D01*
X208270476Y-110357142D01*
X208318095Y-110261904D01*
X208318095Y-110166666D01*
X208270476Y-110071428D01*
X208222857Y-110023809D01*
X208127619Y-109976190D01*
X207937142Y-109928571D01*
X207841904Y-109880952D01*
X207794285Y-109833333D01*
X207746666Y-109738095D01*
X207746666Y-109642857D01*
X207794285Y-109547619D01*
X207841904Y-109500000D01*
X207937142Y-109452380D01*
X208175238Y-109452380D01*
X208318095Y-109500000D01*
X208651428Y-109452380D02*
X208889523Y-110452380D01*
X209080000Y-109738095D01*
X209270476Y-110452380D01*
X209508571Y-109452380D01*
X209841904Y-109547619D02*
X209889523Y-109500000D01*
X209984761Y-109452380D01*
X210222857Y-109452380D01*
X210318095Y-109500000D01*
X210365714Y-109547619D01*
X210413333Y-109642857D01*
X210413333Y-109738095D01*
X210365714Y-109880952D01*
X209794285Y-110452380D01*
X210413333Y-110452380D01*
X232666666Y-107154761D02*
X232809523Y-107202380D01*
X233047619Y-107202380D01*
X233142857Y-107154761D01*
X233190476Y-107107142D01*
X233238095Y-107011904D01*
X233238095Y-106916666D01*
X233190476Y-106821428D01*
X233142857Y-106773809D01*
X233047619Y-106726190D01*
X232857142Y-106678571D01*
X232761904Y-106630952D01*
X232714285Y-106583333D01*
X232666666Y-106488095D01*
X232666666Y-106392857D01*
X232714285Y-106297619D01*
X232761904Y-106250000D01*
X232857142Y-106202380D01*
X233095238Y-106202380D01*
X233238095Y-106250000D01*
X233571428Y-106202380D02*
X233809523Y-107202380D01*
X234000000Y-106488095D01*
X234190476Y-107202380D01*
X234428571Y-106202380D01*
X235333333Y-107202380D02*
X234761904Y-107202380D01*
X235047619Y-107202380D02*
X235047619Y-106202380D01*
X234952380Y-106345238D01*
X234857142Y-106440476D01*
X234761904Y-106488095D01*
X190108571Y-88333333D02*
X190108571Y-88666666D01*
X190632380Y-88666666D02*
X189632380Y-88666666D01*
X189632380Y-88190476D01*
X190108571Y-87476190D02*
X190156190Y-87333333D01*
X190203809Y-87285714D01*
X190299047Y-87238095D01*
X190441904Y-87238095D01*
X190537142Y-87285714D01*
X190584761Y-87333333D01*
X190632380Y-87428571D01*
X190632380Y-87809523D01*
X189632380Y-87809523D01*
X189632380Y-87476190D01*
X189680000Y-87380952D01*
X189727619Y-87333333D01*
X189822857Y-87285714D01*
X189918095Y-87285714D01*
X190013333Y-87333333D01*
X190060952Y-87380952D01*
X190108571Y-87476190D01*
X190108571Y-87809523D01*
X190632380Y-86285714D02*
X190632380Y-86857142D01*
X190632380Y-86571428D02*
X189632380Y-86571428D01*
X189775238Y-86666666D01*
X189870476Y-86761904D01*
X189918095Y-86857142D01*
X190418095Y-104452380D02*
X190418095Y-105261904D01*
X190465714Y-105357142D01*
X190513333Y-105404761D01*
X190608571Y-105452380D01*
X190799047Y-105452380D01*
X190894285Y-105404761D01*
X190941904Y-105357142D01*
X190989523Y-105261904D01*
X190989523Y-104452380D01*
X191989523Y-105452380D02*
X191418095Y-105452380D01*
X191703809Y-105452380D02*
X191703809Y-104452380D01*
X191608571Y-104595238D01*
X191513333Y-104690476D01*
X191418095Y-104738095D01*
X195632380Y-96142857D02*
X195156190Y-96476190D01*
X195632380Y-96714285D02*
X194632380Y-96714285D01*
X194632380Y-96333333D01*
X194680000Y-96238095D01*
X194727619Y-96190476D01*
X194822857Y-96142857D01*
X194965714Y-96142857D01*
X195060952Y-96190476D01*
X195108571Y-96238095D01*
X195156190Y-96333333D01*
X195156190Y-96714285D01*
X195632380Y-95190476D02*
X195632380Y-95761904D01*
X195632380Y-95476190D02*
X194632380Y-95476190D01*
X194775238Y-95571428D01*
X194870476Y-95666666D01*
X194918095Y-95761904D01*
X194632380Y-94571428D02*
X194632380Y-94476190D01*
X194680000Y-94380952D01*
X194727619Y-94333333D01*
X194822857Y-94285714D01*
X195013333Y-94238095D01*
X195251428Y-94238095D01*
X195441904Y-94285714D01*
X195537142Y-94333333D01*
X195584761Y-94380952D01*
X195632380Y-94476190D01*
X195632380Y-94571428D01*
X195584761Y-94666666D01*
X195537142Y-94714285D01*
X195441904Y-94761904D01*
X195251428Y-94809523D01*
X195013333Y-94809523D01*
X194822857Y-94761904D01*
X194727619Y-94714285D01*
X194680000Y-94666666D01*
X194632380Y-94571428D01*
X228132380Y-103916666D02*
X227656190Y-104250000D01*
X228132380Y-104488095D02*
X227132380Y-104488095D01*
X227132380Y-104107142D01*
X227180000Y-104011904D01*
X227227619Y-103964285D01*
X227322857Y-103916666D01*
X227465714Y-103916666D01*
X227560952Y-103964285D01*
X227608571Y-104011904D01*
X227656190Y-104107142D01*
X227656190Y-104488095D01*
X228132380Y-102964285D02*
X228132380Y-103535714D01*
X228132380Y-103250000D02*
X227132380Y-103250000D01*
X227275238Y-103345238D01*
X227370476Y-103440476D01*
X227418095Y-103535714D01*
X195632380Y-89142857D02*
X195156190Y-89476190D01*
X195632380Y-89714285D02*
X194632380Y-89714285D01*
X194632380Y-89333333D01*
X194680000Y-89238095D01*
X194727619Y-89190476D01*
X194822857Y-89142857D01*
X194965714Y-89142857D01*
X195060952Y-89190476D01*
X195108571Y-89238095D01*
X195156190Y-89333333D01*
X195156190Y-89714285D01*
X195632380Y-88190476D02*
X195632380Y-88761904D01*
X195632380Y-88476190D02*
X194632380Y-88476190D01*
X194775238Y-88571428D01*
X194870476Y-88666666D01*
X194918095Y-88761904D01*
X195632380Y-87238095D02*
X195632380Y-87809523D01*
X195632380Y-87523809D02*
X194632380Y-87523809D01*
X194775238Y-87619047D01*
X194870476Y-87714285D01*
X194918095Y-87809523D01*
X197632380Y-96142857D02*
X197156190Y-96476190D01*
X197632380Y-96714285D02*
X196632380Y-96714285D01*
X196632380Y-96333333D01*
X196680000Y-96238095D01*
X196727619Y-96190476D01*
X196822857Y-96142857D01*
X196965714Y-96142857D01*
X197060952Y-96190476D01*
X197108571Y-96238095D01*
X197156190Y-96333333D01*
X197156190Y-96714285D01*
X197632380Y-95190476D02*
X197632380Y-95761904D01*
X197632380Y-95476190D02*
X196632380Y-95476190D01*
X196775238Y-95571428D01*
X196870476Y-95666666D01*
X196918095Y-95761904D01*
X196632380Y-94857142D02*
X196632380Y-94238095D01*
X197013333Y-94571428D01*
X197013333Y-94428571D01*
X197060952Y-94333333D01*
X197108571Y-94285714D01*
X197203809Y-94238095D01*
X197441904Y-94238095D01*
X197537142Y-94285714D01*
X197584761Y-94333333D01*
X197632380Y-94428571D01*
X197632380Y-94714285D01*
X197584761Y-94809523D01*
X197537142Y-94857142D01*
X205537142Y-99952380D02*
X205203809Y-99476190D01*
X204965714Y-99952380D02*
X204965714Y-98952380D01*
X205346666Y-98952380D01*
X205441904Y-99000000D01*
X205489523Y-99047619D01*
X205537142Y-99142857D01*
X205537142Y-99285714D01*
X205489523Y-99380952D01*
X205441904Y-99428571D01*
X205346666Y-99476190D01*
X204965714Y-99476190D01*
X206489523Y-99952380D02*
X205918095Y-99952380D01*
X206203809Y-99952380D02*
X206203809Y-98952380D01*
X206108571Y-99095238D01*
X206013333Y-99190476D01*
X205918095Y-99238095D01*
X206870476Y-99047619D02*
X206918095Y-99000000D01*
X207013333Y-98952380D01*
X207251428Y-98952380D01*
X207346666Y-99000000D01*
X207394285Y-99047619D01*
X207441904Y-99142857D01*
X207441904Y-99238095D01*
X207394285Y-99380952D01*
X206822857Y-99952380D01*
X207441904Y-99952380D01*
X183596666Y-79702380D02*
X183596666Y-80416666D01*
X183549047Y-80559523D01*
X183453809Y-80654761D01*
X183310952Y-80702380D01*
X183215714Y-80702380D01*
X184596666Y-80702380D02*
X184025238Y-80702380D01*
X184310952Y-80702380D02*
X184310952Y-79702380D01*
X184215714Y-79845238D01*
X184120476Y-79940476D01*
X184025238Y-79988095D01*
X197013333Y-101107142D02*
X196965714Y-101154761D01*
X196822857Y-101202380D01*
X196727619Y-101202380D01*
X196584761Y-101154761D01*
X196489523Y-101059523D01*
X196441904Y-100964285D01*
X196394285Y-100773809D01*
X196394285Y-100630952D01*
X196441904Y-100440476D01*
X196489523Y-100345238D01*
X196584761Y-100250000D01*
X196727619Y-100202380D01*
X196822857Y-100202380D01*
X196965714Y-100250000D01*
X197013333Y-100297619D01*
X197394285Y-100297619D02*
X197441904Y-100250000D01*
X197537142Y-100202380D01*
X197775238Y-100202380D01*
X197870476Y-100250000D01*
X197918095Y-100297619D01*
X197965714Y-100392857D01*
X197965714Y-100488095D01*
X197918095Y-100630952D01*
X197346666Y-101202380D01*
X197965714Y-101202380D01*
X197537142Y-89166666D02*
X197584761Y-89214285D01*
X197632380Y-89357142D01*
X197632380Y-89452380D01*
X197584761Y-89595238D01*
X197489523Y-89690476D01*
X197394285Y-89738095D01*
X197203809Y-89785714D01*
X197060952Y-89785714D01*
X196870476Y-89738095D01*
X196775238Y-89690476D01*
X196680000Y-89595238D01*
X196632380Y-89452380D01*
X196632380Y-89357142D01*
X196680000Y-89214285D01*
X196727619Y-89166666D01*
X196632380Y-88309523D02*
X196632380Y-88500000D01*
X196680000Y-88595238D01*
X196727619Y-88642857D01*
X196870476Y-88738095D01*
X197060952Y-88785714D01*
X197441904Y-88785714D01*
X197537142Y-88738095D01*
X197584761Y-88690476D01*
X197632380Y-88595238D01*
X197632380Y-88404761D01*
X197584761Y-88309523D01*
X197537142Y-88261904D01*
X197441904Y-88214285D01*
X197203809Y-88214285D01*
X197108571Y-88261904D01*
X197060952Y-88309523D01*
X197013333Y-88404761D01*
X197013333Y-88595238D01*
X197060952Y-88690476D01*
X197108571Y-88738095D01*
X197203809Y-88785714D01*
X192513333Y-101107142D02*
X192465714Y-101154761D01*
X192322857Y-101202380D01*
X192227619Y-101202380D01*
X192084761Y-101154761D01*
X191989523Y-101059523D01*
X191941904Y-100964285D01*
X191894285Y-100773809D01*
X191894285Y-100630952D01*
X191941904Y-100440476D01*
X191989523Y-100345238D01*
X192084761Y-100250000D01*
X192227619Y-100202380D01*
X192322857Y-100202380D01*
X192465714Y-100250000D01*
X192513333Y-100297619D01*
X192846666Y-100202380D02*
X193465714Y-100202380D01*
X193132380Y-100583333D01*
X193275238Y-100583333D01*
X193370476Y-100630952D01*
X193418095Y-100678571D01*
X193465714Y-100773809D01*
X193465714Y-101011904D01*
X193418095Y-101107142D01*
X193370476Y-101154761D01*
X193275238Y-101202380D01*
X192989523Y-101202380D01*
X192894285Y-101154761D01*
X192846666Y-101107142D01*
X192537142Y-87166666D02*
X192584761Y-87214285D01*
X192632380Y-87357142D01*
X192632380Y-87452380D01*
X192584761Y-87595238D01*
X192489523Y-87690476D01*
X192394285Y-87738095D01*
X192203809Y-87785714D01*
X192060952Y-87785714D01*
X191870476Y-87738095D01*
X191775238Y-87690476D01*
X191680000Y-87595238D01*
X191632380Y-87452380D01*
X191632380Y-87357142D01*
X191680000Y-87214285D01*
X191727619Y-87166666D01*
X192632380Y-86214285D02*
X192632380Y-86785714D01*
X192632380Y-86500000D02*
X191632380Y-86500000D01*
X191775238Y-86595238D01*
X191870476Y-86690476D01*
X191918095Y-86785714D01*
X198037142Y-77166666D02*
X198084761Y-77214285D01*
X198132380Y-77357142D01*
X198132380Y-77452380D01*
X198084761Y-77595238D01*
X197989523Y-77690476D01*
X197894285Y-77738095D01*
X197703809Y-77785714D01*
X197560952Y-77785714D01*
X197370476Y-77738095D01*
X197275238Y-77690476D01*
X197180000Y-77595238D01*
X197132380Y-77452380D01*
X197132380Y-77357142D01*
X197180000Y-77214285D01*
X197227619Y-77166666D01*
X197132380Y-76261904D02*
X197132380Y-76738095D01*
X197608571Y-76785714D01*
X197560952Y-76738095D01*
X197513333Y-76642857D01*
X197513333Y-76404761D01*
X197560952Y-76309523D01*
X197608571Y-76261904D01*
X197703809Y-76214285D01*
X197941904Y-76214285D01*
X198037142Y-76261904D01*
X198084761Y-76309523D01*
X198132380Y-76404761D01*
X198132380Y-76642857D01*
X198084761Y-76738095D01*
X198037142Y-76785714D01*
X195537142Y-77166666D02*
X195584761Y-77214285D01*
X195632380Y-77357142D01*
X195632380Y-77452380D01*
X195584761Y-77595238D01*
X195489523Y-77690476D01*
X195394285Y-77738095D01*
X195203809Y-77785714D01*
X195060952Y-77785714D01*
X194870476Y-77738095D01*
X194775238Y-77690476D01*
X194680000Y-77595238D01*
X194632380Y-77452380D01*
X194632380Y-77357142D01*
X194680000Y-77214285D01*
X194727619Y-77166666D01*
X194965714Y-76309523D02*
X195632380Y-76309523D01*
X194584761Y-76547619D02*
X195299047Y-76785714D01*
X195299047Y-76166666D01*
%LPC*%
X212601428Y-116065476D02*
X212601428Y-114815476D01*
X213115714Y-114815476D01*
X213244285Y-114875000D01*
X213308571Y-114934523D01*
X213372857Y-115053571D01*
X213372857Y-115232142D01*
X213308571Y-115351190D01*
X213244285Y-115410714D01*
X213115714Y-115470238D01*
X212601428Y-115470238D01*
X214530000Y-116065476D02*
X214530000Y-115410714D01*
X214465714Y-115291666D01*
X214337142Y-115232142D01*
X214080000Y-115232142D01*
X213951428Y-115291666D01*
X214530000Y-116005952D02*
X214401428Y-116065476D01*
X214080000Y-116065476D01*
X213951428Y-116005952D01*
X213887142Y-115886904D01*
X213887142Y-115767857D01*
X213951428Y-115648809D01*
X214080000Y-115589285D01*
X214401428Y-115589285D01*
X214530000Y-115529761D01*
X215751428Y-116005952D02*
X215622857Y-116065476D01*
X215365714Y-116065476D01*
X215237142Y-116005952D01*
X215172857Y-115946428D01*
X215108571Y-115827380D01*
X215108571Y-115470238D01*
X215172857Y-115351190D01*
X215237142Y-115291666D01*
X215365714Y-115232142D01*
X215622857Y-115232142D01*
X215751428Y-115291666D01*
X216330000Y-116065476D02*
X216330000Y-114815476D01*
X216458571Y-115589285D02*
X216844285Y-116065476D01*
X216844285Y-115232142D02*
X216330000Y-115708333D01*
X217937142Y-116005952D02*
X217808571Y-116065476D01*
X217551428Y-116065476D01*
X217422857Y-116005952D01*
X217358571Y-115886904D01*
X217358571Y-115410714D01*
X217422857Y-115291666D01*
X217551428Y-115232142D01*
X217808571Y-115232142D01*
X217937142Y-115291666D01*
X218001428Y-115410714D01*
X218001428Y-115529761D01*
X217358571Y-115648809D01*
X218387142Y-115232142D02*
X218901428Y-115232142D01*
X218580000Y-114815476D02*
X218580000Y-115886904D01*
X218644285Y-116005952D01*
X218772857Y-116065476D01*
X218901428Y-116065476D01*
X219158571Y-114815476D02*
X219608571Y-116065476D01*
X220058571Y-114815476D01*
X220508571Y-116065476D02*
X220508571Y-115232142D01*
X220508571Y-114815476D02*
X220444285Y-114875000D01*
X220508571Y-114934523D01*
X220572857Y-114875000D01*
X220508571Y-114815476D01*
X220508571Y-114934523D01*
X221087142Y-116005952D02*
X221215714Y-116065476D01*
X221472857Y-116065476D01*
X221601428Y-116005952D01*
X221665714Y-115886904D01*
X221665714Y-115827380D01*
X221601428Y-115708333D01*
X221472857Y-115648809D01*
X221280000Y-115648809D01*
X221151428Y-115589285D01*
X221087142Y-115470238D01*
X221087142Y-115410714D01*
X221151428Y-115291666D01*
X221280000Y-115232142D01*
X221472857Y-115232142D01*
X221601428Y-115291666D01*
X224044285Y-116065476D02*
X223594285Y-115470238D01*
X223272857Y-116065476D02*
X223272857Y-114815476D01*
X223787142Y-114815476D01*
X223915714Y-114875000D01*
X223980000Y-114934523D01*
X224044285Y-115053571D01*
X224044285Y-115232142D01*
X223980000Y-115351190D01*
X223915714Y-115410714D01*
X223787142Y-115470238D01*
X223272857Y-115470238D01*
X224622857Y-115410714D02*
X225072857Y-115410714D01*
X225265714Y-116065476D02*
X224622857Y-116065476D01*
X224622857Y-114815476D01*
X225265714Y-114815476D01*
X225651428Y-114815476D02*
X226101428Y-116065476D01*
X226551428Y-114815476D01*
X227001428Y-115946428D02*
X227065714Y-116005952D01*
X227001428Y-116065476D01*
X226937142Y-116005952D01*
X227001428Y-115946428D01*
X227001428Y-116065476D01*
X227001428Y-115291666D02*
X227065714Y-115351190D01*
X227001428Y-115410714D01*
X226937142Y-115351190D01*
X227001428Y-115291666D01*
X227001428Y-115410714D01*
X228608571Y-115708333D02*
X229251428Y-115708333D01*
X228480000Y-116065476D02*
X228930000Y-114815476D01*
X229380000Y-116065476D01*
X230087142Y-114815476D02*
X230215714Y-114815476D01*
X230344285Y-114875000D01*
X230408571Y-114934523D01*
X230472857Y-115053571D01*
X230537142Y-115291666D01*
X230537142Y-115589285D01*
X230472857Y-115827380D01*
X230408571Y-115946428D01*
X230344285Y-116005952D01*
X230215714Y-116065476D01*
X230087142Y-116065476D01*
X229958571Y-116005952D01*
X229894285Y-115946428D01*
X229830000Y-115827380D01*
X229765714Y-115589285D01*
X229765714Y-115291666D01*
X229830000Y-115053571D01*
X229894285Y-114934523D01*
X229958571Y-114875000D01*
X230087142Y-114815476D01*
X231051428Y-114934523D02*
X231115714Y-114875000D01*
X231244285Y-114815476D01*
X231565714Y-114815476D01*
X231694285Y-114875000D01*
X231758571Y-114934523D01*
X231822857Y-115053571D01*
X231822857Y-115172619D01*
X231758571Y-115351190D01*
X230987142Y-116065476D01*
X231822857Y-116065476D01*
D13*
X188180000Y-79000000D02*
G75*
G03*
X188180000Y-79000000I-1000000J0D01*
G01*
X236680000Y-79000000D02*
G75*
G03*
X236680000Y-79000000I-1000000J0D01*
G01*
D14*
X184680000Y-101620000D03*
X184680000Y-99080000D03*
X184680000Y-96540000D03*
D15*
X184680000Y-94000000D03*
D16*
X209530000Y-91260000D03*
D17*
X217180000Y-82750000D03*
X217180000Y-84250000D03*
X217180000Y-85750000D03*
X217180000Y-87250000D03*
X217180000Y-88750000D03*
X217180000Y-90250000D03*
X217180000Y-91750000D03*
X217180000Y-93250000D03*
X217180000Y-94750000D03*
X199680000Y-94750000D03*
X199680000Y-93250000D03*
X199680000Y-91750000D03*
X199680000Y-90250000D03*
X199680000Y-88750000D03*
X199680000Y-87250000D03*
X199680000Y-85750000D03*
X199680000Y-84250000D03*
X199680000Y-82750000D03*
D18*
X227830000Y-84500000D03*
X227830000Y-85770000D03*
X227830000Y-87040000D03*
X227830000Y-88310000D03*
X227830000Y-89580000D03*
X227830000Y-90850000D03*
X227830000Y-92120000D03*
X227830000Y-93390000D03*
X222430000Y-93390000D03*
X222430000Y-92120000D03*
X222430000Y-90850000D03*
X222430000Y-89580000D03*
X222430000Y-88310000D03*
X222430000Y-87040000D03*
X222430000Y-85770000D03*
X222430000Y-84500000D03*
D19*
X205180000Y-105500000D03*
X212980000Y-105500000D03*
X205180000Y-110000000D03*
X212980000Y-110000000D03*
D20*
X237975000Y-104500000D03*
X237975000Y-109000000D03*
X230025000Y-109000000D03*
X230025000Y-104500000D03*
G36*
G01*
X189698250Y-84399000D02*
X190661750Y-84399000D01*
G75*
G02*
X190931000Y-84668250I0J-269250D01*
G01*
X190931000Y-85206750D01*
G75*
G02*
X190661750Y-85476000I-269250J0D01*
G01*
X189698250Y-85476000D01*
G75*
G02*
X189429000Y-85206750I0J269250D01*
G01*
X189429000Y-84668250D01*
G75*
G02*
X189698250Y-84399000I269250J0D01*
G01*
G37*
G36*
G01*
X189698250Y-82524000D02*
X190661750Y-82524000D01*
G75*
G02*
X190931000Y-82793250I0J-269250D01*
G01*
X190931000Y-83331750D01*
G75*
G02*
X190661750Y-83601000I-269250J0D01*
G01*
X189698250Y-83601000D01*
G75*
G02*
X189429000Y-83331750I0J269250D01*
G01*
X189429000Y-82793250D01*
G75*
G02*
X189698250Y-82524000I269250J0D01*
G01*
G37*
D21*
X198480000Y-105350000D03*
X193880000Y-105350000D03*
X196180000Y-105350000D03*
D22*
X196180000Y-111650000D03*
G36*
G01*
X195661750Y-92101000D02*
X194698250Y-92101000D01*
G75*
G02*
X194429000Y-91831750I0J269250D01*
G01*
X194429000Y-91293250D01*
G75*
G02*
X194698250Y-91024000I269250J0D01*
G01*
X195661750Y-91024000D01*
G75*
G02*
X195931000Y-91293250I0J-269250D01*
G01*
X195931000Y-91831750D01*
G75*
G02*
X195661750Y-92101000I-269250J0D01*
G01*
G37*
G36*
G01*
X195661750Y-93976000D02*
X194698250Y-93976000D01*
G75*
G02*
X194429000Y-93706750I0J269250D01*
G01*
X194429000Y-93168250D01*
G75*
G02*
X194698250Y-92899000I269250J0D01*
G01*
X195661750Y-92899000D01*
G75*
G02*
X195931000Y-93168250I0J-269250D01*
G01*
X195931000Y-93706750D01*
G75*
G02*
X195661750Y-93976000I-269250J0D01*
G01*
G37*
G36*
G01*
X228161750Y-106351000D02*
X227198250Y-106351000D01*
G75*
G02*
X226929000Y-106081750I0J269250D01*
G01*
X226929000Y-105543250D01*
G75*
G02*
X227198250Y-105274000I269250J0D01*
G01*
X228161750Y-105274000D01*
G75*
G02*
X228431000Y-105543250I0J-269250D01*
G01*
X228431000Y-106081750D01*
G75*
G02*
X228161750Y-106351000I-269250J0D01*
G01*
G37*
G36*
G01*
X228161750Y-108226000D02*
X227198250Y-108226000D01*
G75*
G02*
X226929000Y-107956750I0J269250D01*
G01*
X226929000Y-107418250D01*
G75*
G02*
X227198250Y-107149000I269250J0D01*
G01*
X228161750Y-107149000D01*
G75*
G02*
X228431000Y-107418250I0J-269250D01*
G01*
X228431000Y-107956750D01*
G75*
G02*
X228161750Y-108226000I-269250J0D01*
G01*
G37*
G36*
G01*
X195661750Y-85101000D02*
X194698250Y-85101000D01*
G75*
G02*
X194429000Y-84831750I0J269250D01*
G01*
X194429000Y-84293250D01*
G75*
G02*
X194698250Y-84024000I269250J0D01*
G01*
X195661750Y-84024000D01*
G75*
G02*
X195931000Y-84293250I0J-269250D01*
G01*
X195931000Y-84831750D01*
G75*
G02*
X195661750Y-85101000I-269250J0D01*
G01*
G37*
G36*
G01*
X195661750Y-86976000D02*
X194698250Y-86976000D01*
G75*
G02*
X194429000Y-86706750I0J269250D01*
G01*
X194429000Y-86168250D01*
G75*
G02*
X194698250Y-85899000I269250J0D01*
G01*
X195661750Y-85899000D01*
G75*
G02*
X195931000Y-86168250I0J-269250D01*
G01*
X195931000Y-86706750D01*
G75*
G02*
X195661750Y-86976000I-269250J0D01*
G01*
G37*
G36*
G01*
X196698250Y-92899000D02*
X197661750Y-92899000D01*
G75*
G02*
X197931000Y-93168250I0J-269250D01*
G01*
X197931000Y-93706750D01*
G75*
G02*
X197661750Y-93976000I-269250J0D01*
G01*
X196698250Y-93976000D01*
G75*
G02*
X196429000Y-93706750I0J269250D01*
G01*
X196429000Y-93168250D01*
G75*
G02*
X196698250Y-92899000I269250J0D01*
G01*
G37*
G36*
G01*
X196698250Y-91024000D02*
X197661750Y-91024000D01*
G75*
G02*
X197931000Y-91293250I0J-269250D01*
G01*
X197931000Y-91831750D01*
G75*
G02*
X197661750Y-92101000I-269250J0D01*
G01*
X196698250Y-92101000D01*
G75*
G02*
X196429000Y-91831750I0J269250D01*
G01*
X196429000Y-91293250D01*
G75*
G02*
X196698250Y-91024000I269250J0D01*
G01*
G37*
G36*
G01*
X205731000Y-100648250D02*
X205731000Y-101611750D01*
G75*
G02*
X205461750Y-101881000I-269250J0D01*
G01*
X204923250Y-101881000D01*
G75*
G02*
X204654000Y-101611750I0J269250D01*
G01*
X204654000Y-100648250D01*
G75*
G02*
X204923250Y-100379000I269250J0D01*
G01*
X205461750Y-100379000D01*
G75*
G02*
X205731000Y-100648250I0J-269250D01*
G01*
G37*
G36*
G01*
X207606000Y-100648250D02*
X207606000Y-101611750D01*
G75*
G02*
X207336750Y-101881000I-269250J0D01*
G01*
X206798250Y-101881000D01*
G75*
G02*
X206529000Y-101611750I0J269250D01*
G01*
X206529000Y-100648250D01*
G75*
G02*
X206798250Y-100379000I269250J0D01*
G01*
X207336750Y-100379000D01*
G75*
G02*
X207606000Y-100648250I0J-269250D01*
G01*
G37*
D23*
X183642500Y-82600000D03*
X183642500Y-88400000D03*
D24*
X183642500Y-89000000D03*
X183642500Y-82000000D03*
D25*
X183642500Y-84500000D03*
D26*
X186342500Y-88000000D03*
D27*
X186342500Y-85500000D03*
X186342500Y-86150000D03*
X186342500Y-86800000D03*
X186342500Y-84200000D03*
X186342500Y-84850000D03*
D26*
X186342500Y-83000000D03*
D25*
X183642500Y-86500000D03*
G36*
G01*
X197641500Y-102981750D02*
X197641500Y-102018250D01*
G75*
G02*
X197910750Y-101749000I269250J0D01*
G01*
X198449250Y-101749000D01*
G75*
G02*
X198718500Y-102018250I0J-269250D01*
G01*
X198718500Y-102981750D01*
G75*
G02*
X198449250Y-103251000I-269250J0D01*
G01*
X197910750Y-103251000D01*
G75*
G02*
X197641500Y-102981750I0J269250D01*
G01*
G37*
G36*
G01*
X195766500Y-102981750D02*
X195766500Y-102018250D01*
G75*
G02*
X196035750Y-101749000I269250J0D01*
G01*
X196574250Y-101749000D01*
G75*
G02*
X196843500Y-102018250I0J-269250D01*
G01*
X196843500Y-102981750D01*
G75*
G02*
X196574250Y-103251000I-269250J0D01*
G01*
X196035750Y-103251000D01*
G75*
G02*
X195766500Y-102981750I0J269250D01*
G01*
G37*
G36*
G01*
X196698250Y-85899000D02*
X197661750Y-85899000D01*
G75*
G02*
X197931000Y-86168250I0J-269250D01*
G01*
X197931000Y-86706750D01*
G75*
G02*
X197661750Y-86976000I-269250J0D01*
G01*
X196698250Y-86976000D01*
G75*
G02*
X196429000Y-86706750I0J269250D01*
G01*
X196429000Y-86168250D01*
G75*
G02*
X196698250Y-85899000I269250J0D01*
G01*
G37*
G36*
G01*
X196698250Y-84024000D02*
X197661750Y-84024000D01*
G75*
G02*
X197931000Y-84293250I0J-269250D01*
G01*
X197931000Y-84831750D01*
G75*
G02*
X197661750Y-85101000I-269250J0D01*
G01*
X196698250Y-85101000D01*
G75*
G02*
X196429000Y-84831750I0J269250D01*
G01*
X196429000Y-84293250D01*
G75*
G02*
X196698250Y-84024000I269250J0D01*
G01*
G37*
G36*
G01*
X192281000Y-102018250D02*
X192281000Y-102981750D01*
G75*
G02*
X192011750Y-103251000I-269250J0D01*
G01*
X191473250Y-103251000D01*
G75*
G02*
X191204000Y-102981750I0J269250D01*
G01*
X191204000Y-102018250D01*
G75*
G02*
X191473250Y-101749000I269250J0D01*
G01*
X192011750Y-101749000D01*
G75*
G02*
X192281000Y-102018250I0J-269250D01*
G01*
G37*
G36*
G01*
X194156000Y-102018250D02*
X194156000Y-102981750D01*
G75*
G02*
X193886750Y-103251000I-269250J0D01*
G01*
X193348250Y-103251000D01*
G75*
G02*
X193079000Y-102981750I0J269250D01*
G01*
X193079000Y-102018250D01*
G75*
G02*
X193348250Y-101749000I269250J0D01*
G01*
X193886750Y-101749000D01*
G75*
G02*
X194156000Y-102018250I0J-269250D01*
G01*
G37*
G36*
G01*
X191698250Y-84399000D02*
X192661750Y-84399000D01*
G75*
G02*
X192931000Y-84668250I0J-269250D01*
G01*
X192931000Y-85206750D01*
G75*
G02*
X192661750Y-85476000I-269250J0D01*
G01*
X191698250Y-85476000D01*
G75*
G02*
X191429000Y-85206750I0J269250D01*
G01*
X191429000Y-84668250D01*
G75*
G02*
X191698250Y-84399000I269250J0D01*
G01*
G37*
G36*
G01*
X191698250Y-82524000D02*
X192661750Y-82524000D01*
G75*
G02*
X192931000Y-82793250I0J-269250D01*
G01*
X192931000Y-83331750D01*
G75*
G02*
X192661750Y-83601000I-269250J0D01*
G01*
X191698250Y-83601000D01*
G75*
G02*
X191429000Y-83331750I0J269250D01*
G01*
X191429000Y-82793250D01*
G75*
G02*
X191698250Y-82524000I269250J0D01*
G01*
G37*
G36*
G01*
X198161750Y-79351000D02*
X197198250Y-79351000D01*
G75*
G02*
X196929000Y-79081750I0J269250D01*
G01*
X196929000Y-78543250D01*
G75*
G02*
X197198250Y-78274000I269250J0D01*
G01*
X198161750Y-78274000D01*
G75*
G02*
X198431000Y-78543250I0J-269250D01*
G01*
X198431000Y-79081750D01*
G75*
G02*
X198161750Y-79351000I-269250J0D01*
G01*
G37*
G36*
G01*
X198161750Y-81226000D02*
X197198250Y-81226000D01*
G75*
G02*
X196929000Y-80956750I0J269250D01*
G01*
X196929000Y-80418250D01*
G75*
G02*
X197198250Y-80149000I269250J0D01*
G01*
X198161750Y-80149000D01*
G75*
G02*
X198431000Y-80418250I0J-269250D01*
G01*
X198431000Y-80956750D01*
G75*
G02*
X198161750Y-81226000I-269250J0D01*
G01*
G37*
G36*
G01*
X195661750Y-79351000D02*
X194698250Y-79351000D01*
G75*
G02*
X194429000Y-79081750I0J269250D01*
G01*
X194429000Y-78543250D01*
G75*
G02*
X194698250Y-78274000I269250J0D01*
G01*
X195661750Y-78274000D01*
G75*
G02*
X195931000Y-78543250I0J-269250D01*
G01*
X195931000Y-79081750D01*
G75*
G02*
X195661750Y-79351000I-269250J0D01*
G01*
G37*
G36*
G01*
X195661750Y-81226000D02*
X194698250Y-81226000D01*
G75*
G02*
X194429000Y-80956750I0J269250D01*
G01*
X194429000Y-80418250D01*
G75*
G02*
X194698250Y-80149000I269250J0D01*
G01*
X195661750Y-80149000D01*
G75*
G02*
X195931000Y-80418250I0J-269250D01*
G01*
X195931000Y-80956750D01*
G75*
G02*
X195661750Y-81226000I-269250J0D01*
G01*
G37*
G36*
G01*
X231909000Y-101981750D02*
X231909000Y-101018250D01*
G75*
G02*
X232178250Y-100749000I269250J0D01*
G01*
X232716750Y-100749000D01*
G75*
G02*
X232986000Y-101018250I0J-269250D01*
G01*
X232986000Y-101981750D01*
G75*
G02*
X232716750Y-102251000I-269250J0D01*
G01*
X232178250Y-102251000D01*
G75*
G02*
X231909000Y-101981750I0J269250D01*
G01*
G37*
G36*
G01*
X230034000Y-101981750D02*
X230034000Y-101018250D01*
G75*
G02*
X230303250Y-100749000I269250J0D01*
G01*
X230841750Y-100749000D01*
G75*
G02*
X231111000Y-101018250I0J-269250D01*
G01*
X231111000Y-101981750D01*
G75*
G02*
X230841750Y-102251000I-269250J0D01*
G01*
X230303250Y-102251000D01*
G75*
G02*
X230034000Y-101981750I0J269250D01*
G01*
G37*
G36*
G01*
X231909000Y-99481750D02*
X231909000Y-98518250D01*
G75*
G02*
X232178250Y-98249000I269250J0D01*
G01*
X232716750Y-98249000D01*
G75*
G02*
X232986000Y-98518250I0J-269250D01*
G01*
X232986000Y-99481750D01*
G75*
G02*
X232716750Y-99751000I-269250J0D01*
G01*
X232178250Y-99751000D01*
G75*
G02*
X231909000Y-99481750I0J269250D01*
G01*
G37*
G36*
G01*
X230034000Y-99481750D02*
X230034000Y-98518250D01*
G75*
G02*
X230303250Y-98249000I269250J0D01*
G01*
X230841750Y-98249000D01*
G75*
G02*
X231111000Y-98518250I0J-269250D01*
G01*
X231111000Y-99481750D01*
G75*
G02*
X230841750Y-99751000I-269250J0D01*
G01*
X230303250Y-99751000D01*
G75*
G02*
X230034000Y-99481750I0J269250D01*
G01*
G37*
G36*
G01*
X231909000Y-96981750D02*
X231909000Y-96018250D01*
G75*
G02*
X232178250Y-95749000I269250J0D01*
G01*
X232716750Y-95749000D01*
G75*
G02*
X232986000Y-96018250I0J-269250D01*
G01*
X232986000Y-96981750D01*
G75*
G02*
X232716750Y-97251000I-269250J0D01*
G01*
X232178250Y-97251000D01*
G75*
G02*
X231909000Y-96981750I0J269250D01*
G01*
G37*
G36*
G01*
X230034000Y-96981750D02*
X230034000Y-96018250D01*
G75*
G02*
X230303250Y-95749000I269250J0D01*
G01*
X230841750Y-95749000D01*
G75*
G02*
X231111000Y-96018250I0J-269250D01*
G01*
X231111000Y-96981750D01*
G75*
G02*
X230841750Y-97251000I-269250J0D01*
G01*
X230303250Y-97251000D01*
G75*
G02*
X230034000Y-96981750I0J269250D01*
G01*
G37*
G36*
G01*
X231909000Y-94481750D02*
X231909000Y-93518250D01*
G75*
G02*
X232178250Y-93249000I269250J0D01*
G01*
X232716750Y-93249000D01*
G75*
G02*
X232986000Y-93518250I0J-269250D01*
G01*
X232986000Y-94481750D01*
G75*
G02*
X232716750Y-94751000I-269250J0D01*
G01*
X232178250Y-94751000D01*
G75*
G02*
X231909000Y-94481750I0J269250D01*
G01*
G37*
G36*
G01*
X230034000Y-94481750D02*
X230034000Y-93518250D01*
G75*
G02*
X230303250Y-93249000I269250J0D01*
G01*
X230841750Y-93249000D01*
G75*
G02*
X231111000Y-93518250I0J-269250D01*
G01*
X231111000Y-94481750D01*
G75*
G02*
X230841750Y-94751000I-269250J0D01*
G01*
X230303250Y-94751000D01*
G75*
G02*
X230034000Y-94481750I0J269250D01*
G01*
G37*
G36*
G01*
X231909000Y-91981750D02*
X231909000Y-91018250D01*
G75*
G02*
X232178250Y-90749000I269250J0D01*
G01*
X232716750Y-90749000D01*
G75*
G02*
X232986000Y-91018250I0J-269250D01*
G01*
X232986000Y-91981750D01*
G75*
G02*
X232716750Y-92251000I-269250J0D01*
G01*
X232178250Y-92251000D01*
G75*
G02*
X231909000Y-91981750I0J269250D01*
G01*
G37*
G36*
G01*
X230034000Y-91981750D02*
X230034000Y-91018250D01*
G75*
G02*
X230303250Y-90749000I269250J0D01*
G01*
X230841750Y-90749000D01*
G75*
G02*
X231111000Y-91018250I0J-269250D01*
G01*
X231111000Y-91981750D01*
G75*
G02*
X230841750Y-92251000I-269250J0D01*
G01*
X230303250Y-92251000D01*
G75*
G02*
X230034000Y-91981750I0J269250D01*
G01*
G37*
G36*
G01*
X231909000Y-89481750D02*
X231909000Y-88518250D01*
G75*
G02*
X232178250Y-88249000I269250J0D01*
G01*
X232716750Y-88249000D01*
G75*
G02*
X232986000Y-88518250I0J-269250D01*
G01*
X232986000Y-89481750D01*
G75*
G02*
X232716750Y-89751000I-269250J0D01*
G01*
X232178250Y-89751000D01*
G75*
G02*
X231909000Y-89481750I0J269250D01*
G01*
G37*
G36*
G01*
X230034000Y-89481750D02*
X230034000Y-88518250D01*
G75*
G02*
X230303250Y-88249000I269250J0D01*
G01*
X230841750Y-88249000D01*
G75*
G02*
X231111000Y-88518250I0J-269250D01*
G01*
X231111000Y-89481750D01*
G75*
G02*
X230841750Y-89751000I-269250J0D01*
G01*
X230303250Y-89751000D01*
G75*
G02*
X230034000Y-89481750I0J269250D01*
G01*
G37*
G36*
G01*
X231909000Y-86981750D02*
X231909000Y-86018250D01*
G75*
G02*
X232178250Y-85749000I269250J0D01*
G01*
X232716750Y-85749000D01*
G75*
G02*
X232986000Y-86018250I0J-269250D01*
G01*
X232986000Y-86981750D01*
G75*
G02*
X232716750Y-87251000I-269250J0D01*
G01*
X232178250Y-87251000D01*
G75*
G02*
X231909000Y-86981750I0J269250D01*
G01*
G37*
G36*
G01*
X230034000Y-86981750D02*
X230034000Y-86018250D01*
G75*
G02*
X230303250Y-85749000I269250J0D01*
G01*
X230841750Y-85749000D01*
G75*
G02*
X231111000Y-86018250I0J-269250D01*
G01*
X231111000Y-86981750D01*
G75*
G02*
X230841750Y-87251000I-269250J0D01*
G01*
X230303250Y-87251000D01*
G75*
G02*
X230034000Y-86981750I0J269250D01*
G01*
G37*
G36*
G01*
X231909000Y-84481750D02*
X231909000Y-83518250D01*
G75*
G02*
X232178250Y-83249000I269250J0D01*
G01*
X232716750Y-83249000D01*
G75*
G02*
X232986000Y-83518250I0J-269250D01*
G01*
X232986000Y-84481750D01*
G75*
G02*
X232716750Y-84751000I-269250J0D01*
G01*
X232178250Y-84751000D01*
G75*
G02*
X231909000Y-84481750I0J269250D01*
G01*
G37*
G36*
G01*
X230034000Y-84481750D02*
X230034000Y-83518250D01*
G75*
G02*
X230303250Y-83249000I269250J0D01*
G01*
X230841750Y-83249000D01*
G75*
G02*
X231111000Y-83518250I0J-269250D01*
G01*
X231111000Y-84481750D01*
G75*
G02*
X230841750Y-84751000I-269250J0D01*
G01*
X230303250Y-84751000D01*
G75*
G02*
X230034000Y-84481750I0J269250D01*
G01*
G37*
G36*
G01*
X235431000Y-83568615D02*
X235431000Y-84431385D01*
G75*
G02*
X235161385Y-84701000I-269615J0D01*
G01*
X234273615Y-84701000D01*
G75*
G02*
X234004000Y-84431385I0J269615D01*
G01*
X234004000Y-83568615D01*
G75*
G02*
X234273615Y-83299000I269615J0D01*
G01*
X235161385Y-83299000D01*
G75*
G02*
X235431000Y-83568615I0J-269615D01*
G01*
G37*
G36*
G01*
X237356000Y-83568615D02*
X237356000Y-84431385D01*
G75*
G02*
X237086385Y-84701000I-269615J0D01*
G01*
X236198615Y-84701000D01*
G75*
G02*
X235929000Y-84431385I0J269615D01*
G01*
X235929000Y-83568615D01*
G75*
G02*
X236198615Y-83299000I269615J0D01*
G01*
X237086385Y-83299000D01*
G75*
G02*
X237356000Y-83568615I0J-269615D01*
G01*
G37*
G36*
G01*
X235431000Y-101068615D02*
X235431000Y-101931385D01*
G75*
G02*
X235161385Y-102201000I-269615J0D01*
G01*
X234273615Y-102201000D01*
G75*
G02*
X234004000Y-101931385I0J269615D01*
G01*
X234004000Y-101068615D01*
G75*
G02*
X234273615Y-100799000I269615J0D01*
G01*
X235161385Y-100799000D01*
G75*
G02*
X235431000Y-101068615I0J-269615D01*
G01*
G37*
G36*
G01*
X237356000Y-101068615D02*
X237356000Y-101931385D01*
G75*
G02*
X237086385Y-102201000I-269615J0D01*
G01*
X236198615Y-102201000D01*
G75*
G02*
X235929000Y-101931385I0J269615D01*
G01*
X235929000Y-101068615D01*
G75*
G02*
X236198615Y-100799000I269615J0D01*
G01*
X237086385Y-100799000D01*
G75*
G02*
X237356000Y-101068615I0J-269615D01*
G01*
G37*
G36*
G01*
X235393500Y-98568615D02*
X235393500Y-99431385D01*
G75*
G02*
X235123885Y-99701000I-269615J0D01*
G01*
X234236115Y-99701000D01*
G75*
G02*
X233966500Y-99431385I0J269615D01*
G01*
X233966500Y-98568615D01*
G75*
G02*
X234236115Y-98299000I269615J0D01*
G01*
X235123885Y-98299000D01*
G75*
G02*
X235393500Y-98568615I0J-269615D01*
G01*
G37*
G36*
G01*
X237318500Y-98568615D02*
X237318500Y-99431385D01*
G75*
G02*
X237048885Y-99701000I-269615J0D01*
G01*
X236161115Y-99701000D01*
G75*
G02*
X235891500Y-99431385I0J269615D01*
G01*
X235891500Y-98568615D01*
G75*
G02*
X236161115Y-98299000I269615J0D01*
G01*
X237048885Y-98299000D01*
G75*
G02*
X237318500Y-98568615I0J-269615D01*
G01*
G37*
G36*
G01*
X235393500Y-96068615D02*
X235393500Y-96931385D01*
G75*
G02*
X235123885Y-97201000I-269615J0D01*
G01*
X234236115Y-97201000D01*
G75*
G02*
X233966500Y-96931385I0J269615D01*
G01*
X233966500Y-96068615D01*
G75*
G02*
X234236115Y-95799000I269615J0D01*
G01*
X235123885Y-95799000D01*
G75*
G02*
X235393500Y-96068615I0J-269615D01*
G01*
G37*
G36*
G01*
X237318500Y-96068615D02*
X237318500Y-96931385D01*
G75*
G02*
X237048885Y-97201000I-269615J0D01*
G01*
X236161115Y-97201000D01*
G75*
G02*
X235891500Y-96931385I0J269615D01*
G01*
X235891500Y-96068615D01*
G75*
G02*
X236161115Y-95799000I269615J0D01*
G01*
X237048885Y-95799000D01*
G75*
G02*
X237318500Y-96068615I0J-269615D01*
G01*
G37*
G36*
G01*
X235393500Y-93568615D02*
X235393500Y-94431385D01*
G75*
G02*
X235123885Y-94701000I-269615J0D01*
G01*
X234236115Y-94701000D01*
G75*
G02*
X233966500Y-94431385I0J269615D01*
G01*
X233966500Y-93568615D01*
G75*
G02*
X234236115Y-93299000I269615J0D01*
G01*
X235123885Y-93299000D01*
G75*
G02*
X235393500Y-93568615I0J-269615D01*
G01*
G37*
G36*
G01*
X237318500Y-93568615D02*
X237318500Y-94431385D01*
G75*
G02*
X237048885Y-94701000I-269615J0D01*
G01*
X236161115Y-94701000D01*
G75*
G02*
X235891500Y-94431385I0J269615D01*
G01*
X235891500Y-93568615D01*
G75*
G02*
X236161115Y-93299000I269615J0D01*
G01*
X237048885Y-93299000D01*
G75*
G02*
X237318500Y-93568615I0J-269615D01*
G01*
G37*
G36*
G01*
X235393500Y-91068615D02*
X235393500Y-91931385D01*
G75*
G02*
X235123885Y-92201000I-269615J0D01*
G01*
X234236115Y-92201000D01*
G75*
G02*
X233966500Y-91931385I0J269615D01*
G01*
X233966500Y-91068615D01*
G75*
G02*
X234236115Y-90799000I269615J0D01*
G01*
X235123885Y-90799000D01*
G75*
G02*
X235393500Y-91068615I0J-269615D01*
G01*
G37*
G36*
G01*
X237318500Y-91068615D02*
X237318500Y-91931385D01*
G75*
G02*
X237048885Y-92201000I-269615J0D01*
G01*
X236161115Y-92201000D01*
G75*
G02*
X235891500Y-91931385I0J269615D01*
G01*
X235891500Y-91068615D01*
G75*
G02*
X236161115Y-90799000I269615J0D01*
G01*
X237048885Y-90799000D01*
G75*
G02*
X237318500Y-91068615I0J-269615D01*
G01*
G37*
G36*
G01*
X235431000Y-88568615D02*
X235431000Y-89431385D01*
G75*
G02*
X235161385Y-89701000I-269615J0D01*
G01*
X234273615Y-89701000D01*
G75*
G02*
X234004000Y-89431385I0J269615D01*
G01*
X234004000Y-88568615D01*
G75*
G02*
X234273615Y-88299000I269615J0D01*
G01*
X235161385Y-88299000D01*
G75*
G02*
X235431000Y-88568615I0J-269615D01*
G01*
G37*
G36*
G01*
X237356000Y-88568615D02*
X237356000Y-89431385D01*
G75*
G02*
X237086385Y-89701000I-269615J0D01*
G01*
X236198615Y-89701000D01*
G75*
G02*
X235929000Y-89431385I0J269615D01*
G01*
X235929000Y-88568615D01*
G75*
G02*
X236198615Y-88299000I269615J0D01*
G01*
X237086385Y-88299000D01*
G75*
G02*
X237356000Y-88568615I0J-269615D01*
G01*
G37*
G36*
G01*
X235431000Y-86068615D02*
X235431000Y-86931385D01*
G75*
G02*
X235161385Y-87201000I-269615J0D01*
G01*
X234273615Y-87201000D01*
G75*
G02*
X234004000Y-86931385I0J269615D01*
G01*
X234004000Y-86068615D01*
G75*
G02*
X234273615Y-85799000I269615J0D01*
G01*
X235161385Y-85799000D01*
G75*
G02*
X235431000Y-86068615I0J-269615D01*
G01*
G37*
G36*
G01*
X237356000Y-86068615D02*
X237356000Y-86931385D01*
G75*
G02*
X237086385Y-87201000I-269615J0D01*
G01*
X236198615Y-87201000D01*
G75*
G02*
X235929000Y-86931385I0J269615D01*
G01*
X235929000Y-86068615D01*
G75*
G02*
X236198615Y-85799000I269615J0D01*
G01*
X237086385Y-85799000D01*
G75*
G02*
X237356000Y-86068615I0J-269615D01*
G01*
G37*
M02*
